<svg width="24" height="24" viewBox="0 0 24 24" fill="none" xmlns="http://www.w3.org/2000/svg">
<path d="M18.219 1.35334C17.8517 0.882221 17.139 0.882221 16.7717 1.35334L12.1861 7.23521C11.7167 7.83738 12.146 8.71573 12.9098 8.71573H15.7054L15.8574 21.4137C15.868 22.2999 16.5953 23.01 17.4819 22.9999C18.3685 22.9898 19.0786 22.2632 19.068 21.3771L18.9164 8.71573H22.0809C22.8447 8.71573 23.274 7.83738 22.8046 7.23522L18.219 1.35334Z" fill="#9D87F1"/>
<path d="M11.5427 13.9987C11.5427 13.1125 10.824 12.394 9.93732 12.394C9.05067 12.394 8.3319 13.1125 8.3319 13.9987V21.392C8.3319 22.2782 9.05067 22.9967 9.93732 22.9967C10.824 22.9967 11.5427 22.2782 11.5427 21.392V13.9987Z" fill="#9D87F1"/>
<path d="M4.21084 18.8591C4.21084 17.9729 3.49207 17.2545 2.60542 17.2545C1.71877 17.2545 1 17.9729 1 18.8591V21.3917C1 22.2779 1.71877 22.9963 2.60542 22.9963C3.49207 22.9963 4.21084 22.2779 4.21084 21.3917V18.8591Z" fill="#9D87F1"/>
</svg>
