<svg width="17" height="17" viewBox="0 0 17 17" fill="none" xmlns="http://www.w3.org/2000/svg">
<path d="M7.89877 9.6862H9.09862L9.46358 4.54036H7.53382L7.89877 9.6862ZM8.4987 0.582031C6.93294 0.582031 5.40232 1.04634 4.10044 1.91623C2.79855 2.78613 1.78385 4.02254 1.18466 5.46912C0.58546 6.91568 0.428686 8.50749 0.734151 10.0432C1.03962 11.5788 1.79361 12.9894 2.90078 14.0967C4.00794 15.2038 5.41855 15.9578 6.95424 16.2633C8.48991 16.5687 10.0817 16.412 11.5282 15.8127C12.9749 15.2135 14.2113 14.1989 15.0812 12.897C15.9511 11.5951 16.4154 10.0645 16.4154 8.4987C16.4154 7.45908 16.2106 6.42961 15.8127 5.46912C15.4149 4.50863 14.8318 3.6359 14.0967 2.90077C13.3615 2.16564 12.4888 1.5825 11.5282 1.18465C10.5678 0.786804 9.53832 0.582031 8.4987 0.582031ZM8.4987 14.832C7.24612 14.832 6.02161 14.4606 4.98009 13.7647C3.93858 13.0688 3.12682 12.0796 2.64747 10.9224C2.16811 9.76513 2.04269 8.49165 2.28706 7.26314C2.53143 6.03458 3.13463 4.90609 4.02036 4.02036C4.90609 3.13463 6.03458 2.53143 7.26314 2.28706C8.49165 2.04269 9.76513 2.1681 10.9224 2.64746C12.0796 3.12682 13.0688 3.93857 13.7647 4.98009C14.4606 6.0216 14.832 7.24604 14.832 8.4987C14.8301 10.1778 14.1623 11.7876 12.9749 12.9749C11.7876 14.1623 10.1778 14.8301 8.4987 14.832ZM8.4987 10.7549C8.31867 10.7549 8.14261 10.8083 7.9929 10.9084C7.8432 11.0084 7.72651 11.1506 7.65755 11.317C7.58868 11.4833 7.57063 11.6664 7.60578 11.843C7.64093 12.0196 7.72762 12.1818 7.85492 12.3091C7.98229 12.4364 8.14451 12.5231 8.32113 12.5583C8.49767 12.5934 8.68078 12.5754 8.84711 12.5065C9.01344 12.4376 9.15562 12.3209 9.25569 12.1712C9.35576 12.0215 9.40911 11.8454 9.40911 11.6654C9.40911 11.4239 9.31317 11.1923 9.14248 11.0216C8.97172 10.8509 8.74016 10.7549 8.4987 10.7549Z" fill="#9D87F1"/>
</svg>
