<svg width="18" height="19" viewBox="0 0 18 19" fill="none" xmlns="http://www.w3.org/2000/svg">
<path d="M3.3785 4.72215L4.05 4.05045C4.90743 3.19352 5.97263 2.57386 7.1414 2.25209C8.3101 1.93032 9.5424 1.91748 10.7176 2.21481C11.8928 2.51214 12.9707 3.10945 13.8458 3.94832C14.7209 4.78719 15.3633 5.83886 15.71 7.00045H17.77C17.4133 5.43218 16.6426 3.98822 15.5383 2.81896C14.434 1.64969 13.0364 0.79788 11.491 0.35223C9.9457 -0.0934196 8.3091 -0.11661 6.75175 0.28508C5.19439 0.68677 3.77321 1.49864 2.6362 2.63615L1.9642 3.30785L0 1.34355V7.00045H5.6569L3.3785 4.72215ZM12.3431 11.0005L14.5731 13.2305C14.3817 13.4842 14.1734 13.7248 13.9496 13.9505C13.0922 14.8073 12.027 15.4269 10.8583 15.7486C9.6896 16.0703 8.4574 16.0831 7.2823 15.7858C6.10712 15.4885 5.02928 14.8912 4.1542 14.0524C3.27913 13.2136 2.63678 12.162 2.29 11.0005H0.23C0.57886 12.6645 1.39638 14.194 2.58612 15.4086C3.77586 16.6231 5.28818 17.4721 6.94464 17.8552C8.6011 18.2384 10.3326 18.1397 11.9348 17.5709C13.5371 17.0022 14.9432 15.987 15.9873 14.6452L18 16.6574V11.0005H12.3431Z" fill="white"/>
</svg>
