<?xml version="1.0" encoding="iso-8859-1"?>
<!-- Generator: Adobe Illustrator 19.0.0, SVG Export Plug-In . SVG Version: 6.00 Build 0)  -->
<svg version="1.1" id="Capa_1" xmlns="http://www.w3.org/2000/svg" xmlns:xlink="http://www.w3.org/1999/xlink" x="0px" y="0px"
	 viewBox="0 0 384 384" style="enable-background:new 0 0 384 384;" xml:space="preserve">
<path style="fill:#303C42;" d="M373.333,0H138.667C132.771,0,128,4.771,128,10.667s4.771,10.667,10.667,10.667h208.917
	L3.125,365.792c-4.167,4.167-4.167,10.917,0,15.083C5.208,382.958,7.938,384,10.667,384s5.458-1.042,7.542-3.125L362.667,36.417
	v208.917c0,5.896,4.771,10.667,10.667,10.667S384,251.229,384,245.333V10.667C384,4.771,379.229,0,373.333,0z"/>
<linearGradient id="SVGID_1_" gradientUnits="userSpaceOnUse" x1="-104.4657" y1="573.1717" x2="-90.3105" y2="566.5706" gradientTransform="matrix(21.3333 0 0 -21.3333 2297.6667 12362.334)">
	<stop  offset="0" style="stop-color:#FFFFFF;stop-opacity:0.2"/>
	<stop  offset="1" style="stop-color:#FFFFFF;stop-opacity:0"/>
</linearGradient>
<path style="fill:url(#SVGID_1_);" d="M373.333,0H138.667C132.771,0,128,4.771,128,10.667s4.771,10.667,10.667,10.667h208.917
	L3.125,365.792c-4.167,4.167-4.167,10.917,0,15.083C5.208,382.958,7.938,384,10.667,384s5.458-1.042,7.542-3.125L362.667,36.417
	v208.917c0,5.896,4.771,10.667,10.667,10.667S384,251.229,384,245.333V10.667C384,4.771,379.229,0,373.333,0z"/>
<g>
</g>
<g>
</g>
<g>
</g>
<g>
</g>
<g>
</g>
<g>
</g>
<g>
</g>
<g>
</g>
<g>
</g>
<g>
</g>
<g>
</g>
<g>
</g>
<g>
</g>
<g>
</g>
<g>
</g>
</svg>
