<svg width="20" height="20" viewBox="0 0 20 20" fill="none" xmlns="http://www.w3.org/2000/svg">
<path d="M9.36687 11.2484H10.6299L11.014 5.83171H8.98271L9.36687 11.2484ZM9.99837 1.66504C8.35021 1.66504 6.73903 2.15378 5.36862 3.06946C3.99822 3.98514 2.93011 5.28662 2.29938 6.80935C1.66865 8.33204 1.50362 10.0076 1.82516 11.6241C2.14671 13.2406 2.94038 14.7255 4.10582 15.891C5.27126 17.0564 6.75611 17.85 8.37262 18.1716C9.98912 18.4931 11.6647 18.3281 13.1874 17.6974C14.7101 17.0666 16.0116 15.9985 16.9273 14.6281C17.843 13.2577 18.3317 11.6465 18.3317 9.99837C18.3317 8.90404 18.1161 7.82039 17.6974 6.80935C17.2786 5.7983 16.6648 4.87964 15.891 4.10581C15.1171 3.332 14.1985 2.71816 13.1874 2.29937C12.1764 1.88059 11.0927 1.66504 9.99837 1.66504ZM9.99837 16.665C8.67987 16.665 7.39091 16.274 6.29457 15.5415C5.19825 14.809 4.34377 13.7678 3.83918 12.5496C3.3346 11.3315 3.20257 9.99096 3.45981 8.69779C3.71704 7.40456 4.35198 6.21668 5.28433 5.28433C6.21668 4.35198 7.40456 3.71704 8.69779 3.45981C9.99096 3.20257 11.3315 3.33459 12.5496 3.83917C13.7678 4.34376 14.809 5.19824 15.5415 6.29457C16.274 7.3909 16.665 8.67979 16.665 9.99837C16.663 11.7659 15.96 13.4604 14.7102 14.7102C13.4604 15.96 11.7659 16.663 9.99837 16.665ZM9.99837 12.3734C9.80887 12.3734 9.62354 12.4295 9.46596 12.5349C9.30837 12.6402 9.18554 12.7899 9.11296 12.965C9.04046 13.14 9.02146 13.3328 9.05846 13.5187C9.09546 13.7045 9.18671 13.8753 9.32071 14.0094C9.45479 14.1434 9.62554 14.2346 9.81146 14.2716C9.99729 14.3086 10.19 14.2896 10.3651 14.2171C10.5402 14.1445 10.6899 14.0217 10.7952 13.8641C10.9005 13.7065 10.9567 13.5212 10.9567 13.3317C10.9567 13.0775 10.8557 12.8338 10.676 12.654C10.4963 12.4744 10.2525 12.3734 9.99837 12.3734Z" fill="#9D87F1"/>
</svg>
