<svg width="14" height="16" viewBox="0 0 14 16" fill="none" xmlns="http://www.w3.org/2000/svg">
<path d="M12.914 10.6719C12.7289 10.4868 12.5822 10.2669 12.4823 10.0249C12.3824 9.7829 12.3314 9.5235 12.332 9.2617V6.0013C12.332 4.58682 11.7701 3.23026 10.77 2.23007C9.76976 1.22987 8.41317 0.667969 6.9987 0.667969C5.58421 0.667969 4.22766 1.22987 3.22746 2.23007C2.22726 3.23026 1.66536 4.58682 1.66536 6.0013V9.2617C1.66602 9.52363 1.61488 9.78317 1.51489 10.0253C1.41489 10.2674 1.26801 10.4874 1.0827 10.6725L0.332031 11.4264V13.3346H13.6654V11.4264L12.914 10.6719ZM6.9987 16.0013C7.38623 16.001 7.76216 15.8688 8.06456 15.6265C8.36703 15.3842 8.57796 15.0461 8.66277 14.668H5.33463C5.4194 15.0461 5.63036 15.3842 5.93283 15.6265C6.23523 15.8688 6.61116 16.001 6.9987 16.0013Z" fill="#9D87F1"/>
</svg>
