<svg width="14" height="16" viewBox="0 0 14 16" fill="none" xmlns="http://www.w3.org/2000/svg">
<path d="M13.6654 10.7604L12.9147 10.0055C12.7294 9.82043 12.5825 9.6005 12.4825 9.35843C12.3826 9.11637 12.3314 8.85697 12.332 8.59504V6.0013C12.332 4.58682 11.7701 3.23026 10.77 2.23007C9.76976 1.22987 8.41317 0.667969 6.9987 0.667969C5.58421 0.667969 4.22766 1.22987 3.22746 2.23007C2.22726 3.23026 1.66536 4.58682 1.66536 6.0013V8.59504C1.66599 8.85697 1.61484 9.1165 1.51484 9.35857C1.41485 9.6007 1.26798 9.82063 1.0827 10.0058L0.332031 10.7604V13.3346H4.36537C4.44298 13.9784 4.75377 14.5716 5.23898 15.0018C5.72416 15.432 6.35023 15.6696 6.9987 15.6696C7.64716 15.6696 8.27323 15.432 8.75843 15.0018C9.24363 14.5716 9.55443 13.9784 9.63203 13.3346H13.6654V10.7604ZM6.9987 14.3346C6.70316 14.3343 6.41616 14.236 6.1825 14.055C5.9489 13.874 5.7819 13.6207 5.7077 13.3346H8.2897C8.2155 13.6207 8.0485 13.874 7.8149 14.055C7.58123 14.236 7.29423 14.3343 6.9987 14.3346ZM12.332 12.0013H1.66536V11.3107L2.02796 10.9462C2.33668 10.6376 2.58136 10.271 2.74795 9.8675C2.91454 9.46404 2.99976 9.03157 2.9987 8.59504V6.0013C2.9987 4.94043 3.42012 3.92302 4.17027 3.17288C4.92042 2.42273 5.93783 2.0013 6.9987 2.0013C8.05956 2.0013 9.07696 2.42273 9.8271 3.17288C10.5773 3.92302 10.9987 4.94043 10.9987 6.0013V8.59504C10.9976 9.0315 11.0828 9.4639 11.2494 9.8673C11.416 10.2707 11.6607 10.6372 11.9694 10.9457L12.332 11.3105V12.0013Z" fill="#9F9F9F"/>
</svg>
