<svg width="20" height="23" viewBox="0 0 20 23" fill="none" xmlns="http://www.w3.org/2000/svg">
<path d="M18.872 15.0065C18.5943 14.7288 18.3742 14.399 18.2244 14.036C18.0745 13.673 17.998 13.2839 17.999 12.8912V8.00061C17.999 5.87888 17.1561 3.84405 15.6559 2.34376C14.1556 0.84346 12.1207 0.000610352 9.99902 0.000610352C7.87729 0.000610352 5.84246 0.84346 4.34217 2.34376C2.84187 3.84405 1.99902 5.87888 1.99902 8.00061V12.8912C2.00001 13.2841 1.9233 13.6734 1.77331 14.0366C1.62331 14.3997 1.40299 14.7297 1.12502 15.0074L-0.000976562 16.1383V19.0006H19.999V16.1383L18.872 15.0065ZM9.99902 23.0006C10.5803 23.0002 11.1442 22.8019 11.5978 22.4384C12.0515 22.0749 12.3679 21.5678 12.4951 21.0006H7.50292C7.63008 21.5678 7.94652 22.0749 8.40022 22.4384C8.85382 22.8019 9.41772 23.0002 9.99902 23.0006Z" fill="white"/>
</svg>
