<svg width="20" height="23" viewBox="0 0 20 23" fill="none" xmlns="http://www.w3.org/2000/svg">
<path fill-rule="evenodd" clip-rule="evenodd" d="M11.2024 0.091604C10.8065 0.0313733 10.4044 0.000610352 9.99902 0.000610352C7.87729 0.000610352 5.84246 0.84346 4.34217 2.34376C2.84187 3.84405 1.99902 5.87888 1.99902 8.00061V12.8912C2.00001 13.2841 1.9233 13.6734 1.77331 14.0366C1.62331 14.3997 1.40299 14.7297 1.12502 15.0074L-0.000976562 16.1383V19.0006H19.999V16.1383L18.872 15.0065C18.5943 14.7288 18.3742 14.399 18.2244 14.036C18.0745 13.673 17.998 13.2839 17.999 12.8912V10.7768C13.9914 9.86709 10.9997 6.2829 10.9997 1.99996C10.9997 1.34515 11.0696 0.706683 11.2024 0.091604ZM11.5978 22.4384C11.1442 22.8019 10.5803 23.0002 9.99902 23.0006C9.41772 23.0002 8.85382 22.8019 8.40022 22.4384C7.94652 22.0749 7.63008 21.5678 7.50292 21.0006H12.4951C12.3679 21.5678 12.0515 22.0749 11.5978 22.4384Z" fill="white"/>
</svg>
