<svg width="61" height="60" viewBox="0 0 61 60" fill="none" xmlns="http://www.w3.org/2000/svg">
<path d="M9.34642 31.7985L12.6979 35.15C14.9734 32.8663 17.6773 31.0543 20.6546 29.8178C23.632 28.5815 26.824 27.945 30.048 27.945C33.2717 27.945 36.464 28.5815 39.4412 29.8178C42.4185 31.0543 45.1225 32.8663 47.398 35.15L50.748 31.7988C48.034 29.0718 44.8082 26.908 41.2555 25.4315C37.703 23.9549 33.8937 23.1948 30.0465 23.1948C26.1992 23.1948 22.3899 23.9549 18.8373 25.4315C15.2846 26.908 12.0588 29.0718 9.34492 31.7988L9.34642 31.7985ZM17.1214 39.5735L20.4602 42.9123C21.7151 41.646 23.2085 40.6408 24.8541 39.9548C26.4997 39.2688 28.2647 38.9155 30.0477 38.9155C31.8305 38.9155 33.5957 39.2688 35.2412 39.9548C36.887 40.6408 38.3802 41.646 39.6352 42.9123L42.973 39.575C41.2842 37.8623 39.2717 36.5023 37.0527 35.574C34.8337 34.6455 32.4525 34.1675 30.0472 34.1675C27.6417 34.1675 25.2605 34.6455 23.0415 35.574C20.8225 36.5023 18.8102 37.8623 17.1214 39.575V39.5735ZM24.7244 47.1765L30.048 52.5L35.3707 47.1773C34.6842 46.4565 33.8585 45.8825 32.9435 45.4903C32.0285 45.098 31.0435 44.896 30.048 44.896C29.0525 44.896 28.0675 45.098 27.1525 45.4903C26.2375 45.8825 25.4117 46.4565 24.7252 47.1773L24.7244 47.1765ZM30.048 12.5C24.794 12.4932 19.5906 13.5247 14.7367 15.5353C9.88268 17.5459 5.4739 20.4959 1.76367 24.2158L5.15367 27.6058C8.41572 24.324 12.2945 21.7196 16.5668 19.9424C20.8391 18.1651 25.4207 17.2502 30.048 17.2502C34.6752 17.2502 39.2567 18.1651 43.529 19.9424C47.8015 21.7196 51.6802 24.324 54.9422 27.6058L58.3322 24.2158C54.622 20.4959 50.2132 17.5459 45.3592 15.5353C40.5052 13.5247 35.3017 12.4932 30.048 12.5Z" fill="#FFD633"/>
</svg>
