<svg width="61" height="60" viewBox="0 0 61 60" fill="none" xmlns="http://www.w3.org/2000/svg">
<path d="M47.5484 52.4993H52.5484V29.9993H47.5484V52.4993ZM16.2984 29.9993C14.0734 29.9993 11.8983 30.659 10.0482 31.8953C8.19818 33.1315 6.75625 34.8885 5.90475 36.944C5.05328 38.9998 4.83048 41.2618 5.26458 43.444C5.69865 45.6263 6.7701 47.631 8.34345 49.2043C9.91678 50.7775 11.9214 51.849 14.1036 52.283C16.2859 52.7173 18.5479 52.4945 20.6036 51.643C22.6593 50.7915 24.4163 49.3495 25.6524 47.4995C26.8887 45.6495 27.5484 43.4743 27.5484 41.2493C27.5484 38.2655 26.3632 35.404 24.2534 33.2943C22.1436 31.1845 19.2821 29.9993 16.2984 29.9993ZM16.2984 47.4993C14.6414 47.4973 13.0528 46.8383 11.8811 45.6665C10.7094 44.495 10.0503 42.9063 10.0484 41.2493H16.2984V34.9993C17.956 34.9993 19.5457 35.6578 20.7178 36.8298C21.8899 38.002 22.5484 39.5918 22.5484 41.2493C22.5484 42.907 21.8899 44.4965 20.7178 45.6688C19.5457 46.8408 17.956 47.4993 16.2984 47.4993ZM50.0234 8.1598L36.4377 20.6646L21.1592 6.60205L4.1889 22.2223L7.5734 25.9013L21.1592 13.3966L36.4377 27.459L53.4079 11.8388L50.0234 8.1598ZM37.5484 52.4993H42.5484V37.4993H37.5484V52.4993Z" fill="#FFD633"/>
</svg>
