<svg width="14" height="15" viewBox="0 0 14 15" fill="none" xmlns="http://www.w3.org/2000/svg">
<path fill-rule="evenodd" clip-rule="evenodd" d="M1.54041 12.4594C1.28655 12.2055 1.28651 11.794 1.54033 11.5401L5.4315 7.64827L0.999989 7.64827C0.641003 7.64827 0.349988 7.35726 0.349989 6.99827C0.349989 6.63929 0.641004 6.34827 0.999989 6.34827L5.43057 6.34827L3.54052 4.45947C3.2866 4.20571 3.28646 3.79415 3.54022 3.54023C3.79397 3.2863 4.20553 3.28617 4.45946 3.53992L6.35031 5.42953L6.34972 1.49969C6.34966 1.1407 6.64063 0.849644 6.99962 0.84959C7.3586 0.849536 7.64966 1.14051 7.64972 1.49949L7.65031 5.42943L12.5404 0.540042C12.7943 0.28622 13.2058 0.28625 13.4596 0.540109C13.7135 0.793968 13.7134 1.20552 13.4596 1.45935L8.56994 6.34827L13 6.34827C13.359 6.34827 13.65 6.63929 13.65 6.99827C13.65 7.35726 13.359 7.64827 13 7.64827L8.45963 7.64827L11.9832 11.565C12.2233 11.8318 12.2016 12.2428 11.9347 12.4829C11.6678 12.723 11.2569 12.7013 11.0168 12.4344L7.65054 8.69266L7.65054 13.9996C7.65054 14.3586 7.35953 14.6496 7.00054 14.6496C6.64156 14.6496 6.35054 14.3586 6.35054 13.9996L6.35054 8.5677L2.45965 12.4593C2.20583 12.7131 1.79427 12.7132 1.54041 12.4594Z" fill="#7E6CC1"/>
</svg>
