<svg width="24" height="24" viewBox="0 0 24 24" fill="none" xmlns="http://www.w3.org/2000/svg">
<path fill-rule="evenodd" clip-rule="evenodd" d="M20.6 20.447C22.0119 20.477 23 20.6005 23 20.6005V1.60054C23 1.60054 15.0073 0.599002 12 3.11337C9.00806 0.598817 1 1.60054 1 1.60054V20.6005C1 20.6005 1.9881 20.477 3.4 20.447C6.00553 20.3917 10.0543 20.6549 12 22.6005C13.9457 20.6549 17.9945 20.3917 20.6 20.447ZM18.6923 3.8132C19.3738 3.79485 20.0254 3.80472 20.6 3.82716V18.0465C19.9655 18.0341 19.2512 18.0393 18.4989 18.0789C17.2086 18.1468 15.7378 18.3192 14.3373 18.7113C14.0342 18.7962 13.6057 18.9597 13.1983 19.1265L13.197 5.24095L13.5394 4.95461C13.8661 4.6815 14.4988 4.38269 15.5066 4.15943C16.4766 3.94454 17.5924 3.84281 18.6923 3.8132ZM10.797 5.23733L10.4559 4.95066C10.1349 4.68091 9.50699 4.3826 8.4996 4.15928C7.53067 3.94449 6.41454 3.84274 5.31351 3.81313C4.62999 3.79475 3.97629 3.8047 3.4 3.82726V18.0465C4.03452 18.0341 4.74877 18.0393 5.50114 18.0789C6.79139 18.1468 8.26221 18.3192 9.66274 18.7113C9.96499 18.7959 10.3919 18.9588 10.7983 19.1251L10.797 5.23733Z" fill="#9D87F1"/>
</svg>
