<svg width="40" height="40" viewBox="0 0 40 40" fill="none" xmlns="http://www.w3.org/2000/svg">
<path d="M0 4C0 1.79086 1.79086 0 4 0H36C38.2091 0 40 1.79086 40 4V36C40 38.2091 38.2091 40 36 40H4C1.79086 40 0 38.2091 0 36V4Z" fill="#9D87F1"/>
<path fill-rule="evenodd" clip-rule="evenodd" d="M14.0792 11.5263C14.0792 10.1311 15.2103 9 16.6055 9H23.0792C24.4745 9 25.6055 10.1311 25.6055 11.5263V15.5132C25.6055 16.2108 25.04 16.7763 24.3424 16.7763C23.6448 16.7763 23.0792 16.2108 23.0792 15.5132V12.5263C23.0792 11.974 22.6315 11.5263 22.0792 11.5263H17.6055C17.0533 11.5263 16.6055 11.974 16.6055 12.5263V15.5132C16.6055 16.2108 16.04 16.7763 15.3424 16.7763C14.6448 16.7763 14.0792 16.2108 14.0792 15.5132V11.5263Z" fill="url(#paint0_linear)"/>
<path fill-rule="evenodd" clip-rule="evenodd" d="M14.0792 11.5263C14.0792 10.1311 15.2103 9 16.6055 9H23.0792C24.4745 9 25.6055 10.1311 25.6055 11.5263V15.5132C25.6055 16.2108 25.04 16.7763 24.3424 16.7763C23.6448 16.7763 23.0792 16.2108 23.0792 15.5132V12.5263C23.0792 11.974 22.6315 11.5263 22.0792 11.5263H17.6055C17.0533 11.5263 16.6055 11.974 16.6055 12.5263V15.5132C16.6055 16.2108 16.04 16.7763 15.3424 16.7763C14.6448 16.7763 14.0792 16.2108 14.0792 15.5132V11.5263Z" fill="url(#paint1_linear)"/>
<g filter="url(#filter0_b)">
<path d="M8.00024 26.0229C8.00024 28.2321 9.79111 30.0229 12.0002 30.0229H28.0002C30.2094 30.0229 32.0002 28.2321 32.0002 26.0229V17.5229C32.0002 15.3138 30.2094 13.5229 28.0002 13.5229H12.0002C9.79111 13.5229 8.00024 15.3138 8.00024 17.5229V26.0229Z" fill="url(#paint2_linear)"/>
</g>
<defs>
<filter id="filter0_b" x="4.00024" y="9.52295" width="32" height="24.5" filterUnits="userSpaceOnUse" color-interpolation-filters="sRGB">
<feFlood flood-opacity="0" result="BackgroundImageFix"/>
<feGaussianBlur in="BackgroundImage" stdDeviation="2"/>
<feComposite in2="SourceAlpha" operator="in" result="effect1_backgroundBlur"/>
<feBlend mode="normal" in="SourceGraphic" in2="effect1_backgroundBlur" result="shape"/>
</filter>
<linearGradient id="paint0_linear" x1="19.8424" y1="9" x2="19.8424" y2="16.7763" gradientUnits="userSpaceOnUse">
<stop stop-color="#8373F5"/>
<stop offset="1" stop-color="#975FE1"/>
</linearGradient>
<linearGradient id="paint1_linear" x1="18.7697" y1="9.63252" x2="16.9802" y2="24.264" gradientUnits="userSpaceOnUse">
<stop stop-color="#E9EBFF"/>
<stop offset="1" stop-color="#EFEFF6"/>
</linearGradient>
<linearGradient id="paint2_linear" x1="20.0002" y1="30.0229" x2="16.1479" y2="1.6278" gradientUnits="userSpaceOnUse">
<stop stop-color="white"/>
<stop offset="1" stop-color="#8951B5" stop-opacity="0"/>
</linearGradient>
</defs>
</svg>
