<svg width="24" height="24" viewBox="0 0 24 24" fill="none" xmlns="http://www.w3.org/2000/svg">
<path fill-rule="evenodd" clip-rule="evenodd" d="M12.271 3.94333L8.36867 6.88996V8.1112V10.004V18.1072H11.2961H13.2458H16.1732V10.004V8.1112V6.88996L12.271 3.94333ZM13.3482 2.35885L17.4455 5.4527C17.8729 5.77544 18.1229 6.27169 18.1229 6.79739V18.2965C18.1229 19.2373 17.3373 20 16.3682 20H8.1737C7.20462 20 6.41901 19.2373 6.41901 18.2965V6.79739C6.41901 6.27169 6.66901 5.77544 7.09643 5.4527L11.1937 2.35885C11.8273 1.88038 12.7146 1.88038 13.3482 2.35885Z" fill="#9D87F1"/>
<path fill-rule="evenodd" clip-rule="evenodd" d="M11.2961 9.58371V8.1112V7.4793H13.2458V8.1112V9.58371H11.2961ZM11.2961 19.0536V18.1072V14.3187H13.2458V18.1072V19.0536H11.2961Z" fill="#9D87F1"/>
<path fill-rule="evenodd" clip-rule="evenodd" d="M21.0503 18.1072H17.1481V10.004H21.0503V18.1072ZM16.1732 10.004V18.1072H13.2458V14.3187H11.2961V18.1072H8.36867V10.004V8.1112V6.88996L12.271 3.94333L16.1732 6.88996V8.1112V10.004ZM11.2961 8.1112V9.58371H13.2458V8.1112V7.4793H11.2961V8.1112ZM7.39384 10.004V18.1072H2.94966V10.004H7.39384ZM2.75469 8.1112H7.39384V6.79739C7.39384 6.56375 7.50495 6.34319 7.69491 6.19975L11.7922 3.1059C12.0738 2.89325 12.4681 2.89325 12.7497 3.1059L14.7984 4.65282L16.847 6.19975C17.037 6.34319 17.1481 6.56375 17.1481 6.79739V8.1112H21.2453C22.2144 8.1112 23 8.8739 23 9.81474V18.2965C23 19.2373 22.2144 20 21.2453 20H2.75469C1.7856 20 1 19.2373 1 18.2965V9.81474C1 8.8739 1.7856 8.1112 2.75469 8.1112Z" fill="#9D87F1"/>
</svg>
