<svg width="20" height="19" viewBox="0 0 20 19" fill="none" xmlns="http://www.w3.org/2000/svg">
<path d="M6.99902 7.99933H4.99902V9.99933H6.99902V7.99933ZM10.999 7.99933H8.99902V9.99933H10.999V7.99933ZM14.999 7.99933H12.999V9.99933H14.999V7.99933ZM6.99902 11.9993H4.99902V13.9993H6.99902V11.9993ZM10.999 11.9993H8.99902V13.9993H10.999V11.9993ZM14.999 11.9993H12.999V13.9993H14.999V11.9993ZM15.999 2.99933V0.999329C15.999 0.734109 15.8936 0.479759 15.7061 0.292219C15.5186 0.104689 15.2642 -0.000671387 14.999 -0.000671387C14.7338 -0.000671387 14.4794 0.104689 14.2919 0.292219C14.1044 0.479759 13.999 0.734109 13.999 0.999329V2.99933H5.99902V0.999329C5.99902 0.734109 5.89366 0.479759 5.70613 0.292219C5.51859 0.104689 5.26424 -0.000671387 4.99902 -0.000671387C4.7338 -0.000671387 4.47945 0.104689 4.29191 0.292219C4.10438 0.479759 3.99902 0.734109 3.99902 0.999329V2.99933H-0.000976562V18.9993H19.999V2.99933H15.999ZM17.999 16.9993H1.99902V4.99933H17.999V16.9993Z" fill="white"/>
</svg>
