<svg width="21" height="20" viewBox="0 0 21 20" fill="none" xmlns="http://www.w3.org/2000/svg">
<path d="M18.8307 4.16504L12.1641 8.83171V11.165L18.8307 15.8317H19.6641V4.16504H18.8307ZM17.9974 13.214L13.4036 9.99837L17.9974 6.78279V13.214Z" fill="black"/>
<path d="M11.3359 5.83171V14.165H3.0026V5.83171H11.3359ZM11.3359 4.16504H3.0026C2.56058 4.16504 2.13665 4.34063 1.8241 4.6532C1.51153 4.96576 1.33594 5.38968 1.33594 5.83171V14.165C1.33594 14.607 1.51153 15.031 1.8241 15.3435C2.13665 15.6561 2.56058 15.8317 3.0026 15.8317H11.3359C11.7779 15.8317 12.2019 15.6561 12.5144 15.3435C12.827 15.031 13.0026 14.607 13.0026 14.165V5.83171C13.0026 5.38968 12.827 4.96576 12.5144 4.6532C12.2019 4.34063 11.7779 4.16504 11.3359 4.16504Z" fill="black"/>
</svg>
