<svg width="14" height="12" viewBox="0 0 14 12" fill="none" xmlns="http://www.w3.org/2000/svg">
<path d="M11.6663 0.666687H2.33301C1.80257 0.666687 1.29387 0.877401 0.918795 1.25247C0.543721 1.62755 0.333008 2.13625 0.333008 2.66669V9.33335C0.333008 9.86375 0.543721 10.3725 0.918795 10.7476C1.29387 11.1226 1.80257 11.3334 2.33301 11.3334H11.6663C12.1967 11.3334 12.7055 11.1226 13.0805 10.7476C13.4556 10.3725 13.6663 9.86375 13.6663 9.33335V2.66669C13.6663 2.13625 13.4556 1.62755 13.0805 1.25247C12.7055 0.877401 12.1967 0.666687 11.6663 0.666687ZM12.333 9.33335C12.3328 9.51009 12.2625 9.67955 12.1375 9.80455C12.0125 9.92955 11.8431 9.99982 11.6663 10H2.33301C2.15625 9.99982 1.9868 9.92955 1.86181 9.80455C1.73683 9.67955 1.66653 9.51009 1.66634 9.33335V5.33335H12.333V9.33335ZM12.333 4.00002H1.66634V2.66669C1.66653 2.48993 1.73683 2.32048 1.86181 2.19549C1.9868 2.07051 2.15625 2.00021 2.33301 2.00002H11.6663C11.8431 2.00021 12.0125 2.07051 12.1375 2.19549C12.2625 2.32048 12.3328 2.48993 12.333 2.66669V4.00002Z" fill="white"/>
</svg>
