<svg width="48" height="48" viewBox="0 0 48 48" fill="none" xmlns="http://www.w3.org/2000/svg">
<path fill-rule="evenodd" clip-rule="evenodd" d="M44 10H4C3.44772 10 3 10.4477 3 11V37C3 37.5523 3.44772 38 4 38H44C44.5523 38 45 37.5523 45 37V11C45 10.4477 44.5523 10 44 10ZM4 7C1.79086 7 0 8.79086 0 11V37C0 39.2091 1.79086 41 4 41H44C46.2091 41 48 39.2091 48 37V11C48 8.79086 46.2091 7 44 7H4Z" fill="#FFD633"/>
<path fill-rule="evenodd" clip-rule="evenodd" d="M46 20.5H2V17.5H46V20.5Z" fill="#FFD633"/>
<path fill-rule="evenodd" clip-rule="evenodd" d="M37.5 30.5H24V27.5H37.5V30.5Z" fill="#FFD633"/>
<path fill-rule="evenodd" clip-rule="evenodd" d="M20.61 27.009L14.5518 33.673L9.93945 29.0606L12.0608 26.9393L14.4484 29.3269L18.3902 24.991L20.61 27.009Z" fill="#FFD633"/>
</svg>
