<svg width="16" height="17" viewBox="0 0 16 17" fill="none" xmlns="http://www.w3.org/2000/svg">
<path d="M6.02072 4.47711C6.02072 3.49261 6.94398 2.57087 8.24466 2.57087C9.54533 2.57087 10.4686 3.49261 10.4686 4.47711H11.7394C11.7394 2.65418 10.1023 1.30005 8.24466 1.30005C6.38698 1.30005 4.74989 2.65418 4.74989 4.47711H6.02072Z" fill="url(#paint0_linear_17030:40)"/>
<path fill-rule="evenodd" clip-rule="evenodd" d="M1.57501 6.38388C1.57501 5.33109 2.42846 4.47764 3.48125 4.47764H13.0124C14.0652 4.47764 14.9187 5.33109 14.9187 6.38388V13.3734C14.9187 14.4262 14.0652 15.2796 13.0124 15.2796H3.48125C2.42846 15.2796 1.57501 14.4262 1.57501 13.3734V6.38388ZM13.6478 6.38388V8.50149H8.88225V8.28968C8.88225 7.93875 8.59776 7.65427 8.24683 7.65427C7.89591 7.65427 7.61142 7.93875 7.61142 8.28968V8.50149H2.84584V6.38388C2.84584 6.03295 3.13032 5.74847 3.48125 5.74847H13.0124C13.3634 5.74847 13.6478 6.03295 13.6478 6.38388ZM7.61142 9.77231H2.84584V13.3734C2.84584 13.7243 3.13032 14.0088 3.48125 14.0088H13.0124C13.3634 14.0088 13.6478 13.7243 13.6478 13.3734V9.77231H8.88225V10.8313C8.88225 11.1823 8.59776 11.4667 8.24683 11.4667C7.89591 11.4667 7.61142 11.1823 7.61142 10.8313V9.77231Z" fill="url(#paint1_linear_17030:40)"/>
<defs>
<linearGradient id="paint0_linear_17030:40" x1="8.24683" y1="1.30005" x2="8.24683" y2="15.2796" gradientUnits="userSpaceOnUse">
<stop stop-color="#8373F5"/>
<stop offset="1" stop-color="#975FE1"/>
</linearGradient>
<linearGradient id="paint1_linear_17030:40" x1="8.24683" y1="1.30005" x2="8.24683" y2="15.2796" gradientUnits="userSpaceOnUse">
<stop stop-color="#8373F5"/>
<stop offset="1" stop-color="#975FE1"/>
</linearGradient>
</defs>
</svg>
