<svg width="60" height="61" viewBox="0 0 60 61" fill="none" xmlns="http://www.w3.org/2000/svg">
<path fill-rule="evenodd" clip-rule="evenodd" d="M51.6677 5.56641H46V0.566406H60V14.5664H55V9.30715C42.9223 21.5048 27.1661 33.0664 0 33.0664V28.0664C25.464 28.0664 40.0567 17.3484 51.6677 5.56641Z" fill="#FFD633"/>
<path fill-rule="evenodd" clip-rule="evenodd" d="M49 34.6319V55.5665H55V30.5215C53.0917 31.9416 51.0959 33.318 49 34.6319ZM44 31.8102V60.5665H60V19.9055C58.3941 21.363 56.7317 22.7982 55 24.1953C51.6269 26.9169 47.9912 29.4941 44 31.8102Z" fill="#FFD633"/>
<path fill-rule="evenodd" clip-rule="evenodd" d="M27 44.2934V55.5663H33V42.4075C31.0686 43.0967 29.0702 43.7275 27 44.2934ZM22 40.3842V60.5663H38V34.9503C36.3896 35.7044 34.7246 36.4151 33 37.0765C29.5795 38.3883 25.925 39.5062 22 40.3842Z" fill="#FFD633"/>
<path fill-rule="evenodd" clip-rule="evenodd" d="M5 47.5018V55.5664H11V47.1329C9.05195 47.3087 7.05277 47.4326 5 47.5018ZM0 60.5664H16V41.5012C14.3771 41.7448 12.7112 41.9491 11 42.1115C7.86314 42.4093 4.57435 42.5664 1.12057 42.5664H0V60.5664Z" fill="#FFD633"/>
</svg>
