<svg width="60" height="61" viewBox="0 0 60 61" fill="none" xmlns="http://www.w3.org/2000/svg">
<path fill-rule="evenodd" clip-rule="evenodd" d="M1.25 7.06641H47.5V38.1914H30.6639L10 49.9994V38.1914H1.25V7.06641ZM6.25 12.0664V33.1914H15V41.3835L29.3361 33.1914H42.5V12.0664H6.25Z" fill="#FFD633"/>
<path fill-rule="evenodd" clip-rule="evenodd" d="M52.5 43.1914V19.4414H57.5V48.1914H48.75H41.5H32.873H32.625V43.1914H34.627H39H43.75H52.5Z" fill="#FFD633"/>
<path d="M11 22.5664C11 20.9096 12.3431 19.5664 14 19.5664C15.6569 19.5664 17 20.9096 17 22.5664C17 24.2233 15.6569 25.5664 14 25.5664C12.3431 25.5664 11 24.2233 11 22.5664Z" fill="#FFD633"/>
<path d="M21 22.5664C21 20.9096 22.3431 19.5664 24 19.5664C25.6569 19.5664 27 20.9096 27 22.5664C27 24.2233 25.6569 25.5664 24 25.5664C22.3431 25.5664 21 24.2233 21 22.5664Z" fill="#FFD633"/>
<path d="M31 22.5664C31 20.9096 32.3431 19.5664 34 19.5664C35.6569 19.5664 37 20.9096 37 22.5664C37 24.2233 35.6569 25.5664 34 25.5664C32.3431 25.5664 31 24.2233 31 22.5664Z" fill="#FFD633"/>
</svg>
