<svg width="20" height="20" viewBox="0 0 20 20" fill="none" xmlns="http://www.w3.org/2000/svg">
<path d="M9.99984 1.66602C8.35167 1.66602 6.7405 2.15476 5.37009 3.07043C3.99968 3.98612 2.93158 5.2876 2.30085 6.81032C1.67011 8.33302 1.50509 10.0086 1.82663 11.6251C2.14817 13.2416 2.94185 14.7264 4.10729 15.8919C5.27272 17.0573 6.75758 17.851 8.37409 18.1726C9.99059 18.4941 11.6662 18.3291 13.1888 17.6983C14.7116 17.0676 16.0131 15.9995 16.9288 14.6291C17.8444 13.2587 18.3332 11.6475 18.3332 9.99935C18.3332 8.90502 18.1176 7.82137 17.6988 6.81032C17.2801 5.79927 16.6663 4.88062 15.8924 4.10679C15.1186 3.33297 14.1999 2.71914 13.1888 2.30035C12.1778 1.88157 11.0942 1.66602 9.99984 1.66602Z" fill="#B19FF4"/>
<path d="M9.49625 10.4592L7.71967 8.6831L6.71875 9.68485L9.49625 12.4628L13.4342 8.52519L12.4333 7.52344L9.49625 10.4592Z" fill="white"/>
</svg>
