<svg width="60" height="60" viewBox="0 0 60 60" fill="none" xmlns="http://www.w3.org/2000/svg">
<path fill-rule="evenodd" clip-rule="evenodd" d="M30 52C42.1503 52 52 42.1503 52 30C52 17.8497 42.1503 8 30 8C17.8497 8 8 17.8497 8 30C8 42.1503 17.8497 52 30 52ZM30 57C44.9117 57 57 44.9117 57 30C57 15.0883 44.9117 3 30 3C15.0883 3 3 15.0883 3 30C3 44.9117 15.0883 57 30 57Z" fill="#FFD633"/>
<path fill-rule="evenodd" clip-rule="evenodd" d="M42.768 23.2677L28.0002 38.0355L19.7324 29.7677L23.268 26.2322L28.0002 30.9644L39.2324 19.7322L42.768 23.2677Z" fill="#FFD633"/>
</svg>
