<svg width="75" height="79" viewBox="0 0 75 79" fill="none" xmlns="http://www.w3.org/2000/svg">
<path d="M54.4444 12.1966C56.0565 10.4986 58.6701 10.4986 60.2822 12.1966L69.3238 21.7205C70.9358 23.4185 70.9358 26.1715 69.3238 27.8696L39.2629 59.5337C33.8894 65.1938 25.1772 65.1938 19.8037 59.5337L14.6539 54.1092L54.4444 12.1966Z" fill="#C4C4C4"/>
<path d="M54.4444 12.1966C56.0565 10.4986 58.6701 10.4986 60.2822 12.1966L69.3238 21.7205C70.9358 23.4185 70.9358 26.1715 69.3238 27.8696L39.2629 59.5337C33.8894 65.1938 25.1772 65.1938 19.8037 59.5337L14.6539 54.1092L54.4444 12.1966Z" fill="url(#paint0_linear)"/>
<path d="M5.32708 44.2904C3.71503 42.5923 3.71503 39.8393 5.32708 38.1413L13.9649 29.0427C15.577 27.3447 18.1906 27.3447 19.8027 29.0427L44.0028 54.5335L39.2567 59.5326C33.8832 65.1927 25.1711 65.1927 19.7976 59.5326L5.32708 44.2904Z" fill="#C4C4C4"/>
<path d="M5.32708 44.2904C3.71503 42.5923 3.71503 39.8393 5.32708 38.1413L13.9649 29.0427C15.577 27.3447 18.1906 27.3447 19.8027 29.0427L44.0028 54.5335L39.2567 59.5326C33.8832 65.1927 25.1711 65.1927 19.7976 59.5326L5.32708 44.2904Z" fill="url(#paint1_linear)"/>
<defs>
<linearGradient id="paint0_linear" x1="64.803" y1="16.9585" x2="-24.5945" y2="40.45" gradientUnits="userSpaceOnUse">
<stop stop-color="#FFD633"/>
<stop offset="1" stop-color="#E755FF"/>
</linearGradient>
<linearGradient id="paint1_linear" x1="9.64601" y1="33.592" x2="38.1728" y2="60.6744" gradientUnits="userSpaceOnUse">
<stop stop-color="#8373F5"/>
<stop offset="1" stop-color="#975FE1"/>
</linearGradient>
</defs>
</svg>
