<svg width="20" height="20" viewBox="0 0 20 20" fill="none" xmlns="http://www.w3.org/2000/svg">
<path d="M9.99837 1.66504C8.35021 1.66504 6.73903 2.15378 5.36862 3.06946C3.99822 3.98514 2.93011 5.28662 2.29938 6.80935C1.66865 8.33204 1.50362 10.0076 1.82516 11.6241C2.14671 13.2406 2.94038 14.7255 4.10582 15.891C5.27126 17.0564 6.75611 17.85 8.37262 18.1716C9.98912 18.4931 11.6647 18.3281 13.1874 17.6974C14.7101 17.0666 16.0116 15.9985 16.9273 14.6281C17.843 13.2577 18.3317 11.6465 18.3317 9.99837C18.3317 8.90404 18.1161 7.82039 17.6974 6.80935C17.2786 5.7983 16.6648 4.87964 15.891 4.10581C15.1171 3.332 14.1985 2.71816 13.1874 2.29937C12.1764 1.88059 11.0927 1.66504 9.99837 1.66504ZM9.99837 3.33171C11.4777 3.33192 12.9145 3.8272 14.0797 4.73862L4.73862 14.0797C3.97152 13.0959 3.49638 11.9162 3.36741 10.6754C3.23843 9.43446 3.46081 8.18233 4.00919 7.06176C4.55756 5.94119 5.40985 4.9973 6.46882 4.33777C7.5278 3.67825 8.75079 3.32963 9.99837 3.33171ZM9.99837 16.665C8.51904 16.6648 7.08229 16.1695 5.91704 15.2581L15.2581 5.91704C16.0252 6.90088 16.5004 8.08052 16.6294 9.32137C16.7583 10.5623 16.536 11.8144 15.9875 12.935C15.4392 14.0555 14.5869 14.9995 13.528 15.659C12.469 16.3185 11.246 16.6671 9.99837 16.665Z" fill="#EB5757"/>
</svg>
