<svg width="40" height="40" viewBox="0 0 40 40" fill="none" xmlns="http://www.w3.org/2000/svg">
<path d="M0 4C0 1.79086 1.79086 0 4 0H36C38.2091 0 40 1.79086 40 4V36C40 38.2091 38.2091 40 36 40H4C1.79086 40 0 38.2091 0 36V4Z" fill="#9D87F1"/>
<rect width="24" height="24" transform="translate(8 8)" fill="#9D87F1"/>
<circle cx="25.5871" cy="15.4129" r="6.41289" fill="url(#paint0_linear)"/>
<circle cx="25.5871" cy="15.4129" r="6.41289" fill="url(#paint1_linear)"/>
<g filter="url(#filter0_b)">
<circle r="9.61933" transform="matrix(1 0 0 -1 17.6193 21.2913)" fill="url(#paint2_linear)"/>
</g>
<defs>
<filter id="filter0_b" x="4" y="7.67188" width="27.2387" height="27.2387" filterUnits="userSpaceOnUse" color-interpolation-filters="sRGB">
<feFlood flood-opacity="0" result="BackgroundImageFix"/>
<feGaussianBlur in="BackgroundImage" stdDeviation="2"/>
<feComposite in2="SourceAlpha" operator="in" result="effect1_backgroundBlur"/>
<feBlend mode="normal" in="SourceGraphic" in2="effect1_backgroundBlur" result="shape"/>
</filter>
<linearGradient id="paint0_linear" x1="25.5871" y1="9" x2="25.5871" y2="21.8258" gradientUnits="userSpaceOnUse">
<stop stop-color="#8373F5"/>
<stop offset="1" stop-color="#975FE1"/>
</linearGradient>
<linearGradient id="paint1_linear" x1="24.3935" y1="10.0432" x2="20.0945" y2="33.7572" gradientUnits="userSpaceOnUse">
<stop stop-color="#E9EBFF"/>
<stop offset="1" stop-color="#EFEFF6"/>
</linearGradient>
<linearGradient id="paint2_linear" x1="9.61933" y1="0" x2="3.21504" y2="32.4537" gradientUnits="userSpaceOnUse">
<stop stop-color="white"/>
<stop offset="1" stop-color="#8951B5" stop-opacity="0"/>
</linearGradient>
</defs>
</svg>
