<svg width="24" height="24" viewBox="0 0 24 24" fill="none" xmlns="http://www.w3.org/2000/svg">
<path d="M11.998 1.99805C10.0202 1.99805 8.08684 2.58454 6.44235 3.68335C4.79786 4.78217 3.51614 6.34395 2.75926 8.17122C2.00238 9.99845 1.80435 12.0091 2.1902 13.9489C2.57605 15.8887 3.52846 17.6705 4.92699 19.0691C6.32551 20.4676 8.10734 21.42 10.0471 21.8059C11.9869 22.1917 13.9976 21.9937 15.8248 21.2368C17.6521 20.4799 19.2139 19.1982 20.3127 17.5537C21.4115 15.9092 21.998 13.9758 21.998 11.998C21.998 10.6848 21.7393 9.38447 21.2368 8.17122C20.7343 6.95796 19.9977 5.85557 19.0691 4.92698C18.1405 3.9984 17.0381 3.2618 15.8248 2.75925C14.6116 2.25671 13.3112 1.99805 11.998 1.99805ZM11.998 19.998C10.4158 19.998 8.86909 19.5288 7.55349 18.6498C6.2379 17.7707 5.21252 16.5213 4.60702 15.0595C4.00152 13.5977 3.84309 11.9891 4.15177 10.4373C4.46045 8.88548 5.22238 7.46002 6.3412 6.3412C7.46002 5.22238 8.88548 4.46045 10.4373 4.15177C11.9891 3.84309 13.5977 4.00151 15.0595 4.60701C16.5213 5.21252 17.7707 6.23789 18.6498 7.55349C19.5288 8.86908 19.998 10.4157 19.998 11.998C19.9956 14.119 19.152 16.1524 17.6522 17.6522C16.1524 19.152 14.119 19.9956 11.998 19.998ZM11.3955 12.5502L9.26365 10.4189L8.06255 11.621L11.3955 14.9545L16.121 10.2294L14.9199 9.02735L11.3955 12.5502Z" fill="#65BC89"/>
</svg>
