<svg width="60" height="60" viewBox="0 0 60 60" fill="none" xmlns="http://www.w3.org/2000/svg">
<path fill-rule="evenodd" clip-rule="evenodd" d="M30 52C42.1503 52 52 42.1503 52 30C52 17.8497 42.1503 8 30 8C17.8497 8 8 17.8497 8 30C8 42.1503 17.8497 52 30 52ZM30 57C44.9117 57 57 44.9117 57 30C57 15.0883 44.9117 3 30 3C15.0883 3 3 15.0883 3 30C3 44.9117 15.0883 57 30 57Z" fill="#FFD633"/>
<path fill-rule="evenodd" clip-rule="evenodd" d="M27.5 13.5H32.5V27.5H41V32.5H27.5V13.5Z" fill="#FFD633"/>
</svg>
