<svg width="21" height="20" viewBox="0 0 21 20" fill="none" xmlns="http://www.w3.org/2000/svg">
<path d="M10.4984 1.66504C8.85021 1.66504 7.23903 2.15378 5.86862 3.06946C4.49822 3.98514 3.43011 5.28662 2.79938 6.80935C2.16865 8.33204 2.00362 10.0076 2.32516 11.6241C2.64671 13.2406 3.44038 14.7255 4.60582 15.891C5.77126 17.0564 7.25611 17.85 8.87262 18.1716C10.4891 18.4931 12.1647 18.3281 13.6874 17.6974C15.2101 17.0666 16.5116 15.9985 17.4273 14.6281C18.343 13.2577 18.8317 11.6465 18.8317 9.99837C18.8317 8.90404 18.6161 7.82039 18.1974 6.80935C17.7786 5.7983 17.1648 4.87964 16.391 4.10581C15.6171 3.332 14.6985 2.71816 13.6874 2.29937C12.6764 1.88059 11.5927 1.66504 10.4984 1.66504ZM10.4984 16.665C9.17987 16.665 7.89091 16.274 6.79457 15.5415C5.69825 14.809 4.84377 13.7678 4.33918 12.5496C3.8346 11.3315 3.70257 9.99096 3.95981 8.69779C4.21704 7.40456 4.85198 6.21668 5.78433 5.28433C6.71668 4.35198 7.90456 3.71704 9.19779 3.45981C10.491 3.20257 11.8315 3.33459 13.0496 3.83917C14.2678 4.34376 15.309 5.19824 16.0415 6.29457C16.774 7.3909 17.165 8.67979 17.165 9.99837C17.163 11.7659 16.46 13.4604 15.2102 14.7102C13.9604 15.96 12.2659 16.663 10.4984 16.665ZM11.0538 5.24129H9.38712V11.0746H14.3875V9.40796H11.0538V5.24129Z" fill="#9D87F1"/>
</svg>
