<svg width="36" height="36" viewBox="0 0 36 36" fill="none" xmlns="http://www.w3.org/2000/svg">
<path d="M24.6506 12.0887C24.0878 11.5976 23.2784 11.6088 22.814 11.7515C23.1182 11.3796 23.8268 11.0748 24.0356 11.0377C24.1946 11.0971 24.6506 11.5635 24.6506 12.0887ZM26.4476 10.0549C26.0774 8.08401 21.476 9.38993 19.1588 8.5528C19.1144 9.12733 19.8722 10.0479 20.597 10.3886C19.358 11.459 18.2456 13.6155 18.0212 16.2503C17.7974 13.6155 16.685 11.459 15.446 10.3886C16.1708 10.0479 16.9292 9.12733 16.8842 8.5528C14.567 9.38993 9.96564 8.08401 9.59484 10.0549C9.51684 10.472 9.71844 11.1077 9.93624 11.2904C9.97524 11.1582 10.1786 10.7258 10.82 10.6289C14.0618 10.1413 16.7684 15.1147 14.3252 17.1256C14.288 17.1561 14.309 17.2125 14.3594 17.2125H21.6842C21.734 17.2125 21.755 17.1561 21.7184 17.1256C19.2746 15.1147 21.9812 10.1413 25.223 10.6289C25.865 10.7258 26.0678 11.1582 26.1068 11.2904C26.3246 11.1077 26.5262 10.472 26.4476 10.0549ZM27.236 5.5315C27.1778 5.34528 29.0786 5.34058 29.0786 6.52489C29.0786 7.31855 27.9416 7.69452 27.9416 8.51814C27.9416 8.90175 28.3562 9.18314 28.4834 9.18314C28.1906 7.86077 29.4014 8.5528 29.7284 8.80012C29.0786 7.02188 30.5414 7.03304 30.3974 6.21765C30.2972 5.64782 29.0258 5.81994 28.5656 5.5315C27.749 5.01983 26.783 3.02893 26.1464 5.01983C27.3332 6.11661 26.6426 7.73094 25.136 7.73094C25.136 7.73094 25.1276 7.96769 25.1414 7.98649C26.9384 7.89896 27.5648 6.58423 27.236 5.5315ZM6.27085 8.80012C6.59785 8.5528 7.80864 7.86077 7.51644 9.18314C7.64304 9.18314 8.05764 8.90175 8.05764 8.51814C8.05764 7.69452 6.92064 7.31855 6.92064 6.52489C6.92064 5.34058 8.82144 5.34528 8.76324 5.5315C8.43504 6.58423 9.06144 7.89896 10.8584 7.98649C10.8716 7.96769 10.8632 7.73094 10.8632 7.73094C9.35724 7.73094 8.66664 6.11661 9.85284 5.01983C9.21624 3.02893 8.25024 5.01983 7.43364 5.5315C6.97344 5.81994 5.70205 5.64782 5.60185 6.21765C5.45845 7.03304 6.92065 7.02188 6.27085 8.80012ZM11.3732 12.0887C11.9366 11.5976 12.746 11.6088 13.2098 11.7515C12.9068 11.3796 12.197 11.0748 11.9888 11.0377C11.8298 11.0971 11.3732 11.5635 11.3732 12.0887ZM18.8762 1.06389L17.9996 0L17.123 1.06389L17.9996 2.18358L18.8762 1.06389ZM23.8802 4.2808L23.2568 3.52475L22.634 4.2808L23.2568 5.01983L23.8802 4.2808ZM28.9364 26.1354L28.1462 25.303L27.356 26.1354L28.1462 26.8656L28.9364 26.1354ZM13.3658 4.2808L12.7424 3.52475L12.1196 4.2808L12.7424 5.01983L13.3658 4.2808ZM11.5802 7.98649H13.9052C15.86 7.98649 16.7396 6.79219 17.0054 5.7565H18.9944C19.2602 6.79219 20.1392 7.98649 22.0946 7.98649H24.4196C24.4196 7.98649 24.8264 7.43722 24.9284 7.16522C25.2956 6.18652 24.8264 5.73006 24.1418 5.73006L23.2568 6.52842L22.3718 5.73006C21.6872 5.73006 21.218 6.18652 21.5852 7.16522C21.632 7.29035 21.7442 7.47423 21.8504 7.63578C21.0254 7.52298 19.9724 6.96079 19.7414 5.7565C19.7414 5.7565 20.351 4.79248 20.504 4.40241C21.0536 2.99956 20.3516 2.4262 19.325 2.4262L17.9996 3.97709L16.6742 2.4262C15.6476 2.4262 14.9456 2.99956 15.4958 4.40241C15.6482 4.79248 16.2584 5.7565 16.2584 5.7565C16.0268 6.96079 14.9738 7.52298 14.1488 7.63578C14.2556 7.47423 14.3672 7.29035 14.414 7.16522C14.7806 6.18652 14.3126 5.73006 13.6274 5.73006L12.7424 6.52842L11.8574 5.73006C11.1722 5.73006 10.7042 6.18652 11.0708 7.16522C11.1728 7.43722 11.5802 7.98649 11.5802 7.98649ZM35.618 15.1605C35.1692 15.3867 32.5364 16.6145 29.1638 16.1604C29.1992 16 29.228 15.8384 29.2526 15.6769C31.4972 15.4096 33.3218 15.0307 34.4846 14.3868C35.81 13.6525 36.3896 11.8995 35.7206 10.5954C35.7032 10.5625 35.6552 10.5566 35.6312 10.5842C35.2646 11.0043 32.9594 13.5004 29.3276 14.2764C29.318 14.0878 29.3012 13.9016 29.276 13.7166C31.04 12.7208 32.762 11.5735 33.5822 10.5243C34.8218 8.93817 34.7078 6.91497 33.5282 5.88339C33.503 5.86107 33.4622 5.86753 33.4448 5.89514C33.0716 6.50786 29.5784 12.1281 25.7432 14.5543C25.7048 14.5789 25.6532 14.6107 25.6016 14.6418C25.4918 14.7082 25.4798 14.8503 25.5734 14.9349C26.0156 15.3338 26.2904 15.889 26.2904 16.5052C26.2904 17.5767 25.4606 18.4679 24.3638 18.6612C23.8064 18.7687 23.0018 18.7376 22.229 18.4832C22.1942 18.472 22.1582 18.4949 22.1582 18.5296V21.9233C22.1582 21.978 22.2416 21.9915 22.2614 21.9392C22.7312 20.7002 24.1376 20.4371 24.7526 20.4371C24.974 21.7612 25.3694 22.858 25.883 23.4484C26.7194 24.4077 28.085 24.3942 28.6772 23.7309C28.6976 23.708 28.6916 23.6722 28.664 23.6569C28.316 23.4578 26.3252 22.2412 25.9268 20.2473C26.084 20.1933 26.2376 20.1322 26.3846 20.0599C27.0272 21.1185 27.9626 22.0614 28.7156 22.4215C29.9804 23.0254 31.1384 22.7317 31.652 21.8476C31.6706 21.8164 31.6478 21.7776 31.61 21.7741C30.8276 21.7119 28.4264 21.0269 27.404 19.3579C27.521 19.251 27.6356 19.1394 27.7424 19.0207C28.8122 19.8314 30.3248 20.5481 31.4078 20.6944C32.675 20.8659 34.1108 20.4635 34.1456 18.9966C34.1462 18.9672 34.1198 18.9432 34.0886 18.9449C33.638 18.9719 30.6554 19.1012 28.5302 17.8869C28.604 17.7477 28.6724 17.6055 28.7366 17.4604C28.7366 17.4604 31.9478 18.2159 33.4694 17.9656C34.9814 17.7171 35.867 16.5951 35.696 15.1993C35.6912 15.1646 35.6504 15.1441 35.618 15.1605ZM7.26264 17.4604C7.32684 17.6055 7.39584 17.7477 7.46964 17.8869C5.34505 19.1006 2.36365 18.9725 1.91125 18.9449C1.87945 18.9432 1.85305 18.9684 1.85365 18.9972C1.88905 20.4635 3.32425 20.8659 4.59145 20.6944C5.67385 20.5481 7.18704 19.8314 8.25684 19.0207C8.36424 19.1394 8.47824 19.251 8.59524 19.3579C7.57224 21.0269 5.17165 21.7119 4.38925 21.7741C4.35145 21.7776 4.32925 21.8164 4.34725 21.8476C4.86085 22.7317 6.01885 23.0254 7.28424 22.4215C8.03664 22.0614 8.97204 21.1185 9.61464 20.0599C9.76224 20.1322 9.91584 20.1933 10.0724 20.2473C9.67404 22.2412 7.68324 23.4578 7.33524 23.6569C7.30824 23.6722 7.30164 23.708 7.32204 23.7309C7.91424 24.3942 9.28044 24.4077 10.1168 23.4484C10.6304 22.858 11.0252 21.7612 11.2466 20.4371C11.8622 20.4371 13.268 20.7002 13.7378 21.9392C13.7582 21.9915 13.8416 21.978 13.8416 21.9233V18.5296C13.8416 18.4949 13.805 18.472 13.7702 18.4832C12.9974 18.7376 12.1928 18.7687 11.636 18.6612C10.5386 18.4679 9.70884 17.5767 9.70884 16.5052C9.70884 15.889 9.98424 15.3332 10.4258 14.9344C10.52 14.8503 10.5074 14.7082 10.3982 14.6418C10.346 14.6107 10.2944 14.5789 10.2554 14.5543C6.42265 12.1292 2.93125 6.51314 2.55505 5.89631C2.53765 5.86753 2.49565 5.86165 2.46985 5.88398C1.29205 6.91614 1.17745 8.93876 2.41705 10.5243C3.23725 11.5735 4.95925 12.7208 6.72265 13.7166C6.69805 13.9016 6.68065 14.0878 6.67165 14.2764C3.04285 13.501 0.739451 11.009 0.369252 10.586C0.344652 10.5572 0.295452 10.5631 0.278652 10.596C-0.389148 11.9007 0.190452 13.6525 1.51465 14.3868C2.67745 15.0307 4.50205 15.4096 6.74665 15.6769C6.77125 15.8384 6.80005 16 6.83545 16.1604C3.46645 16.6139 0.834851 15.389 0.382452 15.1611C0.348852 15.1441 0.308052 15.1652 0.303852 15.2005C0.133452 16.5963 1.01845 17.7171 2.53045 17.9656C4.05145 18.2159 7.26264 17.4604 7.26264 17.4604ZM28.1462 27.9377L26.9762 27.0213C26.5094 27.298 26.1662 27.7374 26.033 28.2526C25.3292 28.3507 23.4104 27.9266 23.597 27.6452C25.7 24.7008 24.0914 22.9479 22.1582 23.0454V25.0228C22.1582 25.6578 21.6014 26.1724 20.9156 26.1724H19.5806C18.623 26.1724 17.9996 27.1306 17.9996 27.1306C17.9996 27.1306 17.3762 26.1724 16.4186 26.1724H15.0836C14.3972 26.1724 13.8416 25.6578 13.8416 25.0228V23.0454C11.9084 22.9479 10.2986 24.7008 12.4022 27.6452C12.587 27.9236 10.6148 28.3695 9.68964 28.2567C9.44604 28.0053 9.09444 27.8467 8.70084 27.8467C8.52744 27.8467 8.36244 27.8784 8.21064 27.9342C8.21064 27.9342 4.57525 24.5082 4.50865 24.4747L4.53865 24.4053C4.74565 24.02 4.42885 23.5999 4.22845 23.6293C4.46125 23.3514 4.47205 22.1348 3.18085 21.8534C3.21865 22.0978 3.23785 22.5966 3.23785 22.5966C3.23785 22.5966 2.24125 22.0602 1.74085 22.5231C1.30105 23.0413 1.91125 23.9812 1.91125 23.9812C1.91125 23.9812 1.40125 23.9935 1.14985 23.9724C1.51945 25.2166 2.75905 25.1285 3.02725 24.8829C3.00985 25.0809 3.45805 25.3629 3.83785 25.1367L4.00465 25.0562C4.03405 25.0956 7.57464 28.4253 7.57464 28.4253C7.41204 28.6656 7.33464 28.9605 7.38804 29.2748C7.47204 29.7659 7.88304 30.173 8.40804 30.2787C8.77884 30.3528 9.12744 30.2811 9.40704 30.1184L10.3442 30.9843C10.4276 31.0595 10.5404 31.1065 10.6664 31.0977C10.8956 31.0824 11.0672 30.8973 11.0498 30.6853C11.0426 30.5895 10.9934 30.5073 10.9256 30.445C10.9106 30.4286 9.97104 29.5603 9.97104 29.5603C10.7462 29.0192 12.1904 28.638 13.3892 28.638C13.5998 28.638 13.6988 28.4606 13.6262 28.2867C13.0832 26.9866 14.2508 26.0449 15.4586 26.8116C15.9854 27.1458 16.5206 27.8044 16.9238 28.9029C14.942 29.3805 12.4538 30.6964 11.9504 32.1328C11.7566 32.6873 12.3968 33.4434 13.1744 33.5955C13.2038 33.602 13.232 33.5826 13.2374 33.555C13.6436 31.4108 15.9602 29.8129 17.1656 29.5415C17.2262 29.703 17.2064 29.6508 17.267 29.8117C15.9542 30.4297 14.681 31.7333 14.3174 33.283C14.1506 33.9927 14.9456 34.6324 15.602 34.8075C15.635 34.8163 15.6674 34.7934 15.6692 34.7616C15.794 32.8019 16.6634 31.1376 17.4422 30.3804C17.4632 30.5261 17.4794 30.6753 17.4902 30.8263C17.4902 30.8263 16.6928 33.038 16.6928 34.6518C16.6928 35.4026 17.8136 35.9266 17.9792 36C18.1862 35.9266 19.3064 35.4026 19.3064 34.6518C19.3064 33.038 18.509 30.8263 18.509 30.8263C18.5204 30.6753 18.536 30.5261 18.5576 30.3804C19.3358 31.1376 20.2058 32.8013 20.33 34.7611C20.3318 34.7928 20.3648 34.8163 20.3972 34.8075C21.0542 34.6324 21.8486 33.9927 21.6824 33.283C21.3182 31.7333 20.0456 30.4297 18.7328 29.8117C18.7928 29.6508 18.773 29.703 18.8336 29.5415C20.0396 29.8129 22.3556 31.4108 22.7618 33.555C22.7672 33.5826 22.796 33.602 22.8248 33.5955C23.6018 33.4434 24.2432 32.6873 24.0482 32.1328C23.546 30.6964 21.0572 29.3805 19.0754 28.9029C19.4792 27.8044 20.0144 27.1458 20.5412 26.8116C21.7484 26.0449 22.916 26.9866 22.373 28.2867C22.3004 28.4606 22.3988 28.638 22.61 28.638C23.966 28.638 25.6364 29.1256 26.2976 29.7794C26.72 30.4103 27.5006 30.8139 28.3814 30.7276C29.3822 30.63 30.1982 29.8816 30.311 28.9564C30.4094 28.1457 29.9882 27.4178 29.3168 27.0213L28.1462 27.9377ZM19.5224 22.032C19.9394 21.8781 20.5928 22.0026 20.5706 22.6019C20.5652 22.7376 20.7566 22.7376 20.7704 22.5989C20.8952 21.7019 20.2862 21.4434 19.649 21.5485C19.5698 21.2401 19.505 20.9705 19.4312 20.7032C19.3724 20.487 19.3508 20.0811 19.6022 20.0811C19.7378 20.0811 19.6832 20.4588 19.6706 20.6215C19.6592 20.7643 19.7108 20.8506 19.8272 20.8548C19.8998 20.8577 19.9904 20.7655 20.0444 20.7044C20.4092 20.2937 20.4938 19.6581 20.0666 19.3514C19.709 19.0941 18.8138 19.2857 18.5678 19.6522C18.5306 19.5142 18.353 19.2862 18.2678 19.187C18.185 19.09 18.1634 19.0236 18.278 18.9385C18.332 18.8973 18.4952 18.7358 18.4952 18.569C18.4952 18.4703 18.4184 18.2881 18.1742 18.2881C17.9816 18.2881 17.7674 18.4209 17.7674 18.717C17.7674 18.7828 17.7836 18.8533 17.8262 18.9291C17.7044 18.9091 17.3738 18.9173 17.204 18.959L19.5518 25.3723C20.2238 25.0421 20.7164 24.5193 20.7164 23.9583C20.7164 23.4801 20.009 23.6387 19.6652 24.0118C19.5548 23.4055 19.4564 22.8456 19.349 22.2876C19.3196 22.1336 19.3982 22.0784 19.5224 22.032ZM16.2026 17.6754L16.6958 19.0395C16.2734 19.1394 15.5942 19.446 15.5942 19.852C15.5942 20.3924 16.5548 20.7443 17.1104 20.702C17.0828 20.8254 17.1146 20.9352 17.201 21.0357C16.9994 21.0357 16.619 21.1291 16.4942 21.263C16.1996 20.9899 15.7388 20.8906 15.5198 21.0568C15.2996 21.2243 15.293 21.508 15.5228 21.8288C15.683 22.0508 15.743 22.2699 15.563 22.5272C16.2326 22.5272 15.986 21.6607 16.2482 21.6607C16.214 21.8288 16.235 22.0232 16.3112 22.2388C16.3616 22.3821 16.3616 22.4838 16.2752 22.6218C16.0592 22.9655 15.7232 23.755 15.7688 24.4688C15.5492 24.4676 15.4376 24.4142 15.515 24.1157C15.5438 24.0047 15.4748 23.9254 15.3836 24.0623C15.2828 24.2132 15.2342 24.4711 15.2342 24.5816C15.2342 25.2172 15.995 25.3453 16.2854 25.2108C17.1254 26.0199 18.7754 25.8041 19.328 25.5327L16.4228 17.5979C16.3634 17.4481 16.1504 17.5198 16.2026 17.6754ZM16.1018 24.2115C16.0418 23.8849 16.4984 23.3009 17.0792 22.7376C16.9556 23.1047 17.0324 23.7374 17.2748 23.9554C16.8536 23.9554 16.3532 24.0341 16.1018 24.2115Z" fill="black"/>
</svg>
