<svg width="48" height="48" viewBox="0 0 48 48" fill="none" xmlns="http://www.w3.org/2000/svg">
<path fill-rule="evenodd" clip-rule="evenodd" d="M37.5 18.5H24V15.5H37.5V18.5Z" fill="#FFD633"/>
<path fill-rule="evenodd" clip-rule="evenodd" d="M37.5 29.5H24V26.5H37.5V29.5Z" fill="#FFD633"/>
<path fill-rule="evenodd" clip-rule="evenodd" d="M44 8H4C3.44772 8 3 8.44772 3 9V35C3 35.5523 3.44772 36 4 36H44C44.5523 36 45 35.5523 45 35V9C45 8.44771 44.5523 8 44 8ZM4 5C1.79086 5 0 6.79086 0 9V35C0 37.2091 1.79086 39 4 39H44C46.2091 39 48 37.2091 48 35V9C48 6.79086 46.2091 5 44 5H4Z" fill="#FFD633"/>
<path fill-rule="evenodd" clip-rule="evenodd" d="M20.61 15.009L14.5518 21.673L9.93945 17.0606L12.0608 14.9393L14.4484 17.3269L18.3902 12.991L20.61 15.009Z" fill="#FFD633"/>
<path fill-rule="evenodd" clip-rule="evenodd" d="M20.61 26.009L14.5518 32.673L9.93945 28.0606L12.0608 25.9393L14.4484 28.3269L18.3902 23.991L20.61 26.009Z" fill="#FFD633"/>
<path fill-rule="evenodd" clip-rule="evenodd" d="M22.5 44V37H25.5V44H22.5Z" fill="#FFD633"/>
<path fill-rule="evenodd" clip-rule="evenodd" d="M33 45.5L15 45.5V42.5L33 42.5V45.5Z" fill="#FFD633"/>
</svg>
