<svg width="60" height="61" viewBox="0 0 60 61" fill="none" xmlns="http://www.w3.org/2000/svg">
<path fill-rule="evenodd" clip-rule="evenodd" d="M30 47.5664C39.9411 47.5664 48 39.5075 48 29.5664C48 19.6253 39.9411 11.5664 30 11.5664C20.0589 11.5664 12 19.6253 12 29.5664C12 39.5075 20.0589 47.5664 30 47.5664ZM30 52.5664C42.7025 52.5664 53 42.269 53 29.5664C53 16.8639 42.7025 6.56641 30 6.56641C17.2975 6.56641 7 16.8639 7 29.5664C7 42.269 17.2975 52.5664 30 52.5664Z" fill="#FFD633"/>
<path fill-rule="evenodd" clip-rule="evenodd" d="M30 18.5664C27.2386 18.5664 25 20.805 25 23.5664C25 26.3278 27.2386 28.5664 30 28.5664C32.7614 28.5664 35 26.3278 35 23.5664C35 20.805 32.7614 18.5664 30 18.5664Z" fill="#FFD633"/>
<path d="M42.4558 35.8385C40.7844 34.167 38.8001 32.8412 36.6162 31.9366C34.4324 31.032 32.0917 30.5664 29.7279 30.5664C27.3641 30.5664 25.0235 31.032 22.8396 31.9366C20.6558 32.8412 18.6715 34.167 17 35.8385L20.4764 39.3149C21.6913 38.0999 23.1336 37.1362 24.721 36.4787C26.3084 35.8212 28.0098 35.4828 29.7279 35.4827C31.4461 35.4827 33.1474 35.8212 34.7348 36.4787C36.3222 37.1362 37.7645 38.0999 38.9795 39.3149L42.4558 35.8385Z" fill="#FFD633"/>
<path fill-rule="evenodd" clip-rule="evenodd" d="M51.2324 56.3342L43.2324 48.3342L46.768 44.7986L54.768 52.7986L51.2324 56.3342Z" fill="#FFD633"/>
</svg>
