<svg width="48" height="48" viewBox="0 0 48 48" fill="none" xmlns="http://www.w3.org/2000/svg">
<path d="M6.71875 12.1882C6.71875 11.0655 7.62893 10.1553 8.7517 10.1553H32.8884C34.0111 10.1553 34.9213 11.0655 34.9213 12.1882V42.4678C34.9213 43.5906 34.0111 44.5008 32.8884 44.5008H8.7517C7.62893 44.5008 6.71875 43.5906 6.71875 42.4678V12.1882Z" fill="url(#paint0_linear)"/>
<g filter="url(#filter0_b)">
<path d="M13.0781 5.87279C13.0781 4.75003 13.9883 3.83984 15.1111 3.83984H32.5282L36.4182 8.13303L41.2807 13.3803V36.1524C41.2807 37.2752 40.3705 38.1854 39.2477 38.1854H15.1111C13.9883 38.1854 13.0781 37.2752 13.0781 36.1524V5.87279Z" fill="url(#paint1_linear)"/>
</g>
<path d="M29.0835 16.4457C29.0835 16.2211 28.9015 16.0391 28.677 16.0391H26.441C26.2164 16.0391 26.0344 16.2211 26.0344 16.4457V21.1198H21.3597C21.1352 21.1198 20.9531 21.3019 20.9531 21.5264V23.7628C20.9531 23.9873 21.1352 24.1694 21.3597 24.1694H26.0344V28.8471C26.0344 29.0716 26.2164 29.2537 26.441 29.2537H28.677C28.9015 29.2537 29.0835 29.0716 29.0835 28.8471V24.1694H33.7596C33.9842 24.1694 34.1662 23.9873 34.1662 23.7628V21.5264C34.1662 21.3019 33.9842 21.1198 33.7596 21.1198H29.0835V16.4457Z" fill="url(#paint2_linear)"/>
<path d="M32.5273 11.5359V3.83984L41.2799 13.3803H34.3717C33.3531 13.3803 32.5273 12.5545 32.5273 11.5359Z" fill="url(#paint3_linear)"/>
<defs>
<filter id="filter0_b" x="9.07812" y="-0.160156" width="36.2031" height="42.3457" filterUnits="userSpaceOnUse" color-interpolation-filters="sRGB">
<feFlood flood-opacity="0" result="BackgroundImageFix"/>
<feGaussianBlur in="BackgroundImage" stdDeviation="2"/>
<feComposite in2="SourceAlpha" operator="in" result="effect1_backgroundBlur"/>
<feBlend mode="normal" in="SourceGraphic" in2="effect1_backgroundBlur" result="shape"/>
</filter>
<linearGradient id="paint0_linear" x1="20.82" y1="10.1553" x2="20.82" y2="44.5008" gradientUnits="userSpaceOnUse">
<stop stop-color="#8373F5"/>
<stop offset="1" stop-color="#975FE1"/>
</linearGradient>
<linearGradient id="paint1_linear" x1="28.3668" y1="-6.46627" x2="-36.873" y2="53.5598" gradientUnits="userSpaceOnUse">
<stop stop-color="white"/>
<stop offset="1" stop-color="#8951B5" stop-opacity="0.35"/>
</linearGradient>
<linearGradient id="paint2_linear" x1="27.5597" y1="16.0391" x2="27.5597" y2="29.2537" gradientUnits="userSpaceOnUse">
<stop stop-color="#8373F5"/>
<stop offset="1" stop-color="#975FE1"/>
</linearGradient>
<linearGradient id="paint3_linear" x1="36.9036" y1="3.83984" x2="36.9036" y2="13.3803" gradientUnits="userSpaceOnUse">
<stop stop-color="#8373F5"/>
<stop offset="1" stop-color="#975FE1"/>
</linearGradient>
</defs>
</svg>
