<svg width="40" height="40" viewBox="0 0 40 40" fill="none" xmlns="http://www.w3.org/2000/svg">
<path d="M0 4C0 1.79086 1.79086 0 4 0H36C38.2091 0 40 1.79086 40 4V36C40 38.2091 38.2091 40 36 40H4C1.79086 40 0 38.2091 0 36V4Z" fill="#9D87F1"/>
<rect width="24" height="24" transform="translate(8 8)" fill="#9D87F1"/>
<rect x="10" y="12.6929" width="15.8558" height="19.3073" rx="3.83" fill="url(#paint0_linear)"/>
<rect x="10" y="12.6929" width="15.8558" height="19.3073" rx="3.83" fill="url(#paint1_linear)"/>
<g filter="url(#filter0_b)">
<path d="M14.7157 12C14.7157 9.79086 16.5066 8 18.7157 8H23.8775C25.0067 8 26.0832 8.47728 26.8415 9.31402L27.8378 10.4134L29.5053 12.2127C30.1907 12.9522 30.5715 13.9234 30.5715 14.9317V23.3073C30.5715 25.5164 28.7807 27.3073 26.5715 27.3073H18.7157C16.5066 27.3073 14.7157 25.5164 14.7157 23.3073V12Z" fill="url(#paint2_linear)"/>
</g>
<path d="M25.6507 11.4531V8L30.5715 13.3631H27.5607C26.5058 13.3631 25.6507 12.508 25.6507 11.4531Z" fill="url(#paint3_linear)"/>
<path d="M25.6507 11.4531V8L30.5715 13.3631H27.5607C26.5058 13.3631 25.6507 12.508 25.6507 11.4531Z" fill="url(#paint4_linear)"/>
<defs>
<filter id="filter0_b" x="10.7157" y="4" width="23.8558" height="27.3073" filterUnits="userSpaceOnUse" color-interpolation-filters="sRGB">
<feFlood flood-opacity="0" result="BackgroundImageFix"/>
<feGaussianBlur in="BackgroundImage" stdDeviation="2"/>
<feComposite in2="SourceAlpha" operator="in" result="effect1_backgroundBlur"/>
<feBlend mode="normal" in="SourceGraphic" in2="effect1_backgroundBlur" result="shape"/>
</filter>
<linearGradient id="paint0_linear" x1="17.9279" y1="12.6929" x2="17.9279" y2="32.0001" gradientUnits="userSpaceOnUse">
<stop stop-color="#8373F5"/>
<stop offset="1" stop-color="#975FE1"/>
</linearGradient>
<linearGradient id="paint1_linear" x1="16.4523" y1="14.2633" x2="8.6914" y2="49.421" gradientUnits="userSpaceOnUse">
<stop stop-color="#E9EBFF"/>
<stop offset="1" stop-color="#EFEFF6"/>
</linearGradient>
<linearGradient id="paint2_linear" x1="22.6436" y1="8" x2="14.9565" y2="39.9906" gradientUnits="userSpaceOnUse">
<stop stop-color="white"/>
<stop offset="1" stop-color="#8951B5" stop-opacity="0"/>
</linearGradient>
<linearGradient id="paint3_linear" x1="28.1111" y1="8" x2="28.1111" y2="13.3631" gradientUnits="userSpaceOnUse">
<stop stop-color="#8373F5"/>
<stop offset="1" stop-color="#975FE1"/>
</linearGradient>
<linearGradient id="paint4_linear" x1="27.6531" y1="8.43624" x2="25.7056" y2="18.2934" gradientUnits="userSpaceOnUse">
<stop stop-color="#E9EBFF"/>
<stop offset="1" stop-color="#EFEFF6"/>
</linearGradient>
</defs>
</svg>
