<svg width="50" height="50" viewBox="0 0 50 50" fill="none" xmlns="http://www.w3.org/2000/svg">
<path fill-rule="evenodd" clip-rule="evenodd" d="M39.9942 17H9.66406V34.5598H9.66691C9.66805 35.6422 10.1746 36.7196 11.1853 37.3881L20.5857 43.605C23.1285 45.2867 26.4445 45.2725 29.0018 43.569L38.4557 37.2715C39.5366 36.5515 40.0513 35.374 39.9942 34.2246V17Z" fill="url(#paint0_linear)"/>
<g filter="url(#filter0_b)">
<path d="M18.0404 7.18798C22.108 4.40146 27.4701 4.40146 31.5377 7.18798L45.2301 16.5678C48.2237 18.6186 48.1913 23.0471 45.168 25.0538L31.0784 34.4058C27.2671 36.9355 22.3111 36.9355 18.4998 34.4058L4.41015 25.0538C1.38682 23.0471 1.35441 18.6186 4.34804 16.5678L18.0404 7.18798Z" fill="url(#paint1_linear)"/>
</g>
<defs>
<filter id="filter0_b" x="-1.87891" y="1.09766" width="53.3329" height="39.205" filterUnits="userSpaceOnUse" color-interpolation-filters="sRGB">
<feFlood flood-opacity="0" result="BackgroundImageFix"/>
<feGaussianBlur in="BackgroundImage" stdDeviation="2"/>
<feComposite in2="SourceAlpha" operator="in" result="effect1_backgroundBlur"/>
<feBlend mode="normal" in="SourceGraphic" in2="effect1_backgroundBlur" result="shape"/>
</filter>
<linearGradient id="paint0_linear" x1="24.8313" y1="17" x2="24.8313" y2="44.8566" gradientUnits="userSpaceOnUse">
<stop stop-color="#8373F5"/>
<stop offset="1" stop-color="#975FE1"/>
</linearGradient>
<linearGradient id="paint1_linear" x1="38.1401" y1="7.50586" x2="-15.7924" y2="43.6608" gradientUnits="userSpaceOnUse">
<stop stop-color="#FFD633"/>
<stop offset="1" stop-color="#E755FF"/>
</linearGradient>
</defs>
</svg>
