<svg width="61" height="60" viewBox="0 0 61 60" fill="none" xmlns="http://www.w3.org/2000/svg">
<g clip-path="url(#clip0)">
<path fill-rule="evenodd" clip-rule="evenodd" d="M7.04701 29.4893C14.5458 39.9373 22.5128 44.625 29.9422 44.625C37.3659 44.625 45.222 39.9421 52.4936 29.4881C45.7179 19.6414 37.6625 15.125 29.9422 15.125C22.2186 15.125 14.0503 19.6442 7.04701 29.4893ZM29.9422 10.125C40.2483 10.125 50.0635 16.4417 57.6061 28.1458L58.489 29.5159L57.5916 30.8765C49.6186 42.9646 40.0778 49.625 29.9422 49.625C19.8197 49.625 10.1577 42.9794 1.93817 30.907L0.990234 29.5147L1.92454 28.1133C9.71404 16.429 19.6472 10.125 29.9422 10.125Z" fill="#FFD633"/>
<path fill-rule="evenodd" clip-rule="evenodd" d="M30.0039 35C32.7653 35 35.0039 32.7614 35.0039 30C35.0039 27.2386 32.7653 25 30.0039 25C27.2425 25 25.0039 27.2386 25.0039 30C25.0039 32.7614 27.2425 35 30.0039 35ZM30.0039 40C35.5268 40 40.0039 35.5228 40.0039 30C40.0039 24.4772 35.5268 20 30.0039 20C24.4811 20 20.0039 24.4772 20.0039 30C20.0039 35.5228 24.4811 40 30.0039 40Z" fill="#FFD633"/>
</g>
<defs>
<clipPath id="clip0">
<rect width="60" height="60" fill="white" transform="translate(0.00390625)"/>
</clipPath>
</defs>
</svg>
