<svg width="399" height="400" viewBox="0 0 399 400" fill="none" xmlns="http://www.w3.org/2000/svg">
<path d="M305.022 15C299.137 -5 270.865 -5 264.98 15L263.555 19.8571C262.675 22.8514 261.139 25.6103 259.057 27.9316C256.976 30.2529 254.403 32.0778 251.526 33.2723C248.65 34.4669 245.543 35.0009 242.434 34.8351C239.325 34.6693 236.292 33.808 233.558 32.3143L229.141 29.8857C210.858 19.9143 190.865 39.9571 200.826 58.2714L203.234 62.7143C209.59 74.4286 203.562 89.0143 190.808 92.7857L185.963 94.2143C166.013 100.114 166.013 128.457 185.963 134.357L190.808 135.786C193.795 136.667 196.547 138.208 198.863 140.294C201.178 142.381 202.999 144.961 204.19 147.844C205.382 150.728 205.914 153.842 205.749 156.959C205.584 160.076 204.724 163.116 203.234 165.857L200.812 170.286C190.865 188.614 210.858 208.657 229.127 198.671L233.558 196.257C236.292 194.763 239.325 193.902 242.434 193.736C245.543 193.571 248.65 194.105 251.526 195.299C254.403 196.494 256.976 198.319 259.057 200.64C261.139 202.961 262.675 205.72 263.555 208.714L264.98 213.571C270.865 233.571 299.137 233.571 305.022 213.571L306.447 208.714C307.327 205.72 308.863 202.961 310.945 200.64C313.026 198.319 315.599 196.494 318.476 195.299C321.352 194.105 324.459 193.571 327.568 193.736C330.677 193.902 333.71 194.763 336.443 196.257L340.861 198.686C359.144 208.657 379.136 188.614 369.176 170.3L366.767 165.857C365.277 163.116 364.418 160.076 364.253 156.959C364.088 153.842 364.62 150.728 365.812 147.844C367.003 144.961 368.824 142.381 371.139 140.294C373.455 138.208 376.207 136.667 379.193 135.786L384.038 134.357C403.988 128.457 403.988 100.114 384.038 94.2143L379.193 92.7857C376.207 91.9042 373.455 90.3636 371.139 88.277C368.824 86.1904 367.003 83.6107 365.812 80.7271C364.62 77.8434 364.088 74.729 364.253 71.6121C364.418 68.4952 365.277 65.455 366.767 62.7143L369.19 58.2857C379.136 39.9571 359.144 19.9143 340.875 29.9L336.443 32.3143C333.71 33.808 330.677 34.6693 327.568 34.8351C324.459 35.0009 321.352 34.4669 318.476 33.2723C315.599 32.0778 313.026 30.2529 310.945 27.9316C308.863 25.6103 307.327 22.8514 306.447 19.8571L305.022 15ZM285.001 156.143C273.928 156.143 263.308 151.733 255.477 143.883C247.647 136.033 243.248 125.387 243.248 114.286C243.248 103.185 247.647 92.538 255.477 84.6883C263.308 76.8385 273.928 72.4286 285.001 72.4286C296.071 72.4286 306.687 76.837 314.514 84.6841C322.342 92.5311 326.739 103.174 326.739 114.271C326.739 125.369 322.342 136.012 314.514 143.859C306.687 151.706 296.071 156.114 285.001 156.114V156.143Z" fill="url(#paint0_linear)"/>
<path d="M305.022 15C299.137 -5 270.865 -5 264.98 15L263.555 19.8571C262.675 22.8514 261.139 25.6103 259.057 27.9316C256.976 30.2529 254.403 32.0778 251.526 33.2723C248.65 34.4669 245.543 35.0009 242.434 34.8351C239.325 34.6693 236.292 33.808 233.558 32.3143L229.141 29.8857C210.858 19.9143 190.865 39.9571 200.826 58.2714L203.234 62.7143C209.59 74.4286 203.562 89.0143 190.808 92.7857L185.963 94.2143C166.013 100.114 166.013 128.457 185.963 134.357L190.808 135.786C193.795 136.667 196.547 138.208 198.863 140.294C201.178 142.381 202.999 144.961 204.19 147.844C205.382 150.728 205.914 153.842 205.749 156.959C205.584 160.076 204.724 163.116 203.234 165.857L200.812 170.286C190.865 188.614 210.858 208.657 229.127 198.671L233.558 196.257C236.292 194.763 239.325 193.902 242.434 193.736C245.543 193.571 248.65 194.105 251.526 195.299C254.403 196.494 256.976 198.319 259.057 200.64C261.139 202.961 262.675 205.72 263.555 208.714L264.98 213.571C270.865 233.571 299.137 233.571 305.022 213.571L306.447 208.714C307.327 205.72 308.863 202.961 310.945 200.64C313.026 198.319 315.599 196.494 318.476 195.299C321.352 194.105 324.459 193.571 327.568 193.736C330.677 193.902 333.71 194.763 336.443 196.257L340.861 198.686C359.144 208.657 379.136 188.614 369.176 170.3L366.767 165.857C365.277 163.116 364.418 160.076 364.253 156.959C364.088 153.842 364.62 150.728 365.812 147.844C367.003 144.961 368.824 142.381 371.139 140.294C373.455 138.208 376.207 136.667 379.193 135.786L384.038 134.357C403.988 128.457 403.988 100.114 384.038 94.2143L379.193 92.7857C376.207 91.9042 373.455 90.3636 371.139 88.277C368.824 86.1904 367.003 83.6107 365.812 80.7271C364.62 77.8434 364.088 74.729 364.253 71.6121C364.418 68.4952 365.277 65.455 366.767 62.7143L369.19 58.2857C379.136 39.9571 359.144 19.9143 340.875 29.9L336.443 32.3143C333.71 33.808 330.677 34.6693 327.568 34.8351C324.459 35.0009 321.352 34.4669 318.476 33.2723C315.599 32.0778 313.026 30.2529 310.945 27.9316C308.863 25.6103 307.327 22.8514 306.447 19.8571L305.022 15ZM285.001 156.143C273.928 156.143 263.308 151.733 255.477 143.883C247.647 136.033 243.248 125.387 243.248 114.286C243.248 103.185 247.647 92.538 255.477 84.6883C263.308 76.8385 273.928 72.4286 285.001 72.4286C296.071 72.4286 306.687 76.837 314.514 84.6841C322.342 92.5311 326.739 103.174 326.739 114.271C326.739 125.369 322.342 136.012 314.514 143.859C306.687 151.706 296.071 156.114 285.001 156.114V156.143Z" fill="url(#paint1_linear)"/>
<g filter="url(#filter0_b)">
<path d="M201.032 377.5C192.204 407.5 149.796 407.5 140.968 377.5L138.831 370.214C137.512 365.723 135.207 361.585 132.085 358.103C128.962 354.621 125.103 351.883 120.788 350.091C116.473 348.3 111.813 347.499 107.15 347.747C102.486 347.996 97.937 349.288 93.8363 351.529L87.21 355.171C59.7859 370.129 29.7967 340.064 44.7379 312.593L48.3503 305.929C57.8835 288.357 48.8419 266.479 29.7113 260.821L22.4437 258.679C-7.48125 249.829 -7.48125 207.314 22.4437 198.464L29.7113 196.321C34.1913 194.999 38.3194 192.688 41.7927 189.558C45.2659 186.429 47.9964 182.559 49.7837 178.233C51.5711 173.908 52.37 169.236 52.122 164.561C51.874 159.886 50.5852 155.325 48.3503 151.214L44.7165 144.571C29.7967 117.079 59.7859 87.0143 87.1886 101.993L93.8363 105.614C97.937 107.855 102.486 109.147 107.15 109.396C111.813 109.644 116.473 108.843 120.788 107.051C125.103 105.26 128.962 102.522 132.085 99.0403C135.207 95.5583 137.512 91.4199 138.831 86.9286L140.968 79.6429C149.796 49.6429 192.204 49.6429 201.032 79.6429L203.169 86.9286C204.488 91.4199 206.793 95.5583 209.915 99.0403C213.038 102.522 216.897 105.26 221.212 107.051C225.527 108.843 230.187 109.644 234.85 109.396C239.514 109.147 244.063 107.855 248.164 105.614L254.79 101.971C282.214 87.0143 312.203 117.079 297.262 144.55L293.65 151.214C291.415 155.325 290.126 159.886 289.878 164.561C289.63 169.236 290.429 173.908 292.216 178.233C294.004 182.559 296.734 186.429 300.207 189.558C303.681 192.688 307.809 194.999 312.289 196.321L319.556 198.464C349.481 207.314 349.481 249.829 319.556 258.679L312.289 260.821C307.809 262.144 303.681 264.455 300.207 267.584C296.734 270.714 294.004 274.584 292.216 278.909C290.429 283.235 289.63 287.907 289.878 292.582C290.126 297.257 291.415 301.818 293.65 305.929L297.284 312.571C312.203 340.064 282.214 370.129 254.811 355.15L248.164 351.529C244.063 349.288 239.514 347.996 234.85 347.747C230.187 347.499 225.527 348.3 221.212 350.091C216.897 351.883 213.038 354.621 209.915 358.103C206.793 361.585 204.488 365.723 203.169 370.214L201.032 377.5ZM171 165.786C154.39 165.786 138.46 172.401 126.715 184.175C114.97 195.95 108.371 211.92 108.371 228.571C108.371 245.223 114.97 261.193 126.715 272.968C138.46 284.742 154.39 291.357 171 291.357C187.605 291.357 203.529 284.745 215.27 272.974C227.011 261.203 233.607 245.239 233.607 228.593C233.607 211.947 227.011 195.982 215.27 184.212C203.529 172.441 187.605 165.829 171 165.829V165.786Z" fill="url(#paint2_linear)"/>
</g>
<defs>
<filter id="filter0_b" x="-4" y="53.1428" width="350" height="350.857" filterUnits="userSpaceOnUse" color-interpolation-filters="sRGB">
<feFlood flood-opacity="0" result="BackgroundImageFix"/>
<feGaussianBlur in="BackgroundImage" stdDeviation="2"/>
<feComposite in2="SourceAlpha" operator="in" result="effect1_backgroundBlur"/>
<feBlend mode="normal" in="SourceGraphic" in2="effect1_backgroundBlur" result="shape"/>
</filter>
<linearGradient id="paint0_linear" x1="285.001" y1="0" x2="285.001" y2="228.571" gradientUnits="userSpaceOnUse">
<stop stop-color="#8373F5"/>
<stop offset="1" stop-color="#975FE1"/>
</linearGradient>
<linearGradient id="paint1_linear" x1="263.783" y1="18.5919" x2="186.99" y2="441.137" gradientUnits="userSpaceOnUse">
<stop stop-color="#E9EBFF"/>
<stop offset="1" stop-color="#EFEFF6"/>
</linearGradient>
<linearGradient id="paint2_linear" x1="171" y1="400" x2="56.6029" y2="-178.258" gradientUnits="userSpaceOnUse">
<stop stop-color="white"/>
<stop offset="1" stop-color="#8951B5" stop-opacity="0"/>
</linearGradient>
</defs>
</svg>
