<svg width="16" height="17" viewBox="0 0 16 17" fill="none" xmlns="http://www.w3.org/2000/svg">
<path d="M2.87982 2.06018C2.52636 2.06018 2.23982 2.34672 2.23982 2.70018C2.23982 3.05364 2.52636 3.34018 2.87982 3.34018H13.1198C13.4733 3.34018 13.7598 3.05364 13.7598 2.70018C13.7598 2.34672 13.4733 2.06018 13.1198 2.06018H2.87982Z" fill="url(#paint0_linear_17030:87)"/>
<path d="M2.87982 4.62018C2.52636 4.62018 2.23982 4.90672 2.23982 5.26018C2.23982 5.61364 2.52636 5.90018 2.87982 5.90018H13.1198C13.4733 5.90018 13.7598 5.61364 13.7598 5.26018C13.7598 4.90672 13.4733 4.62018 13.1198 4.62018H2.87982Z" fill="url(#paint1_linear_17030:87)"/>
<path fill-rule="evenodd" clip-rule="evenodd" d="M3.51998 6.86018C2.45959 6.86018 1.59998 7.71979 1.59998 8.78018V12.6202C1.59998 13.6806 2.45959 14.5402 3.51998 14.5402H12.48C13.5404 14.5402 14.4 13.6806 14.4 12.6202V8.78018C14.4 7.71979 13.5404 6.86018 12.48 6.86018H10.88C9.99632 6.86018 9.27998 7.57652 9.27998 8.46018C9.27998 8.63691 9.13671 8.78018 8.95998 8.78018H7.03998C6.86324 8.78018 6.71998 8.63691 6.71998 8.46018C6.71998 7.57652 6.00363 6.86018 5.11998 6.86018H3.51998ZM2.87998 8.78018C2.87998 8.42672 3.16651 8.14018 3.51998 8.14018H5.11998C5.29671 8.14018 5.43998 8.28345 5.43998 8.46018C5.43998 9.34384 6.15632 10.0602 7.03998 10.0602H8.95998C9.84363 10.0602 10.56 9.34384 10.56 8.46018C10.56 8.28345 10.7032 8.14018 10.88 8.14018H12.48C12.8334 8.14018 13.12 8.42672 13.12 8.78018V12.6202C13.12 12.9736 12.8334 13.2602 12.48 13.2602H3.51998C3.16651 13.2602 2.87998 12.9736 2.87998 12.6202V8.78018Z" fill="url(#paint2_linear_17030:87)"/>
<defs>
<linearGradient id="paint0_linear_17030:87" x1="7.99998" y1="2.06018" x2="7.99998" y2="14.5402" gradientUnits="userSpaceOnUse">
<stop stop-color="#8373F5"/>
<stop offset="1" stop-color="#975FE1"/>
</linearGradient>
<linearGradient id="paint1_linear_17030:87" x1="7.99998" y1="2.06018" x2="7.99998" y2="14.5402" gradientUnits="userSpaceOnUse">
<stop stop-color="#8373F5"/>
<stop offset="1" stop-color="#975FE1"/>
</linearGradient>
<linearGradient id="paint2_linear_17030:87" x1="7.99998" y1="2.06018" x2="7.99998" y2="14.5402" gradientUnits="userSpaceOnUse">
<stop stop-color="#8373F5"/>
<stop offset="1" stop-color="#975FE1"/>
</linearGradient>
</defs>
</svg>
