<svg width="18" height="22" viewBox="0 0 18 22" fill="none" xmlns="http://www.w3.org/2000/svg">
<path d="M11.5412 4.9058C12.6579 5.9799 13.5479 7.26563 14.1591 8.68744C14.7703 10.1092 15.09 11.6384 15.0998 13.1852C15.0909 14.8061 14.4444 16.3589 13.2991 17.5098C12.1539 18.6608 10.6015 19.3181 8.9753 19.3405C7.34912 19.3629 5.779 18.7487 4.6023 17.6297C3.4256 16.5108 2.73622 14.9765 2.68228 13.3564V13.181C2.7351 11.724 3.19921 10.3114 4.02131 9.1054C4.14019 10.1442 4.53081 11.1335 5.15405 11.9745C5.45622 12.3534 5.84019 12.6595 6.2774 12.87C6.7146 13.0806 7.19381 13.1903 7.67941 13.1909C8.35856 13.1888 9.02456 13.0034 9.60648 12.6543C10.1884 12.3053 10.6646 11.8056 10.9845 11.2085C11.8776 9.2302 12.0737 7.00918 11.5412 4.9058ZM7.57497 0C10.5371 5.0362 10.5222 11.1909 7.67941 11.1909C5.63103 11.1909 5.67276 6.5 6.13269 4.1667C3.43627 5.9062 0.675647 9.5 0.675647 13.181L0.67334 13.1852C0.699506 15.34 1.5767 17.3977 3.11476 18.9122C4.65282 20.4267 6.7278 21.2761 8.88991 21.2761C11.052 21.2761 13.127 20.4267 14.665 18.9122C16.2031 17.3977 17.0803 15.34 17.1065 13.1852V13.181C17.1065 6.7188 12.508 1.875 7.57497 0Z" fill="black"/>
</svg>
