<svg width="40" height="40" viewBox="0 0 40 40" fill="none" xmlns="http://www.w3.org/2000/svg">
<rect width="40" height="40" rx="4" fill="#9D87F1"/>
<path d="M24.0833 20.1646C24.0833 21.1783 23.2616 22 22.2479 22L17.752 22C16.7384 22 15.9166 21.1783 15.9166 20.1646L15.9166 8.61179C15.9166 8.27391 16.1906 8 16.5284 8L23.4715 8C23.8094 8 24.0833 8.27391 24.0833 8.61179L24.0833 20.1646Z" fill="url(#paint0_linear)"/>
<path d="M24.0833 20.1646C24.0833 21.1783 23.2616 22 22.2479 22L17.752 22C16.7384 22 15.9166 21.1783 15.9166 20.1646L15.9166 8.61179C15.9166 8.27391 16.1906 8 16.5284 8L23.4715 8C23.8094 8 24.0833 8.27391 24.0833 8.61179L24.0833 20.1646Z" fill="url(#paint1_linear)"/>
<g filter="url(#filter0_b)">
<path d="M27 25.5C27 29.366 23.866 32.5 20 32.5C16.134 32.5 13 29.366 13 25.5L13 14.4697C13 13.4739 13.8072 12.6667 14.803 12.6667L25.197 12.6667C26.1928 12.6667 27 13.4739 27 14.4697L27 25.5Z" fill="url(#paint2_linear)"/>
</g>
<defs>
<filter id="filter0_b" x="9" y="8.6665" width="22" height="27.8333" filterUnits="userSpaceOnUse" color-interpolation-filters="sRGB">
<feFlood flood-opacity="0" result="BackgroundImageFix"/>
<feGaussianBlur in="BackgroundImage" stdDeviation="2"/>
<feComposite in2="SourceAlpha" operator="in" result="effect1_backgroundBlur"/>
<feBlend mode="normal" in="SourceGraphic" in2="effect1_backgroundBlur" result="shape"/>
</filter>
<linearGradient id="paint0_linear" x1="20" y1="22" x2="20" y2="8" gradientUnits="userSpaceOnUse">
<stop stop-color="#8373F5"/>
<stop offset="1" stop-color="#975FE1"/>
</linearGradient>
<linearGradient id="paint1_linear" x1="20.76" y1="20.8612" x2="28.3369" y2="-3.5197" gradientUnits="userSpaceOnUse">
<stop stop-color="#E9EBFF"/>
<stop offset="1" stop-color="#EFEFF6"/>
</linearGradient>
<linearGradient id="paint2_linear" x1="20" y1="32.5" x2="29.013" y2="0.259918" gradientUnits="userSpaceOnUse">
<stop stop-color="white"/>
<stop offset="1" stop-color="#8951B5" stop-opacity="0"/>
</linearGradient>
</defs>
</svg>
