<svg width="45" height="45" viewBox="0 0 45 45" fill="none" xmlns="http://www.w3.org/2000/svg">
<path d="M27.3771 26.1482C26.1484 27.377 24.1563 27.377 22.9275 26.1482L18.2478 21.4685C17.019 20.2397 17.019 18.2476 18.2478 17.0189L30.9317 4.33492C31.3413 3.92535 32.0053 3.92535 32.4149 4.33492L40.0611 11.9811C40.4707 12.3907 40.4707 13.0547 40.0611 13.4643L27.3771 26.1482Z" fill="url(#paint0_linear)"/>
<g filter="url(#filter0_b)">
<path d="M23.5464 36.4985C19.3916 40.6533 12.6553 40.6533 8.50045 36.4985C4.34562 32.3437 4.34562 25.6074 8.50045 21.4525L21.4947 8.45828C22.6278 7.32514 24.465 7.32514 25.5981 8.45828L36.5407 19.4008C37.6738 20.5339 37.6738 22.3711 36.5407 23.5042L23.5464 36.4985Z" fill="url(#paint1_linear)"/>
</g>
<defs>
<filter id="filter0_b" x="1.38281" y="3.6084" width="40.0062" height="40.0062" filterUnits="userSpaceOnUse" color-interpolation-filters="sRGB">
<feFlood flood-opacity="0" result="BackgroundImageFix"/>
<feGaussianBlur in="BackgroundImage" stdDeviation="2"/>
<feComposite in2="SourceAlpha" operator="in" result="effect1_backgroundBlur"/>
<feBlend mode="normal" in="SourceGraphic" in2="effect1_backgroundBlur" result="shape"/>
</filter>
<linearGradient id="paint0_linear" x1="20.5877" y1="23.8084" x2="36.238" y2="8.158" gradientUnits="userSpaceOnUse">
<stop stop-color="#8373F5"/>
<stop offset="1" stop-color="#975FE1"/>
</linearGradient>
<linearGradient id="paint1_linear" x1="8.50045" y1="36.4985" x2="55.6332" y2="10.8958" gradientUnits="userSpaceOnUse">
<stop stop-color="#FFD633"/>
<stop offset="1" stop-color="#E755FF"/>
</linearGradient>
</defs>
</svg>
