<svg width="50" height="50" viewBox="0 0 50 50" fill="none" xmlns="http://www.w3.org/2000/svg">
<path d="M29.2951 27.9432C28.0664 29.1719 26.0742 29.1719 24.8455 27.9432L20.5169 23.6145C19.2881 22.3858 19.2881 20.3936 20.5169 19.1649L32.5989 7.08291C33.0085 6.67333 33.6725 6.67333 34.0821 7.08291L41.3771 14.378C41.7867 14.7875 41.7867 15.4516 41.3771 15.8612L29.2951 27.9432Z" fill="url(#paint0_linear_15522:55228)"/>
<g filter="url(#filter0_b_15522:55228)">
<path d="M25.5266 37.9812C21.5316 41.9762 15.0544 41.9762 11.0593 37.9812C7.0643 33.9862 7.0643 27.5089 11.0593 23.5139L23.5538 11.0195C24.6434 9.9299 26.4099 9.9299 27.4994 11.0195L38.0211 21.5411C39.1106 22.6307 39.1106 24.3972 38.0211 25.4867L25.5266 37.9812Z" fill="url(#paint1_linear_15522:55228)"/>
</g>
<defs>
<filter id="filter0_b_15522:55228" x="4.0625" y="6.20312" width="38.7773" height="38.7734" filterUnits="userSpaceOnUse" color-interpolation-filters="sRGB">
<feFlood flood-opacity="0" result="BackgroundImageFix"/>
<feGaussianBlur in="BackgroundImage" stdDeviation="2"/>
<feComposite in2="SourceAlpha" operator="in" result="effect1_backgroundBlur_15522:55228"/>
<feBlend mode="normal" in="SourceGraphic" in2="effect1_backgroundBlur_15522:55228" result="shape"/>
</filter>
<linearGradient id="paint0_linear_15522:55228" x1="17.7765" y1="22.8806" x2="42.6794" y2="27.4217" gradientUnits="userSpaceOnUse">
<stop stop-color="#B7BAD7"/>
<stop offset="1" stop-color="#A1A5CE"/>
</linearGradient>
<linearGradient id="paint1_linear_15522:55228" x1="14.1708" y1="37.5624" x2="63.2528" y2="9.46706" gradientUnits="userSpaceOnUse">
<stop stop-color="#DADCEB"/>
<stop offset="1" stop-color="#EFEFF6"/>
</linearGradient>
</defs>
</svg>
