<svg width="24" height="24" viewBox="0 0 24 24" fill="none" xmlns="http://www.w3.org/2000/svg">
<path d="M18.3476 0.9C17.9936 -0.3 16.293 -0.3 15.939 0.9L15.8533 1.19143C15.8004 1.37108 15.708 1.53662 15.5828 1.6759C15.4576 1.81518 15.3028 1.92467 15.1298 1.99634C14.9567 2.06801 14.7699 2.10005 14.5829 2.09011C14.3958 2.08016 14.2134 2.02848 14.049 1.93886L13.7833 1.79314C12.6836 1.19486 11.481 2.39743 12.0801 3.49629L12.225 3.76286C12.6073 4.46571 12.2447 5.34086 11.4776 5.56714L11.1861 5.65286C9.98613 6.00686 9.98613 7.70743 11.1861 8.06143L11.4776 8.14714C11.6572 8.20004 11.8227 8.29247 11.962 8.41766C12.1013 8.54286 12.2108 8.69764 12.2825 8.87066C12.3541 9.04368 12.3862 9.23055 12.3762 9.41756C12.3663 9.60457 12.3146 9.78699 12.225 9.95143L12.0793 10.2171C11.481 11.3169 12.6836 12.5194 13.7824 11.9203L14.049 11.7754C14.2134 11.6858 14.3958 11.6341 14.5829 11.6242C14.7699 11.6142 14.9567 11.6463 15.1298 11.7179C15.3028 11.7896 15.4576 11.8991 15.5828 12.0384C15.708 12.1777 15.8004 12.3432 15.8533 12.5229L15.939 12.8143C16.293 14.0143 17.9936 14.0143 18.3476 12.8143L18.4333 12.5229C18.4862 12.3432 18.5786 12.1777 18.7038 12.0384C18.829 11.8991 18.9838 11.7896 19.1568 11.7179C19.3298 11.6463 19.5167 11.6142 19.7037 11.6242C19.8907 11.6341 20.0731 11.6858 20.2376 11.7754L20.5033 11.9211C21.603 12.5194 22.8056 11.3169 22.2064 10.218L22.0616 9.95143C21.9719 9.78699 21.9203 9.60457 21.9103 9.41756C21.9004 9.23055 21.9324 9.04368 22.0041 8.87066C22.0758 8.69764 22.1852 8.54286 22.3245 8.41766C22.4638 8.29247 22.6293 8.20004 22.809 8.14714L23.1004 8.06143C24.3004 7.70743 24.3004 6.00686 23.1004 5.65286L22.809 5.56714C22.6293 5.51425 22.4638 5.42182 22.3245 5.29662C22.1852 5.17143 22.0758 5.01664 22.0041 4.84362C21.9324 4.67061 21.9004 4.48374 21.9103 4.29673C21.9203 4.10971 21.9719 3.9273 22.0616 3.76286L22.2073 3.49714C22.8056 2.39743 21.603 1.19486 20.5041 1.794L20.2376 1.93886C20.0731 2.02848 19.8907 2.08016 19.7037 2.09011C19.5167 2.10005 19.3298 2.06801 19.1568 1.99634C18.9838 1.92467 18.829 1.81518 18.7038 1.6759C18.5786 1.53662 18.4862 1.37108 18.4333 1.19143L18.3476 0.9ZM17.1433 9.36857C16.4772 9.36857 15.8384 9.10398 15.3674 8.63299C14.8964 8.16201 14.6318 7.52322 14.6318 6.85714C14.6318 6.19107 14.8964 5.55228 15.3674 5.0813C15.8384 4.61031 16.4772 4.34571 17.1433 4.34571C17.8091 4.34571 18.4477 4.61022 18.9185 5.08104C19.3893 5.55187 19.6538 6.19044 19.6538 6.85629C19.6538 7.52213 19.3893 8.1607 18.9185 8.63153C18.4477 9.10235 17.8091 9.36686 17.1433 9.36686V9.36857Z" fill="url(#paint0_linear)"/>
<path d="M18.3476 0.9C17.9936 -0.3 16.293 -0.3 15.939 0.9L15.8533 1.19143C15.8004 1.37108 15.708 1.53662 15.5828 1.6759C15.4576 1.81518 15.3028 1.92467 15.1298 1.99634C14.9567 2.06801 14.7699 2.10005 14.5829 2.09011C14.3958 2.08016 14.2134 2.02848 14.049 1.93886L13.7833 1.79314C12.6836 1.19486 11.481 2.39743 12.0801 3.49629L12.225 3.76286C12.6073 4.46571 12.2447 5.34086 11.4776 5.56714L11.1861 5.65286C9.98613 6.00686 9.98613 7.70743 11.1861 8.06143L11.4776 8.14714C11.6572 8.20004 11.8227 8.29247 11.962 8.41766C12.1013 8.54286 12.2108 8.69764 12.2825 8.87066C12.3541 9.04368 12.3862 9.23055 12.3762 9.41756C12.3663 9.60457 12.3146 9.78699 12.225 9.95143L12.0793 10.2171C11.481 11.3169 12.6836 12.5194 13.7824 11.9203L14.049 11.7754C14.2134 11.6858 14.3958 11.6341 14.5829 11.6242C14.7699 11.6142 14.9567 11.6463 15.1298 11.7179C15.3028 11.7896 15.4576 11.8991 15.5828 12.0384C15.708 12.1777 15.8004 12.3432 15.8533 12.5229L15.939 12.8143C16.293 14.0143 17.9936 14.0143 18.3476 12.8143L18.4333 12.5229C18.4862 12.3432 18.5786 12.1777 18.7038 12.0384C18.829 11.8991 18.9838 11.7896 19.1568 11.7179C19.3298 11.6463 19.5167 11.6142 19.7037 11.6242C19.8907 11.6341 20.0731 11.6858 20.2376 11.7754L20.5033 11.9211C21.603 12.5194 22.8056 11.3169 22.2064 10.218L22.0616 9.95143C21.9719 9.78699 21.9203 9.60457 21.9103 9.41756C21.9004 9.23055 21.9324 9.04368 22.0041 8.87066C22.0758 8.69764 22.1852 8.54286 22.3245 8.41766C22.4638 8.29247 22.6293 8.20004 22.809 8.14714L23.1004 8.06143C24.3004 7.70743 24.3004 6.00686 23.1004 5.65286L22.809 5.56714C22.6293 5.51425 22.4638 5.42182 22.3245 5.29662C22.1852 5.17143 22.0758 5.01664 22.0041 4.84362C21.9324 4.67061 21.9004 4.48374 21.9103 4.29673C21.9203 4.10971 21.9719 3.9273 22.0616 3.76286L22.2073 3.49714C22.8056 2.39743 21.603 1.19486 20.5041 1.794L20.2376 1.93886C20.0731 2.02848 19.8907 2.08016 19.7037 2.09011C19.5167 2.10005 19.3298 2.06801 19.1568 1.99634C18.9838 1.92467 18.829 1.81518 18.7038 1.6759C18.5786 1.53662 18.4862 1.37108 18.4333 1.19143L18.3476 0.9ZM17.1433 9.36857C16.4772 9.36857 15.8384 9.10398 15.3674 8.63299C14.8964 8.16201 14.6318 7.52322 14.6318 6.85714C14.6318 6.19107 14.8964 5.55228 15.3674 5.0813C15.8384 4.61031 16.4772 4.34571 17.1433 4.34571C17.8091 4.34571 18.4477 4.61022 18.9185 5.08104C19.3893 5.55187 19.6538 6.19044 19.6538 6.85629C19.6538 7.52213 19.3893 8.1607 18.9185 8.63153C18.4477 9.10235 17.8091 9.36686 17.1433 9.36686V9.36857Z" fill="url(#paint1_linear)"/>
<g filter="url(#filter0_b)">
<path d="M12.0921 22.65C11.5611 24.45 9.01029 24.45 8.47929 22.65L8.35071 22.2129C8.27137 21.9434 8.13273 21.6951 7.94493 21.4862C7.75714 21.2772 7.52497 21.113 7.26544 21.0055C7.00591 20.898 6.72561 20.8499 6.44509 20.8648C6.16457 20.8798 5.89095 20.9573 5.64429 21.0917L5.24571 21.3103C3.59614 22.2077 1.79229 20.4039 2.691 18.7556L2.90829 18.3557C3.48171 17.3014 2.93786 15.9887 1.78714 15.6493L1.35 15.5207C-0.45 14.9897 -0.45 12.4389 1.35 11.9079L1.78714 11.7793C2.05662 11.6999 2.30493 11.5613 2.51384 11.3735C2.72276 11.1857 2.887 10.9535 2.99451 10.694C3.10202 10.4345 3.15008 10.1542 3.13516 9.87366C3.12024 9.59314 3.04272 9.31952 2.90829 9.07286L2.68971 8.67429C1.79229 7.02471 3.59614 5.22086 5.24443 6.11957L5.64429 6.33686C5.89095 6.47129 6.16457 6.54881 6.44509 6.56373C6.72561 6.57865 7.00591 6.53059 7.26544 6.42308C7.52497 6.31557 7.75714 6.15133 7.94493 5.94242C8.13273 5.7335 8.27137 5.48519 8.35071 5.21572L8.47929 4.77857C9.01029 2.97857 11.5611 2.97857 12.0921 4.77857L12.2207 5.21572C12.3001 5.48519 12.4387 5.7335 12.6265 5.94242C12.8143 6.15133 13.0465 6.31557 13.306 6.42308C13.5655 6.53059 13.8458 6.57865 14.1263 6.56373C14.4069 6.54881 14.6805 6.47129 14.9271 6.33686L15.3257 6.11829C16.9753 5.22086 18.7791 7.02472 17.8804 8.673L17.6631 9.07286C17.5287 9.31952 17.4512 9.59314 17.4363 9.87366C17.4214 10.1542 17.4694 10.4345 17.5769 10.694C17.6844 10.9535 17.8487 11.1857 18.0576 11.3735C18.2665 11.5613 18.5148 11.6999 18.7843 11.7793L19.2214 11.9079C21.0214 12.4389 21.0214 14.9897 19.2214 15.5207L18.7843 15.6493C18.5148 15.7286 18.2665 15.8673 18.0576 16.0551C17.8487 16.2429 17.6844 16.475 17.5769 16.7346C17.4694 16.9941 17.4214 17.2744 17.4363 17.5549C17.4512 17.8354 17.5287 18.1091 17.6631 18.3557L17.8817 18.7543C18.7791 20.4039 16.9753 22.2077 15.327 21.309L14.9271 21.0917C14.6805 20.9573 14.4069 20.8798 14.1263 20.8648C13.8458 20.8499 13.5655 20.898 13.306 21.0055C13.0465 21.113 12.8143 21.2772 12.6265 21.4862C12.4387 21.6951 12.3001 21.9434 12.2207 22.2129L12.0921 22.65ZM10.2857 9.94714C9.28661 9.94714 8.32842 10.344 7.62194 11.0505C6.91547 11.757 6.51857 12.7152 6.51857 13.7143C6.51857 14.7134 6.91547 15.6716 7.62194 16.3781C8.32842 17.0845 9.28661 17.4814 10.2857 17.4814C11.2845 17.4814 12.2423 17.0847 12.9486 16.3784C13.6548 15.6722 14.0516 14.7143 14.0516 13.7156C14.0516 12.7168 13.6548 11.7589 12.9486 11.0527C12.2423 10.3465 11.2845 9.94971 10.2857 9.94971V9.94714Z" fill="url(#paint2_linear)"/>
</g>
<defs>
<filter id="filter0_b" x="-4" y="-0.571533" width="28.5714" height="28.5714" filterUnits="userSpaceOnUse" color-interpolation-filters="sRGB">
<feFlood flood-opacity="0" result="BackgroundImageFix"/>
<feGaussianBlur in="BackgroundImage" stdDeviation="2"/>
<feComposite in2="SourceAlpha" operator="in" result="effect1_backgroundBlur"/>
<feBlend mode="normal" in="SourceGraphic" in2="effect1_backgroundBlur" result="shape"/>
</filter>
<linearGradient id="paint0_linear" x1="17.1433" y1="0" x2="17.1433" y2="13.7143" gradientUnits="userSpaceOnUse">
<stop stop-color="#8373F5"/>
<stop offset="1" stop-color="#975FE1"/>
</linearGradient>
<linearGradient id="paint1_linear" x1="15.867" y1="1.11552" x2="11.2702" y2="26.4722" gradientUnits="userSpaceOnUse">
<stop stop-color="#E9EBFF"/>
<stop offset="1" stop-color="#EFEFF6"/>
</linearGradient>
<linearGradient id="paint2_linear" x1="10.2857" y1="24" x2="3.43776" y2="-10.702" gradientUnits="userSpaceOnUse">
<stop stop-color="white"/>
<stop offset="1" stop-color="#8951B5" stop-opacity="0"/>
</linearGradient>
</defs>
</svg>
