<svg width="42" height="45" viewBox="0 0 42 45" fill="none" xmlns="http://www.w3.org/2000/svg">
<path d="M32.5267 15.949C37.8436 12.628 38.0756 8.85807 37.9092 7.30652C37.6556 5.42235 36.7374 3.69772 35.3271 2.45669C33.9171 1.21567 32.112 0.543734 30.2512 0.567129L30.1191 0.568321C26.6154 0.627464 23.0851 3.04848 21 9.10824C18.9149 3.0492 15.3846 0.627464 11.8809 0.568321L11.7488 0.567129C9.88792 0.543543 8.08269 1.21541 6.67238 2.45646C5.26206 3.69748 4.34378 5.42223 4.0901 7.30652C3.92373 8.85807 4.15567 12.628 9.47333 15.949H0V44.5665H42V15.949H32.5267ZM30.1959 5.33859H30.2505C30.964 5.30795 31.6638 5.54385 32.2196 6.00223C32.7752 6.46059 33.1485 7.11007 33.2698 7.8293C33.5228 10.1712 30.6175 13.1951 23.7132 15.2074C24.892 8.05299 27.8178 5.37818 30.1966 5.33859H30.1959ZM11.7481 5.33859H11.8027C14.1815 5.37818 17.1073 8.05299 18.2854 15.2062C11.3811 13.1927 8.47583 10.1699 8.72877 7.82808C8.84991 7.10861 9.22329 6.45887 9.77912 6.00035C10.3349 5.5418 11.0351 5.3059 11.7488 5.33671L11.7481 5.33859ZM4.66667 39.7969V20.7186H18.6667V39.7969H4.66667ZM37.3333 39.7969H23.3333V20.7186H37.3333V39.7969Z" fill="#FFD633"/>
</svg>
