<svg width="49" height="48" viewBox="0 0 49 48" fill="none" xmlns="http://www.w3.org/2000/svg">
<path d="M16.6996 24.1662H13.3203C13.2858 24.1662 13.2686 24.1847 13.2513 24.2216C13.1651 25.8654 12.872 27.6201 12.4582 29.0607C12.4582 29.0792 12.4582 29.0976 12.4755 29.1161C12.4927 29.1346 12.5099 29.1346 12.5272 29.1346H13.6823C13.7168 29.1346 13.7341 29.1161 13.7341 29.0976C14.0617 27.9894 14.3203 26.5488 14.4237 25.3298H15.5272V29.0792C15.5272 29.1161 15.5616 29.153 15.5961 29.153H16.6996C16.734 29.153 16.7685 29.1161 16.7685 29.0792V24.2216C16.7685 24.1847 16.734 24.1662 16.6996 24.1662ZM30.9925 24.1662H29.8891C29.8546 24.1662 29.8201 24.2032 29.8201 24.2401V27.9894C29.5787 28.0633 29.3374 28.1003 29.0615 28.1003C28.3374 28.1003 28.165 27.8602 28.165 26.8259V24.2401C28.165 24.2032 28.1305 24.1662 28.096 24.1662H27.0098C26.9753 24.1662 26.9408 24.2032 26.9408 24.2401V26.9551C26.9408 28.6544 27.4753 29.3008 28.8374 29.3008C29.6132 29.3008 30.4925 29.0792 31.0098 28.876C31.027 28.8575 31.0442 28.8391 31.0442 28.8206V24.2401C31.0615 24.1847 31.027 24.1662 30.9925 24.1662ZM7.61344 24.1662H6.49276C6.45828 24.1662 6.44104 24.1847 6.44104 24.2216C6.26862 24.9604 5.90656 26.2164 5.4238 27.5277L4.30313 24.2216C4.28588 24.2032 4.26864 24.1847 4.2514 24.1847H3.11348C3.09624 24.1847 3.079 24.2032 3.06176 24.2216C3.04452 24.2401 3.04452 24.2586 3.06176 24.277L4.7514 29.2269C4.57899 29.6148 4.42381 29.9288 4.26864 30.2243C4.14796 30.4459 4.04451 30.6675 3.94106 30.8892C3.92382 30.9077 3.92382 30.9261 3.94106 30.9446C3.9583 30.9631 3.97554 30.9815 3.99278 30.9815H5.21691C5.23415 30.9815 5.26863 30.9631 5.26863 30.9446C5.47553 30.5198 5.73415 29.9288 5.97552 29.3193C6.69965 27.5092 7.26861 25.81 7.69964 24.2586C7.69964 24.2401 7.69964 24.2216 7.6824 24.2032C7.64792 24.1662 7.63068 24.1662 7.61344 24.1662ZM11.6306 27.9894C11.6306 27.971 11.6134 27.9525 11.5962 27.9525H11.5444C11.2686 28.0633 10.7686 28.1372 10.4238 28.1372C9.6479 28.1372 9.28584 27.9156 9.28584 26.6596C9.28584 25.6438 9.40652 25.1821 10.4238 25.1821C10.7169 25.1821 10.9755 25.219 11.3203 25.3298C11.3548 25.3298 11.372 25.3298 11.3893 25.2929C11.51 25.0343 11.6651 24.7203 11.8375 24.3325V24.277C11.8375 24.2586 11.8203 24.2401 11.8031 24.2401C11.3548 24.0923 10.8203 24 10.3375 24C8.73412 24 8.00999 24.8127 8.00999 26.6412C8.00999 28.4881 8.73412 29.3193 10.3375 29.3193C10.7341 29.3193 11.5444 29.2269 11.9237 29.0607C11.9582 29.0422 11.9755 29.0053 11.9582 28.9683L11.6306 27.9894ZM22.1305 24.1662H21.0099C20.9754 24.1662 20.9581 24.1847 20.9581 24.2216C20.7857 24.9789 20.4237 26.2164 19.9409 27.5277L18.8202 24.2216C18.803 24.2032 18.7857 24.1847 18.7685 24.1847H17.6306C17.6133 24.1847 17.5961 24.2032 17.5789 24.2216C17.5616 24.2401 17.5616 24.2586 17.5789 24.277L19.2685 29.2269C19.0961 29.6148 18.9409 29.9288 18.7857 30.2243C18.6651 30.4459 18.5616 30.6675 18.4582 30.9077C18.4409 30.9261 18.4409 30.9446 18.4582 30.9631C18.4754 30.9815 18.4926 31 18.5099 31H19.734C19.7512 31 19.7857 30.9815 19.7857 30.9631C19.9926 30.5383 20.2512 29.9472 20.4926 29.3377C21.1995 27.5277 21.7857 25.8285 22.2167 24.277C22.2167 24.2586 22.2167 24.2401 22.1995 24.2216C22.165 24.1662 22.1478 24.1662 22.1305 24.1662ZM26.2684 24.1662H23.0098C22.9754 24.1662 22.9409 24.2032 22.9409 24.2401V29.0976C22.9409 29.1346 22.9754 29.1715 23.0098 29.1715H24.1133C24.1478 29.1715 24.1822 29.1346 24.1822 29.0976V25.3483H25.8891C25.9064 25.3483 25.9408 25.3298 25.9408 25.3113C26.0788 24.9789 26.1995 24.628 26.3374 24.277V24.2216C26.3029 24.1662 26.2857 24.1662 26.2684 24.1662Z" fill="#FFD633"/>
<path d="M8.99603 17.0347C7.39151 17.0347 6.76365 17.7292 6.76365 19.4826C6.76365 21.2708 7.39151 21.9653 8.99603 21.9653C10.618 21.9653 11.2459 21.2708 11.2459 19.4826C11.2459 17.7118 10.618 17.0347 8.99603 17.0347ZM8.99603 20.941C8.26353 20.941 8.03681 20.75 8.03681 19.5C8.03681 18.1806 8.28097 18.059 8.99603 18.059C9.72853 18.059 9.9727 18.1806 9.9727 19.5C9.9727 20.75 9.74597 20.941 8.99603 20.941ZM15.7106 20.75C15.7106 20.7326 15.6932 20.7153 15.6757 20.7153H15.6234C15.3444 20.8194 14.8386 20.8889 14.4898 20.8889C13.705 20.8889 13.3387 20.6806 13.3387 19.5C13.3387 18.5451 13.4608 18.1111 14.4898 18.1111C14.7863 18.1111 15.0479 18.1458 15.3967 18.25C15.4316 18.25 15.449 18.25 15.4664 18.2153C15.5885 17.9722 15.7455 17.6771 15.9199 17.3125V17.2604C15.9199 17.2431 15.9025 17.2257 15.885 17.2257C15.4316 17.0868 14.8909 17 14.4026 17C12.7806 17 12.0481 17.7639 12.0481 19.4826C12.0481 21.2188 12.7806 22 14.4026 22C14.8037 22 15.6234 21.9132 16.0071 21.7569C16.042 21.7396 16.0594 21.7049 16.042 21.6701L15.7106 20.75ZM6.41484 17.1562H3.11859C3.08371 17.1562 3.04883 17.191 3.04883 17.2257V21.7917C3.04883 21.8264 3.08371 21.8611 3.11859 21.8611H4.23478C4.26966 21.8611 4.30454 21.8264 4.30454 21.7917V18.25H6.01371C6.03115 18.25 6.06603 18.2326 6.06603 18.2153C6.20555 17.9028 6.32764 17.5729 6.46716 17.2431V17.191C6.44972 17.1736 6.43228 17.1562 6.41484 17.1562Z" fill="#FFD633"/>
<path fill-rule="evenodd" clip-rule="evenodd" d="M20.2927 1.86215C21.9973 0.875274 24.0995 0.875277 25.8041 1.86215L40.8041 10.5464C42.5026 11.5297 43.5484 13.3436 43.5484 15.3062V32.6938C43.5484 34.6564 42.5026 36.4703 40.8041 37.4536L25.8041 46.1378C24.0995 47.1247 21.9973 47.1247 20.2927 46.1378L3.29688 36.2981L4.79998 33.7019L21.7958 43.5416C22.5707 43.9901 23.5262 43.9901 24.301 43.5416L39.301 34.8573C40.0731 34.4104 40.5484 33.5859 40.5484 32.6938V15.3062C40.5484 14.4141 40.0731 13.5896 39.301 13.1426L24.301 4.45843C23.5262 4.00985 22.5707 4.00985 21.7958 4.45843L4.79998 14.2981L3.29688 11.7019L20.2927 1.86215Z" fill="#FFD633"/>
</svg>
