<svg width="16" height="17" viewBox="0 0 16 17" fill="none" xmlns="http://www.w3.org/2000/svg">
<path d="M11.5458 6.47503C11.7936 6.19965 11.7713 5.77549 11.4959 5.52765C11.2206 5.27981 10.7964 5.30213 10.5486 5.57751L8.00284 8.40608L6.82575 7.22898C6.56378 6.96701 6.13903 6.96701 5.87706 7.22898C5.61509 7.49096 5.61509 7.9157 5.87706 8.17767L7.55412 9.85473C7.68425 9.98487 7.86213 10.0558 8.0461 10.051C8.23007 10.0461 8.40397 9.96594 8.52709 9.82915L11.5458 6.47503Z" fill="url(#paint0_linear_19620:23372)"/>
<path fill-rule="evenodd" clip-rule="evenodd" d="M4.33864 1.66638C3.22719 1.66638 2.32617 2.5674 2.32617 3.67885V8.37463C2.32617 9.92928 3.02779 11.3666 4.19971 12.5385C5.17902 13.5178 6.69073 14.3605 7.60864 14.8038C8.069 15.0261 8.61382 15.0554 9.10528 14.8427C9.96954 14.4685 11.3603 13.7057 12.5275 12.5385C14.0172 11.0488 14.401 9.18918 14.401 8.37463V3.67885C14.401 2.5674 13.5 1.66638 12.3885 1.66638H4.33864ZM3.66782 3.67885C3.66782 3.30837 3.96816 3.00803 4.33864 3.00803H12.3885C12.759 3.00803 13.0594 3.30837 13.0594 3.67885V8.37463C13.0594 8.90172 12.7724 10.3962 11.5788 11.5898C10.5663 12.6023 9.33474 13.2814 8.57228 13.6114C8.46066 13.6598 8.32354 13.6591 8.19213 13.5957C7.30643 13.1679 5.96279 12.4042 5.1484 11.5898C4.17369 10.6151 3.66782 9.50327 3.66782 8.37463V3.67885Z" fill="url(#paint1_linear_19620:23372)"/>
<defs>
<linearGradient id="paint0_linear_19620:23372" x1="8.36359" y1="1.66638" x2="8.36359" y2="14.9874" gradientUnits="userSpaceOnUse">
<stop stop-color="#8373F5"/>
<stop offset="1" stop-color="#975FE1"/>
</linearGradient>
<linearGradient id="paint1_linear_19620:23372" x1="8.36359" y1="1.66638" x2="8.36359" y2="14.9874" gradientUnits="userSpaceOnUse">
<stop stop-color="#8373F5"/>
<stop offset="1" stop-color="#975FE1"/>
</linearGradient>
</defs>
</svg>
