<svg width="27" height="30" viewBox="0 0 27 30" fill="none" xmlns="http://www.w3.org/2000/svg">
<g clip-path="url(#clip0)">
<path d="M11.08 15.0947H8.33799C8.31001 15.0947 8.29602 15.1086 8.28203 15.1366C8.21208 16.3817 7.97426 17.7107 7.63851 18.8019C7.63851 18.8159 7.63851 18.8299 7.6525 18.8439C7.66649 18.8579 7.68047 18.8579 7.69446 18.8579H8.63177C8.65975 18.8579 8.67374 18.8439 8.67374 18.8299C8.93954 17.9905 9.14939 16.8993 9.23332 15.976H10.1287V18.8159C10.1287 18.8439 10.1566 18.8719 10.1846 18.8719H11.08C11.1079 18.8719 11.1359 18.8439 11.1359 18.8159V15.1366C11.1359 15.1086 11.1079 15.0947 11.08 15.0947V15.0947ZM22.6774 15.0947H21.782C21.754 15.0947 21.7261 15.1226 21.7261 15.1506V17.9905C21.5302 18.0465 21.3344 18.0744 21.1105 18.0744C20.523 18.0744 20.3831 17.8926 20.3831 17.1092V15.1506C20.3831 15.1226 20.3551 15.0947 20.3271 15.0947H19.4458C19.4178 15.0947 19.3898 15.1226 19.3898 15.1506V17.2071C19.3898 18.4941 19.8235 18.9838 20.9287 18.9838C21.5582 18.9838 22.2717 18.8159 22.6914 18.662C22.7053 18.648 22.7193 18.634 22.7193 18.62V15.1506C22.7333 15.1086 22.7053 15.0947 22.6774 15.0947V15.0947ZM3.70742 15.0947H2.79809C2.77011 15.0947 2.75612 15.1086 2.75612 15.1366C2.61623 15.6962 2.32244 16.6475 1.93073 17.6408L1.02141 15.1366C1.00742 15.1226 0.993429 15.1086 0.979439 15.1086H0.0561232C0.0421336 15.1086 0.028144 15.1226 0.0141543 15.1366C0.000164701 15.1506 0.000164701 15.1646 0.0141543 15.1786L1.38514 18.9278C1.24524 19.2216 1.11934 19.4594 0.993429 19.6833C0.895501 19.8511 0.811564 20.019 0.727626 20.1869C0.713636 20.2009 0.713636 20.2149 0.727626 20.2289C0.741615 20.2428 0.755605 20.2568 0.769595 20.2568H1.76286C1.77685 20.2568 1.80483 20.2428 1.80483 20.2289C1.9727 19.9071 2.18255 19.4594 2.3784 18.9978C2.96597 17.6268 3.42763 16.3397 3.77737 15.1646C3.77737 15.1506 3.77737 15.1366 3.76338 15.1226C3.7354 15.0947 3.72141 15.0947 3.70742 15.0947V15.0947ZM6.967 17.9905C6.967 17.9765 6.95301 17.9625 6.93902 17.9625H6.89706C6.67322 18.0465 6.26752 18.1024 5.98773 18.1024C5.3582 18.1024 5.06441 17.9346 5.06441 16.9833C5.06441 16.2138 5.16234 15.8641 5.98773 15.8641C6.22555 15.8641 6.4354 15.8921 6.71519 15.976C6.74317 15.976 6.75716 15.976 6.77115 15.948C6.86908 15.7522 6.99498 15.5143 7.13488 15.2206V15.1786C7.13488 15.1646 7.12089 15.1506 7.1069 15.1506C6.74317 15.0387 6.30949 14.9688 5.91778 14.9688C4.61674 14.9688 4.02918 15.5843 4.02918 16.9693C4.02918 18.3682 4.61674 18.9978 5.91778 18.9978C6.23954 18.9978 6.89706 18.9278 7.20483 18.8019C7.23281 18.7879 7.2468 18.7599 7.23281 18.732L6.967 17.9905V17.9905ZM15.4867 15.0947H14.5774C14.5494 15.0947 14.5354 15.1086 14.5354 15.1366C14.3955 15.7102 14.1017 16.6475 13.71 17.6408L12.8007 15.1366C12.7867 15.1226 12.7727 15.1086 12.7587 15.1086H11.8354C11.8214 15.1086 11.8074 15.1226 11.7934 15.1366C11.7794 15.1506 11.7794 15.1646 11.7934 15.1786L13.1644 18.9278C13.0245 19.2216 12.8986 19.4594 12.7727 19.6833C12.6748 19.8511 12.5908 20.019 12.5069 20.2009C12.4929 20.2149 12.4929 20.2289 12.5069 20.2428C12.5209 20.2568 12.5349 20.2708 12.5489 20.2708H13.5421C13.5561 20.2708 13.5841 20.2568 13.5841 20.2428C13.752 19.9211 13.9618 19.4734 14.1577 19.0118C14.7313 17.6408 15.2069 16.3537 15.5566 15.1786C15.5566 15.1646 15.5566 15.1506 15.5427 15.1366C15.5147 15.0947 15.5007 15.0947 15.4867 15.0947V15.0947ZM18.8442 15.0947H16.2002C16.1722 15.0947 16.1442 15.1226 16.1442 15.1506V18.8299C16.1442 18.8579 16.1722 18.8858 16.2002 18.8858H17.0955C17.1235 18.8858 17.1515 18.8579 17.1515 18.8299V15.99H18.5364C18.5504 15.99 18.5784 15.976 18.5784 15.962C18.6903 15.7102 18.7882 15.4444 18.9002 15.1786V15.1366C18.8722 15.0947 18.8582 15.0947 18.8442 15.0947" fill="#EF4058"/>
<path d="M4.77047 9.44302C3.48342 9.44302 2.97979 10.0026 2.97979 11.4156C2.97979 12.8565 3.48342 13.4161 4.77047 13.4161C6.0715 13.4161 6.57513 12.8565 6.57513 11.4156C6.57513 9.98861 6.0715 9.44302 4.77047 9.44302ZM4.77047 12.5907C4.1829 12.5907 4.00104 12.4368 4.00104 11.4295C4.00104 10.3663 4.19689 10.2684 4.77047 10.2684C5.35803 10.2684 5.55389 10.3663 5.55389 11.4295C5.55389 12.4368 5.37202 12.5907 4.77047 12.5907ZM10.1565 12.4368C10.1565 12.4228 10.1425 12.4088 10.1285 12.4088H10.0865C9.86269 12.4928 9.45699 12.5487 9.1772 12.5487C8.54767 12.5487 8.25389 12.3808 8.25389 11.4295C8.25389 10.6601 8.35181 10.3104 9.1772 10.3104C9.41503 10.3104 9.62487 10.3384 9.90466 10.4223C9.93264 10.4223 9.94663 10.4223 9.96062 10.3943C10.0585 10.1985 10.1845 9.96063 10.3244 9.66685V9.62488C10.3244 9.61089 10.3104 9.5969 10.2964 9.5969C9.93264 9.48499 9.49896 9.41504 9.10725 9.41504C7.80622 9.41504 7.21865 10.0306 7.21865 11.4156C7.21865 12.8145 7.80622 13.4441 9.10725 13.4441C9.42901 13.4441 10.0865 13.3741 10.3943 13.2482C10.4223 13.2342 10.4363 13.2062 10.4223 13.1783L10.1565 12.4368V12.4368ZM2.7 9.54094H0.0559585C0.0279793 9.54094 0 9.56892 0 9.5969V13.2762C0 13.3042 0.0279793 13.3321 0.0559585 13.3321H0.951295C0.979275 13.3321 1.00725 13.3042 1.00725 13.2762V10.4223H2.37824C2.39223 10.4223 2.42021 10.4083 2.42021 10.3943C2.53212 10.1425 2.63005 9.8767 2.74197 9.61089V9.56892C2.72798 9.55494 2.71399 9.54094 2.7 9.54094Z" fill="#1466AC"/>
<path d="M26.8603 18.4803V18.4244C26.8603 18.3964 26.8603 18.3544 26.8742 18.3264C26.9162 17.8088 26.9442 17.1793 26.9722 16.4518V16.3959C26.9862 15.9062 27.0002 15.3746 27.0002 14.829C27.0002 14.2834 26.9862 13.7518 26.9722 13.2622V13.2062C26.9442 12.4927 26.9162 11.8492 26.8742 11.3316C26.8742 11.3036 26.8742 11.2617 26.8603 11.2337V11.1777C26.8603 11.1218 26.8463 11.0798 26.8463 11.0238V10.9679C26.8043 10.4223 26.7763 10.0865 26.7623 10.0585C26.7623 10.0026 26.7483 9.94663 26.7483 9.90466V9.86269C26.7343 9.76477 26.7204 9.68083 26.6924 9.5829C26.6924 9.56891 26.6924 9.55492 26.6784 9.54093C26.4406 8.40777 25.811 7.16269 25.0276 6.22539C24.7198 5.86166 24.3981 5.5399 24.0623 5.28808C24.0343 5.2601 23.6426 4.98031 23.0271 4.54663C22.3136 4.05699 21.2924 3.3715 20.1312 2.7C18.0608 1.4829 16.2281 0.629534 15.9763 0.531606C15.9623 0.531606 15.9623 0.517617 15.9623 0.517617C15.4167 0.279793 14.7592 0.111917 14.0457 0.0419689C13.9059 0.0279793 13.766 0.0139896 13.6261 0.0139896C13.4862 0 13.3603 0 13.2344 0H13.0385C12.0872 0.0279793 11.2059 0.195855 10.5064 0.517617C10.4084 0.559586 8.54782 1.41295 6.43539 2.65803L6.35145 2.7C4.18306 3.97306 2.49031 5.23212 2.42036 5.28808C1.88875 5.67979 1.41311 6.18342 0.979429 6.82694C0.881501 6.96684 0.881501 7.33057 1.30119 7.33057H2.37839C2.84005 7.33057 2.95197 7.05078 3.46958 6.67306C4.04316 6.25337 5.17632 5.41399 7.24679 4.1829C8.74368 3.30155 10.1426 2.60207 10.8281 2.28031C10.8421 2.28031 10.8561 2.26632 10.8701 2.26632C10.8701 2.26632 10.8841 2.26632 10.8841 2.25233C10.8841 2.25233 10.8981 2.25233 10.8981 2.23834C10.9121 2.23834 10.9261 2.22435 10.9261 2.22435C10.94 2.22435 10.954 2.21036 10.968 2.21036C11.1359 2.12642 11.2478 2.08446 11.2478 2.08446C11.7235 1.87461 12.395 1.73472 13.1084 1.72073H13.3882C13.5981 1.72073 13.8079 1.73472 14.0038 1.76269C14.4375 1.81865 14.8292 1.90259 15.1509 2.04249C15.1789 2.05648 15.2209 2.07047 15.2489 2.08446C15.2489 2.08446 15.2628 2.09845 15.3048 2.11244C15.6266 2.25233 17.3613 3.07772 19.2499 4.1829C20.3691 4.84041 21.3623 5.49793 22.0478 5.97358C22.6494 6.39326 23.0131 6.65907 23.0271 6.67306C23.2929 6.86891 23.5587 7.1487 23.8105 7.45648C24.44 8.26788 24.9577 9.37306 25.0416 10.2264C25.0416 10.2404 25.0836 10.5762 25.1255 11.1497C25.1255 11.1917 25.1255 11.2197 25.1395 11.2617V11.3456C25.1395 11.4016 25.1535 11.4435 25.1535 11.4995V11.5554C25.1535 11.5834 25.1535 11.6254 25.1675 11.6534C25.1675 11.7233 25.1815 11.7933 25.1815 11.8632C25.1815 11.9052 25.1815 11.9472 25.1955 11.9891V12.0171C25.1955 12.0731 25.1955 12.115 25.2095 12.171V12.2829C25.2514 13.0104 25.2794 13.8777 25.2794 14.787C25.2794 15.6964 25.2514 16.5637 25.2095 17.2912V17.4031C25.2095 17.4591 25.2095 17.501 25.1955 17.557V17.585C25.1955 17.6269 25.1955 17.6689 25.1815 17.7109C25.1815 17.7808 25.1675 17.8508 25.1675 17.9207C25.1675 17.9627 25.1675 17.9907 25.1535 18.0187V18.0746C25.1535 18.1306 25.1395 18.1725 25.1395 18.2285V18.3124C25.1395 18.3544 25.1395 18.3964 25.1255 18.4244C25.0836 18.9979 25.0416 19.3477 25.0416 19.3477C24.9577 20.201 24.44 21.3062 23.8105 22.1176C23.5587 22.4394 23.2929 22.7052 23.0271 22.901C23.0131 22.901 22.6494 23.1808 22.0478 23.6005C21.3623 24.0762 20.3551 24.7337 19.2499 25.3912C17.3613 26.5104 15.6126 27.3218 15.3048 27.4617L15.2489 27.4896C15.2209 27.5036 15.1789 27.5176 15.1509 27.5316C14.8292 27.6575 14.4375 27.7554 14.0038 27.8114C13.8079 27.8394 13.5981 27.8534 13.3882 27.8534H13.1084C12.395 27.8394 11.7235 27.7135 11.2478 27.4896C11.2478 27.4896 11.1499 27.4477 10.968 27.3637C10.954 27.3497 10.9261 27.3497 10.9121 27.3358C10.8981 27.3218 10.8841 27.3218 10.8701 27.3078C10.8561 27.3078 10.8561 27.2938 10.8421 27.2938C10.8281 27.2938 10.8141 27.2798 10.8002 27.2798C10.7862 27.2658 10.7722 27.2658 10.7442 27.2518H10.7302C10.0167 26.972 8.67373 26.3005 7.24679 25.4611C5.16233 24.244 4.04316 23.3907 3.46958 22.971C2.95197 22.5933 2.84005 22.3135 2.37839 22.3135H1.30119C0.881501 22.3135 0.881501 22.6772 0.979429 22.8171C1.41311 23.4606 1.88875 23.9643 2.42036 24.356C2.49031 24.4119 4.19705 25.671 6.35145 26.944C6.46337 27.014 6.57528 27.0839 6.70119 27.1399C8.70171 28.287 10.4224 29.0705 10.5204 29.1264C11.2059 29.4342 12.1012 29.6161 13.0525 29.644H13.2483C13.3742 29.644 13.5002 29.644 13.6261 29.6301C13.766 29.6301 13.9059 29.6161 14.0457 29.6021C14.7592 29.5321 15.4307 29.3642 15.9623 29.1264C15.9623 29.1264 15.9763 29.1264 15.9763 29.1124C16.2141 29.0005 18.0608 28.1472 20.1173 26.944C21.2784 26.2586 22.2996 25.587 23.0131 25.0974C23.6286 24.6637 24.0204 24.3839 24.0483 24.356C24.3841 24.1041 24.7059 23.7824 25.0136 23.4187C25.797 22.4813 26.4266 21.2363 26.6644 20.1031C26.6644 20.0891 26.6644 20.0751 26.6784 20.0611C26.6924 19.9632 26.7204 19.8653 26.7343 19.7813V19.7394C26.7483 19.6834 26.7483 19.6275 26.7483 19.5855C26.7483 19.5575 26.7903 19.2218 26.8323 18.6762V18.6202C26.8603 18.5782 26.8603 18.5363 26.8603 18.4803" fill="url(#paint0_linear)"/>
</g>
<defs>
<linearGradient id="paint0_linear" x1="13.9627" y1="0" x2="13.9627" y2="29.6696" gradientUnits="userSpaceOnUse">
<stop offset="0.398" stop-color="#1466AC"/>
<stop offset="0.659" stop-color="#EF4058"/>
</linearGradient>
<clipPath id="clip0">
<rect width="27" height="29.672" fill="white"/>
</clipPath>
</defs>
</svg>
