<svg width="21" height="19" viewBox="0 0 21 19" fill="none" xmlns="http://www.w3.org/2000/svg">
<path d="M18.002 18.9995H20.002V9.99952H18.002V18.9995ZM5.502 9.99952C4.61198 9.99952 3.74195 10.2634 3.00193 10.7579C2.26191 11.2524 1.68514 11.9552 1.34454 12.7774C1.00395 13.5997 0.914833 14.5045 1.08847 15.3774C1.2621 16.2503 1.69068 17.0522 2.32002 17.6815C2.94935 18.3108 3.75118 18.7394 4.62409 18.913C5.49701 19.0867 6.40181 18.9976 7.22407 18.657C8.04634 18.3164 8.74915 17.7396 9.24361 16.9996C9.73811 16.2596 10.002 15.3895 10.002 14.4995C10.002 13.306 9.52791 12.1614 8.68398 11.3175C7.84007 10.4736 6.69547 9.99952 5.502 9.99952ZM5.502 16.9995C4.83919 16.9987 4.20375 16.7351 3.73508 16.2664C3.26641 15.7978 3.00277 15.1623 3.002 14.4995H5.502V11.9995C6.16504 11.9995 6.80092 12.2629 7.26977 12.7317C7.73861 13.2006 8.002 13.8365 8.002 14.4995C8.002 15.1626 7.73861 15.7984 7.26977 16.2673C6.80092 16.7361 6.16504 16.9995 5.502 16.9995ZM18.992 1.26373L13.5577 6.26563L7.4463 0.640625L0.658203 6.88872L2.012 8.36031L7.4463 3.35843L13.5577 8.98342L20.3458 2.73532L18.992 1.26373ZM14.002 18.9995H16.002V12.9995H14.002V18.9995Z" fill="#7E6CC1"/>
</svg>
