<svg width="16" height="17" viewBox="0 0 16 17" fill="none" xmlns="http://www.w3.org/2000/svg">
<path d="M14.7256 2.88735C15.0049 2.60803 15.0049 2.15518 14.7256 1.87587C14.4463 1.59655 13.9934 1.59655 13.7141 1.87587L10.6152 4.97476C10.1503 5.43962 9.39665 5.43962 8.93179 4.97476L7.18034 3.22331C6.15685 2.19983 4.49746 2.19983 3.47397 3.22331L1.01027 5.68702C0.730953 5.96633 0.730953 6.41918 1.01027 6.6985C1.28958 6.97781 1.74243 6.97781 2.02174 6.6985L4.48545 4.23479C4.95031 3.76993 5.704 3.76993 6.16886 4.23479L7.92031 5.98624C8.9438 7.00973 10.6032 7.00973 11.6267 5.98624L14.7256 2.88735Z" fill="url(#paint0_linear_19620:7240)"/>
<path d="M14.9351 5.55756C14.9351 5.16256 14.6148 4.84234 14.2198 4.84234C13.8248 4.84234 13.5046 5.16256 13.5046 5.55756V14.1327C13.5046 14.5277 13.8248 14.8479 14.2198 14.8479C14.6148 14.8479 14.9351 14.5277 14.9351 14.1327V5.55756Z" fill="url(#paint1_linear_19620:7240)"/>
<path d="M11.7591 9.36871C11.7591 8.97371 11.4389 8.65349 11.0439 8.65349C10.6489 8.65349 10.3287 8.97371 10.3287 9.36871V14.1327C10.3287 14.5277 10.6489 14.8479 11.0439 14.8479C11.4389 14.8479 11.7591 14.5277 11.7591 14.1327V9.36871Z" fill="url(#paint2_linear_19620:7240)"/>
<path fill-rule="evenodd" clip-rule="evenodd" d="M5.0104 7.38273C4.67503 7.38273 4.45967 7.58358 4.35777 7.73164C4.26647 7.8643 4.22716 8.00174 4.2079 8.08373C4.16711 8.25734 4.15662 8.45612 4.15445 8.62751C4.14994 8.98531 4.18197 9.43772 4.2145 9.83951C4.23167 10.0516 4.17555 10.1949 4.11594 10.2718C4.06553 10.3367 3.98614 10.3922 3.83465 10.3954C3.62396 10.3999 3.40387 10.3999 3.18229 10.3999L3.14269 10.3999C2.91228 10.3999 2.67783 10.4002 2.4706 10.4069C2.27288 10.4132 2.05645 10.4262 1.87689 10.4625C1.79339 10.4794 1.65759 10.5124 1.52571 10.5884C1.3965 10.6629 1.11922 10.8759 1.11922 11.2739C1.11922 13.423 2.86136 15.1651 5.0104 15.1651C7.15944 15.1651 8.90158 13.423 8.90158 11.2739C8.90158 9.12487 7.15944 7.38273 5.0104 7.38273ZM5.64028 9.72408C5.61574 9.42098 5.59501 9.12765 5.58749 8.88122C6.66809 9.14092 7.47113 10.1136 7.47113 11.2739C7.47113 12.6329 6.36942 13.7346 5.0104 13.7346C3.84404 13.7346 2.86721 12.9232 2.61369 11.834C2.77133 11.8306 2.94913 11.8304 3.14281 11.8303H3.18599C3.40395 11.8303 3.63848 11.8303 3.86485 11.8256C4.43497 11.8135 4.92353 11.5644 5.24609 11.1487C5.55945 10.7448 5.68135 10.2314 5.64028 9.72408Z" fill="url(#paint3_linear_19620:7240)"/>
<defs>
<linearGradient id="paint0_linear_19620:7240" x1="7.86792" y1="1.66638" x2="7.86792" y2="15.1651" gradientUnits="userSpaceOnUse">
<stop stop-color="#8373F5"/>
<stop offset="1" stop-color="#975FE1"/>
</linearGradient>
<linearGradient id="paint1_linear_19620:7240" x1="7.86792" y1="1.66638" x2="7.86792" y2="15.1651" gradientUnits="userSpaceOnUse">
<stop stop-color="#8373F5"/>
<stop offset="1" stop-color="#975FE1"/>
</linearGradient>
<linearGradient id="paint2_linear_19620:7240" x1="7.86792" y1="1.66638" x2="7.86792" y2="15.1651" gradientUnits="userSpaceOnUse">
<stop stop-color="#8373F5"/>
<stop offset="1" stop-color="#975FE1"/>
</linearGradient>
<linearGradient id="paint3_linear_19620:7240" x1="7.86792" y1="1.66638" x2="7.86792" y2="15.1651" gradientUnits="userSpaceOnUse">
<stop stop-color="#8373F5"/>
<stop offset="1" stop-color="#975FE1"/>
</linearGradient>
</defs>
</svg>
