<svg width="16" height="17" viewBox="0 0 16 17" fill="none" xmlns="http://www.w3.org/2000/svg">
<path d="M12.333 3.91003C12.2211 3.90986 12.1094 3.92103 11.9997 3.94336V3.72936C11.9996 3.4665 11.9374 3.20739 11.8182 2.97315C11.6988 2.73892 11.5259 2.53621 11.3133 2.38158C11.1008 2.22695 10.8546 2.12477 10.5951 2.08337C10.3355 2.04199 10.0698 2.06256 9.81971 2.14343C9.68058 1.86853 9.46791 1.63758 9.20538 1.47624C8.94291 1.31491 8.64085 1.22949 8.33272 1.22949C8.02458 1.22949 7.72251 1.31491 7.45998 1.47624C7.19752 1.63758 6.98485 1.86853 6.84571 2.14343C6.59564 2.06269 6.33003 2.04221 6.07054 2.08367C5.81105 2.12511 5.56503 2.22732 5.35256 2.38194C5.14009 2.53656 4.96717 2.73922 4.84792 2.97338C4.72867 3.20755 4.66647 3.46658 4.66637 3.72936L4.72891 8.66683L4.33304 8.07643C4.22251 7.87863 4.0734 7.70502 3.89455 7.56589C3.71569 7.42676 3.51073 7.32489 3.29181 7.26643C3.07289 7.20797 2.84445 7.19403 2.62005 7.22545C2.39564 7.25689 2.17982 7.33302 1.98537 7.44936L1.28684 7.80809C1.09958 7.90489 0.958015 8.07156 0.892808 8.27203C0.827608 8.47249 0.844028 8.69056 0.938508 8.87903L2.73304 12.4436C3.32986 13.491 4.19303 14.3621 5.23503 14.9684C6.27703 15.5747 7.46085 15.8948 8.66638 15.896C10.0804 15.8944 11.436 15.332 12.4358 14.3322C13.4356 13.3323 13.9981 11.9767 13.9997 10.5627V5.57669C13.9992 5.13481 13.8235 4.71115 13.511 4.39869C13.1986 4.08623 12.7749 3.91049 12.333 3.91003ZM12.6664 10.5627C12.6652 11.6232 12.2434 12.64 11.4935 13.3898C10.7436 14.1397 9.72691 14.5616 8.66638 14.5627C7.70171 14.563 6.75398 14.3092 5.91864 13.8268C5.08328 13.3443 4.38976 12.6503 3.90791 11.8146L2.36791 8.75216L2.59577 8.63496C2.73693 8.56163 2.9004 8.54376 3.05408 8.58476C3.20777 8.62576 3.34057 8.72276 3.42644 8.85662L4.69371 10.8179C4.77118 10.9216 4.87534 11.0024 4.99509 11.0516C5.11483 11.1008 5.2457 11.1166 5.37371 11.0973L5.37744 11.1181C5.93367 10.9922 6.51503 11.0386 7.04425 11.251C7.57351 11.4635 8.02551 11.832 8.34031 12.3076L9.49785 11.6476C9.12551 11.0572 8.60905 10.5714 7.99705 10.236C7.38498 9.90049 6.69765 9.72643 5.99971 9.73016V3.72936C5.99971 3.64095 6.03483 3.55617 6.09734 3.49366C6.15985 3.43115 6.24464 3.39603 6.33304 3.39603C6.42145 3.39603 6.50623 3.43115 6.56875 3.49366C6.63126 3.55617 6.66638 3.64095 6.66638 3.72936V7.90642H7.99971V2.89603C7.99971 2.80762 8.03485 2.72283 8.09731 2.66033C8.15985 2.59781 8.24465 2.56269 8.33305 2.56269C8.42145 2.56269 8.50625 2.59781 8.56872 2.66033C8.63125 2.72283 8.66638 2.80762 8.66638 2.89603V7.90642H9.99971V3.72936C9.99971 3.64095 10.0348 3.55617 10.0973 3.49366C10.1598 3.43115 10.2446 3.39603 10.333 3.39603C10.4214 3.39603 10.5062 3.43115 10.5687 3.49366C10.6312 3.55617 10.6664 3.64095 10.6664 3.72936V8.56269H11.9997V5.57669C11.9997 5.48829 12.0348 5.4035 12.0973 5.34099C12.1598 5.27848 12.2446 5.24336 12.333 5.24336C12.4214 5.24336 12.5062 5.27848 12.5687 5.34099C12.6312 5.4035 12.6664 5.48829 12.6664 5.57669V10.5627Z" fill="#CEC3F8"/>
</svg>
