<svg width="61" height="60" viewBox="0 0 61 60" fill="none" xmlns="http://www.w3.org/2000/svg">
<path d="M30.0488 5C26.7658 5 23.5149 5.64665 20.4818 6.903C17.4486 8.15937 14.6926 10.0009 12.3712 12.3223C7.68275 17.0107 5.04883 23.3696 5.04883 30V40C5.04883 41.989 5.839 43.8967 7.24553 45.3032C8.65205 46.7098 10.5597 47.5 12.5488 47.5H20.0488V27.5H12.5488C11.7338 27.5095 10.9259 27.653 10.1576 27.925C10.6724 23.0082 12.9901 18.4563 16.6633 15.1475C20.3366 11.8388 25.1051 10.0078 30.0488 10.0078C34.9926 10.0078 39.7611 11.8388 43.4343 15.1475C47.1076 18.4563 49.4253 23.0082 49.9401 27.925C49.1718 27.653 48.3638 27.5095 47.5488 27.5H40.0488V47.5H47.5488C48.4023 47.4917 49.2481 47.3363 50.0488 47.0407V47.5C50.0488 48.826 49.5221 50.0977 48.5843 51.0355C47.6466 51.9733 46.3748 52.5 45.0488 52.5H30.0488V57.5H45.0488C47.7011 57.5 50.2446 56.4465 52.1198 54.571C53.9953 52.6957 55.0488 50.1522 55.0488 47.5V30C55.0488 26.717 54.4021 23.4661 53.1458 20.4329C51.8893 17.3998 50.0481 14.6438 47.7266 12.3223C45.4051 10.0009 42.6491 8.15937 39.6158 6.903C36.5828 5.64665 33.3318 5 30.0488 5ZM12.5488 32.5H15.0488V42.5H12.5488C11.886 42.4992 11.2506 42.2358 10.7819 41.767C10.3132 41.2983 10.0496 40.6628 10.0488 40V35C10.0496 34.3372 10.3132 33.7017 10.7819 33.233C11.2506 32.7642 11.886 32.5007 12.5488 32.5ZM50.0488 40C50.0481 40.6628 49.7846 41.2983 49.3158 41.767C48.8471 42.2358 48.2116 42.4992 47.5488 42.5H45.0488V32.5H47.5488C48.2116 32.5007 48.8471 32.7642 49.3158 33.233C49.7846 33.7017 50.0481 34.3372 50.0488 35V40Z" fill="#FFD633"/>
<path d="M54.7754 33.6875C55.3054 30.1333 55.063 26.5067 54.0647 23.0546C53.0664 19.6026 51.3356 16.4064 48.9903 13.6838C46.6451 10.9612 43.7404 8.77611 40.4743 7.27757C37.2082 5.77902 33.6575 5.00219 30.064 5C26.4705 4.99782 22.9188 5.77035 19.6509 7.26493C16.383 8.75951 13.4757 10.941 11.1271 13.6608C8.77855 16.3806 7.04391 19.5747 6.04141 23.0255C5.0389 26.4763 4.7921 30.1027 5.31782 33.6575L10.272 32.9248C9.85157 30.0821 10.0489 27.1822 10.8506 24.4226C11.6523 21.6631 13.0395 19.1089 14.9176 16.9339C16.7957 14.759 19.1206 13.0144 21.7338 11.8193C24.3471 10.6241 27.1873 10.0063 30.061 10.0081C32.9346 10.0098 35.774 10.631 38.3859 11.8294C40.9977 13.0277 43.3205 14.7751 45.1959 16.9523C47.0714 19.1295 48.4555 21.6855 49.2538 24.446C50.0521 27.2065 50.246 30.1066 49.8221 32.9488L54.7754 33.6875Z" fill="#FFD633"/>
<path fill-rule="evenodd" clip-rule="evenodd" d="M15.0488 32H12.5488C11.1681 32 10.0488 33.1193 10.0488 34.5V39.5C10.0488 40.8807 11.1681 42 12.5488 42H15.0488V32ZM12.5488 27C8.40669 27 5.04883 30.3579 5.04883 34.5V39.5C5.04883 43.6421 8.40669 47 12.5488 47H20.0488V27H12.5488Z" fill="#FFD633"/>
<path fill-rule="evenodd" clip-rule="evenodd" d="M45.0488 32H47.5488C48.9295 32 50.0488 33.1193 50.0488 34.5V39.5C50.0488 40.8807 48.9295 42 47.5488 42H45.0488V32ZM47.5488 27C51.691 27 55.0488 30.3579 55.0488 34.5V39.5C55.0488 43.6421 51.691 47 47.5488 47H40.0488V27H47.5488Z" fill="#FFD633"/>
<path fill-rule="evenodd" clip-rule="evenodd" d="M50.0488 48V39.5H55.0488V48C55.0488 53.2467 50.7955 57.5 45.5488 57.5H30.0488V52.5H45.5488C48.0341 52.5 50.0488 50.4853 50.0488 48Z" fill="#FFD633"/>
<path fill-rule="evenodd" clip-rule="evenodd" d="M30.0488 50C27.2874 50 25.0488 52.2386 25.0488 55C25.0488 57.7614 27.2874 60 30.0488 60C32.8103 60 35.0488 57.7614 35.0488 55C35.0488 52.2386 32.8103 50 30.0488 50Z" fill="#FFD633"/>
</svg>
