<svg width="17" height="17" viewBox="0 0 17 17" fill="none" xmlns="http://www.w3.org/2000/svg">
<path d="M8.88662 6.24245C9.06672 6.24245 9.24271 6.18905 9.39241 6.08902C9.54212 5.98898 9.65881 5.84679 9.72776 5.68044C9.79664 5.51408 9.81469 5.33102 9.77954 5.15442C9.74439 4.97782 9.6577 4.8156 9.5304 4.68827C9.40302 4.56095 9.24081 4.47424 9.06427 4.43911C8.88764 4.40398 8.70461 4.42201 8.5382 4.49092C8.37187 4.55982 8.22969 4.67652 8.12962 4.82623C8.02964 4.97595 7.9762 5.15197 7.9762 5.33203C7.9762 5.57349 8.07215 5.80506 8.24283 5.97579C8.41359 6.14653 8.64516 6.24245 8.88662 6.24245ZM8.4987 0.582031C6.93294 0.582031 5.40232 1.04634 4.10044 1.91623C2.79855 2.78613 1.78385 4.02254 1.18466 5.46912C0.58546 6.91568 0.428686 8.50749 0.734151 10.0432C1.03962 11.5788 1.79361 12.9894 2.90078 14.0967C4.00794 15.2038 5.41855 15.9578 6.95424 16.2633C8.48991 16.5687 10.0817 16.412 11.5282 15.8127C12.9749 15.2135 14.2113 14.1989 15.0812 12.897C15.9511 11.5951 16.4154 10.0645 16.4154 8.4987C16.4154 7.45908 16.2106 6.42961 15.8127 5.46912C15.4149 4.50863 14.8318 3.6359 14.0967 2.90077C13.3615 2.16564 12.4888 1.5825 11.5282 1.18465C10.5678 0.786804 9.53832 0.582031 8.4987 0.582031ZM8.4987 14.832C7.24612 14.832 6.02161 14.4606 4.98009 13.7647C3.93858 13.0688 3.12682 12.0796 2.64747 10.9224C2.16811 9.76513 2.04269 8.49165 2.28706 7.26314C2.53143 6.03458 3.13463 4.90609 4.02036 4.02036C4.90609 3.13463 6.03458 2.53143 7.26314 2.28706C8.49165 2.04269 9.76513 2.1681 10.9224 2.64746C12.0796 3.12682 13.0688 3.93857 13.7647 4.98009C14.4606 6.0216 14.832 7.24604 14.832 8.4987C14.8301 10.1778 14.1623 11.7876 12.9749 12.9749C11.7876 14.1623 10.1778 14.8301 8.4987 14.832ZM8.63867 11.1513L9.15816 8.97148C9.21373 8.73881 9.20938 8.49585 9.14541 8.26532C9.08152 8.03478 8.96008 7.82428 8.79264 7.65344C8.62513 7.48267 8.41708 7.35711 8.18781 7.28871C7.95862 7.22024 7.71574 7.21113 7.48204 7.26212L6.28837 7.52226L6.59142 8.91464L7.77274 8.6412L7.25246 10.821C7.19672 11.053 7.2006 11.2953 7.26386 11.5254C7.32711 11.7555 7.4476 11.9658 7.61417 12.1367C7.78066 12.3076 7.98776 12.4336 8.21607 12.5029C8.44447 12.5721 8.68664 12.5824 8.92002 12.5326L10.1222 12.2799L9.8287 10.8853L8.63867 11.1513Z" fill="#9F9F9F"/>
</svg>
