<svg width="48" height="48" viewBox="0 0 48 48" fill="none" xmlns="http://www.w3.org/2000/svg">
<path fill-rule="evenodd" clip-rule="evenodd" d="M44 10H4C3.44772 10 3 10.4477 3 11V37C3 37.5523 3.44772 38 4 38H44C44.5523 38 45 37.5523 45 37V11C45 10.4477 44.5523 10 44 10ZM4 7C1.79086 7 0 8.79086 0 11V37C0 39.2091 1.79086 41 4 41H44C46.2091 41 48 39.2091 48 37V11C48 8.79086 46.2091 7 44 7H4Z" fill="#FFD633"/>
<path fill-rule="evenodd" clip-rule="evenodd" d="M46.0608 10.0607L24.5608 31.5606C23.975 32.1464 23.0252 32.1464 22.4395 31.5606L1.93945 11.0607L4.06077 8.93933L23.5001 28.3787L43.9395 7.93933L46.0608 10.0607Z" fill="#FFD633"/>
<path fill-rule="evenodd" clip-rule="evenodd" d="M31.5608 22.4393L46.0608 36.9393L43.9395 39.0607L29.4395 24.5607L31.5608 22.4393Z" fill="#FFD633"/>
<path fill-rule="evenodd" clip-rule="evenodd" d="M16.4392 22.4393L1.93923 36.9393L4.06055 39.0607L18.5605 24.5607L16.4392 22.4393Z" fill="#FFD633"/>
</svg>
