<svg width="32" height="32" viewBox="0 0 32 32" fill="none" xmlns="http://www.w3.org/2000/svg">
<rect width="32" height="32" rx="6" fill="#7E6CC1"/>
<path d="M22.5 8H17V7C17 6.73478 16.8946 6.48043 16.7071 6.29289C16.5196 6.10536 16.2652 6 16 6C15.7348 6 15.4804 6.10536 15.2929 6.29289C15.1054 6.48043 15 6.73478 15 7V8H9.5L5 17.9941C5.31326 18.9364 5.91809 19.7546 6.72704 20.3304C7.53598 20.9062 8.50712 21.2098 9.5 21.1973C10.4929 21.2098 11.464 20.9062 12.273 20.3304C13.0819 19.7546 13.6867 18.9364 14 17.9941L10.4006 10H15V23.0125L11 23.8125V25H21V23.8125L17 23.0125V10H21.5994L18 17.9941C18.3242 18.9294 18.9317 19.7405 19.7382 20.3146C20.5447 20.8886 21.5101 21.1971 22.5 21.1971C23.4899 21.1971 24.4553 20.8886 25.2618 20.3146C26.0683 19.7405 26.6758 18.9294 27 17.9941L22.5 8ZM9.5 19.3973C8.99413 19.404 8.49525 19.2787 8.05264 19.0336C7.61003 18.7886 7.239 18.4323 6.9762 18H12.0239C11.7611 18.4323 11.39 18.7886 10.9474 19.0336C10.5048 19.2787 10.0059 19.404 9.5 19.3973ZM7.7368 16.3L9.5 12.3842L11.2633 16.3H7.7368ZM24.2632 16.3H20.7367L22.5 12.3842L24.2632 16.3ZM22.5 19.3973C21.9941 19.404 21.4952 19.2787 21.0526 19.0336C20.61 18.7886 20.2389 18.4323 19.9761 18H25.0238C24.761 18.4323 24.39 18.7886 23.9474 19.0336C23.5047 19.2787 23.0059 19.404 22.5 19.3973Z" fill="white"/>
</svg>
