<svg width="22" height="19" viewBox="0 0 22 19" fill="none" xmlns="http://www.w3.org/2000/svg">
<path d="M17.5 2H12V1C12 0.73478 11.8946 0.48043 11.7071 0.29289C11.5196 0.10536 11.2652 0 11 0C10.7348 0 10.4804 0.10536 10.2929 0.29289C10.1054 0.48043 10 0.73478 10 1V2H4.5L0 11.9941C0.31326 12.9364 0.91809 13.7546 1.72704 14.3304C2.53598 14.9062 3.50712 15.2098 4.5 15.1973C5.49288 15.2098 6.46402 14.9062 7.27296 14.3304C8.08191 13.7546 8.68674 12.9364 9 11.9941L5.4006 4H10V17.0125L6 17.8125V19H16V17.8125L12 17.0125V4H16.5994L13 11.9941C13.3242 12.9294 13.9317 13.7405 14.7382 14.3146C15.5447 14.8886 16.5101 15.1971 17.5 15.1971C18.4899 15.1971 19.4553 14.8886 20.2618 14.3146C21.0683 13.7405 21.6758 12.9294 22 11.9941L17.5 2ZM4.5 13.3973C3.99413 13.404 3.49525 13.2787 3.05264 13.0336C2.61003 12.7886 2.239 12.4323 1.9762 12H7.0239C6.76107 12.4323 6.39003 12.7886 5.9474 13.0336C5.50478 13.2787 5.00589 13.404 4.5 13.3973ZM2.7368 10.3L4.5 6.3842L6.2633 10.3H2.7368ZM19.2632 10.3H15.7367L17.5 6.3842L19.2632 10.3ZM17.5 13.3973C16.9941 13.404 16.4952 13.2787 16.0526 13.0336C15.61 12.7886 15.2389 12.4323 14.9761 12H20.0238C19.761 12.4323 19.39 12.7886 18.9474 13.0336C18.5047 13.2787 18.0059 13.404 17.5 13.3973Z" fill="white"/>
</svg>
