<svg width="63" height="61" viewBox="0 0 63 61" fill="none" xmlns="http://www.w3.org/2000/svg">
<path d="M6.82842 31.3284C4.30856 28.8086 6.09324 24.5 9.65685 24.5H32C34.2091 24.5 36 26.2909 36 28.5V50.8431C36 54.4068 31.6914 56.1914 29.1716 53.6716L6.82842 31.3284Z" fill="url(#paint0_linear)"/>
<g filter="url(#filter0_b)">
<path d="M56.1716 29.6716C58.6914 32.1914 56.9068 36.5 53.3431 36.5L31 36.5C28.7909 36.5 27 34.7091 27 32.5L27 10.1569C27 6.59324 31.3086 4.80857 33.8284 7.32843L56.1716 29.6716Z" fill="url(#paint1_linear)"/>
</g>
<defs>
<filter id="filter0_b" x="23" y="2.14844" width="38.3512" height="38.3512" filterUnits="userSpaceOnUse" color-interpolation-filters="sRGB">
<feFlood flood-opacity="0" result="BackgroundImageFix"/>
<feGaussianBlur in="BackgroundImage" stdDeviation="2"/>
<feComposite in2="SourceAlpha" operator="in" result="effect1_backgroundBlur"/>
<feBlend mode="normal" in="SourceGraphic" in2="effect1_backgroundBlur" result="shape"/>
</filter>
<linearGradient id="paint0_linear" x1="18" y1="24.5" x2="18" y2="60.5" gradientUnits="userSpaceOnUse">
<stop stop-color="#8373F5"/>
<stop offset="1" stop-color="#975FE1"/>
</linearGradient>
<linearGradient id="paint1_linear" x1="45" y1="36.5" x2="56.9839" y2="-24.2285" gradientUnits="userSpaceOnUse">
<stop stop-color="#FFD633"/>
<stop offset="1" stop-color="#E755FF"/>
</linearGradient>
</defs>
</svg>
