<svg width="36" height="44" viewBox="0 0 36 44" fill="none" xmlns="http://www.w3.org/2000/svg">
    <rect y="8.87207" width="27.7475" height="34.4452" rx="3.82724" fill="url(#paint0_linear)"/>
    <g filter="url(#filter0_b)">
        <path
            d="M8.25293 4.32724C8.25293 2.21352 9.96644 0.5 12.0802 0.5H25.6705C26.7637 0.5 27.8047 0.967489 28.531 1.78456L31.2164 4.80565L35.0051 8.97326C35.6456 9.67775 36.0004 10.5957 36.0004 11.5477V31.1179C36.0004 33.2317 34.2869 34.9452 32.1732 34.9452H11.1234C9.53807 34.9452 8.25293 33.66 8.25293 32.0748V4.32724Z"
            fill="url(#paint1_linear)"/>
    </g>
    <path d="M27.3887 8.15449V0.5L36 10.0681H29.3023C28.2454 10.0681 27.3887 9.21135 27.3887 8.15449Z" fill="#9D87F1"/>
    <defs>
        <filter id="filter0_b" x="4.25293" y="-3.5" width="35.7475" height="42.4452" filterUnits="userSpaceOnUse"
                color-interpolation-filters="sRGB">
            <feFlood flood-opacity="0" result="BackgroundImageFix"/>
            <feGaussianBlur in="BackgroundImage" stdDeviation="2"/>
            <feComposite in2="SourceAlpha" operator="in" result="effect1_backgroundBlur"/>
            <feBlend mode="normal" in="SourceGraphic" in2="effect1_backgroundBlur" result="shape"/>
        </filter>
        <linearGradient id="paint0_linear" x1="13.8738" y1="8.87207" x2="13.8738" y2="43.3173"
                        gradientUnits="userSpaceOnUse">
            <stop stop-color="#8373F5"/>
            <stop offset="1" stop-color="#975FE1"/>
        </linearGradient>
        <linearGradient id="paint1_linear" x1="22.1267" y1="0.5" x2="8.17551" y2="57.4508"
                        gradientUnits="userSpaceOnUse">
            <stop stop-color="#FFD633"/>
            <stop offset="1" stop-color="#E755FF"/>
        </linearGradient>
    </defs>
</svg>
