<svg width="16" height="16" viewBox="0 0 16 16" fill="none" xmlns="http://www.w3.org/2000/svg">
<path d="M7.99967 1.33333C9.23587 1.33469 10.421 1.82634 11.2951 2.70042C12.1693 3.5745 12.661 4.75963 12.6624 5.9958C12.6624 9.2218 9.24421 12.9007 7.99967 14.133C6.75541 12.9009 3.33724 9.22207 3.33724 5.9958C3.33863 4.75967 3.8303 3.57456 4.70438 2.70048C5.57846 1.8264 6.76354 1.33473 7.99967 1.33333ZM7.99967 0C6.41008 0.001835 4.88609 0.634123 3.76206 1.75815C2.63803 2.88219 2.00574 4.40618 2.00391 5.9958C2.00391 10.5042 7.32714 15.3473 7.55374 15.5511L7.99967 15.9525L8.44561 15.5511C8.67227 15.3473 13.9957 10.5045 13.9957 5.9958C13.9939 4.40615 13.3615 2.88215 12.2375 1.75812C11.1134 0.634091 9.58934 0.00181726 7.99967 0Z" fill="#9D87F1"/>
<path d="M8.00065 4.89967C8.21818 4.89967 8.43092 4.96419 8.61178 5.08506C8.79265 5.20593 8.93365 5.37772 9.01692 5.57872C9.10018 5.77972 9.12198 6.00089 9.07952 6.21427C9.03705 6.42765 8.93232 6.62365 8.77845 6.77747C8.62465 6.93134 8.42865 7.03607 8.21525 7.07854C8.00185 7.12101 7.78072 7.09921 7.57972 7.01594C7.37872 6.93267 7.20692 6.79167 7.08605 6.6108C6.96518 6.42991 6.90065 6.21723 6.90065 5.99967C6.90098 5.70804 7.01698 5.42845 7.22318 5.22223C7.42945 5.01601 7.70898 4.90001 8.00065 4.89967ZM8.00065 3.83301C7.57212 3.83301 7.15325 3.96008 6.79692 4.19815C6.44061 4.43623 6.1629 4.77462 5.99891 5.17053C5.83492 5.56643 5.79202 6.00208 5.87562 6.42237C5.95922 6.84267 6.16557 7.22874 6.46859 7.53174C6.77158 7.83474 7.15765 8.04114 7.57798 8.12474C7.99825 8.20834 8.43392 8.16541 8.82978 8.00141C9.22572 7.83741 9.56412 7.55974 9.80218 7.20341C10.0402 6.84707 10.1673 6.4282 10.1673 5.99967C10.1673 5.42504 9.93905 4.87394 9.53272 4.46761C9.12638 4.06128 8.57532 3.83301 8.00065 3.83301Z" fill="#9D87F1"/>
</svg>
