<svg width="12" height="16" viewBox="0 0 12 16" fill="none" xmlns="http://www.w3.org/2000/svg">
<path d="M9.33333 6.0013V4.0013C9.33333 3.11725 8.98213 2.2694 8.357 1.64428C7.73193 1.01916 6.88407 0.667969 6 0.667969C5.11593 0.667969 4.2681 1.01916 3.64298 1.64428C3.01785 2.2694 2.66667 3.11725 2.66667 4.0013V6.0013H0V15.3346H12V6.0013H9.33333ZM4 4.0013C4 3.47087 4.21071 2.96216 4.58579 2.58709C4.96087 2.21202 5.4696 2.0013 6 2.0013C6.5304 2.0013 7.03913 2.21202 7.4142 2.58709C7.78927 2.96216 8 3.47087 8 4.0013V6.0013H4V4.0013ZM10.6667 14.0013H1.33333V7.33463H10.6667V14.0013ZM6 12.0013C6.1768 12.0013 6.3464 11.931 6.4714 11.806C6.5964 11.681 6.66667 11.5114 6.66667 11.3346V10.0013C6.66667 9.8245 6.5964 9.6549 6.4714 9.5299C6.3464 9.4049 6.1768 9.33463 6 9.33463C5.8232 9.33463 5.6536 9.4049 5.5286 9.5299C5.4036 9.6549 5.33333 9.8245 5.33333 10.0013V11.3346C5.33333 11.5114 5.4036 11.681 5.5286 11.806C5.6536 11.931 5.8232 12.0013 6 12.0013Z" fill="#9F9F9F"/>
</svg>
