<svg width="109" height="24" viewBox="0 0 109 24" fill="none" xmlns="http://www.w3.org/2000/svg">
<path d="M74.9089 0.75H70.175H59.7593H55.0227H54.0762V23.25H59.7593V6.37771H70.175V23.25H75.8568V0.75H74.9089Z" fill="white"/>
<path d="M12.7686 7.72683L7.56664 0.627197H0V23.1272H5.67464V7.67267L11.4162 15.6633H14.1197L19.8626 7.67267V23.1272H25.5359V0.627197H17.9692L12.7686 7.72683Z" fill="white"/>
<path d="M40.0064 18.5269C36.3246 18.5269 33.3403 15.5756 33.3403 11.9331C33.3403 8.29055 36.3246 5.33926 40.0064 5.33926C42.6674 5.33926 44.961 6.87954 46.0314 9.10695H51.7275C50.4438 3.88063 45.6847 0 40.0064 0C33.3431 0 27.9414 5.34471 27.9414 11.9344C27.9414 18.5241 33.3431 23.8661 40.0064 23.8661C45.6847 23.8661 50.4438 19.9855 51.7275 14.7605H46.0314C44.961 16.9866 42.6674 18.5269 40.0064 18.5269Z" fill="white"/>
<path fill-rule="evenodd" clip-rule="evenodd" d="M92.3797 0.75H84.8691V23.25H92.3797V0.75ZM91.6286 1.5H85.6202V15.75H91.6286V1.5ZM100.641 0.75H93.1307V23.25H100.641V0.75ZM99.8902 1.5H93.8818V8.25H99.8902V1.5ZM108.903 0.75H101.392V23.25H108.903V0.75Z" fill="white"/>
</svg>
