<svg width="69" height="59" viewBox="0 0 69 59" fill="none" xmlns="http://www.w3.org/2000/svg">
<path d="M59.2791 18.4404H56.9091C55.6002 18.4404 54.5391 19.5016 54.5391 20.8104V35.0304C54.5391 36.3393 55.6002 37.4004 56.9091 37.4004H59.2791C64.5063 37.4004 68.7591 33.1477 68.7591 27.9204C68.7591 22.6932 64.5063 18.4404 59.2791 18.4404Z" fill="url(#paint0_linear)"/>
<path d="M59.2791 18.4404H56.9091C55.6002 18.4404 54.5391 19.5016 54.5391 20.8104V35.0304C54.5391 36.3393 55.6002 37.4004 56.9091 37.4004H59.2791C64.5063 37.4004 68.7591 33.1477 68.7591 27.9204C68.7591 22.6932 64.5063 18.4404 59.2791 18.4404Z" fill="url(#paint1_linear)"/>
<path d="M27.9989 56.3367L24.1106 36.8953C23.9 35.8425 22.8756 35.1595 21.823 35.3702H12.1023C11.0495 35.5808 10.3666 36.605 10.5772 37.6578L14.4655 57.0992C14.6472 58.0081 15.4452 58.6622 16.3719 58.6622H26.0926C27.3168 58.6622 28.2398 57.5412 27.9989 56.3367Z" fill="url(#paint2_linear)"/>
<path d="M27.9989 56.3367L24.1106 36.8953C23.9 35.8425 22.8756 35.1595 21.823 35.3702H12.1023C11.0495 35.5808 10.3666 36.605 10.5772 37.6578L14.4655 57.0992C14.6472 58.0081 15.4452 58.6622 16.3719 58.6622H26.0926C27.3168 58.6622 28.2398 57.5412 27.9989 56.3367Z" fill="url(#paint3_linear)"/>
<path d="M58.0841 0.440992C57.2951 0.173478 56.4234 0.43827 55.9166 1.09928C55.8887 1.13557 53.0707 4.77007 47.5111 8.43569C42.3527 11.8368 33.7752 15.8911 22.2059 15.8911C21.1322 15.8911 20.2617 16.7615 20.2617 17.8352V37.2766C20.2617 38.3503 21.1322 39.2208 22.2059 39.2208C33.7017 39.2208 42.2388 43.2269 47.3763 46.5876C52.9802 50.2536 55.8902 53.9783 55.9167 54.0127C56.4209 54.6703 57.2913 54.9399 58.0842 54.671C58.873 54.4032 59.4038 53.6629 59.4038 52.8297V2.28209C59.4038 1.44909 58.873 0.708635 58.0841 0.440992Z" fill="url(#paint4_linear)"/>
<path d="M58.0841 0.440992C57.2951 0.173478 56.4234 0.43827 55.9166 1.09928C55.8887 1.13557 53.0707 4.77007 47.5111 8.43569C42.3527 11.8368 33.7752 15.8911 22.2059 15.8911C21.1322 15.8911 20.2617 16.7615 20.2617 17.8352V37.2766C20.2617 38.3503 21.1322 39.2208 22.2059 39.2208C33.7017 39.2208 42.2388 43.2269 47.3763 46.5876C52.9802 50.2536 55.8902 53.9783 55.9167 54.0127C56.4209 54.6703 57.2913 54.9399 58.0842 54.671C58.873 54.4032 59.4038 53.6629 59.4038 52.8297V2.28209C59.4038 1.44909 58.873 0.708635 58.0841 0.440992Z" fill="url(#paint5_linear)"/>
<path d="M12.4852 15.8906C6.05316 15.8906 0.820312 21.1235 0.820312 27.5555C0.820312 33.9875 6.05316 39.2203 12.4852 39.2203H22.2059V15.8906H12.4852Z" fill="url(#paint6_linear)"/>
<path d="M12.4852 15.8906C6.05316 15.8906 0.820312 21.1235 0.820312 27.5555C0.820312 33.9875 6.05316 39.2203 12.4852 39.2203H22.2059V15.8906H12.4852Z" fill="url(#paint7_linear)"/>
<defs>
<linearGradient id="paint0_linear" x1="61.6491" y1="37.4004" x2="61.6491" y2="18.4404" gradientUnits="userSpaceOnUse">
<stop stop-color="#FD5900"/>
<stop offset="1" stop-color="#FFDE00"/>
</linearGradient>
<linearGradient id="paint1_linear" x1="61.6491" y1="18.4404" x2="61.6491" y2="37.4004" gradientUnits="userSpaceOnUse">
<stop stop-color="#8373F5"/>
<stop offset="1" stop-color="#975FE1"/>
</linearGradient>
<linearGradient id="paint2_linear" x1="19.2882" y1="58.6622" x2="19.2882" y2="35.3321" gradientUnits="userSpaceOnUse">
<stop stop-color="#FFE59A"/>
<stop offset="1" stop-color="#FFFFD5"/>
</linearGradient>
<linearGradient id="paint3_linear" x1="24.7043" y1="46.0273" x2="-4.5448" y2="54.5171" gradientUnits="userSpaceOnUse">
<stop stop-color="#FFD633"/>
<stop offset="1" stop-color="#E755FF"/>
</linearGradient>
<linearGradient id="paint4_linear" x1="39.8327" y1="54.7741" x2="39.8327" y2="0.337949" gradientUnits="userSpaceOnUse">
<stop stop-color="#FFE59A"/>
<stop offset="1" stop-color="#FFFFD5"/>
</linearGradient>
<linearGradient id="paint5_linear" x1="51.948" y1="25.2933" x2="-13.8935" y2="43.6147" gradientUnits="userSpaceOnUse">
<stop stop-color="#FFD633"/>
<stop offset="1" stop-color="#E755FF"/>
</linearGradient>
<linearGradient id="paint6_linear" x1="11.5131" y1="39.2203" x2="11.5131" y2="15.8906" gradientUnits="userSpaceOnUse">
<stop stop-color="#FD5900"/>
<stop offset="1" stop-color="#FFDE00"/>
</linearGradient>
<linearGradient id="paint7_linear" x1="11.5131" y1="15.8906" x2="11.5131" y2="39.2203" gradientUnits="userSpaceOnUse">
<stop stop-color="#8373F5"/>
<stop offset="1" stop-color="#975FE1"/>
</linearGradient>
</defs>
</svg>
