<svg width="18" height="19" viewBox="0 0 18 19" fill="none" xmlns="http://www.w3.org/2000/svg">
<path d="M14.8333 2.33332C15.0542 2.33356 15.2661 2.42144 15.4223 2.57766C15.5786 2.7339 15.6664 2.94571 15.6667 3.16666V11.5C15.6664 11.7209 15.5786 11.9327 15.4223 12.089C15.2661 12.2452 15.0542 12.3331 14.8333 12.3333H4.97632L4.48816 12.8215L2.33332 14.9763V3.16666C2.33356 2.94571 2.42144 2.7339 2.57766 2.57766C2.7339 2.42144 2.94571 2.33356 3.16666 2.33332H14.8333ZM14.8333 0.666656H3.16666C2.50361 0.666656 1.86773 0.930048 1.39889 1.39889C0.930048 1.86773 0.666656 2.50361 0.666656 3.16666V19L5.66666 14H14.8333C15.4963 14 16.1322 13.7366 16.6011 13.2677C17.0699 12.7989 17.3333 12.163 17.3333 11.5V3.16666C17.3333 2.50361 17.0699 1.86773 16.6011 1.39889C16.1322 0.930048 15.4963 0.666656 14.8333 0.666656Z" fill="#9D87F1"/>
</svg>
