<svg width="14" height="20" viewBox="0 0 14 20" fill="none" xmlns="http://www.w3.org/2000/svg">
<path d="M12.0016 8.33496V10.0016C12.0016 11.3277 11.4749 12.5995 10.5371 13.5371C9.59946 14.4749 8.32771 15.0016 7.00162 15.0016C5.67554 15.0016 4.40378 14.4749 3.46609 13.5371C2.52841 12.5995 2.00163 11.3277 2.00163 10.0016V8.33496H0.334961V10.0016C0.335603 11.6247 0.928594 13.1917 2.00263 14.4085C3.07666 15.6255 4.55788 16.4085 6.16829 16.6107V19.1683H7.83496V16.6107C9.44537 16.4085 10.9266 15.6255 12.0006 14.4085C13.0746 13.1917 13.6676 11.6247 13.6683 10.0016V8.33496H12.0016ZM7.00162 13.335C7.88537 13.3341 8.73279 12.9826 9.35771 12.3577C9.98262 11.7328 10.3341 10.8854 10.335 10.0016V4.16829C10.335 3.28424 9.98379 2.43639 9.35862 1.81127C8.73354 1.18615 7.88571 0.834961 7.00162 0.834961C6.11754 0.834961 5.26972 1.18615 4.6446 1.81127C4.01948 2.43639 3.66829 3.28424 3.66829 4.16829V10.0016C3.66915 10.8854 4.02062 11.7328 4.64555 12.3577C5.27049 12.9826 6.11787 13.3341 7.00162 13.335ZM5.33496 4.16829C5.33496 3.72627 5.51054 3.30234 5.82312 2.98979C6.13571 2.67722 6.55962 2.50163 7.00162 2.50163C7.44362 2.50163 7.86754 2.67722 8.18012 2.98979C8.49271 3.30234 8.66829 3.72627 8.66829 4.16829V10.0016C8.66829 10.4436 8.49271 10.8675 8.18012 11.1801C7.86754 11.4927 7.44362 11.6683 7.00162 11.6683C6.55962 11.6683 6.13571 11.4927 5.82312 11.1801C5.51054 10.8675 5.33496 10.4436 5.33496 10.0016V4.16829Z" fill="#9F9F9F"/>
</svg>
