<svg width="32" height="32" viewBox="0 0 32 32" fill="none" xmlns="http://www.w3.org/2000/svg">
<path fill-rule="evenodd" clip-rule="evenodd" d="M28.6693 18.6654C27.1965 18.6654 26.0026 17.4715 26.0026 15.9987C26.0026 14.5259 27.1965 13.332 28.6693 13.332C30.142 13.332 31.3359 14.5259 31.3359 15.9987C31.3359 17.4715 30.142 18.6654 28.6693 18.6654ZM15.9974 18.6654C14.5246 18.6654 13.3307 17.4715 13.3307 15.9987C13.3307 14.5259 14.5246 13.332 15.9974 13.332C17.4702 13.332 18.6641 14.5259 18.6641 15.9987C18.6641 17.4715 17.4702 18.6654 15.9974 18.6654ZM0.666668 15.9987C0.666668 17.4715 1.86057 18.6654 3.33333 18.6654C4.80609 18.6654 6 17.4715 6 15.9987C6 14.5259 4.80609 13.332 3.33333 13.332C1.86057 13.332 0.666668 14.5259 0.666668 15.9987Z" fill="white"/>
</svg>
