<svg width="14" height="14" viewBox="0 0 14 14" fill="none" xmlns="http://www.w3.org/2000/svg">
<path d="M8.49837 12.3199V13.4984H9.67687L12.3621 10.8132L11.1835 9.63471L8.49837 12.3199ZM13.5616 8.84762L13.1491 8.43512C13.0988 8.38479 13.0391 8.34487 12.9734 8.31771C12.9076 8.29046 12.8372 8.27646 12.7661 8.27646C12.695 8.27646 12.6245 8.29046 12.5588 8.31771C12.493 8.34487 12.4334 8.38479 12.383 8.43512L11.8906 8.92762L13.0691 10.1061L13.5616 9.61362C13.6632 9.51204 13.7203 9.37429 13.7203 9.23062C13.7203 9.08696 13.6632 8.94921 13.5616 8.84762ZM11.8317 0.165039H0.165039V1.83171H11.8317V0.165039ZM0.165039 11.8317H6.83171V10.165H0.165039V11.8317ZM11.8317 5.16504H0.165039V6.83171H11.8317V5.16504Z" fill="#9D87F1"/>
</svg>
