<svg width="62" height="62" viewBox="0 0 62 62" fill="none" xmlns="http://www.w3.org/2000/svg">
<path d="M0.577637 0.292969H42.6762C46.4722 0.292969 49.5495 3.37022 49.5495 7.16621V54.4197C49.5495 58.2157 46.4722 61.293 42.6762 61.293H0.577637V0.292969Z" fill="#C4C4C4"/>
<path d="M0.577637 0.292969H42.6762C46.4722 0.292969 49.5495 3.37022 49.5495 7.16621V54.4197C49.5495 58.2157 46.4722 61.293 42.6762 61.293H0.577637V0.292969Z" fill="url(#paint0_linear)"/>
<g opacity="0.6" filter="url(#filter0_b)">
<rect x="8.31006" y="0.292969" width="2.57746" height="61" fill="url(#paint1_linear)"/>
</g>
<g filter="url(#filter1_b)">
<circle cx="45.676" cy="30.7995" r="16.3239" fill="url(#paint2_linear)"/>
</g>
<defs>
<filter id="filter0_b" x="4.87344" y="-3.14365" width="9.4507" height="67.8732" filterUnits="userSpaceOnUse" color-interpolation-filters="sRGB">
<feFlood flood-opacity="0" result="BackgroundImageFix"/>
<feGaussianBlur in="BackgroundImage" stdDeviation="1.71831"/>
<feComposite in2="SourceAlpha" operator="in" result="effect1_backgroundBlur"/>
<feBlend mode="normal" in="SourceGraphic" in2="effect1_backgroundBlur" result="shape"/>
</filter>
<filter id="filter1_b" x="25.9154" y="11.039" width="39.5211" height="39.5211" filterUnits="userSpaceOnUse" color-interpolation-filters="sRGB">
<feFlood flood-opacity="0" result="BackgroundImageFix"/>
<feGaussianBlur in="BackgroundImage" stdDeviation="1.71831"/>
<feComposite in2="SourceAlpha" operator="in" result="effect1_backgroundBlur"/>
<feBlend mode="normal" in="SourceGraphic" in2="effect1_backgroundBlur" result="shape"/>
</filter>
<linearGradient id="paint0_linear" x1="25.0635" y1="4.64304" x2="25.0635" y2="61.2958" gradientUnits="userSpaceOnUse">
<stop stop-color="#9D87F1"/>
<stop offset="1" stop-color="#B98BF5"/>
</linearGradient>
<linearGradient id="paint1_linear" x1="9.59879" y1="-31.4958" x2="2.12969" y2="-32.1376" gradientUnits="userSpaceOnUse">
<stop stop-color="white"/>
<stop offset="1" stop-color="#8951B5" stop-opacity="0.35"/>
</linearGradient>
<linearGradient id="paint2_linear" x1="47.0506" y1="4.67888" x2="-14.7792" y2="73.9587" gradientUnits="userSpaceOnUse">
<stop stop-color="white"/>
<stop offset="1" stop-color="#8951B5" stop-opacity="0.35"/>
</linearGradient>
</defs>
</svg>
