<svg width="48" height="48" viewBox="0 0 48 48" fill="none" xmlns="http://www.w3.org/2000/svg">
<path fill-rule="evenodd" clip-rule="evenodd" d="M17.1973 6C16.1599 7.7934 14.2208 9 12 9C9.91303 9 8.07492 7.93449 7 6.3178V40C7 40.5523 7.44771 41 8 41H40C40.5523 41 41 40.5523 41 40V6.31779C39.9251 7.93449 38.087 9 36 9C33.7792 9 31.8401 7.7934 30.8027 6H29.1973C28.1599 7.7934 26.2208 9 24 9C21.7792 9 19.8401 7.7934 18.8027 6H17.1973ZM27 3H33C33 4.65685 34.3431 6 36 6C37.6569 6 39 4.65685 39 3H44V40C44 42.2091 42.2091 44 40 44H8C5.79086 44 4 42.2091 4 40V3H9C9 4.65685 10.3431 6 12 6C13.6569 6 15 4.65685 15 3H21C21 4.65685 22.3431 6 24 6C25.6569 6 27 4.65685 27 3Z" fill="#FFD633"/>
<path fill-rule="evenodd" clip-rule="evenodd" d="M35 19.5H13V16.5H35V19.5Z" fill="#FFD633"/>
<path fill-rule="evenodd" clip-rule="evenodd" d="M35 26.5H13V23.5H35V26.5Z" fill="#FFD633"/>
<path fill-rule="evenodd" clip-rule="evenodd" d="M28 33.5H13V30.5H28V33.5Z" fill="#FFD633"/>
</svg>
