<svg width="8" height="14" viewBox="0 0 8 14" fill="none" xmlns="http://www.w3.org/2000/svg">
<path d="M5.4428 10.1734C6.16915 10.0057 6.86853 9.71401 7.51219 9.30386C7.99942 8.99216 8.14684 8.33959 7.83939 7.84375C7.53195 7.34794 6.88832 7.19846 6.39928 7.51017C4.93939 8.44165 3.0606 8.43983 1.60071 7.51017C1.1117 7.19846 0.468038 7.34794 0.160599 7.84375C-0.14684 8.33775 0.000586908 8.99216 0.487815 9.30386C1.13146 9.71401 1.83084 10.0057 2.55719 10.1734L0.566922 12.1931C0.158819 12.6069 0.158819 13.2759 0.566922 13.6897C0.771882 13.8956 1.03797 13.9995 1.30406 13.9995C1.57194 13.9995 1.83803 13.8956 2.04301 13.6897L4.00089 11.7046L5.95879 13.6897C6.36692 14.1034 7.02674 14.1034 7.43486 13.6897C7.84298 13.2759 7.84298 12.6051 7.43486 12.1931L5.4428 10.1734ZM4.00089 2.11816C4.81535 2.11816 5.47698 2.78897 5.47698 3.61473C5.47698 4.43866 4.81535 5.10947 4.00089 5.10947C3.18826 5.10947 2.52482 4.43866 2.52482 3.61473C2.52482 2.78897 3.18826 2.11816 4.00089 2.11816ZM4.00089 7.22581C5.966 7.22581 7.56431 5.60529 7.56431 3.61471C7.56431 1.62052 5.966 0 4.00089 0C2.0358 0 0.437492 1.62052 0.437492 3.6129C0.437492 5.60529 2.0358 7.22581 4.00089 7.22581Z" fill="black"/>
</svg>
