<svg width="13" height="13" viewBox="0 0 13 13" fill="none" xmlns="http://www.w3.org/2000/svg">
<path d="M11.7239 2.05761L10.9427 1.27641C10.5675 0.901806 10.0589 0.691406 9.52867 0.691406C8.9984 0.691406 8.48987 0.901806 8.1146 1.27641L0 9.39093V13.0003H3.6094L11.7239 4.88575C12.0985 4.51049 12.3089 4.00191 12.3089 3.47168C12.3089 2.94144 12.0985 2.43287 11.7239 2.05761ZM3.05707 11.667H1.33333V9.94326L7.33333 3.94328L9.0572 5.66699L3.05707 11.667ZM10.7812 3.94295L10 4.72421L8.27613 3.00035L9.0574 2.21908C9.18267 2.09456 9.35207 2.02467 9.52867 2.02467C9.70527 2.02467 9.87467 2.09456 9.99993 2.21908L10.7813 3.00035C10.9058 3.12557 10.9757 3.29495 10.9757 3.47151C10.9757 3.64807 10.9058 3.81746 10.7813 3.94268L10.7812 3.94295Z" fill="white"/>
</svg>
