<svg width="49" height="48" viewBox="0 0 49 48" fill="none" xmlns="http://www.w3.org/2000/svg">
<g clip-path="url(#clip0)">
<path fill-rule="evenodd" clip-rule="evenodd" d="M41.0488 23.5H28.0488V20.5H41.0488V23.5Z" fill="#FFD633"/>
<path fill-rule="evenodd" clip-rule="evenodd" d="M41.0488 31.5H28.0488V28.5H41.0488V31.5Z" fill="#FFD633"/>
<path fill-rule="evenodd" clip-rule="evenodd" d="M29.9659 10C30.0204 9.67479 30.0488 9.34071 30.0488 9C30.0488 8.29873 29.9285 7.62556 29.7074 7H44.0488C46.258 7 48.0488 8.79086 48.0488 11V41C48.0488 43.2091 46.258 45 44.0488 45H4.04883C1.83969 45 0.0488281 43.2091 0.0488281 41V11C0.0488281 8.79086 1.83969 7 4.04883 7H18.3902C18.1691 7.62556 18.0488 8.29873 18.0488 9C18.0488 9.34071 18.0772 9.67479 18.1318 10H4.04883C3.49654 10 3.04883 10.4477 3.04883 11V41C3.04883 41.5523 3.49654 42 4.04883 42H44.0488C44.6011 42 45.0488 41.5523 45.0488 41V11C45.0488 10.4477 44.6011 10 44.0488 10H29.9659Z" fill="#FFD633"/>
<path fill-rule="evenodd" clip-rule="evenodd" d="M16.5488 27C18.4818 27 20.0488 25.433 20.0488 23.5C20.0488 21.567 18.4818 20 16.5488 20C14.6158 20 13.0488 21.567 13.0488 23.5C13.0488 25.433 14.6158 27 16.5488 27ZM16.5488 30C20.1387 30 23.0488 27.0899 23.0488 23.5C23.0488 19.9101 20.1387 17 16.5488 17C12.959 17 10.0488 19.9101 10.0488 23.5C10.0488 27.0899 12.959 30 16.5488 30Z" fill="#FFD633"/>
<path d="M26.0488 36.5C26.0488 33.9804 25.0479 31.5641 23.2663 29.7825C21.4847 28.0009 19.0684 27 16.5488 27C14.0293 27 11.6129 28.0009 9.83131 29.7825C8.04972 31.5641 7.04883 33.9804 7.04883 36.5L10.0496 36.5C10.0496 34.7763 10.7343 33.1232 11.9532 31.9043C13.172 30.6855 14.8251 30.0007 16.5488 30.0007C18.2725 30.0007 19.9257 30.6855 21.1445 31.9043C22.3634 33.1232 23.0481 34.7763 23.0481 36.5H26.0488Z" fill="#FFD633"/>
<path fill-rule="evenodd" clip-rule="evenodd" d="M24.0488 12C25.7057 12 27.0488 10.6569 27.0488 9C27.0488 7.34315 25.7057 6 24.0488 6C22.392 6 21.0488 7.34315 21.0488 9C21.0488 10.6569 22.392 12 24.0488 12ZM24.0488 15C27.3625 15 30.0488 12.3137 30.0488 9C30.0488 5.68629 27.3625 3 24.0488 3C20.7351 3 18.0488 5.68629 18.0488 9C18.0488 12.3137 20.7351 15 24.0488 15Z" fill="#FFD633"/>
</g>
<defs>
<clipPath id="clip0">
<rect width="48" height="48" fill="white" transform="translate(0.0488281)"/>
</clipPath>
</defs>
</svg>
