<svg width="16" height="17" viewBox="0 0 16 17" fill="none" xmlns="http://www.w3.org/2000/svg">
<path fill-rule="evenodd" clip-rule="evenodd" d="M7.6882 5.45616C7.6882 4.41882 8.52912 3.5779 9.56646 3.5779C10.6038 3.5779 11.4447 4.41882 11.4447 5.45616C11.4447 6.49349 10.6038 7.33442 9.56646 7.33442C8.52912 7.33442 7.6882 6.49349 7.6882 5.45616ZM9.56646 4.83007C9.22068 4.83007 8.94037 5.11038 8.94037 5.45616C8.94037 5.80194 9.22068 6.08225 9.56646 6.08225C9.91224 6.08225 10.1925 5.80194 10.1925 5.45616C10.1925 5.11038 9.91224 4.83007 9.56646 4.83007Z" fill="url(#paint0_linear_17030:67)"/>
<path d="M7.6876 9.83883L7.688 9.83542C7.688 9.83542 7.68934 9.82971 7.69183 9.82361C7.69689 9.81125 7.70899 9.78808 7.73632 9.75578C7.79342 9.68828 7.90059 9.60061 8.07502 9.5134C8.42421 9.3388 8.95043 9.21274 9.56586 9.21274C10.1813 9.21274 10.7075 9.3388 11.0567 9.5134C11.2311 9.60061 11.3383 9.68828 11.3954 9.75578C11.4227 9.78808 11.4348 9.81125 11.4399 9.82361C11.4424 9.82971 11.4437 9.83542 11.4437 9.83542L11.4441 9.83883C11.4441 10.1846 11.7244 10.4649 12.0702 10.4649C12.416 10.4649 12.6963 10.1846 12.6963 9.83883C12.6963 9.12815 12.1365 8.6533 11.6167 8.39342C11.0595 8.11482 10.3335 7.96057 9.56586 7.96057C8.79818 7.96057 8.07223 8.11482 7.51503 8.39342C6.99527 8.6533 6.43543 9.12815 6.43543 9.83883C6.43543 10.1846 6.71574 10.4649 7.06151 10.4649C7.40729 10.4649 7.6876 10.1846 7.6876 9.83883Z" fill="url(#paint1_linear_17030:67)"/>
<path fill-rule="evenodd" clip-rule="evenodd" d="M3.92989 3.5779C3.93006 2.54071 4.77092 1.69995 5.80815 1.69995H13.3212C14.3585 1.69995 15.1995 2.54088 15.1995 3.57821V11.0913C15.1995 12.1284 14.3588 12.9692 13.3217 12.9695V13.5953C13.3217 14.9784 12.2005 16.0996 10.8174 16.0996H3.30434C1.92122 16.0996 0.799988 14.9784 0.799988 13.5953V6.08225C0.799988 4.69913 1.92122 3.5779 3.30434 3.5779H3.92989ZM5.80815 2.95213H13.3212C13.667 2.95213 13.9473 3.23243 13.9473 3.57821V11.0913C13.9473 11.437 13.667 11.7173 13.3212 11.7173H5.80815C5.46237 11.7173 5.18206 11.437 5.18206 11.0913V3.57821C5.18206 3.23243 5.46237 2.95213 5.80815 2.95213ZM3.92989 4.83007H3.30434C2.61278 4.83007 2.05216 5.39069 2.05216 6.08225V13.5953C2.05216 14.2868 2.61278 14.8475 3.30434 14.8475H10.8174C11.5089 14.8475 12.0696 14.2868 12.0696 13.5953V12.9695H5.80815C4.77081 12.9695 3.92989 12.1286 3.92989 11.0913V4.83007Z" fill="url(#paint2_linear_17030:67)"/>
<defs>
<linearGradient id="paint0_linear_17030:67" x1="7.99972" y1="1.69995" x2="7.99972" y2="16.0996" gradientUnits="userSpaceOnUse">
<stop stop-color="#8373F5"/>
<stop offset="1" stop-color="#975FE1"/>
</linearGradient>
<linearGradient id="paint1_linear_17030:67" x1="7.99972" y1="1.69995" x2="7.99972" y2="16.0996" gradientUnits="userSpaceOnUse">
<stop stop-color="#8373F5"/>
<stop offset="1" stop-color="#975FE1"/>
</linearGradient>
<linearGradient id="paint2_linear_17030:67" x1="7.99972" y1="1.69995" x2="7.99972" y2="16.0996" gradientUnits="userSpaceOnUse">
<stop stop-color="#8373F5"/>
<stop offset="1" stop-color="#975FE1"/>
</linearGradient>
</defs>
</svg>
