<svg width="21" height="21" viewBox="0 0 21 21" fill="none" xmlns="http://www.w3.org/2000/svg">
<path d="M16.6725 5.3916H15.1239L13.6802 2.8916H7.99819L6.55453 5.3916H5.00586C4.34304 5.39233 3.70758 5.65595 3.23889 6.12463C2.77021 6.59332 2.50658 7.22878 2.50586 7.8916V15.3916C2.50658 16.0544 2.77021 16.6899 3.23889 17.1586C3.70758 17.6273 4.34304 17.8909 5.00586 17.8916H16.6725C17.3354 17.8909 17.9708 17.6273 18.4395 17.1586C18.9082 16.6899 19.1718 16.0544 19.1725 15.3916V7.8916C19.1718 7.22878 18.9082 6.59332 18.4395 6.12463C17.9708 5.65595 17.3354 5.39233 16.6725 5.3916ZM17.5059 15.3916C17.5056 15.6125 17.4178 15.8244 17.2615 15.9806C17.1053 16.1369 16.8934 16.2247 16.6725 16.2249H5.00586C4.78492 16.2247 4.5731 16.1369 4.41687 15.9806C4.26064 15.8244 4.17277 15.6125 4.17253 15.3916V7.8916C4.17277 7.67066 4.26064 7.45884 4.41687 7.30261C4.5731 7.14638 4.78492 7.05851 5.00586 7.05827H7.51661L7.99753 6.22493L8.96036 4.55827H12.718L13.6809 6.22493L14.162 7.05827H16.6725C16.8934 7.05851 17.1053 7.14638 17.2615 7.30261C17.4178 7.45884 17.5056 7.67066 17.5059 7.8916V15.3916ZM10.8392 7.8916C10.1799 7.8916 9.53544 8.0871 8.98729 8.45337C8.43913 8.8196 8.01188 9.34027 7.75959 9.94935C7.5073 10.5584 7.44129 11.2286 7.56991 11.8753C7.69853 12.5219 8.01599 13.1158 8.48217 13.5819C8.94834 14.0481 9.54228 14.3656 10.1889 14.4942C10.8355 14.6229 11.5057 14.5569 12.1148 14.3045C12.7239 14.0523 13.2445 13.625 13.6108 13.0769C13.977 12.5287 14.1725 11.8842 14.1725 11.2249C14.1716 10.3412 13.8201 9.49385 13.1952 8.86893C12.5703 8.24402 11.7229 7.89253 10.8392 7.8916ZM10.8392 12.8916C10.5095 12.8916 10.1874 12.7939 9.91328 12.6107C9.63919 12.4276 9.42553 12.1673 9.29936 11.8628C9.17328 11.5582 9.14024 11.2231 9.20453 10.8998C9.26886 10.5765 9.42761 10.2795 9.66069 10.0464C9.89378 9.81335 10.1908 9.6546 10.514 9.59027C10.8374 9.52602 11.1724 9.55902 11.477 9.6851C11.7815 9.81127 12.0419 10.0249 12.2249 10.299C12.4081 10.5731 12.5059 10.8953 12.5059 11.2249C12.5054 11.6668 12.3296 12.0904 12.0171 12.4029C11.7047 12.7154 11.281 12.8911 10.8392 12.8916Z" fill="white"/>
</svg>
