<svg width="61" height="60" viewBox="0 0 61 60" fill="none" xmlns="http://www.w3.org/2000/svg">
<path fill-rule="evenodd" clip-rule="evenodd" d="M48.0488 23C48.0488 13.0589 39.99 5 30.0488 5C20.1077 5 12.0488 13.0589 12.0488 23C12.0488 27.2624 12.6325 30.6017 15.3535 35.2064C17.8949 39.5072 22.3122 44.922 30.0488 52.8811C37.7854 44.922 42.2028 39.5072 44.7442 35.2064C47.4651 30.6017 48.0488 27.2624 48.0488 23ZM33.5613 56.4414C50.4077 39.1244 53.0488 32.3828 53.0488 23C53.0488 10.2975 42.7514 0 30.0488 0C17.3463 0 7.04883 10.2975 7.04883 23C7.04883 32.3828 9.68991 39.1244 26.5364 56.4414C27.6446 57.5806 28.8143 58.7655 30.0488 60C31.2833 58.7655 32.453 57.5806 33.5613 56.4414Z" fill="#FFD633"/>
<path fill-rule="evenodd" clip-rule="evenodd" d="M30.0488 28C32.8103 28 35.0488 25.7614 35.0488 23C35.0488 20.2386 32.8103 18 30.0488 18C27.2874 18 25.0488 20.2386 25.0488 23C25.0488 25.7614 27.2874 28 30.0488 28ZM30.0488 33C35.5717 33 40.0488 28.5228 40.0488 23C40.0488 17.4772 35.5717 13 30.0488 13C24.526 13 20.0488 17.4772 20.0488 23C20.0488 28.5228 24.526 33 30.0488 33Z" fill="#FFD633"/>
</svg>
