<svg width="61" height="60" viewBox="0 0 61 60" fill="none" xmlns="http://www.w3.org/2000/svg">
<path fill-rule="evenodd" clip-rule="evenodd" d="M30.0488 52C42.1991 52 52.0488 42.1503 52.0488 30C52.0488 17.8497 42.1991 8 30.0488 8C17.8986 8 8.04883 17.8497 8.04883 30C8.04883 42.1503 17.8986 52 30.0488 52ZM30.0488 57C44.9605 57 57.0488 44.9117 57.0488 30C57.0488 15.0883 44.9605 3 30.0488 3C15.1371 3 3.04883 15.0883 3.04883 30C3.04883 44.9117 15.1371 57 30.0488 57Z" fill="#FFD633"/>
<path fill-rule="evenodd" clip-rule="evenodd" d="M33.9651 47.0612C35.7916 42.9516 37.0488 36.9237 37.0488 30C37.0488 23.0763 35.7916 17.0484 33.9651 12.9388C33.049 10.8777 32.0877 9.51924 31.2728 8.74377C30.4904 7.99919 30.0857 7.99993 30.0497 8H30.048C30.012 7.99993 29.6072 7.99919 28.8248 8.74377C28.01 9.51924 27.0487 10.8777 26.1326 12.9388C24.3061 17.0484 23.0488 23.0763 23.0488 30C23.0488 36.9237 24.3061 42.9516 26.1326 47.0612C27.0487 49.1223 28.01 50.4808 28.8248 51.2562C29.6072 52.0008 30.012 52.0001 30.048 52H30.0497C30.0857 52.0001 30.4904 52.0008 31.2728 51.2562C32.0877 50.4808 33.049 49.1223 33.9651 47.0612ZM30.0488 57C36.6762 57 42.0488 44.9117 42.0488 30C42.0488 15.0883 36.6762 3 30.0488 3C23.4214 3 18.0488 15.0883 18.0488 30C18.0488 44.9117 23.4214 57 30.0488 57Z" fill="#FFD633"/>
<path fill-rule="evenodd" clip-rule="evenodd" d="M53.5488 32.5H6.04883V27.5H53.5488V32.5Z" fill="#FFD633"/>
</svg>
