<svg width="18" height="17" viewBox="0 0 18 17" fill="none" xmlns="http://www.w3.org/2000/svg">
<path d="M8.83236 0.166016C7.18419 0.166016 5.57302 0.654757 4.20261 1.57043C2.8322 2.48612 1.7641 3.7876 1.13337 5.31032C0.502632 6.83302 0.337608 8.5086 0.659149 10.1251C0.980691 11.7416 1.77437 13.2264 2.93981 14.3919C4.10524 15.5573 5.5901 16.351 7.20661 16.6726C8.82311 16.9941 10.4987 16.8291 12.0214 16.1983C13.5441 15.5676 14.8456 14.4995 15.7613 13.1291C16.6769 11.7587 17.1657 10.1475 17.1657 8.49935C17.1657 7.40502 16.9501 6.32137 16.5314 5.31032C16.1126 4.29927 15.4988 3.38062 14.7249 2.60679C13.9511 1.83297 13.0324 1.21914 12.0214 0.800349C11.0104 0.381566 9.92669 0.166016 8.83236 0.166016ZM8.83236 15.166C7.51386 15.166 6.22489 14.775 5.12856 14.0425C4.03223 13.3099 3.17775 12.2688 2.67317 11.0506C2.16858 9.83243 2.03656 8.49193 2.29379 7.19877C2.55102 5.90554 3.18597 4.71766 4.11832 3.78531C5.05067 2.85296 6.23855 2.21802 7.53177 1.96078C8.82494 1.70355 10.1654 1.83557 11.3836 2.34015C12.6018 2.84474 13.6429 3.69922 14.3755 4.79555C15.108 5.89187 15.499 7.18077 15.499 8.49935C15.497 10.2668 14.794 11.9613 13.5442 13.2112C12.2944 14.461 10.5999 15.164 8.83236 15.166ZM9.49902 5.62677H8.16569V7.83268H5.95977V9.16602H8.16569V11.3716H9.49902V9.16602H11.7046V7.83268H9.49902V5.62677Z" fill="#9D87F1"/>
</svg>
