<svg width="17" height="20" viewBox="0 0 17 20" fill="none" xmlns="http://www.w3.org/2000/svg">
<path d="M8.00195 8.99805C8.79305 8.99805 9.56645 8.76346 10.2243 8.32393C10.8821 7.8844 11.3948 7.25969 11.6975 6.52879C12.0003 5.79788 12.0795 4.99361 11.9251 4.21769C11.7708 3.44177 11.3898 2.72903 10.8304 2.16962C10.271 1.61021 9.55825 1.22925 8.78235 1.07491C8.00635 0.920568 7.20215 0.999778 6.47125 1.30253C5.74031 1.60528 5.1156 2.11797 4.67607 2.77577C4.23655 3.43357 4.00195 4.20693 4.00195 4.99805C4.00314 6.05855 4.42495 7.07528 5.17484 7.82516C5.92473 8.57505 6.94145 8.99686 8.00195 8.99805ZM8.00195 2.99805C8.39755 2.99805 8.78415 3.11535 9.11305 3.33511C9.44195 3.55488 9.69835 3.86723 9.84975 4.23268C10.0011 4.59814 10.0407 5.00027 9.96355 5.38823C9.88635 5.77619 9.69585 6.13256 9.41615 6.41227C9.13645 6.69197 8.78005 6.88245 8.39215 6.95962C8.00415 7.03679 7.60205 6.99719 7.23655 6.84581C6.87115 6.69444 6.55875 6.43809 6.33905 6.10919C6.11925 5.78029 6.00195 5.39361 6.00195 4.99805C6.00255 4.46781 6.21345 3.95945 6.58845 3.58451C6.96335 3.20957 7.47175 2.99866 8.00195 2.99805ZM15.709 14.2021C13.6635 12.161 10.8917 11.0146 8.00195 11.0146C5.11222 11.0146 2.3405 12.161 0.294953 14.2021L0.00195312 14.4951V19.998H16.002V14.4951L15.709 14.2021ZM14.002 17.998H2.00195V15.3363C3.6432 13.8425 5.78267 13.0146 8.00195 13.0146C10.2213 13.0146 12.3608 13.8425 14.002 15.3363V17.998Z" fill="#9D87F1"/>
</svg>
