<svg width="60" height="61" viewBox="0 0 60 61" fill="none" xmlns="http://www.w3.org/2000/svg">
<path d="M8.90625 48.8478C8.90625 55.3095 14.1633 60.5665 20.625 60.5665H39.375C45.8367 60.5665 51.0938 55.3095 51.0938 48.8478V34.7853C51.0938 28.3236 45.8367 23.0665 39.375 23.0665H20.625C14.1633 23.0665 8.90625 28.3236 8.90625 34.7853V48.8478ZM13.5938 34.7853C13.5938 30.9082 16.748 27.754 20.625 27.754H39.375C43.252 27.754 46.4062 30.9082 46.4062 34.7853V48.8478C46.4062 52.7248 43.252 55.879 39.375 55.879H20.625C16.748 55.879 13.5938 52.7248 13.5938 48.8478V34.7853Z" fill="#FFD633"/>
<path d="M57.6562 32.4415C56.3618 32.4415 55.3125 33.4908 55.3125 34.7853V48.8478C55.3125 50.1422 56.3618 51.1915 57.6562 51.1915C58.9507 51.1915 60 50.1422 60 48.8478V34.7853C60 33.4908 58.9507 32.4415 57.6562 32.4415Z" fill="#FFD633"/>
<path d="M2.34375 51.1915C3.6382 51.1915 4.6875 50.1422 4.6875 48.8478V34.7853C4.6875 33.4908 3.6382 32.4415 2.34375 32.4415C1.0493 32.4415 0 33.4908 0 34.7853V48.8478C0 50.1422 1.0493 51.1915 2.34375 51.1915Z" fill="#FFD633"/>
<path d="M20.625 37.129H25.3125C26.607 37.129 27.6562 36.0797 27.6562 34.7853C27.6562 33.4908 26.607 32.4415 25.3125 32.4415H20.625C19.3305 32.4415 18.2812 33.4908 18.2812 34.7853C18.2812 36.0797 19.3305 37.129 20.625 37.129Z" fill="#FFD633"/>
<path d="M34.6875 37.129H39.375C40.6695 37.129 41.7188 36.0797 41.7188 34.7853C41.7188 33.4908 40.6695 32.4415 39.375 32.4415H34.6875C33.393 32.4415 32.3438 33.4908 32.3438 34.7853C32.3438 36.0797 33.393 37.129 34.6875 37.129Z" fill="#FFD633"/>
<path d="M30 19.3165C31.2945 19.3165 32.3438 18.2672 32.3438 16.9728V14.2259C35.0716 13.2584 37.0312 10.6532 37.0312 7.59778C37.0312 3.72075 33.877 0.566528 30 0.566528C26.123 0.566528 22.9688 3.72075 22.9688 7.59778C22.9688 10.6532 24.9284 13.2583 27.6562 14.2259V16.9728C27.6562 18.2672 28.7055 19.3165 30 19.3165ZM30 5.25403C31.2923 5.25403 32.3438 6.30543 32.3438 7.59778C32.3438 8.89012 31.2923 9.94153 30 9.94153C28.7077 9.94153 27.6562 8.89012 27.6562 7.59778C27.6562 6.30543 28.7077 5.25403 30 5.25403Z" fill="#FFD633"/>
<path d="M25.3125 51.1915H34.6875C35.982 51.1915 37.0312 50.1422 37.0312 48.8478C37.0312 47.5533 35.982 46.504 34.6875 46.504H25.3125C24.018 46.504 22.9688 47.5533 22.9688 48.8478C22.9688 50.1422 24.018 51.1915 25.3125 51.1915Z" fill="#FFD633"/>
</svg>
