<svg width="60" height="60" viewBox="0 0 60 60" fill="none" xmlns="http://www.w3.org/2000/svg">
<g clip-path="url(#clip0)">
<path fill-rule="evenodd" clip-rule="evenodd" d="M49.2315 28.8785C53.9174 23.7181 58.5636 16.8862 59.6437 5.73815C59.7966 4.16027 59.878 2.49592 59.878 0.737613C58.1197 0.737643 56.4553 0.819107 54.8775 0.972008C43.6253 2.06237 36.7702 6.78549 31.5928 11.5155C28.9645 11.8481 22.3918 12.8357 16.3129 14.6267C14.4535 15.1745 12.6402 15.7976 11.0002 16.5L18.9953 23.9943L15.1835 27.8061L32.8095 45.4321L36.6911 41.5505L44.5715 49.0717C45.2015 47.3913 45.7663 45.592 46.2674 43.7786C47.9781 37.588 48.9464 31.2322 49.2315 28.8785ZM42.1264 39.8262C43.3215 34.8937 44.034 30.2078 44.2678 28.2773L44.4593 26.6962L45.5299 25.5172C49.5687 21.0695 53.4997 15.3973 54.5846 6.0311C45.1313 7.12622 39.4377 11.121 34.9653 15.2069L33.7942 16.2769L32.2205 16.476C30.0342 16.7526 25.3434 17.4623 20.5986 18.644L26.1826 23.8781L22.2546 27.8061L32.8095 38.361L36.6097 34.5608L42.1264 39.8262Z" fill="#FFD633"/>
<path d="M42.3635 22.364C41.1919 23.5355 39.2924 23.5355 38.1209 22.364C36.9493 21.1924 36.9493 19.2929 38.1209 18.1213C39.2924 16.9497 41.1919 16.9497 42.3635 18.1213C43.5351 19.2929 43.5351 21.1924 42.3635 22.364Z" fill="#FFD633"/>
<path fill-rule="evenodd" clip-rule="evenodd" d="M18.4185 52.0666C23.8996 50.0112 25.4231 42.9781 21.2837 38.8388C17.1444 34.6994 10.1113 36.2229 8.05587 41.704L1.86827 58.2043C1.85658 58.2355 1.88703 58.2659 1.91822 58.2542L18.4185 52.0666ZM10.3823 49.7402L16.6628 47.385C18.7391 46.6064 19.3162 43.9423 17.7482 42.3743C16.1802 40.8063 13.5161 41.3834 12.7375 43.4596L10.3823 49.7402Z" fill="#FFD633"/>
</g>
<defs>
<clipPath id="clip0">
<rect width="60" height="60" fill="white"/>
</clipPath>
</defs>
</svg>
