<svg width="16" height="17" viewBox="0 0 16 17" fill="none" xmlns="http://www.w3.org/2000/svg">
<path fill-rule="evenodd" clip-rule="evenodd" d="M15.1066 13.9154C15.0392 13.9154 14.9719 13.9154 14.9045 13.8481L7.67804 11.2203H7.56765L6.96112 15.4659C6.89378 15.7353 6.6244 15.9373 6.35503 15.9373H3.66128C3.45925 15.9373 3.25722 15.8027 3.12253 15.668C2.98784 15.4659 2.9205 15.2639 3.05519 15.0619L3.60405 11.2198C1.80912 11.191 0.290649 9.72008 0.290649 7.85307C0.290649 5.96745 1.77221 4.48589 3.65783 4.48589H7.68579L14.9045 1.86089C15.1066 1.7262 15.3086 1.79355 15.5106 1.92824C15.6453 2.06292 15.78 2.26495 15.78 2.46699V13.242C15.78 13.444 15.6453 13.646 15.5106 13.7807C15.3759 13.8481 15.2413 13.9154 15.1066 13.9154ZM8.37219 10.0768L14.4331 12.2992V3.4098L8.37219 5.63214V10.0768ZM3.65783 5.83276C2.58034 5.83276 1.63752 6.70823 1.63752 7.85307C1.63752 8.99792 2.51299 9.87338 3.65783 9.87338H7.02502V5.83276H3.65783ZM5.88362 14.5905H4.60409L4.80612 11.2233H6.08565L5.88362 14.5905Z" fill="url(#paint0_linear_17030:70)"/>
<defs>
<linearGradient id="paint0_linear_17030:70" x1="8.03532" y1="1.78748" x2="8.03532" y2="15.9373" gradientUnits="userSpaceOnUse">
<stop stop-color="#8373F5"/>
<stop offset="1" stop-color="#975FE1"/>
</linearGradient>
</defs>
</svg>
