<svg width="48" height="48" viewBox="0 0 48 48" fill="none" xmlns="http://www.w3.org/2000/svg">
<path fill-rule="evenodd" clip-rule="evenodd" d="M22.5 45L22.5 13L25.5 13L25.5 45L22.5 45Z" fill="#FFD633"/>
<path fill-rule="evenodd" clip-rule="evenodd" d="M33 46.5L15 46.5V43.5L33 43.5V46.5Z" fill="#FFD633"/>
<path fill-rule="evenodd" clip-rule="evenodd" d="M18.0579 8.83741C15.3152 9.13299 12.7563 9.58422 10.6285 10.0322C8.81498 10.414 7.30264 10.796 6.24093 11.0834C5.70985 11.2271 5.2909 11.3474 5.00272 11.4323C4.85861 11.4748 4.74714 11.5084 4.67065 11.5318L4.58241 11.559L4.55849 11.5664L4.55168 11.5686L4.54957 11.5692L4.54884 11.5695C4.54857 11.5696 4.54833 11.5696 5.00003 13C5.45173 14.4304 5.45156 14.4304 5.45143 14.4305L5.45185 14.4303L5.45541 14.4292L5.47273 14.4238L5.54743 14.4008C5.61473 14.3803 5.71665 14.3495 5.85086 14.3099C6.11931 14.2308 6.51677 14.1166 7.02475 13.9792C8.04117 13.704 9.49757 13.336 11.2465 12.9678C13.5524 12.4824 16.3462 12.001 19.2983 11.7281C18.6494 10.9108 18.2091 9.92039 18.0579 8.83741ZM28.7016 11.728C31.6538 12.001 34.4476 12.4824 36.7535 12.9678C38.5025 13.336 39.9589 13.704 40.9753 13.9792C41.4833 14.1166 41.8807 14.2308 42.1492 14.3099C42.2834 14.3495 42.3853 14.3803 42.4526 14.4008L42.5273 14.4238L42.5446 14.4292L42.5482 14.4303L42.5486 14.4305C42.5485 14.4304 42.5483 14.4304 43 13C43.4517 11.5696 43.4515 11.5696 43.4512 11.5695L43.4505 11.5692L43.4484 11.5686L43.4416 11.5664L43.4176 11.559L43.3294 11.5318C43.2529 11.5084 43.1414 11.4748 42.9973 11.4323C42.7092 11.3474 42.2902 11.2271 41.7591 11.0834C40.6974 10.796 39.1851 10.414 37.3715 10.0322C35.2437 9.58421 32.6848 9.13298 29.942 8.8374C29.7908 9.92038 29.3505 10.9108 28.7016 11.728Z" fill="#FFD633"/>
<path fill-rule="evenodd" clip-rule="evenodd" d="M24 12C25.6569 12 27 10.6569 27 9C27 7.34315 25.6569 6 24 6C22.3431 6 21 7.34315 21 9C21 10.6569 22.3431 12 24 12ZM24 15C27.3137 15 30 12.3137 30 9C30 5.68629 27.3137 3 24 3C20.6863 3 18 5.68629 18 9C18 12.3137 20.6863 15 24 15Z" fill="#FFD633"/>
<path fill-rule="evenodd" clip-rule="evenodd" d="M4.13784 27.8963C2.19995 32.1597 5.3167 37 9.99981 37C14.6829 37 17.7997 32.1597 15.8618 27.8963L10.0281 15.0621C10.017 15.0379 9.98258 15.0379 9.97156 15.0621L4.13784 27.8963ZM9.99981 22.2498L6.86894 29.1377C5.83391 31.4148 7.49856 34 9.99981 34C12.501 34 14.1657 31.4148 13.1307 29.1377L9.99981 22.2498Z" fill="#FFD633"/>
<path fill-rule="evenodd" clip-rule="evenodd" d="M32.1378 27.8963C30.2 32.1597 33.3167 37 37.9998 37C42.6829 37 45.7997 32.1597 43.8618 27.8963L38.0281 15.0621C38.017 15.0379 37.9826 15.0379 37.9716 15.0621L32.1378 27.8963ZM37.9998 22.2498L34.8689 29.1377C33.8339 31.4148 35.4986 34 37.9998 34C40.501 34 42.1657 31.4148 41.1307 29.1377L37.9998 22.2498Z" fill="#FFD633"/>
</svg>
