<svg width="61" height="60" viewBox="0 0 61 60" fill="none" xmlns="http://www.w3.org/2000/svg">
<path fill-rule="evenodd" clip-rule="evenodd" d="M27.5488 56.5001L27.5488 16.5001L32.5488 16.5001L32.5488 56.5001L27.5488 56.5001Z" fill="#FFD633"/>
<path fill-rule="evenodd" clip-rule="evenodd" d="M41.2988 59L18.7988 59V54L41.2988 54V59Z" fill="#FFD633"/>
<path fill-rule="evenodd" clip-rule="evenodd" d="M37.5369 10.6746C37.4325 12.5458 36.6421 14.234 35.413 15.4916C39.2384 15.8211 42.8754 16.4425 45.862 17.0713C48.0348 17.5287 49.8436 17.9858 51.1047 18.3271C51.7349 18.4977 52.2272 18.6391 52.5587 18.7368C52.7244 18.7856 52.8498 18.8235 52.932 18.8486L53.0226 18.8765L53.0428 18.8828L53.0466 18.884C53.0464 18.884 53.0461 18.8839 53.7989 16.4999C54.5518 14.1159 54.5514 14.1158 54.5509 14.1157L54.5499 14.1154L54.5469 14.1144L54.5377 14.1115L54.5064 14.1018C54.4799 14.0935 54.4421 14.0818 54.3933 14.0669C54.2958 14.0371 54.1545 13.9945 53.9723 13.9408C53.6079 13.8334 53.0798 13.6818 52.4111 13.5008C51.0745 13.139 49.1724 12.6586 46.8921 12.1785C44.2176 11.6155 40.9953 11.047 37.5369 10.6746ZM24.6845 15.4917C23.4554 14.234 22.665 12.5459 22.5606 10.6746C19.1024 11.047 15.8802 11.6155 13.2058 12.1785C10.9254 12.6586 9.02332 13.139 7.68675 13.5008C7.01809 13.6818 6.48993 13.8334 6.12558 13.9408C5.94338 13.9945 5.80206 14.0371 5.70453 14.0669C5.65576 14.0818 5.61793 14.0935 5.59141 14.1018L5.56014 14.1115L5.55094 14.1144L5.54797 14.1154L5.5469 14.1157C5.54647 14.1158 5.54609 14.1159 6.29892 16.4999C7.05175 18.8839 7.05146 18.884 7.05121 18.884L7.05123 18.884L7.055 18.8828L7.07529 18.8765L7.16583 18.8486C7.24805 18.8235 7.37345 18.7856 7.53915 18.7368C7.87061 18.6391 8.36295 18.4977 8.99312 18.3271C10.2542 17.9858 12.0631 17.5287 14.2358 17.0713C17.2224 16.4425 20.8593 15.8212 24.6845 15.4917Z" fill="#FFD633"/>
<path fill-rule="evenodd" clip-rule="evenodd" d="M30.0488 5C27.2874 5 25.0488 7.23858 25.0488 10C25.0488 12.7614 27.2874 15 30.0488 15C32.8103 15 35.0488 12.7614 35.0488 10C35.0488 7.23858 32.8103 5 30.0488 5Z" fill="#FFD633"/>
<path fill-rule="evenodd" clip-rule="evenodd" d="M2.04883 48H22.0488L12.0488 20L2.04883 48ZM9.14385 43H14.9538L12.0488 34.8661L9.14385 43Z" fill="#FFD633"/>
<path fill-rule="evenodd" clip-rule="evenodd" d="M38.0488 48H58.0488L48.0488 20L38.0488 48ZM45.1439 43H50.9538L48.0488 34.8661L45.1439 43Z" fill="#FFD633"/>
</svg>
