<svg width="24" height="24" viewBox="0 0 24 24" fill="none" xmlns="http://www.w3.org/2000/svg">
<path fill-rule="evenodd" clip-rule="evenodd" d="M18.3237 16.0961C21.2457 12.2973 20.9667 6.82857 17.4868 3.34863C13.7036 -0.434571 7.56983 -0.43457 3.78662 3.34863C0.00341773 7.13184 0.00341773 13.2656 3.78662 17.0488C7.26951 20.5317 12.7446 20.8082 16.5438 17.8783L22.0793 23.4138L23.8604 21.6328L18.3237 16.0961ZM15.7058 5.12966C18.5054 7.92923 18.5054 12.4682 15.7058 15.2678C12.9062 18.0674 8.36722 18.0674 5.56765 15.2678C2.76808 12.4682 2.76808 7.92923 5.56765 5.12966C8.36722 2.33009 12.9062 2.33009 15.7058 5.12966Z" fill="white"/>
</svg>
