<svg width="40" height="40" viewBox="0 0 40 40" fill="none" xmlns="http://www.w3.org/2000/svg">
<path d="M0 4C0 1.79086 1.79086 0 4 0H36C38.2091 0 40 1.79086 40 4V36C40 38.2091 38.2091 40 36 40H4C1.79086 40 0 38.2091 0 36V4Z" fill="#9D87F1"/>
<rect width="24" height="24" transform="translate(8 8)" fill="#9D87F1"/>
<path d="M26.3471 8.9C25.9931 7.7 24.2926 7.7 23.9386 8.9L23.8528 9.19143C23.8 9.37108 23.7075 9.53662 23.5823 9.6759C23.4571 9.81518 23.3023 9.92467 23.1293 9.99634C22.9563 10.068 22.7694 10.1001 22.5824 10.0901C22.3954 10.0802 22.213 10.0285 22.0486 9.93886L21.7828 9.79314C20.6831 9.19486 19.4806 10.3974 20.0797 11.4963L20.2246 11.7629C20.6068 12.4657 20.2443 13.3409 19.4771 13.5671L19.1857 13.6529C17.9857 14.0069 17.9857 15.7074 19.1857 16.0614L19.4771 16.1471C19.6568 16.2 19.8223 16.2925 19.9616 16.4177C20.1009 16.5429 20.2104 16.6976 20.282 16.8707C20.3537 17.0437 20.3858 17.2305 20.3758 17.4176C20.3659 17.6046 20.3142 17.787 20.2246 17.9514L20.0788 18.2171C19.4806 19.3169 20.6831 20.5194 21.782 19.9203L22.0486 19.7754C22.213 19.6858 22.3954 19.6341 22.5824 19.6242C22.7694 19.6142 22.9563 19.6463 23.1293 19.7179C23.3023 19.7896 23.4571 19.8991 23.5823 20.0384C23.7075 20.1777 23.8 20.3432 23.8528 20.5229L23.9386 20.8143C24.2926 22.0143 25.9931 22.0143 26.3471 20.8143L26.4328 20.5229C26.4857 20.3432 26.5782 20.1777 26.7034 20.0384C26.8286 19.8991 26.9833 19.7896 27.1564 19.7179C27.3294 19.6463 27.5163 19.6142 27.7033 19.6242C27.8903 19.6341 28.0727 19.6858 28.2371 19.7754L28.5028 19.9211C29.6026 20.5194 30.8051 19.3169 30.206 18.218L30.0611 17.9514C29.9715 17.787 29.9198 17.6046 29.9099 17.4176C29.8999 17.2305 29.932 17.0437 30.0037 16.8707C30.0753 16.6976 30.1848 16.5429 30.3241 16.4177C30.4634 16.2925 30.6289 16.2 30.8086 16.1471L31.1 16.0614C32.3 15.7074 32.3 14.0069 31.1 13.6529L30.8086 13.5671C30.6289 13.5143 30.4634 13.4218 30.3241 13.2966C30.1848 13.1714 30.0753 13.0166 30.0037 12.8436C29.932 12.6706 29.8999 12.4837 29.9099 12.2967C29.9198 12.1097 29.9715 11.9273 30.0611 11.7629L30.2068 11.4971C30.8051 10.3974 29.6026 9.19486 28.5037 9.794L28.2371 9.93886C28.0727 10.0285 27.8903 10.0802 27.7033 10.0901C27.5163 10.1001 27.3294 10.068 27.1564 9.99634C26.9833 9.92467 26.8286 9.81518 26.7034 9.6759C26.5782 9.53662 26.4857 9.37108 26.4328 9.19143L26.3471 8.9ZM25.1428 17.3686C24.4768 17.3686 23.838 17.104 23.367 16.633C22.896 16.162 22.6314 15.5232 22.6314 14.8571C22.6314 14.1911 22.896 13.5523 23.367 13.0813C23.838 12.6103 24.4768 12.3457 25.1428 12.3457C25.8087 12.3457 26.4473 12.6102 26.9181 13.081C27.3889 13.5519 27.6534 14.1904 27.6534 14.8563C27.6534 15.5221 27.3889 16.1607 26.9181 16.6315C26.4473 17.1024 25.8087 17.3669 25.1428 17.3669V17.3686Z" fill="url(#paint0_linear)"/>
<path d="M26.3471 8.9C25.9931 7.7 24.2926 7.7 23.9386 8.9L23.8528 9.19143C23.8 9.37108 23.7075 9.53662 23.5823 9.6759C23.4571 9.81518 23.3023 9.92467 23.1293 9.99634C22.9563 10.068 22.7694 10.1001 22.5824 10.0901C22.3954 10.0802 22.213 10.0285 22.0486 9.93886L21.7828 9.79314C20.6831 9.19486 19.4806 10.3974 20.0797 11.4963L20.2246 11.7629C20.6068 12.4657 20.2443 13.3409 19.4771 13.5671L19.1857 13.6529C17.9857 14.0069 17.9857 15.7074 19.1857 16.0614L19.4771 16.1471C19.6568 16.2 19.8223 16.2925 19.9616 16.4177C20.1009 16.5429 20.2104 16.6976 20.282 16.8707C20.3537 17.0437 20.3858 17.2305 20.3758 17.4176C20.3659 17.6046 20.3142 17.787 20.2246 17.9514L20.0788 18.2171C19.4806 19.3169 20.6831 20.5194 21.782 19.9203L22.0486 19.7754C22.213 19.6858 22.3954 19.6341 22.5824 19.6242C22.7694 19.6142 22.9563 19.6463 23.1293 19.7179C23.3023 19.7896 23.4571 19.8991 23.5823 20.0384C23.7075 20.1777 23.8 20.3432 23.8528 20.5229L23.9386 20.8143C24.2926 22.0143 25.9931 22.0143 26.3471 20.8143L26.4328 20.5229C26.4857 20.3432 26.5782 20.1777 26.7034 20.0384C26.8286 19.8991 26.9833 19.7896 27.1564 19.7179C27.3294 19.6463 27.5163 19.6142 27.7033 19.6242C27.8903 19.6341 28.0727 19.6858 28.2371 19.7754L28.5028 19.9211C29.6026 20.5194 30.8051 19.3169 30.206 18.218L30.0611 17.9514C29.9715 17.787 29.9198 17.6046 29.9099 17.4176C29.8999 17.2305 29.932 17.0437 30.0037 16.8707C30.0753 16.6976 30.1848 16.5429 30.3241 16.4177C30.4634 16.2925 30.6289 16.2 30.8086 16.1471L31.1 16.0614C32.3 15.7074 32.3 14.0069 31.1 13.6529L30.8086 13.5671C30.6289 13.5143 30.4634 13.4218 30.3241 13.2966C30.1848 13.1714 30.0753 13.0166 30.0037 12.8436C29.932 12.6706 29.8999 12.4837 29.9099 12.2967C29.9198 12.1097 29.9715 11.9273 30.0611 11.7629L30.2068 11.4971C30.8051 10.3974 29.6026 9.19486 28.5037 9.794L28.2371 9.93886C28.0727 10.0285 27.8903 10.0802 27.7033 10.0901C27.5163 10.1001 27.3294 10.068 27.1564 9.99634C26.9833 9.92467 26.8286 9.81518 26.7034 9.6759C26.5782 9.53662 26.4857 9.37108 26.4328 9.19143L26.3471 8.9ZM25.1428 17.3686C24.4768 17.3686 23.838 17.104 23.367 16.633C22.896 16.162 22.6314 15.5232 22.6314 14.8571C22.6314 14.1911 22.896 13.5523 23.367 13.0813C23.838 12.6103 24.4768 12.3457 25.1428 12.3457C25.8087 12.3457 26.4473 12.6102 26.9181 13.081C27.3889 13.5519 27.6534 14.1904 27.6534 14.8563C27.6534 15.5221 27.3889 16.1607 26.9181 16.6315C26.4473 17.1024 25.8087 17.3669 25.1428 17.3669V17.3686Z" fill="url(#paint1_linear)"/>
<g filter="url(#filter0_b)">
<path d="M20.0921 30.65C19.5611 32.45 17.0103 32.45 16.4793 30.65L16.3507 30.2129C16.2714 29.9434 16.1327 29.6951 15.9449 29.4862C15.7571 29.2772 15.525 29.113 15.2654 29.0055C15.0059 28.898 14.7256 28.8499 14.4451 28.8648C14.1646 28.8798 13.8909 28.9573 13.6443 29.0917L13.2457 29.3103C11.5961 30.2077 9.79229 28.4039 10.691 26.7556L10.9083 26.3557C11.4817 25.3014 10.9379 23.9887 9.78714 23.6493L9.35 23.5207C7.55 22.9897 7.55 20.4389 9.35 19.9079L9.78714 19.7793C10.0566 19.6999 10.3049 19.5613 10.5138 19.3735C10.7228 19.1857 10.887 18.9535 10.9945 18.694C11.102 18.4345 11.1501 18.1542 11.1352 17.8737C11.1202 17.5931 11.0427 17.3195 10.9083 17.0729L10.6897 16.6743C9.79229 15.0247 11.5961 13.2209 13.2444 14.1196L13.6443 14.3369C13.8909 14.4713 14.1646 14.5488 14.4451 14.5637C14.7256 14.5786 15.0059 14.5306 15.2654 14.4231C15.525 14.3156 15.7571 14.1513 15.9449 13.9424C16.1327 13.7335 16.2714 13.4852 16.3507 13.2157L16.4793 12.7786C17.0103 10.9786 19.5611 10.9786 20.0921 12.7786L20.2207 13.2157C20.3001 13.4852 20.4387 13.7335 20.6265 13.9424C20.8143 14.1513 21.0465 14.3156 21.306 14.4231C21.5655 14.5306 21.8458 14.5786 22.1263 14.5637C22.4069 14.5488 22.6805 14.4713 22.9271 14.3369L23.3257 14.1183C24.9753 13.2209 26.7791 15.0247 25.8804 16.673L25.6631 17.0729C25.5287 17.3195 25.4512 17.5931 25.4363 17.8737C25.4214 18.1542 25.4694 18.4345 25.5769 18.694C25.6844 18.9535 25.8487 19.1857 26.0576 19.3735C26.2665 19.5613 26.5148 19.6999 26.7843 19.7793L27.2214 19.9079C29.0214 20.4389 29.0214 22.9897 27.2214 23.5207L26.7843 23.6493C26.5148 23.7286 26.2665 23.8673 26.0576 24.0551C25.8487 24.2429 25.6844 24.475 25.5769 24.7346C25.4694 24.9941 25.4214 25.2744 25.4363 25.5549C25.4512 25.8354 25.5287 26.1091 25.6631 26.3557L25.8817 26.7543C26.7791 28.4039 24.9753 30.2077 23.327 29.309L22.9271 29.0917C22.6805 28.9573 22.4069 28.8798 22.1263 28.8648C21.8458 28.8499 21.5655 28.898 21.306 29.0055C21.0465 29.113 20.8143 29.2772 20.6265 29.4862C20.4387 29.6951 20.3001 29.9434 20.2207 30.2129L20.0921 30.65ZM18.2857 17.9471C17.2866 17.9471 16.3284 18.344 15.6219 19.0505C14.9155 19.757 14.5186 20.7152 14.5186 21.7143C14.5186 22.7134 14.9155 23.6716 15.6219 24.3781C16.3284 25.0845 17.2866 25.4814 18.2857 25.4814C19.2845 25.4814 20.2423 25.0847 20.9486 24.3784C21.6548 23.6722 22.0516 22.7143 22.0516 21.7156C22.0516 20.7168 21.6548 19.7589 20.9486 19.0527C20.2423 18.3465 19.2845 17.9497 18.2857 17.9497V17.9471Z" fill="url(#paint2_linear)"/>
</g>
<defs>
<filter id="filter0_b" x="4" y="7.42871" width="28.5714" height="28.5713" filterUnits="userSpaceOnUse" color-interpolation-filters="sRGB">
<feFlood flood-opacity="0" result="BackgroundImageFix"/>
<feGaussianBlur in="BackgroundImage" stdDeviation="2"/>
<feComposite in2="SourceAlpha" operator="in" result="effect1_backgroundBlur"/>
<feBlend mode="normal" in="SourceGraphic" in2="effect1_backgroundBlur" result="shape"/>
</filter>
<linearGradient id="paint0_linear" x1="25.1428" y1="8" x2="25.1428" y2="21.7143" gradientUnits="userSpaceOnUse">
<stop stop-color="#8373F5"/>
<stop offset="1" stop-color="#975FE1"/>
</linearGradient>
<linearGradient id="paint1_linear" x1="23.8666" y1="9.11552" x2="19.2698" y2="34.4722" gradientUnits="userSpaceOnUse">
<stop stop-color="#E9EBFF"/>
<stop offset="1" stop-color="#EFEFF6"/>
</linearGradient>
<linearGradient id="paint2_linear" x1="18.2857" y1="32" x2="11.4378" y2="-2.70199" gradientUnits="userSpaceOnUse">
<stop stop-color="white"/>
<stop offset="1" stop-color="#8951B5" stop-opacity="0"/>
</linearGradient>
</defs>
</svg>
