<svg width="18" height="16" viewBox="0 0 18 16" fill="none" xmlns="http://www.w3.org/2000/svg">
<path d="M9.83594 7.93592V0.5H8.16927V7.93592C7.6251 8.109 7.15009 8.45075 6.81301 8.91175C6.47595 9.37267 6.29427 9.92892 6.29427 10.5C6.29427 11.071 6.47595 11.6272 6.81301 12.0882C7.15009 12.5492 7.6251 12.8909 8.16927 13.064V15.5H9.83594V13.064C10.3801 12.8909 10.855 12.5492 11.1921 12.0882C11.5292 11.6272 11.7109 11.071 11.7109 10.5C11.7109 9.92892 11.5292 9.37267 11.1921 8.91175C10.855 8.45075 10.3801 8.109 9.83594 7.93592ZM9.0026 11.7083C8.7636 11.7083 8.52994 11.6375 8.33127 11.5047C8.13252 11.3719 7.97769 11.1832 7.88619 10.9624C7.79477 10.7416 7.77085 10.4987 7.81744 10.2642C7.8641 10.0298 7.97919 9.81458 8.1481 9.64558C8.3171 9.47658 8.53244 9.3615 8.76685 9.31492C9.00119 9.26825 9.24419 9.29217 9.46494 9.38367C9.68577 9.47508 9.87452 9.63 10.0073 9.82867C10.14 10.0274 10.2109 10.261 10.2109 10.5C10.2105 10.8203 10.0831 11.1275 9.8566 11.354C9.6301 11.5806 9.32294 11.708 9.0026 11.7083ZM15.6693 2.93592V0.5H14.0026V2.93592C13.4584 3.10903 12.9834 3.45079 12.6464 3.91173C12.3093 4.37268 12.1276 4.92892 12.1276 5.49996C12.1276 6.071 12.3093 6.62725 12.6464 7.08817C12.9834 7.54917 13.4584 7.89092 14.0026 8.064V15.5H15.6693V8.064C16.2134 7.89092 16.6884 7.54917 17.0254 7.08817C17.3625 6.62725 17.5442 6.071 17.5442 5.49996C17.5442 4.92892 17.3625 4.37268 17.0254 3.91173C16.6884 3.45079 16.2134 3.10903 15.6693 2.93592ZM14.8359 6.70833C14.5969 6.70833 14.3633 6.6375 14.1646 6.50467C13.9659 6.37192 13.811 6.1832 13.7195 5.96241C13.6281 5.74162 13.6042 5.49866 13.6508 5.26427C13.6974 5.02987 13.8125 4.81457 13.9814 4.64558C14.1504 4.47659 14.3658 4.36151 14.6002 4.31488C14.8345 4.26826 15.0775 4.29219 15.2983 4.38364C15.5191 4.4751 15.7079 4.62997 15.8406 4.82868C15.9734 5.02739 16.0443 5.26102 16.0443 5.5C16.0439 5.82036 15.9164 6.1275 15.6899 6.354C15.4634 6.58058 15.1563 6.708 14.8359 6.70833ZM4.00256 2.93592V0.5H2.3359V2.93592C1.79173 3.10903 1.31675 3.45079 0.979679 3.91173C0.642612 4.37268 0.460938 4.92892 0.460938 5.49996C0.460938 6.071 0.642612 6.62725 0.979679 7.08817C1.31675 7.54917 1.79173 7.89092 2.3359 8.064V15.5H4.00256V8.064C4.54673 7.89092 5.02171 7.54917 5.35878 7.08817C5.69585 6.62725 5.87752 6.071 5.87752 5.49996C5.87752 4.92892 5.69585 4.37268 5.35878 3.91173C5.02171 3.45079 4.54673 3.10903 4.00256 2.93592ZM3.16923 6.70833C2.93025 6.70833 2.69663 6.6375 2.49792 6.50467C2.2992 6.37192 2.14433 6.1832 2.05288 5.96241C1.96142 5.74162 1.93749 5.49866 1.98411 5.26427C2.03074 5.02987 2.14582 4.81457 2.31481 4.64558C2.4838 4.47659 2.6991 4.36151 2.9335 4.31488C3.16789 4.26826 3.41085 4.29219 3.63164 4.38364C3.85244 4.4751 4.04115 4.62997 4.17392 4.82868C4.3067 5.02739 4.37756 5.26102 4.37756 5.5C4.37721 5.82036 4.24979 6.1275 4.02326 6.354C3.79673 6.58058 3.4896 6.708 3.16923 6.70833Z" fill="#7E6CC1"/>
</svg>
