<svg width="16" height="17" viewBox="0 0 16 17" fill="none" xmlns="http://www.w3.org/2000/svg">
<g clip-path="url(#clip0)">
<path d="M7.99966 6.26706C7.49859 6.26706 7.00879 6.41564 6.59222 6.69401C6.17561 6.97238 5.85091 7.36803 5.65917 7.83091C5.46743 8.29384 5.41726 8.80317 5.51501 9.29464C5.61276 9.78604 5.85403 10.2374 6.20833 10.5917C6.56262 10.946 7.014 11.1873 7.50546 11.285C7.99686 11.3828 8.50619 11.3326 8.96913 11.1409C9.43206 10.9492 9.82766 10.6244 10.1061 10.2078C10.3844 9.79124 10.533 9.30144 10.533 8.80037C10.5322 8.12878 10.2651 7.48484 9.79013 7.00992C9.3152 6.535 8.67133 6.26784 7.99966 6.26706ZM7.99966 10.0004C7.76233 10.0004 7.53033 9.93004 7.33299 9.79818C7.13566 9.66631 6.98186 9.47891 6.89099 9.25964C6.80019 9.04038 6.77639 8.79904 6.82273 8.56631C6.86899 8.33351 6.98333 8.11971 7.15113 7.95184C7.31893 7.78404 7.53279 7.66978 7.76553 7.62344C7.99833 7.57718 8.23959 7.60091 8.45886 7.69178C8.67813 7.78258 8.86559 7.93638 8.99746 8.13371C9.12926 8.33104 9.19966 8.56304 9.19966 8.80037C9.19926 9.11858 9.07273 9.42357 8.84779 9.64851C8.62279 9.87351 8.31779 10 7.99966 10.0004ZM13.5254 8.23818L15.1077 6.93546L14.9642 6.5016C14.6483 5.54789 14.1409 4.66879 13.473 3.91826L13.1689 3.57706L11.2497 4.2962L10.2754 3.73373L9.93846 1.7116L9.49086 1.61913C8.50713 1.41602 7.4922 1.41602 6.50847 1.61913L6.06087 1.7116L5.72393 3.73373L4.74967 4.2962L2.8304 3.57706L2.52633 3.91826C1.85846 4.66879 1.35101 5.54789 1.03513 6.5016L0.891602 6.93546L2.47393 8.23818V9.36258L0.891602 10.6653L1.03513 11.0992C1.35087 12.053 1.85846 12.932 2.52667 13.6822L2.8304 14.0234L4.74967 13.3046L5.72393 13.867L6.06087 15.8892L6.50847 15.9816C7.4922 16.1848 8.50713 16.1848 9.49086 15.9816L9.93846 15.8892L10.2754 13.867L11.2497 13.3048L13.1689 14.024L13.473 13.6828C14.1409 12.9322 14.6483 12.0532 14.9642 11.0994L15.1077 10.6656L13.5254 9.36284V8.23818ZM13.5409 11.1023C13.341 11.5825 13.0799 12.0349 12.764 12.4481L11.7173 12.056L11.1281 11.8353L10.5832 12.1497L9.60893 12.7119L9.06346 13.0266L8.95999 13.6476L8.77639 14.7501C8.26066 14.8172 7.73839 14.8172 7.22266 14.7501L7.03906 13.6476L6.9356 13.0266L6.39013 12.7119L5.416 12.1497L4.87127 11.8353L4.28207 12.056L3.2354 12.4479C2.91954 12.0348 2.65842 11.5824 2.45853 11.1023L3.32153 10.3919L3.80733 9.99191V7.60884L3.32153 7.20886L2.45847 6.49846C2.65834 6.01826 2.91946 5.56592 3.23533 5.15266L4.282 5.54473L4.8712 5.76546L5.41613 5.45106L6.3904 4.88886L6.93586 4.57413L7.03933 3.95313L7.22293 2.85066C7.73866 2.78364 8.26093 2.78364 8.77666 2.85066L8.96026 3.95313L9.06373 4.57413L9.60919 4.88886L10.5835 5.45106L11.1284 5.76546L11.7176 5.54473L12.7643 5.15266C13.0801 5.56596 13.3412 6.01829 13.5411 6.49846L12.6779 7.20886L12.1921 7.60884V9.99191L12.6779 10.3919L13.5409 11.1023Z" fill="#C4C4C4"/>
</g>
<defs>
<clipPath id="clip0">
<rect width="16" height="16" fill="white" transform="translate(0 0.800781)"/>
</clipPath>
</defs>
</svg>
