<svg width="12" height="16" viewBox="0 0 12 16" fill="none" xmlns="http://www.w3.org/2000/svg">
<path d="M8 5.5H5.25C4.55964 5.5 4 6.05964 4 6.75V6.75C4 7.44036 4.55964 8 5.25 8H6.75C7.44036 8 8 8.55964 8 9.25V9.25C8 9.94036 7.44036 10.5 6.75 10.5H4" stroke="white"/>
<path d="M6 5.8L6 4M6 10L6 12" stroke="white"/>
<path d="M6 2.05021L10.6667 3.89775V8.04C10.6651 9.09293 10.3872 10.1269 9.86073 11.0388C9.33427 11.9507 8.57773 12.7083 7.66667 13.2361L6 14.1981L4.33333 13.2358C3.42232 12.7081 2.66579 11.9504 2.13933 11.0386C1.61288 10.1269 1.33496 9.09287 1.33333 8.04V3.89775L6 2.05021ZM6 0.616211L0 2.99155V8.04C0.00195333 9.32687 0.34162 10.5907 0.98506 11.7052C1.6285 12.8197 2.55317 13.7457 3.66667 14.3909L6 15.7376L8.33333 14.3906C9.4468 13.7455 10.3715 12.8195 11.0149 11.7051C11.6583 10.5906 11.998 9.32687 12 8.04V2.99155L6 0.616211Z" fill="white"/>
</svg>
