<svg width="24" height="24" viewBox="0 0 24 24" fill="none" xmlns="http://www.w3.org/2000/svg">
<path d="M21.1742 2.83663C20.2707 1.92498 19.1064 1.31602 17.8418 1.09373C16.5774 0.871448 15.275 1.0468 14.1145 1.59561C12.9539 2.14441 11.9923 3.03963 11.3623 4.15777C10.7323 5.2759 10.4651 6.56187 10.5972 7.83826L1 18.7092L3.14654 20.8546L5.29308 23L16.1637 13.4135C16.3636 13.4437 16.5652 13.4625 16.7674 13.47C18 13.4702 19.205 13.1049 20.23 12.4204C21.2549 11.736 22.0538 10.7631 22.5255 9.62482C22.9973 8.48663 23.1208 7.23413 22.8802 6.02579C22.6397 4.81744 22.046 3.70776 21.1742 2.83663ZM4.1719 18.6103L5.70512 16.8735L7.12987 18.2974L5.39219 19.8298L4.1719 18.6103ZM8.86708 16.765L7.23823 15.1368L11.8381 9.92649L14.0803 12.1677L8.86708 16.765ZM19.5384 10.011C19.1297 10.4465 18.6202 10.7748 18.0546 10.9669C17.489 11.159 16.8847 11.2089 16.2952 11.1124L12.8938 7.71251C12.8691 7.55643 12.8537 7.39898 12.8478 7.24104C12.8478 6.59679 13.0067 5.96247 13.3105 5.39427C13.6143 4.82607 14.0536 4.34153 14.5896 3.98357C15.1255 3.62562 15.7416 3.4053 16.3831 3.34212C17.0245 3.27895 17.6717 3.37488 18.2673 3.6214C18.8627 3.86794 19.3882 4.25746 19.7971 4.75547C20.2062 5.25349 20.4858 5.8446 20.6116 6.47648C20.7373 7.10836 20.7052 7.76147 20.5181 8.37798C20.3309 8.99449 19.9943 9.55547 19.5384 10.011Z" fill="#9D87F1"/>
</svg>
