<svg width="19" height="15" viewBox="0 0 19 15" fill="none" xmlns="http://www.w3.org/2000/svg">
<path fill-rule="evenodd" clip-rule="evenodd" d="M0.185887 7.81934C-0.211097 9.98566 0.161871 12.2226 1.24023 14.1429L2.21099 13.5978L3.71316 12.7747L3.26656 11.7168L2.22402 11.9384C1.81881 10.7236 1.72297 9.41863 1.95658 8.14383C2.27786 6.39063 3.20203 4.80495 4.56912 3.66128C5.93621 2.51761 7.66016 1.88795 9.44254 1.88128C11.0556 1.87525 12.6246 2.37981 13.9277 3.31582L10.9227 5.95183L12.8237 7.80446L16.8699 1.95456L16.4799 1.07715L15.3099 2.10342C13.6378 0.78715 11.5679 0.0731504 9.43581 0.0811207C7.23344 0.0893536 5.10327 0.867392 3.41404 2.28055C1.72482 3.69371 0.58287 5.65303 0.185887 7.81934ZM18.8992 9.04909C18.8093 7.24369 18.2029 5.50208 17.152 4.03125L16.0454 5.58929C16.8469 6.91672 17.0286 7.67753 17.1014 9.13866C17.1496 10.1066 17.0131 11.0702 16.7038 11.9794L15.4684 11.7168L15.0218 12.7747L17.4656 14.1138L17.4651 14.1042L17.6595 14.2157C18.5589 12.6478 18.9892 10.8545 18.8992 9.04909ZM11.0953 9.52041C11.0953 10.4162 10.3691 11.1424 9.47334 11.1424C8.57755 11.1424 7.85136 10.4162 7.85136 9.52041C7.85136 8.62462 8.57755 7.89844 9.47334 7.89844C10.3691 7.89844 11.0953 8.62462 11.0953 9.52041Z" fill="black"/>
</svg>
