<svg width="15" height="15" viewBox="0 0 15 15" fill="none" xmlns="http://www.w3.org/2000/svg">
<path fill-rule="evenodd" clip-rule="evenodd" d="M8.74764 6.00751L7.30491 2.62979L5.86217 6.00753L2.20582 6.33942L4.9688 8.76216L4.15492 12.3468L7.30464 10.4635L10.4543 12.3471L9.64035 8.76216L12.4033 6.3394L8.74764 6.00751ZM14.5709 5.63356C14.6671 5.93004 14.5782 6.25383 14.3444 6.45892L11.1565 9.25424L12.0965 13.3941C12.1653 13.6985 12.0471 14.0133 11.7945 14.1958C11.5425 14.3784 11.2071 14.393 10.9404 14.2336L7.30457 12.0593L3.66806 14.2336C3.54512 14.3072 3.40747 14.3438 3.26993 14.3438C3.10987 14.3438 2.95037 14.2945 2.81461 14.1958C2.56204 14.0133 2.44389 13.6985 2.51266 13.3941L3.45261 9.25424L0.264728 6.45892C0.0308834 6.25383 -0.0579506 5.92937 0.0382398 5.63356C0.134988 5.3383 0.396808 5.12886 0.706 5.10033L4.92389 4.71746L6.59056 0.815451C6.71283 0.528774 6.99293 0.34375 7.30457 0.34375C7.61622 0.34375 7.89621 0.528774 8.01926 0.815451L9.68593 4.71746L13.9031 5.10033C14.2123 5.1283 14.4747 5.33774 14.5709 5.63356Z" fill="#9D87F1"/>
</svg>
