<svg width="41" height="46" viewBox="0 0 41 46" fill="none" xmlns="http://www.w3.org/2000/svg">
<path d="M13.6996 23.1662H10.3203C10.2858 23.1662 10.2686 23.1847 10.2513 23.2216C10.1651 24.8654 9.87201 26.6201 9.45822 28.0607C9.45822 28.0792 9.45822 28.0976 9.47546 28.1161C9.4927 28.1346 9.50994 28.1346 9.52718 28.1346H10.6823C10.7168 28.1346 10.7341 28.1161 10.7341 28.0976C11.0617 26.9894 11.3203 25.5488 11.4237 24.3298H12.5272V28.0792C12.5272 28.1161 12.5616 28.153 12.5961 28.153H13.6996C13.734 28.153 13.7685 28.1161 13.7685 28.0792V23.2216C13.7685 23.1847 13.734 23.1662 13.6996 23.1662ZM27.9925 23.1662H26.8891C26.8546 23.1662 26.8201 23.2032 26.8201 23.2401V26.9894C26.5787 27.0633 26.3374 27.1003 26.0615 27.1003C25.3374 27.1003 25.165 26.8602 25.165 25.8259V23.2401C25.165 23.2032 25.1305 23.1662 25.096 23.1662H24.0098C23.9753 23.1662 23.9408 23.2032 23.9408 23.2401V25.9551C23.9408 27.6544 24.4753 28.3008 25.8374 28.3008C26.6132 28.3008 27.4925 28.0792 28.0098 27.876C28.027 27.8575 28.0442 27.8391 28.0442 27.8206V23.2401C28.0615 23.1847 28.027 23.1662 27.9925 23.1662ZM4.61344 23.1662H3.49276C3.45828 23.1662 3.44104 23.1847 3.44104 23.2216C3.26862 23.9604 2.90656 25.2164 2.4238 26.5277L1.30313 23.2216C1.28588 23.2032 1.26864 23.1847 1.2514 23.1847H0.113483C0.0962415 23.1847 0.0790002 23.2032 0.061759 23.2216C0.0445178 23.2401 0.0445178 23.2586 0.061759 23.277L1.7514 28.2269C1.57899 28.6148 1.42381 28.9288 1.26864 29.2243C1.14796 29.4459 1.04451 29.6675 0.941061 29.8892C0.923819 29.9077 0.923819 29.9261 0.941061 29.9446C0.958302 29.9631 0.975543 29.9815 0.992784 29.9815H2.21691C2.23415 29.9815 2.26863 29.9631 2.26863 29.9446C2.47553 29.5198 2.73415 28.9288 2.97552 28.3193C3.69965 26.5092 4.26861 24.81 4.69964 23.2586C4.69964 23.2401 4.69964 23.2216 4.6824 23.2032C4.64792 23.1662 4.63068 23.1662 4.61344 23.1662ZM8.63064 26.9894C8.63064 26.971 8.6134 26.9525 8.59616 26.9525H8.54443C8.26857 27.0633 7.76858 27.1372 7.42376 27.1372C6.6479 27.1372 6.28584 26.9156 6.28584 25.6596C6.28584 24.6438 6.40652 24.1821 7.42376 24.1821C7.71686 24.1821 7.97547 24.219 8.3203 24.3298C8.35478 24.3298 8.37202 24.3298 8.38926 24.2929C8.50995 24.0343 8.66512 23.7203 8.83753 23.3325V23.277C8.83753 23.2586 8.82029 23.2401 8.80305 23.2401C8.35478 23.0923 7.8203 23 7.33755 23C5.73412 23 5.00999 23.8127 5.00999 25.6412C5.00999 27.4881 5.73412 28.3193 7.33755 28.3193C7.7341 28.3193 8.54443 28.2269 8.92374 28.0607C8.95822 28.0422 8.97546 28.0053 8.95822 27.9683L8.63064 26.9894ZM19.1305 23.1662H18.0099C17.9754 23.1662 17.9581 23.1847 17.9581 23.2216C17.7857 23.9789 17.4237 25.2164 16.9409 26.5277L15.8202 23.2216C15.803 23.2032 15.7857 23.1847 15.7685 23.1847H14.6306C14.6133 23.1847 14.5961 23.2032 14.5789 23.2216C14.5616 23.2401 14.5616 23.2586 14.5789 23.277L16.2685 28.2269C16.0961 28.6148 15.9409 28.9288 15.7857 29.2243C15.6651 29.4459 15.5616 29.6675 15.4582 29.9077C15.4409 29.9261 15.4409 29.9446 15.4582 29.9631C15.4754 29.9815 15.4926 30 15.5099 30H16.734C16.7512 30 16.7857 29.9815 16.7857 29.9631C16.9926 29.5383 17.2512 28.9472 17.4926 28.3377C18.1995 26.5277 18.7857 24.8285 19.2167 23.277C19.2167 23.2586 19.2167 23.2401 19.1995 23.2216C19.165 23.1662 19.1478 23.1662 19.1305 23.1662ZM23.2684 23.1662H20.0098C19.9754 23.1662 19.9409 23.2032 19.9409 23.2401V28.0976C19.9409 28.1346 19.9754 28.1715 20.0098 28.1715H21.1133C21.1478 28.1715 21.1822 28.1346 21.1822 28.0976V24.3483H22.8891C22.9064 24.3483 22.9408 24.3298 22.9408 24.3113C23.0788 23.9789 23.1995 23.628 23.3374 23.277V23.2216C23.3029 23.1662 23.2857 23.1662 23.2684 23.1662Z" fill="#FFD633"/>
<path d="M5.99603 16.0347C4.39151 16.0347 3.76365 16.7292 3.76365 18.4826C3.76365 20.2708 4.39151 20.9653 5.99603 20.9653C7.618 20.9653 8.24585 20.2708 8.24585 18.4826C8.24585 16.7118 7.618 16.0347 5.99603 16.0347ZM5.99603 19.941C5.26353 19.941 5.03681 19.75 5.03681 18.5C5.03681 17.1806 5.28097 17.059 5.99603 17.059C6.72853 17.059 6.9727 17.1806 6.9727 18.5C6.9727 19.75 6.74597 19.941 5.99603 19.941ZM12.7106 19.75C12.7106 19.7326 12.6932 19.7153 12.6757 19.7153H12.6234C12.3444 19.8194 11.8386 19.8889 11.4898 19.8889C10.705 19.8889 10.3387 19.6806 10.3387 18.5C10.3387 17.5451 10.4608 17.1111 11.4898 17.1111C11.7863 17.1111 12.0479 17.1458 12.3967 17.25C12.4316 17.25 12.449 17.25 12.4664 17.2153C12.5885 16.9722 12.7455 16.6771 12.9199 16.3125V16.2604C12.9199 16.2431 12.9025 16.2257 12.885 16.2257C12.4316 16.0868 11.8909 16 11.4026 16C9.78062 16 9.04812 16.7639 9.04812 18.4826C9.04812 20.2188 9.78062 21 11.4026 21C11.8037 21 12.6234 20.9132 13.0071 20.7569C13.042 20.7396 13.0594 20.7049 13.042 20.6701L12.7106 19.75ZM3.41484 16.1562H0.11859C0.0837091 16.1562 0.0488281 16.191 0.0488281 16.2257V20.7917C0.0488281 20.8264 0.0837091 20.8611 0.11859 20.8611H1.23478C1.26966 20.8611 1.30454 20.8264 1.30454 20.7917V17.25H3.01371C3.03115 17.25 3.06603 17.2326 3.06603 17.2153C3.20555 16.9028 3.32764 16.5729 3.46716 16.2431V16.191C3.44972 16.1736 3.43228 16.1562 3.41484 16.1562Z" fill="#FFD633"/>
<path fill-rule="evenodd" clip-rule="evenodd" d="M17.2927 0.862149C18.9973 -0.124726 21.0995 -0.124723 22.8041 0.86215L37.8041 9.54636C39.5026 10.5297 40.5484 12.3436 40.5484 14.3062V31.6938C40.5484 33.6564 39.5026 35.4703 37.8041 36.4536L22.8041 45.1378C21.0995 46.1247 18.9973 46.1247 17.2927 45.1378L0.296875 35.2981L1.79998 32.7019L18.7958 42.5416C19.5707 42.9901 20.5262 42.9901 21.301 42.5416L36.301 33.8573C37.0731 33.4104 37.5484 32.5859 37.5484 31.6938V14.3062C37.5484 13.4141 37.0731 12.5896 36.301 12.1426L21.301 3.45843C20.5262 3.00985 19.5707 3.00985 18.7958 3.45843L1.79998 13.2981L0.296875 10.7019L17.2927 0.862149Z" fill="#FFD633"/>
</svg>
