<svg width="20" height="17" viewBox="0 0 20 17" fill="none" xmlns="http://www.w3.org/2000/svg">
<path d="M10 0.533783L0 6.33378L4.16667 8.75047V11.5916C4.16667 12.0305 4.28217 12.4615 4.5016 12.8416C4.72102 13.2217 5.03662 13.5373 5.41667 13.7567L10 16.4029L14.5833 13.7567C14.9634 13.5373 15.279 13.2217 15.4984 12.8416C15.7178 12.4615 15.8333 12.0305 15.8333 11.5916V8.75047L18.3333 7.30047V12.1671H20V6.33378L10 0.533783ZM10 2.46053L15.2417 5.50045H10V7.16713H15.2417L10 10.207L3.32192 6.33378L10 2.46053ZM14.1667 11.5916C14.1664 11.7379 14.1278 11.8815 14.0547 12.0081C13.9816 12.1347 13.8765 12.24 13.75 12.3133L10 14.4784L6.25 12.3133C6.12346 12.24 6.01838 12.1347 5.94527 12.0081C5.87214 11.8815 5.83355 11.7379 5.83333 11.5916V9.71713L10 12.1338L14.1667 9.71713V11.5916Z" fill="#9D87F1"/>
</svg>
