<svg width="21" height="19" viewBox="0 0 21 19" fill="none" xmlns="http://www.w3.org/2000/svg">
<path d="M14.998 4V2C14.998 1.46957 14.7873 0.96086 14.4122 0.58579C14.0371 0.21071 13.5284 0 12.998 0H8.99805C8.46762 0 7.95891 0.21071 7.58384 0.58579C7.20876 0.96086 6.99805 1.46957 6.99805 2V4H0.998047V19H20.998V4H14.998ZM8.99805 2H12.998V4H8.99805V2ZM2.99805 6H18.998V8C18.9977 8.2651 18.8923 8.5193 18.7048 8.7068C18.5173 8.8943 18.2631 8.9997 17.998 9H3.99805C3.73292 8.9997 3.47874 8.8943 3.29126 8.7068C3.10379 8.5193 2.99834 8.2651 2.99805 8V6ZM2.99805 17V10.8163C3.31836 10.9345 3.65664 10.9967 3.99805 11H9.99805V13H11.998V11H17.998C18.3394 10.9967 18.6777 10.9345 18.998 10.8163V17H2.99805Z" fill="#7E6CC1"/>
</svg>
