<svg width="61" height="60" viewBox="0 0 61 60" fill="none" xmlns="http://www.w3.org/2000/svg">
<path fill-rule="evenodd" clip-rule="evenodd" d="M52.8405 36.5H8.04883V31.5H52.8405V36.5Z" fill="#FFD633"/>
<path fill-rule="evenodd" clip-rule="evenodd" d="M50.0488 20H10.0488V48H50.0488V20ZM5.04883 15V53H55.0488V15H5.04883Z" fill="#FFD633"/>
<path fill-rule="evenodd" clip-rule="evenodd" d="M24.0488 10.5C23.2204 10.5 22.5488 11.1716 22.5488 12V17H17.5488V12C17.5488 8.41015 20.459 5.5 24.0488 5.5H36.0488C39.6387 5.5 42.5488 8.41015 42.5488 12V17H37.5488V12C37.5488 11.1716 36.8773 10.5 36.0488 10.5H24.0488Z" fill="#FFD633"/>
<path fill-rule="evenodd" clip-rule="evenodd" d="M27.5488 49.1043V32.9585H32.5488V49.1043H27.5488Z" fill="#FFD633"/>
</svg>
