<svg width="62" height="57" viewBox="0 0 62 57" fill="none" xmlns="http://www.w3.org/2000/svg">
<path d="M13.4941 5.93873C13.4941 2.935 15.9297 0.5 18.934 0.5H32.8737C35.878 0.5 38.3135 2.935 38.3135 5.93873V14.5217H35.5936H32.8737V7.75717C32.8737 6.75287 32.0595 5.93873 31.0552 5.93873H20.7524C19.7481 5.93873 18.934 6.75287 18.934 7.75717V14.5217H16.2482H13.4941V5.93873Z" fill="#9D87F1"/>
<g filter="url(#filter0_b)">
<rect y="12.2607" width="51.8082" height="35.6107" rx="7.27376" fill="url(#paint0_linear)"/>
<rect y="12.2607" width="51.8082" height="35.6107" rx="7.27376" fill="url(#paint1_linear)"/>
</g>
<g filter="url(#filter1_b)">
<ellipse cx="50.047" cy="44.4058" rx="11.7335" ry="11.731" fill="url(#paint2_linear)"/>
</g>
<path d="M54.6104 44.4058C54.6104 44.8263 54.5739 45.0575 54.1534 45.0575H50.6993V48.5109C50.6993 48.9306 50.468 48.9679 50.0474 48.9679C49.6268 48.9679 49.3955 48.9306 49.3955 48.5109V45.0575H45.9414C45.5216 45.0575 45.4844 44.8263 45.4844 44.4058C45.4844 43.9854 45.5216 43.7541 45.9414 43.7541H49.3955V40.3007C49.3955 39.8802 49.6268 39.8438 50.0474 39.8438C50.468 39.8438 50.6993 39.8802 50.6993 40.3007V43.7541H54.1534C54.5739 43.7541 54.6104 43.9854 54.6104 44.4058Z" fill="white"/>
<defs>
<filter id="filter0_b" x="-7.27376" y="4.98698" width="66.3557" height="50.1582" filterUnits="userSpaceOnUse" color-interpolation-filters="sRGB">
<feFlood flood-opacity="0" result="BackgroundImageFix"/>
<feGaussianBlur in="BackgroundImage" stdDeviation="3.63688"/>
<feComposite in2="SourceAlpha" operator="in" result="effect1_backgroundBlur"/>
<feBlend mode="normal" in="SourceGraphic" in2="effect1_backgroundBlur" result="shape"/>
</filter>
<filter id="filter1_b" x="31.0397" y="25.401" width="38.0145" height="38.0096" filterUnits="userSpaceOnUse" color-interpolation-filters="sRGB">
<feFlood flood-opacity="0" result="BackgroundImageFix"/>
<feGaussianBlur in="BackgroundImage" stdDeviation="3.63688"/>
<feComposite in2="SourceAlpha" operator="in" result="effect1_backgroundBlur"/>
<feBlend mode="normal" in="SourceGraphic" in2="effect1_backgroundBlur" result="shape"/>
</filter>
<linearGradient id="paint0_linear" x1="25.9041" y1="12.2607" x2="17.5916" y2="73.5443" gradientUnits="userSpaceOnUse">
<stop stop-color="white"/>
<stop offset="1" stop-color="#8951B5" stop-opacity="0"/>
</linearGradient>
<linearGradient id="paint1_linear" x1="40.4752" y1="3.35806" x2="-8.94826" y2="108.497" gradientUnits="userSpaceOnUse">
<stop stop-color="#FFD633"/>
<stop offset="1" stop-color="#E755FF"/>
</linearGradient>
<linearGradient id="paint2_linear" x1="53.6135" y1="24.7153" x2="40.4276" y2="54.7868" gradientUnits="userSpaceOnUse">
<stop stop-color="white"/>
<stop offset="1" stop-color="#8951B5" stop-opacity="0.47"/>
</linearGradient>
</defs>
</svg>
