<svg width="14" height="14" viewBox="0 0 14 14" fill="none" xmlns="http://www.w3.org/2000/svg">
<path d="M7.0026 0.351562C5.68407 0.351562 4.39513 0.742556 3.2988 1.4751C2.20248 2.20764 1.348 3.24883 0.843411 4.46701C0.338825 5.68516 0.206805 7.02563 0.464038 8.31883C0.721271 9.61203 1.35621 10.7999 2.28856 11.7323C3.22091 12.6646 4.4088 13.2996 5.702 13.5568C6.9952 13.814 8.33567 13.682 9.55381 13.1774C10.772 12.6728 11.8132 11.8184 12.5457 10.722C13.2783 9.6257 13.6693 8.33676 13.6693 7.01823C13.6693 6.14276 13.4968 5.27584 13.1618 4.46701C12.8268 3.65817 12.3357 2.92324 11.7167 2.30418C11.0976 1.68513 10.3627 1.19406 9.55381 0.859029C8.74501 0.524002 7.87807 0.351562 7.0026 0.351562ZM7.0026 12.3516C5.9478 12.3516 4.91663 12.0388 4.03956 11.4528C3.1625 10.8667 2.47892 10.0338 2.07525 9.05923C1.67158 8.0847 1.56596 7.0123 1.77175 5.97776C1.97754 4.94318 2.48549 3.99288 3.23137 3.247C3.97725 2.50112 4.92756 1.99316 5.96214 1.78738C6.99667 1.58159 8.06907 1.6872 9.0436 2.09087C10.0181 2.49454 10.8511 3.17812 11.4371 4.05519C12.0231 4.93225 12.3359 5.96336 12.3359 7.01823C12.3343 8.43223 11.7719 9.78783 10.7721 10.7877C9.7722 11.7876 8.4166 12.35 7.0026 12.3516ZM7.44694 3.21256H6.11361V7.87923H10.1139V6.5459H7.44694V3.21256Z" fill="white"/>
</svg>
