<svg width="24" height="24" viewBox="0 0 24 24" fill="none" xmlns="http://www.w3.org/2000/svg">
<path fill-rule="evenodd" clip-rule="evenodd" d="M15.8034 3C13.5149 3 11.5742 4.90088 11.5742 7.33422C11.5742 8.99705 12.4805 10.4112 13.7847 11.1401C12.868 11.3543 12.0285 11.6995 11.3145 12.1567C10.0606 12.9595 9.06271 14.2215 9.06271 15.7724V21H22.2364C22.6581 21 23 20.6496 23 20.2174V15.7724C23 14.2215 22.0021 12.9595 20.7482 12.1567C19.9486 11.6447 18.9916 11.2731 17.945 11.0687C19.183 10.3213 20.0326 8.94433 20.0326 7.33422C20.0326 4.90088 18.092 3 15.8034 3ZM12.3317 13.7381C12.9778 13.3244 13.8092 13.0127 14.7593 12.8635L14.0582 15.9613L15.9672 18.2601L17.8762 15.9613L17.1706 12.8438C18.1761 12.984 19.0549 13.3053 19.731 13.7381C20.6654 14.3364 21.1166 15.0848 21.1166 15.7724V19.1209H10.9461V15.7724C10.9461 15.0848 11.3973 14.3364 12.3317 13.7381ZM13.4966 7.33422C13.4966 6.11702 14.4913 5.04182 15.8034 5.04182C17.1155 5.04182 18.1103 6.11702 18.1103 7.33422C18.1103 8.55142 17.1155 9.62662 15.8034 9.62662C14.4913 9.62662 13.4966 8.55142 13.4966 7.33422Z" fill="#9D87F1"/>
<path fill-rule="evenodd" clip-rule="evenodd" d="M10.8683 9.50037C10.8683 10.4579 10.5083 11.315 9.92863 11.9536C9.81311 12.0185 9.70038 12.0862 9.59062 12.1564C8.78676 12.6712 8.08808 13.3746 7.69014 14.2219C7.5712 14.2166 7.45066 14.2139 7.32864 14.2139C6.01737 14.2139 4.87618 14.5274 4.0742 15.0023C3.25037 15.4901 2.91777 16.0625 2.91777 16.5229V19.1106C3.24914 19.1087 3.55856 19.1063 3.85489 19.1039C4.87963 19.0957 5.748 19.0888 6.82559 19.1127H7.33886V20.9968H6.82987C6.82035 20.9969 6.81083 20.9969 6.80131 20.9967L6.79297 20.9966C5.73747 20.9731 4.91341 20.9797 3.90837 20.9878C3.34108 20.9924 2.71609 20.9974 1.95932 20.9977L1.92309 20.9978C1.41335 20.998 1 20.5746 1 20.0522V16.5229C1 15.139 1.95854 14.0551 3.0843 13.3885C3.75711 12.9902 4.54954 12.695 5.4127 12.5189C4.46204 11.8795 3.81962 10.7797 3.81962 9.50037C3.81962 7.46792 5.44109 5.88852 7.34394 5.88852C9.24679 5.88852 10.8683 7.46792 10.8683 9.50037ZM5.62037 9.50037C5.62037 8.60562 6.35575 7.79864 7.34394 7.79864C8.33213 7.79864 9.06752 8.60562 9.06752 9.50037C9.06752 10.3951 8.33213 11.2021 7.34394 11.2021C6.35575 11.2021 5.62037 10.3951 5.62037 9.50037Z" fill="#9D87F1"/>
</svg>
