<svg width="14" height="12" viewBox="0 0 14 12" fill="none" xmlns="http://www.w3.org/2000/svg">
<path d="M4.40286 12C9.68612 12 12.5754 7.38372 12.5754 3.38064C12.5754 3.24954 12.5728 3.11904 12.5672 2.98908C13.1294 2.56006 13.6146 2.02885 14 1.42038C13.4853 1.6617 12.9315 1.82412 12.3505 1.89735C12.9435 1.52232 13.3988 0.92901 13.6136 0.22179C13.0498 0.574558 12.4329 0.823241 11.7897 0.95712C11.2655 0.36828 10.5193 0 9.69304 0C8.10682 0 6.82053 1.35666 6.82053 3.02895C6.82053 3.2667 6.84577 3.49788 6.89506 3.7197C4.5078 3.59301 2.39096 2.38755 0.974252 0.55458C0.71909 1.01689 0.58488 1.54232 0.585325 2.0772C0.585325 3.12822 1.0924 4.05603 1.86354 4.59885C1.4074 4.58416 0.961275 4.45422 0.562675 4.21995C0.562248 4.23267 0.562248 4.24506 0.562248 4.25865C0.562248 5.72574 1.55232 6.95067 2.86661 7.22823C2.61977 7.29913 2.36506 7.33498 2.10922 7.33482C1.92446 7.33482 1.74439 7.31565 1.56939 7.28022C1.93507 8.48388 2.99543 9.35979 4.25261 9.38427C3.26951 10.1969 2.03111 10.681 0.685146 10.681C0.456181 10.6812 0.227402 10.6672 0 10.639C1.27121 11.4984 2.78065 11.9998 4.403 11.9998" fill="black"/>
</svg>
