<svg width="49" height="48" viewBox="0 0 49 48" fill="none" xmlns="http://www.w3.org/2000/svg">
<path fill-rule="evenodd" clip-rule="evenodd" d="M36.0488 19H13.0488C12.4965 19 12.0488 19.4477 12.0488 20V33C12.0488 39.6274 17.4214 45 24.0488 45H25.0488C31.6762 45 37.0488 39.6274 37.0488 33V20C37.0488 19.4477 36.6011 19 36.0488 19ZM13.0488 16C10.8397 16 9.04883 17.7909 9.04883 20V33C9.04883 41.2843 15.7646 48 24.0488 48H25.0488C33.3331 48 40.0488 41.2843 40.0488 33V20C40.0488 17.7909 38.258 16 36.0488 16H13.0488Z" fill="#FFD633"/>
<path fill-rule="evenodd" clip-rule="evenodd" d="M33.0488 4H16.0488V16H33.0488V4ZM13.0488 1V19H36.0488V1H13.0488Z" fill="#FFD633"/>
<path fill-rule="evenodd" clip-rule="evenodd" d="M20.0488 13V7H23.0488V13H20.0488Z" fill="#FFD633"/>
<path fill-rule="evenodd" clip-rule="evenodd" d="M26.0488 13V7H29.0488V13H26.0488Z" fill="#FFD633"/>
<path fill-rule="evenodd" clip-rule="evenodd" d="M29.7682 29.018L23.71 35.682L19.0977 31.0697L21.219 28.9483L23.6066 31.336L27.5484 27L29.7682 29.018Z" fill="#FFD633"/>
</svg>
