<svg width="14" height="17" viewBox="0 0 14 17" fill="none" xmlns="http://www.w3.org/2000/svg">
<path d="M7.00001 7.33335C7.65926 7.33335 8.30376 7.13786 8.85193 6.77159C9.40009 6.40531 9.82734 5.88472 10.0796 5.27564C10.3319 4.66655 10.3979 3.99632 10.2693 3.34972C10.1407 2.70312 9.82318 2.10917 9.35701 1.643C8.89084 1.17682 8.29693 0.859354 7.65034 0.730738C7.00368 0.602121 6.33351 0.66813 5.72443 0.920421C5.11531 1.17271 4.59472 1.59995 4.22844 2.14812C3.86218 2.69629 3.66668 3.34075 3.66668 4.00002C3.66767 4.88377 4.01918 5.73105 4.64408 6.35595C5.26899 6.98085 6.11626 7.33236 7.00001 7.33335ZM7.00001 2.33335C7.32968 2.33335 7.65184 2.4311 7.92593 2.61424C8.20001 2.79738 8.41368 3.05767 8.53984 3.36221C8.66593 3.66676 8.69893 4.00187 8.63468 4.32517C8.57034 4.64847 8.41159 4.94545 8.17851 5.17854C7.94543 5.41162 7.64843 5.57035 7.32518 5.63466C7.00184 5.69897 6.66676 5.66597 6.36218 5.53982C6.05768 5.41368 5.79734 5.20005 5.61426 4.92597C5.43109 4.65189 5.33334 4.32965 5.33334 4.00002C5.33384 3.55815 5.50959 3.13452 5.82209 2.82207C6.13451 2.50962 6.55818 2.33386 7.00001 2.33335ZM13.4225 11.6701C11.7179 9.96919 9.40809 9.01385 7.00001 9.01385C4.5919 9.01385 2.28214 9.96919 0.57751 11.6701L0.333344 11.9143V16.5H13.6667V11.9143L13.4225 11.6701ZM12 14.8334H2.00001V12.6153C3.36772 11.3704 5.15061 10.6805 7.00001 10.6805C8.84943 10.6805 10.6323 11.3704 12 12.6153V14.8334Z" fill="#9D87F1"/>
</svg>
