<svg width="17" height="11" viewBox="0 0 17 11" fill="none" xmlns="http://www.w3.org/2000/svg">
<path fill-rule="evenodd" clip-rule="evenodd" d="M15.6527 1.26825C15.764 0.897501 15.6527 0.625 15.1235 0.625H13.3735C12.9285 0.625 12.7235 0.860375 12.6122 1.12C12.6122 1.12 11.7222 3.28913 10.4615 4.69813C10.0536 5.10601 9.86822 5.23576 9.64572 5.23576C9.53447 5.23576 9.37347 5.10601 9.37347 4.73526V1.26825C9.37347 0.823251 9.24434 0.625 8.87346 0.625H6.12346C5.84545 0.625 5.6782 0.831501 5.6782 1.02725C5.6782 1.44913 6.30846 1.54638 6.37346 2.73288V5.31001C6.37346 5.87501 6.27146 5.97751 6.04896 5.97751C5.4557 5.97751 4.0127 3.79851 3.1567 1.30538C2.98895 0.820751 2.8207 0.625 2.37344 0.625H0.623439C0.123438 0.625 0.0234375 0.860375 0.0234375 1.12C0.0234375 1.5835 0.616814 3.88251 2.78595 6.92302C4.23207 8.9994 6.26946 10.125 8.12346 10.125C9.23597 10.125 9.37347 9.87502 9.37347 9.4444V7.87502C9.37347 7.37502 9.47884 7.27527 9.83109 7.27527C10.0907 7.27527 10.5356 7.40502 11.574 8.40614C12.7605 9.59277 12.956 10.125 13.6235 10.125H15.3735C15.8735 10.125 16.1235 9.87502 15.9792 9.38165C15.8215 8.88989 15.255 8.17664 14.5032 7.33089C14.0954 6.84877 13.4835 6.32964 13.2982 6.07014C13.0386 5.73639 13.1127 5.58801 13.2982 5.29139C13.2982 5.29139 15.4302 2.288 15.6527 1.26825Z" fill="black"/>
</svg>
