<svg width="20" height="16" viewBox="0 0 20 16" fill="none" xmlns="http://www.w3.org/2000/svg">
<path d="M16.999 0.000671387H2.99902C2.20337 0.000671387 1.44031 0.316742 0.877703 0.879352C0.315093 1.44196 -0.000976562 2.20502 -0.000976562 3.00067V13.0007C-0.000976562 13.7963 0.315093 14.5594 0.877703 15.122C1.44031 15.6846 2.20337 16.0007 2.99902 16.0007H16.999C17.7946 16.0007 18.5577 15.6846 19.1203 15.122C19.6829 14.5594 19.999 13.7963 19.999 13.0007V3.00067C19.999 2.20502 19.6829 1.44196 19.1203 0.879352C18.5577 0.316742 17.7946 0.000671387 16.999 0.000671387ZM17.999 10.2507H14.999C14.4023 10.2507 13.83 10.0136 13.408 9.59167C12.9861 9.16967 12.749 8.59737 12.749 8.00067C12.749 7.40397 12.9861 6.83167 13.408 6.40967C13.83 5.98772 14.4023 5.75067 14.999 5.75067H17.999V10.2507ZM17.999 4.00067H14.999C13.9381 4.00067 12.9207 4.4221 12.1706 5.17224C11.4204 5.92239 10.999 6.93977 10.999 8.00067C10.999 9.06157 11.4204 10.079 12.1706 10.8291C12.9207 11.5793 13.9381 12.0007 14.999 12.0007H17.999V13.0007C17.9987 13.2658 17.8933 13.52 17.7058 13.7075C17.5183 13.895 17.2641 14.0004 16.999 14.0007H2.99902C2.73389 14.0004 2.47971 13.895 2.29223 13.7075C2.10476 13.52 1.99931 13.2658 1.99902 13.0007V3.00067C1.99931 2.73554 2.10476 2.48136 2.29223 2.29388C2.47971 2.10641 2.73389 2.00096 2.99902 2.00067H16.999C17.2641 2.00096 17.5183 2.10641 17.7058 2.29388C17.8933 2.48136 17.9987 2.73554 17.999 3.00067V4.00067ZM13.999 8.00067C13.999 8.19847 14.0576 8.39177 14.1675 8.55627C14.2774 8.72067 14.4336 8.84887 14.6163 8.92457C14.799 9.00027 15.0001 9.02007 15.1941 8.98147C15.3881 8.94287 15.5663 8.84767 15.7061 8.70777C15.846 8.56797 15.9412 8.38977 15.9798 8.19577C16.0184 8.00177 15.9986 7.80067 15.9229 7.61797C15.8472 7.43527 15.719 7.27907 15.5546 7.16917C15.3901 7.05927 15.1968 7.00067 14.999 7.00067C14.7338 7.00067 14.4794 7.10607 14.2919 7.29357C14.1044 7.48107 13.999 7.73547 13.999 8.00067Z" fill="white"/>
</svg>
