<svg width="16" height="17" viewBox="0 0 16 17" fill="none" xmlns="http://www.w3.org/2000/svg">
<path fill-rule="evenodd" clip-rule="evenodd" d="M7.8544 0.866455C8.2159 0.866455 8.50895 1.15951 8.50895 1.521V2.83009H12.4362C12.5856 2.83009 12.7233 2.88014 12.8335 2.9644C12.9256 3.03462 12.9994 3.12948 13.0444 3.24183L15.6626 9.78728C15.6935 9.8646 15.7094 9.9471 15.7094 10.0304C15.7094 11.8379 14.2441 13.3031 12.4366 13.3031C10.6292 13.3031 9.16392 11.8379 9.16392 10.0304C9.16392 9.9471 9.17981 9.8646 9.21074 9.78728L11.47 4.13918H8.50895V13.9574H11.1271C11.4886 13.9574 11.7817 14.2504 11.7817 14.6119C11.7817 14.9734 11.4886 15.2665 11.1271 15.2665H4.58168C4.22018 15.2665 3.92713 14.9734 3.92713 14.6119C3.92713 14.2504 4.22018 13.9574 4.58168 13.9574H7.19986V4.13918H4.2394L6.49864 9.78728C6.52957 9.8646 6.54545 9.9471 6.54545 10.0304C6.54545 11.8379 5.0802 13.3031 3.27273 13.3031C1.46525 13.3031 0 11.8379 0 10.0304C0 9.9471 0.0158892 9.8646 0.0468153 9.78728L2.65641 3.26329C2.74715 3.01072 2.98878 2.83009 3.27259 2.83009H7.19986V1.521C7.19986 1.15951 7.49291 0.866455 7.8544 0.866455ZM1.42083 10.6849C1.69039 11.4476 2.41775 11.994 3.27273 11.994C4.12771 11.994 4.85506 11.4476 5.12463 10.6849H1.42083ZM4.92412 9.37583H1.62133L3.27273 5.24734L4.92412 9.37583ZM12.4366 11.994C11.5817 11.994 10.8543 11.4476 10.5847 10.6849H14.2885C14.019 11.4476 13.2916 11.994 12.4366 11.994ZM10.7853 9.37583H14.088L12.4366 5.24734L10.7853 9.37583Z" fill="url(#paint0_linear_19620:2591)"/>
<defs>
<linearGradient id="paint0_linear_19620:2591" x1="7.85469" y1="0.866455" x2="7.85469" y2="15.2665" gradientUnits="userSpaceOnUse">
<stop stop-color="#8373F5"/>
<stop offset="1" stop-color="#975FE1"/>
</linearGradient>
</defs>
</svg>
