<svg width="61" height="60" viewBox="0 0 61 60" fill="none" xmlns="http://www.w3.org/2000/svg">
<path d="M58.3331 18.7157C54.5745 14.9571 50.1044 11.9853 45.1841 9.97401C40.2638 7.96272 34.992 6.95227 29.6767 7.00173C24.3614 7.05119 19.1093 8.15955 14.2272 10.262C9.34522 12.3645 4.93121 15.419 1.24316 19.2469L5.02183 22.8875C8.22608 19.5617 12.0611 16.9079 16.3027 15.0812C20.5443 13.2546 25.1075 12.2916 29.7255 12.2486C34.3435 12.2056 38.9238 13.0835 43.1987 14.831C47.4735 16.5784 51.3573 19.1604 54.6228 22.426L58.3331 18.7157Z" fill="#FFD633"/>
<path d="M50.5552 26.4939C47.8623 23.801 44.6653 21.6649 41.1469 20.2075C37.6284 18.7501 33.8574 18 30.0491 18C26.2407 18 22.4697 18.7501 18.9512 20.2075C15.4328 21.6649 12.2359 23.801 9.54297 26.4939L13.0414 29.9924C15.2749 27.7589 17.9264 25.9872 20.8446 24.7784C23.7628 23.5697 26.8905 22.9476 30.0491 22.9475C33.2077 22.9475 36.3354 23.5697 39.2535 24.7784C42.1717 25.9872 44.8232 27.7589 47.0567 29.9923L50.5552 26.4939Z" fill="#FFD633"/>
<path d="M42.7771 34.2721C41.1057 32.6006 39.1214 31.2748 36.9375 30.3702C34.7537 29.4656 32.413 29 30.0492 29C27.6854 29 25.3448 29.4656 23.1609 30.3702C20.977 31.2748 18.9927 32.6006 17.3213 34.2721L20.7977 37.7485C22.0126 36.5335 23.4549 35.5698 25.0423 34.9123C26.6297 34.2548 28.331 33.9163 30.0492 33.9163C31.7674 33.9163 33.4687 34.2548 35.0561 34.9123C36.6435 35.5698 38.0858 36.5335 39.3008 37.7485L42.7771 34.2721Z" fill="#FFD633"/>
<path d="M35.0488 47C35.0488 49.7614 32.8103 52 30.0488 52C27.2874 52 25.0488 49.7614 25.0488 47C25.0488 44.2386 27.2874 42 30.0488 42C32.8103 42 35.0488 44.2386 35.0488 47Z" fill="#FFD633"/>
</svg>
