<svg width="51" height="50" viewBox="0 0 51 50" fill="none" xmlns="http://www.w3.org/2000/svg">
<path d="M25.0488 0C20.1043 0 15.2708 1.46623 11.1596 4.21325C7.04836 6.9603 3.84405 10.8647 1.95185 15.4329C0.059655 20.001 -0.43542 25.0278 0.529205 29.8773C1.49383 34.7267 3.87485 39.1813 7.37118 42.6777C10.8675 46.174 15.3221 48.555 20.1716 49.5197C25.0211 50.4842 30.0478 49.9893 34.6158 48.097C39.1841 46.2048 43.0886 43.0005 45.8356 38.8893C48.5826 34.778 50.0488 29.9445 50.0488 25C50.0488 21.717 49.4021 18.4661 48.1458 15.4329C46.8896 12.3998 45.0481 9.6438 42.7266 7.32232C40.4051 5.00087 37.6491 3.15937 34.6158 1.903C31.5828 0.64665 28.3318 0 25.0488 0ZM42.5353 15H35.8703C35.2198 11.7643 34.0328 8.66027 32.3583 5.81625C36.7148 7.60177 40.3133 10.8491 42.5353 15ZM45.0488 25C45.0426 26.6852 44.8358 28.3638 44.4323 30H36.6716C36.8398 28.3388 36.9241 26.6698 36.9238 25C36.9241 23.3302 36.8398 21.6612 36.6716 20H44.4323C44.8358 21.6362 45.0426 23.3148 45.0488 25ZM25.0488 45C22.5056 45 20.2903 40.9723 19.1011 35H30.9966C29.8073 40.9723 27.5921 45 25.0488 45ZM18.3988 30C18.2571 28.4 18.1738 26.73 18.1738 25C18.1738 23.27 18.2573 21.6 18.3988 20H31.6988C31.8406 21.6 31.9238 23.27 31.9238 25C31.9238 26.73 31.8403 28.4 31.6988 30H18.3988ZM5.04883 25C5.05498 23.3148 5.26193 21.6362 5.66533 20H13.4261C13.0898 23.3248 13.0898 26.6752 13.4261 30H5.66533C5.26193 28.3638 5.05498 26.6852 5.04883 25ZM25.0488 5C27.5921 5 29.8073 9.02775 30.9966 15H19.1011C20.2903 9.02775 22.5056 5 25.0488 5ZM17.7393 5.81625C16.0648 8.66027 14.8778 11.7643 14.2273 15H7.56233C9.78433 10.8491 13.3828 7.60177 17.7393 5.81625ZM7.56233 35H14.2273C14.8778 38.2357 16.0649 41.3398 17.7393 44.1838C13.3828 42.3983 9.78433 39.151 7.56233 35ZM32.3583 44.1838C34.0328 41.3398 35.2198 38.2357 35.8703 35H42.5353C40.3133 39.151 36.7148 42.3983 32.3583 44.1838Z" fill="#FFD633"/>
</svg>
