<svg width="501" height="415" viewBox="0 0 501 415" fill="none" xmlns="http://www.w3.org/2000/svg">
<path d="M146.296 89.2959L264 40.5412L381.704 89.2959L430.459 207L381.704 324.704L264 373.459L146.296 324.704L97.5412 207L146.296 89.2959Z" stroke="#9274BC"/>
<path d="M264 40.0002V373" stroke="#B19FF4" stroke-linecap="round" stroke-dasharray="1 3"/>
<path d="M98 205.998L430 205.998" stroke="#B19FF4" stroke-linecap="round" stroke-dasharray="1 3"/>
<path d="M381.619 88.7491L146.246 324.123" stroke="#B19FF4" stroke-linecap="round" stroke-dasharray="1 3"/>
<path d="M146.246 88.7491L381.62 324.123" stroke="#B19FF4" stroke-linecap="round" stroke-dasharray="1 3"/>
<path opacity="0.6" d="M264 74.498L369 101.998L407 206.498L327 267.998L264 326.498L216.5 253.998L160 206.498L209.5 151.998L264 74.498Z" fill="url(#paint0_radial)"/>
<path opacity="0.1" d="M228.32 171.319L264 156.54L299.68 171.319L314.459 206.999L299.68 242.679L264 257.458L228.32 242.679L213.541 206.999L228.32 171.319Z" stroke="white"/>
<path opacity="0.1" d="M188.015 131.015L264 99.5412L339.985 131.015L371.459 207L339.985 282.985L264 314.459L188.015 282.985L156.541 207L188.015 131.015Z" stroke="white"/>
<path fill-rule="evenodd" clip-rule="evenodd" d="M478.884 202.768C478.8 202.768 478.715 202.768 478.631 202.684L469.601 199.401H469.46L468.702 204.707C468.618 205.044 468.281 205.296 467.944 205.296H464.577C464.325 205.296 464.072 205.128 463.904 204.959C463.736 204.707 463.651 204.454 463.82 204.202L464.506 199.4C462.262 199.364 460.363 197.526 460.363 195.192C460.363 192.835 462.215 190.983 464.572 190.983H469.605L478.631 187.7C478.884 187.532 479.136 187.616 479.389 187.784C479.557 187.953 479.726 188.205 479.726 188.458V201.927C479.726 202.179 479.557 202.432 479.389 202.6C479.221 202.684 479.052 202.768 478.884 202.768ZM470.466 197.97L478.042 200.748V189.636L470.466 192.414V197.97ZM464.572 192.666C463.225 192.666 462.047 193.76 462.047 195.192C462.047 196.623 463.141 197.717 464.572 197.717H468.781V192.666H464.572ZM467.355 203.612H465.756L466.008 199.403H467.608L467.355 203.612Z" fill="url(#paint1_linear)"/>
<path d="M443.898 210H445.138L447.368 214.15L449.598 210H450.798V217H449.598V212.1L447.748 215.55H446.948L445.098 212.1V217H443.898V210ZM453.949 217.11C453.663 217.11 453.406 217.07 453.179 216.99C452.959 216.903 452.773 216.787 452.619 216.64C452.466 216.487 452.349 216.31 452.269 216.11C452.189 215.91 452.149 215.69 452.149 215.45C452.149 214.923 452.306 214.533 452.619 214.28C452.933 214.02 453.393 213.89 453.999 213.89H455.649V213.6C455.649 213.2 455.559 212.927 455.379 212.78C455.206 212.627 454.929 212.55 454.549 212.55C454.209 212.55 453.959 212.603 453.799 212.71C453.639 212.817 453.546 212.963 453.519 213.15H452.449C452.463 212.923 452.519 212.717 452.619 212.53C452.726 212.337 452.869 212.17 453.049 212.03C453.236 211.89 453.459 211.783 453.719 211.71C453.979 211.63 454.273 211.59 454.599 211.59C454.926 211.59 455.219 211.627 455.479 211.7C455.746 211.773 455.973 211.89 456.159 212.05C456.346 212.203 456.489 212.403 456.589 212.65C456.696 212.897 456.749 213.193 456.749 213.54V215.65C456.749 215.93 456.753 216.177 456.759 216.39C456.766 216.597 456.783 216.8 456.809 217H455.809C455.789 216.847 455.773 216.717 455.759 216.61C455.753 216.503 455.749 216.37 455.749 216.21C455.623 216.457 455.403 216.67 455.089 216.85C454.783 217.023 454.403 217.11 453.949 217.11ZM454.249 216.15C454.436 216.15 454.613 216.127 454.779 216.08C454.953 216.027 455.103 215.953 455.229 215.86C455.356 215.76 455.456 215.64 455.529 215.5C455.609 215.353 455.649 215.187 455.649 215V214.71H454.199C453.919 214.71 453.693 214.77 453.519 214.89C453.353 215.01 453.269 215.187 453.269 215.42C453.269 215.64 453.346 215.817 453.499 215.95C453.659 216.083 453.909 216.15 454.249 216.15ZM458.102 211.7H459.122V212.59C459.282 212.283 459.519 212.04 459.832 211.86C460.152 211.68 460.512 211.59 460.912 211.59C461.606 211.59 462.152 211.807 462.552 212.24C462.952 212.673 463.152 213.327 463.152 214.2V214.4C463.152 214.853 463.099 215.25 462.992 215.59C462.886 215.93 462.732 216.213 462.532 216.44C462.339 216.66 462.106 216.827 461.832 216.94C461.559 217.053 461.252 217.11 460.912 217.11C460.532 217.11 460.186 217.027 459.872 216.86C459.559 216.693 459.336 216.46 459.202 216.16V219H458.102V211.7ZM460.652 216.15C461.066 216.15 461.399 216.007 461.652 215.72C461.906 215.433 462.032 214.993 462.032 214.4V214.2C462.032 213.64 461.909 213.227 461.662 212.96C461.416 212.687 461.079 212.55 460.652 212.55C460.466 212.55 460.286 212.58 460.112 212.64C459.939 212.7 459.782 212.79 459.642 212.91C459.509 213.023 459.402 213.17 459.322 213.35C459.242 213.523 459.202 213.723 459.202 213.95V214.65C459.202 214.903 459.242 215.123 459.322 215.31C459.402 215.497 459.509 215.653 459.642 215.78C459.776 215.907 459.929 216 460.102 216.06C460.276 216.12 460.459 216.15 460.652 216.15ZM464.255 211.7H465.355V213.85H465.955L467.815 211.7H469.055L466.805 214.23L469.155 217H467.815L465.955 214.75H465.355V217H464.255V211.7ZM472.16 217.11C471.807 217.11 471.473 217.057 471.16 216.95C470.847 216.837 470.57 216.67 470.33 216.45C470.097 216.223 469.91 215.94 469.77 215.6C469.63 215.26 469.56 214.86 469.56 214.4V214.2C469.56 213.76 469.627 213.377 469.76 213.05C469.893 212.723 470.073 212.453 470.3 212.24C470.533 212.02 470.8 211.857 471.1 211.75C471.4 211.643 471.72 211.59 472.06 211.59C472.867 211.59 473.483 211.807 473.91 212.24C474.343 212.673 474.56 213.293 474.56 214.1V214.66H470.68C470.687 214.933 470.73 215.167 470.81 215.36C470.897 215.547 471.007 215.7 471.14 215.82C471.28 215.933 471.437 216.017 471.61 216.07C471.79 216.123 471.973 216.15 472.16 216.15C472.54 216.15 472.817 216.09 472.99 215.97C473.17 215.85 473.293 215.693 473.36 215.5H474.46C474.353 216.027 474.09 216.427 473.67 216.7C473.257 216.973 472.753 217.11 472.16 217.11ZM472.11 212.55C471.923 212.55 471.743 212.573 471.57 212.62C471.403 212.667 471.253 212.743 471.12 212.85C470.993 212.95 470.89 213.083 470.81 213.25C470.73 213.41 470.687 213.607 470.68 213.84H473.46C473.453 213.593 473.413 213.387 473.34 213.22C473.273 213.053 473.18 212.92 473.06 212.82C472.94 212.72 472.797 212.65 472.63 212.61C472.47 212.57 472.297 212.55 472.11 212.55ZM476.813 212.64H475.063V211.7H479.663V212.64H477.913V217H476.813V212.64ZM480.563 211.7H481.663V215.45L484.213 211.7H485.263V217H484.163V213.25L481.613 217H480.563V211.7ZM486.667 211.7H487.767V213.83H490.267V211.7H491.367V217H490.267V214.77H487.767V217H486.667V211.7ZM492.77 211.7H496.47V212.64H493.87V217H492.77V211.7Z" fill="white"/>
<path fill-rule="evenodd" clip-rule="evenodd" d="M47.1025 187.95C46.6607 187.95 46.3025 188.308 46.3025 188.75C46.3025 189.192 46.6607 189.55 47.1025 189.55H59.9025C60.3443 189.55 60.7025 189.192 60.7025 188.75C60.7025 188.308 60.3443 187.95 59.9025 187.95H47.1025ZM47.1025 191.15C46.6607 191.15 46.3025 191.508 46.3025 191.95C46.3025 192.392 46.6607 192.75 47.1025 192.75H59.9025C60.3443 192.75 60.7025 192.392 60.7025 191.95C60.7025 191.508 60.3443 191.15 59.9025 191.15H47.1025ZM47.902 193.95C46.5765 193.95 45.502 195.025 45.502 196.35V201.15C45.502 202.475 46.5765 203.55 47.902 203.55H59.102C60.4274 203.55 61.502 202.475 61.502 201.15V196.35C61.502 195.025 60.4274 193.95 59.102 193.95H57.102C55.9974 193.95 55.102 194.845 55.102 195.95C55.102 196.171 54.9229 196.35 54.702 196.35H52.302C52.081 196.35 51.902 196.171 51.902 195.95C51.902 194.845 51.0065 193.95 49.902 193.95H47.902ZM47.102 196.35C47.102 195.908 47.4601 195.55 47.902 195.55H49.902C50.1229 195.55 50.302 195.729 50.302 195.95C50.302 197.055 51.1974 197.95 52.302 197.95H54.702C55.8065 197.95 56.702 197.055 56.702 195.95C56.702 195.729 56.881 195.55 57.102 195.55H59.102C59.5438 195.55 59.902 195.908 59.902 196.35V201.15C59.902 201.592 59.5438 201.95 59.102 201.95H47.902C47.4601 201.95 47.102 201.592 47.102 201.15V196.35Z" fill="url(#paint2_linear)"/>
<path d="M22.9 210H27.65V211.04H24.1V212.64H25.55C26.0167 212.64 26.4233 212.693 26.77 212.8C27.1167 212.9 27.4033 213.047 27.63 213.24C27.8567 213.427 28.0233 213.657 28.13 213.93C28.2433 214.197 28.3 214.493 28.3 214.82C28.3 215.147 28.2433 215.447 28.13 215.72C28.0233 215.987 27.8567 216.217 27.63 216.41C27.4033 216.597 27.1167 216.743 26.77 216.85C26.4233 216.95 26.0167 217 25.55 217H22.9V210ZM25.45 215.96C25.7633 215.96 26.0267 215.937 26.24 215.89C26.4533 215.837 26.6233 215.763 26.75 215.67C26.8767 215.577 26.9667 215.46 27.02 215.32C27.0733 215.173 27.1 215.003 27.1 214.81C27.1 214.623 27.0733 214.46 27.02 214.32C26.9667 214.18 26.8767 214.063 26.75 213.97C26.6233 213.877 26.4533 213.807 26.24 213.76C26.0267 213.707 25.7633 213.68 25.45 213.68H24.1V215.96H25.45ZM29.9465 219.11C29.8465 219.11 29.7465 219.1 29.6465 219.08V218.12C29.7465 218.14 29.8465 218.15 29.9465 218.15C30.0598 218.15 30.1532 218.13 30.2265 218.09C30.3065 218.057 30.3765 217.993 30.4365 217.9C30.5032 217.813 30.5665 217.697 30.6265 217.55C30.6932 217.403 30.7665 217.22 30.8465 217L28.5965 211.7H29.7965L31.4165 215.8L32.8765 211.7H33.9965L31.9465 217C31.7998 217.373 31.6632 217.693 31.5365 217.96C31.4098 218.227 31.2698 218.443 31.1165 218.61C30.9698 218.783 30.8032 218.91 30.6165 218.99C30.4298 219.07 30.2065 219.11 29.9465 219.11ZM36.4049 214.24L34.5949 211.7H35.8349L37.1249 213.48L38.3949 211.7H39.5949L37.8049 214.2L39.6949 217H38.4349L37.0849 214.94L35.7149 217H34.4949L36.4049 214.24ZM40.5906 211.7H44.2906V212.64H41.6906V217H40.5906V211.7ZM46.4375 217.11C46.1508 217.11 45.8942 217.07 45.6675 216.99C45.4475 216.903 45.2608 216.787 45.1075 216.64C44.9542 216.487 44.8375 216.31 44.7575 216.11C44.6775 215.91 44.6375 215.69 44.6375 215.45C44.6375 214.923 44.7942 214.533 45.1075 214.28C45.4208 214.02 45.8808 213.89 46.4875 213.89H48.1375V213.6C48.1375 213.2 48.0475 212.927 47.8675 212.78C47.6942 212.627 47.4175 212.55 47.0375 212.55C46.6975 212.55 46.4475 212.603 46.2875 212.71C46.1275 212.817 46.0342 212.963 46.0075 213.15H44.9375C44.9508 212.923 45.0075 212.717 45.1075 212.53C45.2142 212.337 45.3575 212.17 45.5375 212.03C45.7242 211.89 45.9475 211.783 46.2075 211.71C46.4675 211.63 46.7608 211.59 47.0875 211.59C47.4142 211.59 47.7075 211.627 47.9675 211.7C48.2342 211.773 48.4608 211.89 48.6475 212.05C48.8342 212.203 48.9775 212.403 49.0775 212.65C49.1842 212.897 49.2375 213.193 49.2375 213.54V215.65C49.2375 215.93 49.2408 216.177 49.2475 216.39C49.2542 216.597 49.2708 216.8 49.2975 217H48.2975C48.2775 216.847 48.2608 216.717 48.2475 216.61C48.2408 216.503 48.2375 216.37 48.2375 216.21C48.1108 216.457 47.8908 216.67 47.5775 216.85C47.2708 217.023 46.8908 217.11 46.4375 217.11ZM46.7375 216.15C46.9242 216.15 47.1008 216.127 47.2675 216.08C47.4408 216.027 47.5908 215.953 47.7175 215.86C47.8442 215.76 47.9442 215.64 48.0175 215.5C48.0975 215.353 48.1375 215.187 48.1375 215V214.71H46.6875C46.4075 214.71 46.1808 214.77 46.0075 214.89C45.8408 215.01 45.7575 215.187 45.7575 215.42C45.7575 215.64 45.8342 215.817 45.9875 215.95C46.1475 216.083 46.3975 216.15 46.7375 216.15ZM50.4906 217.11C50.4373 217.11 50.3773 217.107 50.3106 217.1C50.2506 217.1 50.194 217.093 50.1406 217.08V216.04C50.174 216.047 50.224 216.05 50.2906 216.05C50.4306 216.05 50.5506 216.01 50.6506 215.93C50.7506 215.843 50.8306 215.697 50.8906 215.49C50.9573 215.277 51.0073 214.993 51.0406 214.64C51.074 214.287 51.0906 213.84 51.0906 213.3V211.7H55.0906V217H53.9906V212.64H52.1506V213.5C52.1506 214.213 52.114 214.803 52.0406 215.27C51.974 215.73 51.8706 216.097 51.7306 216.37C51.5906 216.643 51.4173 216.837 51.2106 216.95C51.004 217.057 50.764 217.11 50.4906 217.11ZM57.7391 212.64H55.9891V211.7H60.5891V212.64H58.8391V217H57.7391V212.64ZM63.6914 217.11C63.3381 217.11 63.0047 217.057 62.6914 216.95C62.3781 216.837 62.1014 216.67 61.8614 216.45C61.6281 216.223 61.4414 215.94 61.3014 215.6C61.1614 215.26 61.0914 214.86 61.0914 214.4V214.2C61.0914 213.76 61.1581 213.377 61.2914 213.05C61.4247 212.723 61.6047 212.453 61.8314 212.24C62.0647 212.02 62.3314 211.857 62.6314 211.75C62.9314 211.643 63.2514 211.59 63.5914 211.59C64.3981 211.59 65.0147 211.807 65.4414 212.24C65.8747 212.673 66.0914 213.293 66.0914 214.1V214.66H62.2114C62.2181 214.933 62.2614 215.167 62.3414 215.36C62.4281 215.547 62.5381 215.7 62.6714 215.82C62.8114 215.933 62.9681 216.017 63.1414 216.07C63.3214 216.123 63.5047 216.15 63.6914 216.15C64.0714 216.15 64.3481 216.09 64.5214 215.97C64.7014 215.85 64.8247 215.693 64.8914 215.5H65.9914C65.8847 216.027 65.6214 216.427 65.2014 216.7C64.7881 216.973 64.2847 217.11 63.6914 217.11ZM63.6414 212.55C63.4547 212.55 63.2747 212.573 63.1014 212.62C62.9347 212.667 62.7847 212.743 62.6514 212.85C62.5247 212.95 62.4214 213.083 62.3414 213.25C62.2614 213.41 62.2181 213.607 62.2114 213.84H64.9914C64.9847 213.593 64.9447 213.387 64.8714 213.22C64.8047 213.053 64.7114 212.92 64.5914 212.82C64.4714 212.72 64.3281 212.65 64.1614 212.61C64.0014 212.57 63.8281 212.55 63.6414 212.55ZM67.1922 211.7H68.2122V212.59C68.3722 212.283 68.6089 212.04 68.9222 211.86C69.2422 211.68 69.6022 211.59 70.0022 211.59C70.6955 211.59 71.2422 211.807 71.6422 212.24C72.0422 212.673 72.2422 213.327 72.2422 214.2V214.4C72.2422 214.853 72.1889 215.25 72.0822 215.59C71.9755 215.93 71.8222 216.213 71.6222 216.44C71.4289 216.66 71.1955 216.827 70.9222 216.94C70.6489 217.053 70.3422 217.11 70.0022 217.11C69.6222 217.11 69.2755 217.027 68.9622 216.86C68.6489 216.693 68.4255 216.46 68.2922 216.16V219H67.1922V211.7ZM69.7422 216.15C70.1555 216.15 70.4889 216.007 70.7422 215.72C70.9955 215.433 71.1222 214.993 71.1222 214.4V214.2C71.1222 213.64 70.9989 213.227 70.7522 212.96C70.5055 212.687 70.1689 212.55 69.7422 212.55C69.5555 212.55 69.3755 212.58 69.2022 212.64C69.0289 212.7 68.8722 212.79 68.7322 212.91C68.5989 213.023 68.4922 213.17 68.4122 213.35C68.3322 213.523 68.2922 213.723 68.2922 213.95V214.65C68.2922 214.903 68.3322 215.123 68.4122 215.31C68.4922 215.497 68.5989 215.653 68.7322 215.78C68.8655 215.907 69.0189 216 69.1922 216.06C69.3655 216.12 69.5489 216.15 69.7422 216.15ZM73.3445 211.7H74.4445V215.45L76.9945 211.7H78.0445V217H76.9445V213.25L74.3945 217H73.3445V211.7ZM80.478 214.99C80.078 214.87 79.7814 214.673 79.588 214.4C79.3947 214.127 79.298 213.797 79.298 213.41C79.298 212.89 79.4714 212.477 79.818 212.17C80.1647 211.857 80.6914 211.7 81.398 211.7H83.798V217H82.698V215.12H81.558L80.378 217H79.098L80.478 214.99ZM80.418 213.41C80.418 213.69 80.5014 213.89 80.668 214.01C80.8347 214.123 81.0614 214.18 81.348 214.18H82.698V212.64H81.348C81.0614 212.64 80.8347 212.7 80.668 212.82C80.5014 212.933 80.418 213.13 80.418 213.41Z" fill="white"/>
<path fill-rule="evenodd" clip-rule="evenodd" d="M411.817 56.9979C412.269 56.9979 412.636 57.3642 412.636 57.8161V59.4525H417.515C417.525 59.4521 417.535 59.4519 417.545 59.4519C417.88 59.4519 418.181 59.6556 418.305 59.9662L421.578 68.148C421.616 68.2447 421.636 68.3478 421.636 68.4519C421.636 70.7112 419.805 72.5428 417.545 72.5428C415.286 72.5428 413.455 70.7112 413.455 68.4519C413.455 68.3478 413.474 68.2447 413.513 68.148L416.337 61.0888H412.636V73.3616H415.908C416.36 73.3616 416.727 73.7279 416.727 74.1797C416.727 74.6316 416.36 74.9979 415.908 74.9979H407.727C407.275 74.9979 406.908 74.6316 406.908 74.1797C406.908 73.7279 407.275 73.3616 407.727 73.3616H410.999V61.0888H407.3L410.123 68.148C410.162 68.2447 410.182 68.3478 410.182 68.4519C410.182 70.7112 408.35 72.5428 406.091 72.5428C403.832 72.5428 402 70.7112 402 68.4519C402 68.3478 402.02 68.2447 402.059 68.148L405.318 59.9989C405.388 59.8006 405.532 59.6373 405.717 59.5424C405.83 59.4841 405.958 59.4519 406.091 59.4519C406.101 59.4519 406.111 59.4521 406.122 59.4525H410.999V57.8161C410.999 57.3642 411.366 56.9979 411.817 56.9979ZM403.776 69.2701C404.113 70.2234 405.022 70.9064 406.091 70.9064C407.16 70.9064 408.069 70.2234 408.406 69.2701H403.776ZM408.155 67.6337H404.027L406.091 62.4731L408.155 67.6337ZM417.545 70.9064C416.477 70.9064 415.568 70.2234 415.231 69.2701H419.86C419.523 70.2234 418.614 70.9064 417.545 70.9064ZM415.481 67.6337H419.61L417.545 62.4731L415.481 67.6337Z" fill="url(#paint3_linear)"/>
<path d="M396.9 80H402.6V87H401.4V81.04H398.1V87H396.9V80ZM404.2 81.7H405.22V82.59C405.38 82.2833 405.617 82.04 405.93 81.86C406.25 81.68 406.61 81.59 407.01 81.59C407.703 81.59 408.25 81.8067 408.65 82.24C409.05 82.6733 409.25 83.3267 409.25 84.2V84.4C409.25 84.8533 409.197 85.25 409.09 85.59C408.983 85.93 408.83 86.2133 408.63 86.44C408.437 86.66 408.203 86.8267 407.93 86.94C407.657 87.0533 407.35 87.11 407.01 87.11C406.63 87.11 406.283 87.0267 405.97 86.86C405.657 86.6933 405.433 86.46 405.3 86.16V89H404.2V81.7ZM406.75 86.15C407.163 86.15 407.497 86.0067 407.75 85.72C408.003 85.4333 408.13 84.9933 408.13 84.4V84.2C408.13 83.64 408.007 83.2267 407.76 82.96C407.513 82.6867 407.177 82.55 406.75 82.55C406.563 82.55 406.383 82.58 406.21 82.64C406.037 82.7 405.88 82.79 405.74 82.91C405.607 83.0233 405.5 83.17 405.42 83.35C405.34 83.5233 405.3 83.7233 405.3 83.95V84.65C405.3 84.9033 405.34 85.1233 405.42 85.31C405.5 85.4967 405.607 85.6533 405.74 85.78C405.873 85.9067 406.027 86 406.2 86.06C406.373 86.12 406.557 86.15 406.75 86.15ZM411.902 87.11C411.616 87.11 411.359 87.07 411.132 86.99C410.912 86.9033 410.726 86.7867 410.572 86.64C410.419 86.4867 410.302 86.31 410.222 86.11C410.142 85.91 410.102 85.69 410.102 85.45C410.102 84.9233 410.259 84.5333 410.572 84.28C410.886 84.02 411.346 83.89 411.952 83.89H413.602V83.6C413.602 83.2 413.512 82.9267 413.332 82.78C413.159 82.6267 412.882 82.55 412.502 82.55C412.162 82.55 411.912 82.6033 411.752 82.71C411.592 82.8167 411.499 82.9633 411.472 83.15H410.402C410.416 82.9233 410.472 82.7167 410.572 82.53C410.679 82.3367 410.822 82.17 411.002 82.03C411.189 81.89 411.412 81.7833 411.672 81.71C411.932 81.63 412.226 81.59 412.552 81.59C412.879 81.59 413.172 81.6267 413.432 81.7C413.699 81.7733 413.926 81.89 414.112 82.05C414.299 82.2033 414.442 82.4033 414.542 82.65C414.649 82.8967 414.702 83.1933 414.702 83.54V85.65C414.702 85.93 414.706 86.1767 414.712 86.39C414.719 86.5967 414.736 86.8 414.762 87H413.762C413.742 86.8467 413.726 86.7167 413.712 86.61C413.706 86.5033 413.702 86.37 413.702 86.21C413.576 86.4567 413.356 86.67 413.042 86.85C412.736 87.0233 412.356 87.11 411.902 87.11ZM412.202 86.15C412.389 86.15 412.566 86.1267 412.732 86.08C412.906 86.0267 413.056 85.9533 413.182 85.86C413.309 85.76 413.409 85.64 413.482 85.5C413.562 85.3533 413.602 85.1867 413.602 85V84.71H412.152C411.872 84.71 411.646 84.77 411.472 84.89C411.306 85.01 411.222 85.1867 411.222 85.42C411.222 85.64 411.299 85.8167 411.452 85.95C411.612 86.0833 411.862 86.15 412.202 86.15ZM416.055 81.7H418.555C419.222 81.7 419.705 81.8367 420.005 82.11C420.305 82.3767 420.455 82.72 420.455 83.14C420.455 83.3733 420.385 83.6 420.245 83.82C420.105 84.0333 419.909 84.1767 419.655 84.25C419.982 84.33 420.229 84.4833 420.395 84.71C420.569 84.93 420.655 85.19 420.655 85.49C420.655 85.95 420.502 86.3167 420.195 86.59C419.889 86.8633 419.409 87 418.755 87H416.055V81.7ZM418.605 86.06C418.965 86.06 419.212 86.0033 419.345 85.89C419.485 85.77 419.555 85.6033 419.555 85.39C419.555 85.1767 419.485 85.0167 419.345 84.91C419.212 84.7967 418.965 84.74 418.605 84.74H417.155V86.06H418.605ZM418.455 83.88C418.789 83.88 419.022 83.8267 419.155 83.72C419.289 83.6067 419.355 83.4533 419.355 83.26C419.355 83.0667 419.289 82.9167 419.155 82.81C419.022 82.6967 418.789 82.64 418.455 82.64H417.155V83.88H418.455ZM424.059 87.11C423.692 87.11 423.349 87.0533 423.029 86.94C422.715 86.82 422.442 86.6467 422.209 86.42C421.975 86.1933 421.792 85.9133 421.659 85.58C421.525 85.24 421.459 84.8467 421.459 84.4V84.2C421.459 83.78 421.525 83.41 421.659 83.09C421.792 82.7633 421.975 82.49 422.209 82.27C422.442 82.0433 422.715 81.8733 423.029 81.76C423.349 81.6467 423.692 81.59 424.059 81.59C424.425 81.59 424.765 81.6467 425.079 81.76C425.399 81.8733 425.675 82.0433 425.909 82.27C426.142 82.49 426.325 82.7633 426.459 83.09C426.592 83.41 426.659 83.78 426.659 84.2V84.4C426.659 84.8467 426.592 85.24 426.459 85.58C426.325 85.9133 426.142 86.1933 425.909 86.42C425.675 86.6467 425.399 86.82 425.079 86.94C424.765 87.0533 424.425 87.11 424.059 87.11ZM424.059 86.15C424.252 86.15 424.435 86.1167 424.609 86.05C424.789 85.9833 424.945 85.88 425.079 85.74C425.219 85.6 425.329 85.42 425.409 85.2C425.495 84.98 425.539 84.7133 425.539 84.4V84.2C425.539 83.9133 425.495 83.6667 425.409 83.46C425.329 83.2533 425.219 83.0833 425.079 82.95C424.945 82.8167 424.789 82.7167 424.609 82.65C424.435 82.5833 424.252 82.55 424.059 82.55C423.865 82.55 423.679 82.5833 423.499 82.65C423.325 82.7167 423.169 82.8167 423.029 82.95C422.895 83.0833 422.785 83.2533 422.699 83.46C422.619 83.6667 422.579 83.9133 422.579 84.2V84.4C422.579 84.7133 422.619 84.98 422.699 85.2C422.785 85.42 422.895 85.6 423.029 85.74C423.169 85.88 423.325 85.9833 423.499 86.05C423.679 86.1167 423.865 86.15 424.059 86.15Z" fill="white"/>
<path fill-rule="evenodd" clip-rule="evenodd" d="M104.924 58C103.534 58 102.408 59.1263 102.408 60.5156V66.3853C102.408 68.3286 103.285 70.1252 104.75 71.5902C105.974 72.8143 107.864 73.8676 109.011 74.4218C109.587 74.6997 110.268 74.7363 110.882 74.4704C111.962 74.0027 113.701 73.0491 115.16 71.5902C117.022 69.728 117.502 67.4035 117.502 66.3853V60.5156C117.502 59.1263 116.375 58 114.986 58H104.924ZM104.085 60.5156C104.085 60.0525 104.461 59.6771 104.924 59.6771H114.986C115.449 59.6771 115.825 60.0525 115.825 60.5156V66.3853C115.825 67.0442 115.466 68.9123 113.974 70.4043C112.708 71.6699 111.169 72.5187 110.216 72.9313C110.076 72.9917 109.905 72.9909 109.741 72.9116C108.634 72.3769 106.954 71.4223 105.936 70.4043C104.718 69.1859 104.085 67.7961 104.085 66.3853V60.5156ZM113.933 64.0106C114.243 63.6663 114.215 63.1361 113.871 62.8263C113.527 62.5165 112.996 62.5444 112.687 62.8887L109.505 66.4244L108.033 64.953C107.706 64.6255 107.175 64.6255 106.847 64.953C106.52 65.2805 106.52 65.8114 106.847 66.1389L108.944 68.2352C109.106 68.3979 109.329 68.4866 109.559 68.4805C109.789 68.4745 110.006 68.3742 110.16 68.2032L113.933 64.0106Z" fill="white"/>
<path fill-rule="evenodd" clip-rule="evenodd" d="M104.924 58C103.534 58 102.408 59.1263 102.408 60.5156V66.3853C102.408 68.3286 103.285 70.1252 104.75 71.5902C105.974 72.8143 107.864 73.8676 109.011 74.4218C109.587 74.6997 110.268 74.7363 110.882 74.4704C111.962 74.0027 113.701 73.0491 115.16 71.5902C117.022 69.728 117.502 67.4035 117.502 66.3853V60.5156C117.502 59.1263 116.375 58 114.986 58H104.924ZM104.085 60.5156C104.085 60.0525 104.461 59.6771 104.924 59.6771H114.986C115.449 59.6771 115.825 60.0525 115.825 60.5156V66.3853C115.825 67.0442 115.466 68.9123 113.974 70.4043C112.708 71.6699 111.169 72.5187 110.216 72.9313C110.076 72.9917 109.905 72.9909 109.741 72.9116C108.634 72.3769 106.954 71.4223 105.936 70.4043C104.718 69.1859 104.085 67.7961 104.085 66.3853V60.5156ZM113.933 64.0106C114.243 63.6663 114.215 63.1361 113.871 62.8263C113.527 62.5165 112.996 62.5444 112.687 62.8887L109.505 66.4244L108.033 64.953C107.706 64.6255 107.175 64.6255 106.847 64.953C106.52 65.2805 106.52 65.8114 106.847 66.1389L108.944 68.2352C109.106 68.3979 109.329 68.4866 109.559 68.4805C109.789 68.4745 110.006 68.3742 110.16 68.2032L113.933 64.0106Z" fill="url(#paint4_linear)"/>
<path d="M81.9 80H86.4V81.04H83.1V87H81.9V80ZM88.4922 87.11C88.1255 87.11 87.7822 87.0533 87.4622 86.94C87.1489 86.82 86.8755 86.6467 86.6422 86.42C86.4089 86.1933 86.2255 85.9133 86.0922 85.58C85.9589 85.24 85.8922 84.8467 85.8922 84.4V84.2C85.8922 83.78 85.9589 83.41 86.0922 83.09C86.2255 82.7633 86.4089 82.49 86.6422 82.27C86.8755 82.0433 87.1489 81.8733 87.4622 81.76C87.7822 81.6467 88.1255 81.59 88.4922 81.59C88.8589 81.59 89.1989 81.6467 89.5122 81.76C89.8322 81.8733 90.1089 82.0433 90.3422 82.27C90.5755 82.49 90.7589 82.7633 90.8922 83.09C91.0255 83.41 91.0922 83.78 91.0922 84.2V84.4C91.0922 84.8467 91.0255 85.24 90.8922 85.58C90.7589 85.9133 90.5755 86.1933 90.3422 86.42C90.1089 86.6467 89.8322 86.82 89.5122 86.94C89.1989 87.0533 88.8589 87.11 88.4922 87.11ZM88.4922 86.15C88.6855 86.15 88.8689 86.1167 89.0422 86.05C89.2222 85.9833 89.3789 85.88 89.5122 85.74C89.6522 85.6 89.7622 85.42 89.8422 85.2C89.9289 84.98 89.9722 84.7133 89.9722 84.4V84.2C89.9722 83.9133 89.9289 83.6667 89.8422 83.46C89.7622 83.2533 89.6522 83.0833 89.5122 82.95C89.3789 82.8167 89.2222 82.7167 89.0422 82.65C88.8689 82.5833 88.6855 82.55 88.4922 82.55C88.2989 82.55 88.1122 82.5833 87.9322 82.65C87.7589 82.7167 87.6022 82.8167 87.4622 82.95C87.3289 83.0833 87.2189 83.2533 87.1322 83.46C87.0522 83.6667 87.0122 83.9133 87.0122 84.2V84.4C87.0122 84.7133 87.0522 84.98 87.1322 85.2C87.2189 85.42 87.3289 85.6 87.4622 85.74C87.6022 85.88 87.7589 85.9833 87.9322 86.05C88.1122 86.1167 88.2989 86.15 88.4922 86.15ZM94.3883 87.11C94.0283 87.11 93.6949 87.0567 93.3883 86.95C93.0883 86.8367 92.8249 86.6667 92.5983 86.44C92.3783 86.2133 92.2049 85.93 92.0783 85.59C91.9516 85.25 91.8883 84.8533 91.8883 84.4V84.2C91.8883 83.7733 91.9549 83.3967 92.0883 83.07C92.2216 82.7433 92.4016 82.47 92.6283 82.25C92.8616 82.03 93.1283 81.8667 93.4283 81.76C93.7349 81.6467 94.0549 81.59 94.3883 81.59C94.7349 81.59 95.0416 81.6367 95.3083 81.73C95.5816 81.8233 95.8116 81.9533 95.9983 82.12C96.1916 82.28 96.3449 82.47 96.4583 82.69C96.5716 82.91 96.6483 83.1467 96.6883 83.4H95.5683C95.5016 83.1533 95.3816 82.95 95.2083 82.79C95.0349 82.63 94.7616 82.55 94.3883 82.55C94.2016 82.55 94.0249 82.5833 93.8583 82.65C93.6916 82.71 93.5449 82.8067 93.4183 82.94C93.2916 83.0733 93.1916 83.2467 93.1183 83.46C93.0449 83.6667 93.0083 83.9133 93.0083 84.2V84.4C93.0083 84.7133 93.0449 84.9833 93.1183 85.21C93.1916 85.43 93.2916 85.61 93.4183 85.75C93.5449 85.89 93.6916 85.9933 93.8583 86.06C94.0249 86.12 94.2016 86.15 94.3883 86.15C95.0083 86.15 95.4016 85.8667 95.5683 85.3H96.6883C96.6349 85.58 96.5416 85.8333 96.4083 86.06C96.2816 86.28 96.1183 86.47 95.9183 86.63C95.7183 86.7833 95.4883 86.9033 95.2283 86.99C94.9683 87.07 94.6883 87.11 94.3883 87.11ZM99.6852 87.11C98.9652 87.11 98.4085 86.9633 98.0152 86.67C97.6285 86.37 97.4185 85.9467 97.3852 85.4H98.5052C98.5385 85.64 98.6452 85.8267 98.8252 85.96C99.0052 86.0867 99.2852 86.15 99.6652 86.15C100.118 86.15 100.432 86.0767 100.605 85.93C100.778 85.7833 100.865 85.6 100.865 85.38C100.865 85.18 100.788 85.0233 100.635 84.91C100.488 84.79 100.228 84.73 99.8552 84.73H98.9852V83.87H99.7852C100.092 83.87 100.315 83.8067 100.455 83.68C100.595 83.5533 100.665 83.3933 100.665 83.2C100.665 83.0267 100.592 82.8767 100.445 82.75C100.298 82.6167 100.045 82.55 99.6852 82.55C99.2985 82.55 99.0285 82.6133 98.8752 82.74C98.7285 82.8667 98.6385 83.0367 98.6052 83.25H97.4852C97.5185 82.7433 97.7218 82.34 98.0952 82.04C98.4752 81.74 99.0052 81.59 99.6852 81.59C100.412 81.59 100.942 81.7333 101.275 82.02C101.615 82.3067 101.785 82.68 101.785 83.14C101.785 83.3933 101.722 83.6167 101.595 83.81C101.475 84.0033 101.275 84.15 100.995 84.25C101.368 84.3433 101.625 84.5 101.765 84.72C101.912 84.94 101.985 85.1933 101.985 85.48C101.985 85.7067 101.938 85.92 101.845 86.12C101.752 86.32 101.608 86.4933 101.415 86.64C101.228 86.7867 100.988 86.9033 100.695 86.99C100.408 87.07 100.072 87.11 99.6852 87.11ZM104.637 87.11C104.35 87.11 104.093 87.07 103.867 86.99C103.647 86.9033 103.46 86.7867 103.307 86.64C103.153 86.4867 103.037 86.31 102.957 86.11C102.877 85.91 102.837 85.69 102.837 85.45C102.837 84.9233 102.993 84.5333 103.307 84.28C103.62 84.02 104.08 83.89 104.687 83.89H106.337V83.6C106.337 83.2 106.247 82.9267 106.067 82.78C105.893 82.6267 105.617 82.55 105.237 82.55C104.897 82.55 104.647 82.6033 104.487 82.71C104.327 82.8167 104.233 82.9633 104.207 83.15H103.137C103.15 82.9233 103.207 82.7167 103.307 82.53C103.413 82.3367 103.557 82.17 103.737 82.03C103.923 81.89 104.147 81.7833 104.407 81.71C104.667 81.63 104.96 81.59 105.287 81.59C105.613 81.59 105.907 81.6267 106.167 81.7C106.433 81.7733 106.66 81.89 106.847 82.05C107.033 82.2033 107.177 82.4033 107.277 82.65C107.383 82.8967 107.437 83.1933 107.437 83.54V85.65C107.437 85.93 107.44 86.1767 107.447 86.39C107.453 86.5967 107.47 86.8 107.497 87H106.497C106.477 86.8467 106.46 86.7167 106.447 86.61C106.44 86.5033 106.437 86.37 106.437 86.21C106.31 86.4567 106.09 86.67 105.777 86.85C105.47 87.0233 105.09 87.11 104.637 87.11ZM104.937 86.15C105.123 86.15 105.3 86.1267 105.467 86.08C105.64 86.0267 105.79 85.9533 105.917 85.86C106.043 85.76 106.143 85.64 106.217 85.5C106.297 85.3533 106.337 85.1867 106.337 85V84.71H104.887C104.607 84.71 104.38 84.77 104.207 84.89C104.04 85.01 103.957 85.1867 103.957 85.42C103.957 85.64 104.033 85.8167 104.187 85.95C104.347 86.0833 104.597 86.15 104.937 86.15ZM108.79 81.7H109.89V83.85H110.49L112.35 81.7H113.59L111.34 84.23L113.69 87H112.35L110.49 84.75H109.89V87H108.79V81.7ZM115.538 89.11C115.438 89.11 115.338 89.1 115.238 89.08V88.12C115.338 88.14 115.438 88.15 115.538 88.15C115.652 88.15 115.745 88.13 115.818 88.09C115.898 88.0567 115.968 87.9933 116.028 87.9C116.095 87.8133 116.158 87.6967 116.218 87.55C116.285 87.4033 116.358 87.22 116.438 87L114.188 81.7H115.388L117.008 85.8L118.468 81.7H119.588L117.538 87C117.392 87.3733 117.255 87.6933 117.128 87.96C117.002 88.2267 116.862 88.4433 116.708 88.61C116.562 88.7833 116.395 88.91 116.208 88.99C116.022 89.07 115.798 89.11 115.538 89.11ZM120.489 81.7H125.089V87H123.989V82.64H121.589V87H120.489V81.7ZM126.485 81.7H127.585V83.85H128.185L130.045 81.7H131.285L129.035 84.23L131.385 87H130.045L128.185 84.75H127.585V87H126.485V81.7ZM132.286 81.7H133.386V85.45L135.936 81.7H136.986V87H135.886V83.25L133.336 87H132.286V81.7Z" fill="white"/>
<path fill-rule="evenodd" clip-rule="evenodd" d="M259.548 4.22425C258.766 4.57952 258.685 4.8982 258.685 4.94627C258.685 4.99433 258.766 5.31302 259.548 5.66829C260.253 5.98901 261.287 6.20943 262.474 6.20943C263.661 6.20943 264.695 5.98901 265.401 5.66829C266.183 5.31302 266.264 4.99433 266.264 4.94627C266.264 4.8982 266.183 4.57952 265.401 4.22425C264.695 3.90353 263.661 3.68311 262.474 3.68311C261.287 3.68311 260.253 3.90353 259.548 4.22425ZM258.851 2.691C259.822 2.24977 261.104 1.9989 262.474 1.9989C263.845 1.9989 265.127 2.24977 266.098 2.691C266.993 3.09768 267.948 3.83163 267.948 4.94627C267.948 6.06091 266.993 6.79486 266.098 7.20154C265.127 7.64277 263.845 7.89364 262.474 7.89364C261.104 7.89364 259.822 7.64277 258.851 7.20154C258.795 7.17635 258.74 7.14991 258.684 7.1222V9.15822C258.684 9.20629 258.766 9.52497 259.547 9.88025C260.253 10.201 261.287 10.4214 262.474 10.4214V10.4926C262.835 10.0188 263.38 9.66819 263.905 9.42991C264.875 8.98868 266.157 8.73781 267.528 8.73781C268.899 8.73781 270.181 8.98868 271.152 9.42991C272.045 9.83621 273 10.5692 273.002 11.682H271.317C271.314 11.6246 271.221 11.3115 270.455 10.9632C269.749 10.6424 268.715 10.422 267.528 10.422C266.341 10.422 265.307 10.6424 264.601 10.9632C263.835 11.3115 263.742 11.6246 263.739 11.682H262.474V11.6852H263.739C263.739 11.7332 263.82 12.0519 264.601 12.4072C265.307 12.7279 266.341 12.9483 267.528 12.9483C268.715 12.9483 269.749 12.7279 270.455 12.4072C271.236 12.0519 271.318 11.7332 271.318 11.6852H273.002V15.0505C273.002 16.1651 272.046 16.899 271.152 17.3057C270.181 17.747 268.899 17.9978 267.528 17.9978C266.157 17.9978 264.875 17.747 263.905 17.3057C263.258 17.0121 262.581 16.5477 262.254 15.8926C260.966 15.8673 259.769 15.6202 258.85 15.2027C257.956 14.796 257 14.062 257 12.9474V9.15822V4.94739H257.001L257.001 4.94627C257.001 3.83163 257.956 3.09768 258.851 2.691ZM258.684 11.3345V12.9474C258.684 12.9955 258.766 13.3141 259.547 13.6694C260.168 13.9517 261.044 14.1564 262.054 14.2013V12.0977C260.843 12.0521 259.721 11.8094 258.85 11.4135C258.795 11.3884 258.74 11.3621 258.684 11.3345ZM271.318 11.6852H263.739L263.739 11.682H271.317L271.318 11.6852ZM263.739 13.8615V15.0505C263.739 15.0985 263.82 15.4172 264.601 15.7725C265.307 16.0932 266.341 16.3136 267.528 16.3136C268.715 16.3136 269.749 16.0932 270.455 15.7725C271.236 15.4172 271.318 15.0985 271.318 15.0505V13.8615C271.262 13.889 271.207 13.9154 271.152 13.9405C270.181 14.3817 268.899 14.6325 267.528 14.6325C266.157 14.6325 264.875 14.3817 263.905 13.9405C263.849 13.9154 263.794 13.889 263.739 13.8615Z" fill="url(#paint5_linear)"/>
<path d="M245.8 30.6306C245.267 30.6306 244.793 30.5573 244.38 30.4106C243.973 30.2573 243.63 30.0439 243.35 29.7706C243.07 29.4906 242.857 29.1606 242.71 28.7806C242.57 28.3939 242.5 27.9673 242.5 27.5006V27.3006C242.5 26.8606 242.57 26.4606 242.71 26.1006C242.857 25.7339 243.07 25.4239 243.35 25.1706C243.63 24.9173 243.973 24.7206 244.38 24.5806C244.793 24.4406 245.267 24.3706 245.8 24.3706V23.7006H247V24.3706C247.527 24.3706 247.993 24.4406 248.4 24.5806C248.813 24.7206 249.16 24.9173 249.44 25.1706C249.72 25.4239 249.933 25.7339 250.08 26.1006C250.227 26.4606 250.3 26.8606 250.3 27.3006V27.5006C250.3 27.9673 250.227 28.3939 250.08 28.7806C249.933 29.1606 249.72 29.4906 249.44 29.7706C249.16 30.0439 248.813 30.2573 248.4 30.4106C247.993 30.5573 247.527 30.6306 247 30.6306V31.3006H245.8V30.6306ZM249.04 27.3006C249.04 26.6939 248.87 26.2306 248.53 25.9106C248.19 25.5906 247.68 25.4306 247 25.4306V29.5706C247.687 29.5706 248.197 29.3906 248.53 29.0306C248.87 28.6706 249.04 28.1606 249.04 27.5006V27.3006ZM243.76 27.5006C243.76 28.1606 243.927 28.6706 244.26 29.0306C244.6 29.3906 245.113 29.5706 245.8 29.5706V25.4306C245.113 25.4306 244.6 25.5906 244.26 25.9106C243.927 26.2306 243.76 26.6939 243.76 27.3006V27.5006ZM251.499 25.7006H252.599V29.4506L255.149 25.7006H256.199V31.0006H255.099V27.2506L252.549 31.0006H251.499V25.7006ZM257.602 25.7006H258.702V27.8306H261.202V25.7006H262.302V31.0006H261.202V28.7706H258.702V31.0006H257.602V25.7006ZM265.256 31.1106C264.969 31.1106 264.713 31.0706 264.486 30.9906C264.266 30.9039 264.079 30.7873 263.926 30.6406C263.773 30.4873 263.656 30.3106 263.576 30.1106C263.496 29.9106 263.456 29.6906 263.456 29.4506C263.456 28.9239 263.613 28.5339 263.926 28.2806C264.239 28.0206 264.699 27.8906 265.306 27.8906H266.956V27.6006C266.956 27.2006 266.866 26.9273 266.686 26.7806C266.513 26.6273 266.236 26.5506 265.856 26.5506C265.516 26.5506 265.266 26.6039 265.106 26.7106C264.946 26.8173 264.853 26.9639 264.826 27.1506H263.756C263.769 26.9239 263.826 26.7173 263.926 26.5306C264.033 26.3373 264.176 26.1706 264.356 26.0306C264.543 25.8906 264.766 25.7839 265.026 25.7106C265.286 25.6306 265.579 25.5906 265.906 25.5906C266.233 25.5906 266.526 25.6273 266.786 25.7006C267.053 25.7739 267.279 25.8906 267.466 26.0506C267.653 26.2039 267.796 26.4039 267.896 26.6506C268.003 26.8973 268.056 27.1939 268.056 27.5406V29.6506C268.056 29.9306 268.059 30.1773 268.066 30.3906C268.073 30.5973 268.089 30.8006 268.116 31.0006H267.116C267.096 30.8473 267.079 30.7173 267.066 30.6106C267.059 30.5039 267.056 30.3706 267.056 30.2106C266.929 30.4573 266.709 30.6706 266.396 30.8506C266.089 31.0239 265.709 31.1106 265.256 31.1106ZM265.556 30.1506C265.743 30.1506 265.919 30.1273 266.086 30.0806C266.259 30.0273 266.409 29.9539 266.536 29.8606C266.663 29.7606 266.763 29.6406 266.836 29.5006C266.916 29.3539 266.956 29.1873 266.956 29.0006V28.7106H265.506C265.226 28.7106 264.999 28.7706 264.826 28.8906C264.659 29.0106 264.576 29.1873 264.576 29.4206C264.576 29.6406 264.653 29.8173 264.806 29.9506C264.966 30.0839 265.216 30.1506 265.556 30.1506ZM269.409 25.7006H270.509V27.8306H273.009V25.7006H274.109V31.0006H273.009V28.7706H270.509V31.0006H269.409V25.7006ZM277.712 31.1106C277.352 31.1106 277.019 31.0573 276.712 30.9506C276.412 30.8373 276.149 30.6673 275.922 30.4406C275.702 30.2139 275.529 29.9306 275.402 29.5906C275.276 29.2506 275.212 28.8539 275.212 28.4006V28.2006C275.212 27.7739 275.279 27.3973 275.412 27.0706C275.546 26.7439 275.726 26.4706 275.952 26.2506C276.186 26.0306 276.452 25.8673 276.752 25.7606C277.059 25.6473 277.379 25.5906 277.712 25.5906C278.059 25.5906 278.366 25.6373 278.632 25.7306C278.906 25.8239 279.136 25.9539 279.322 26.1206C279.516 26.2806 279.669 26.4706 279.782 26.6906C279.896 26.9106 279.972 27.1473 280.012 27.4006H278.892C278.826 27.1539 278.706 26.9506 278.532 26.7906C278.359 26.6306 278.086 26.5506 277.712 26.5506C277.526 26.5506 277.349 26.5839 277.182 26.6506C277.016 26.7106 276.869 26.8073 276.742 26.9406C276.616 27.0739 276.516 27.2473 276.442 27.4606C276.369 27.6673 276.332 27.9139 276.332 28.2006V28.4006C276.332 28.7139 276.369 28.9839 276.442 29.2106C276.516 29.4306 276.616 29.6106 276.742 29.7506C276.869 29.8906 277.016 29.9939 277.182 30.0606C277.349 30.1206 277.526 30.1506 277.712 30.1506C278.332 30.1506 278.726 29.8673 278.892 29.3006H280.012C279.959 29.5806 279.866 29.8339 279.732 30.0606C279.606 30.2806 279.442 30.4706 279.242 30.6306C279.042 30.7839 278.812 30.9039 278.552 30.9906C278.292 31.0706 278.012 31.1106 277.712 31.1106ZM281.059 25.7006H282.159V27.5606H283.159C283.839 27.5606 284.343 27.7073 284.669 28.0006C284.996 28.2873 285.159 28.7139 285.159 29.2806C285.159 29.8139 284.999 30.2339 284.679 30.5406C284.359 30.8473 283.853 31.0006 283.159 31.0006H281.059V25.7006ZM283.059 30.0606C283.426 30.0606 283.683 29.9973 283.829 29.8706C283.983 29.7373 284.059 29.5406 284.059 29.2806C284.059 29.0206 283.983 28.8273 283.829 28.7006C283.683 28.5673 283.426 28.5006 283.059 28.5006H282.159V30.0606H283.059ZM285.859 25.7006H286.959V31.0006H285.859V25.7006Z" fill="white"/>
<path fill-rule="evenodd" clip-rule="evenodd" d="M410.026 328.971C410.026 327.74 411.18 326.588 412.806 326.588C414.432 326.588 415.586 327.74 415.586 328.971H417.175C417.175 326.692 415.128 324.999 412.806 324.999C410.484 324.999 408.438 326.692 408.438 328.971H410.026ZM404.469 331.355C404.469 330.039 405.536 328.972 406.852 328.972H418.766C420.081 328.972 421.148 330.039 421.148 331.355V334.795V340.092C421.148 341.408 420.081 342.475 418.766 342.475H406.852C405.536 342.475 404.469 341.408 404.469 340.092V334.795V331.355ZM419.56 331.355V334.001H413.603V333.736C413.603 333.297 413.247 332.942 412.809 332.942C412.37 332.942 412.014 333.297 412.014 333.736V334.001H406.057V331.355C406.057 330.917 406.413 330.561 406.852 330.561H418.766C419.204 330.561 419.56 330.917 419.56 331.355ZM412.014 335.589H406.057V340.092C406.057 340.531 406.413 340.886 406.852 340.886H418.766C419.204 340.886 419.56 340.531 419.56 340.092V335.589H413.603V336.913C413.603 337.352 413.247 337.707 412.809 337.707C412.37 337.707 412.014 337.352 412.014 336.913V335.589Z" fill="url(#paint6_linear)"/>
<path d="M380.9 347.998H382.14L384.37 352.148L386.6 347.998H387.8V354.998H386.6V350.098L384.75 353.548H383.95L382.1 350.098V354.998H380.9V347.998ZM391.701 355.108C391.348 355.108 391.015 355.055 390.701 354.948C390.388 354.835 390.111 354.668 389.871 354.448C389.638 354.222 389.451 353.938 389.311 353.598C389.171 353.258 389.101 352.858 389.101 352.398V352.198C389.101 351.758 389.168 351.375 389.301 351.048C389.435 350.722 389.615 350.452 389.841 350.238C390.075 350.018 390.341 349.855 390.641 349.748C390.941 349.642 391.261 349.588 391.601 349.588C392.408 349.588 393.025 349.805 393.451 350.238C393.885 350.672 394.101 351.292 394.101 352.098V352.658H390.221C390.228 352.932 390.271 353.165 390.351 353.358C390.438 353.545 390.548 353.698 390.681 353.818C390.821 353.932 390.978 354.015 391.151 354.068C391.331 354.122 391.515 354.148 391.701 354.148C392.081 354.148 392.358 354.088 392.531 353.968C392.711 353.848 392.835 353.692 392.901 353.498H394.001C393.895 354.025 393.631 354.425 393.211 354.698C392.798 354.972 392.295 355.108 391.701 355.108ZM391.651 350.548C391.465 350.548 391.285 350.572 391.111 350.618C390.945 350.665 390.795 350.742 390.661 350.848C390.535 350.948 390.431 351.082 390.351 351.248C390.271 351.408 390.228 351.605 390.221 351.838H393.001C392.995 351.592 392.955 351.385 392.881 351.218C392.815 351.052 392.721 350.918 392.601 350.818C392.481 350.718 392.338 350.648 392.171 350.608C392.011 350.568 391.838 350.548 391.651 350.548ZM395.202 349.698H396.302V351.828H398.802V349.698H399.902V354.998H398.802V352.768H396.302V354.998H395.202V349.698ZM403.605 355.108C403.252 355.108 402.919 355.055 402.605 354.948C402.292 354.835 402.015 354.668 401.775 354.448C401.542 354.222 401.355 353.938 401.215 353.598C401.075 353.258 401.005 352.858 401.005 352.398V352.198C401.005 351.758 401.072 351.375 401.205 351.048C401.339 350.722 401.519 350.452 401.745 350.238C401.979 350.018 402.245 349.855 402.545 349.748C402.845 349.642 403.165 349.588 403.505 349.588C404.312 349.588 404.929 349.805 405.355 350.238C405.789 350.672 406.005 351.292 406.005 352.098V352.658H402.125C402.132 352.932 402.175 353.165 402.255 353.358C402.342 353.545 402.452 353.698 402.585 353.818C402.725 353.932 402.882 354.015 403.055 354.068C403.235 354.122 403.419 354.148 403.605 354.148C403.985 354.148 404.262 354.088 404.435 353.968C404.615 353.848 404.739 353.692 404.805 353.498H405.905C405.799 354.025 405.535 354.425 405.115 354.698C404.702 354.972 404.199 355.108 403.605 355.108ZM403.555 350.548C403.369 350.548 403.189 350.572 403.015 350.618C402.849 350.665 402.699 350.742 402.565 350.848C402.439 350.948 402.335 351.082 402.255 351.248C402.175 351.408 402.132 351.605 402.125 351.838H404.905C404.899 351.592 404.859 351.385 404.785 351.218C404.719 351.052 404.625 350.918 404.505 350.818C404.385 350.718 404.242 350.648 404.075 350.608C403.915 350.568 403.742 350.548 403.555 350.548ZM406.557 354.058H407.157C407.224 353.958 407.284 353.808 407.337 353.608C407.397 353.408 407.447 353.182 407.487 352.928C407.527 352.668 407.557 352.392 407.577 352.098C407.597 351.798 407.607 351.498 407.607 351.198V349.698H411.557V354.058H412.257V356.248H411.237V354.998H407.577V356.248H406.557V354.058ZM410.457 354.058V350.638H408.667V351.398C408.667 351.912 408.637 352.405 408.577 352.878C408.517 353.345 408.417 353.738 408.277 354.058H410.457ZM414.707 352.268L412.907 349.698H414.167L415.607 351.828H416.107V349.698H417.207V351.828H417.707L419.267 349.698H420.407L418.507 352.218L420.507 354.998H419.267L417.707 352.768H417.207V354.998H416.107V352.768H415.607L414.107 354.998H412.807L414.707 352.268ZM421.403 349.698H422.643L424.333 352.798L426.023 349.698H427.203V354.998H426.103V351.348L424.703 353.898H423.903L422.503 351.348V354.998H421.403V349.698ZM430.9 355.108C430.547 355.108 430.214 355.055 429.9 354.948C429.587 354.835 429.31 354.668 429.07 354.448C428.837 354.222 428.65 353.938 428.51 353.598C428.37 353.258 428.3 352.858 428.3 352.398V352.198C428.3 351.758 428.367 351.375 428.5 351.048C428.634 350.722 428.814 350.452 429.04 350.238C429.274 350.018 429.54 349.855 429.84 349.748C430.14 349.642 430.46 349.588 430.8 349.588C431.607 349.588 432.224 349.805 432.65 350.238C433.084 350.672 433.3 351.292 433.3 352.098V352.658H429.42C429.427 352.932 429.47 353.165 429.55 353.358C429.637 353.545 429.747 353.698 429.88 353.818C430.02 353.932 430.177 354.015 430.35 354.068C430.53 354.122 430.714 354.148 430.9 354.148C431.28 354.148 431.557 354.088 431.73 353.968C431.91 353.848 432.034 353.692 432.1 353.498H433.2C433.094 354.025 432.83 354.425 432.41 354.698C431.997 354.972 431.494 355.108 430.9 355.108ZM430.85 350.548C430.664 350.548 430.484 350.572 430.31 350.618C430.144 350.665 429.994 350.742 429.86 350.848C429.734 350.948 429.63 351.082 429.55 351.248C429.47 351.408 429.427 351.605 429.42 351.838H432.2C432.194 351.592 432.154 351.385 432.08 351.218C432.014 351.052 431.92 350.918 431.8 350.818C431.68 350.718 431.537 350.648 431.37 350.608C431.21 350.568 431.037 350.548 430.85 350.548ZM434.401 349.698H435.501V351.828H438.001V349.698H439.101V354.998H438.001V352.768H435.501V354.998H434.401V349.698ZM441.755 350.638H440.005V349.698H444.605V350.638H442.855V354.998H441.755V350.638Z" fill="white"/>
<path fill-rule="evenodd" clip-rule="evenodd" d="M107.76 327.067H117.152C117.584 327.067 117.934 327.418 117.934 327.85V337.241C117.934 337.674 117.584 338.024 117.152 338.024H107.76C107.328 338.024 106.978 337.674 106.978 337.241V327.85C106.978 327.418 107.328 327.067 107.76 327.067ZM105.413 327.849C105.413 326.553 106.464 325.502 107.76 325.502H117.152C118.448 325.502 119.5 326.553 119.5 327.85V337.241C119.5 338.538 118.449 339.589 117.152 339.589V340.37C117.152 342.099 115.751 343.501 114.022 343.501H104.63C102.902 343.501 101.5 342.099 101.5 340.37V330.979C101.5 329.25 102.902 327.849 104.63 327.849H105.413ZM105.413 329.414H104.63C103.766 329.414 103.065 330.115 103.065 330.979V340.37C103.065 341.235 103.766 341.936 104.63 341.936H114.022C114.886 341.936 115.587 341.235 115.587 340.37V339.589H107.76C106.464 339.589 105.413 338.538 105.413 337.241V329.414ZM112.458 329.414C112.025 329.414 111.675 329.764 111.675 330.197C111.675 330.629 112.025 330.979 112.458 330.979C112.89 330.979 113.24 330.629 113.24 330.197C113.24 329.764 112.89 329.414 112.458 329.414ZM110.11 330.197C110.11 328.9 111.161 327.849 112.458 327.849C113.754 327.849 114.805 328.9 114.805 330.197C114.805 331.493 113.754 332.544 112.458 332.544C111.161 332.544 110.11 331.493 110.11 330.197ZM110.109 335.675C110.109 335.674 110.109 335.673 110.109 335.671C110.11 335.669 110.111 335.664 110.114 335.656C110.12 335.641 110.136 335.612 110.17 335.572C110.241 335.487 110.375 335.378 110.593 335.269C111.03 335.05 111.687 334.893 112.457 334.893C113.226 334.893 113.884 335.05 114.32 335.269C114.538 335.378 114.672 335.487 114.744 335.572C114.778 335.612 114.793 335.641 114.799 335.656C114.802 335.664 114.803 335.669 114.804 335.671C114.804 335.673 114.804 335.674 114.804 335.675C114.804 336.108 115.155 336.458 115.587 336.458C116.019 336.458 116.37 336.108 116.37 335.675C116.37 334.787 115.67 334.193 115.02 333.869C114.324 333.52 113.416 333.327 112.457 333.327C111.497 333.327 110.59 333.52 109.893 333.869C109.243 334.193 108.544 334.787 108.544 335.675C108.544 336.108 108.894 336.458 109.326 336.458C109.758 336.458 110.109 336.108 110.109 335.675Z" fill="url(#paint7_linear)"/>
<path d="M86.9 347.998H92.6V354.998H91.4V349.038H88.1V354.998H86.9V347.998ZM96.5 355.108C96.1467 355.108 95.8133 355.055 95.5 354.948C95.1867 354.835 94.91 354.668 94.67 354.448C94.4367 354.222 94.25 353.938 94.11 353.598C93.97 353.258 93.9 352.858 93.9 352.398V352.198C93.9 351.758 93.9667 351.375 94.1 351.048C94.2333 350.722 94.4133 350.452 94.64 350.238C94.8733 350.018 95.14 349.855 95.44 349.748C95.74 349.642 96.06 349.588 96.4 349.588C97.2067 349.588 97.8233 349.805 98.25 350.238C98.6833 350.672 98.9 351.292 98.9 352.098V352.658H95.02C95.0267 352.932 95.07 353.165 95.15 353.358C95.2367 353.545 95.3467 353.698 95.48 353.818C95.62 353.932 95.7767 354.015 95.95 354.068C96.13 354.122 96.3133 354.148 96.5 354.148C96.88 354.148 97.1567 354.088 97.33 353.968C97.51 353.848 97.6333 353.692 97.7 353.498H98.8C98.6933 354.025 98.43 354.425 98.01 354.698C97.5967 354.972 97.0933 355.108 96.5 355.108ZM96.45 350.548C96.2633 350.548 96.0833 350.572 95.91 350.618C95.7433 350.665 95.5933 350.742 95.46 350.848C95.3333 350.948 95.23 351.082 95.15 351.248C95.07 351.408 95.0267 351.605 95.02 351.838H97.8C97.7933 351.592 97.7533 351.385 97.68 351.218C97.6133 351.052 97.52 350.918 97.4 350.818C97.28 350.718 97.1367 350.648 96.97 350.608C96.81 350.568 96.6367 350.548 96.45 350.548ZM100.001 349.698H101.021V350.588C101.181 350.282 101.417 350.038 101.731 349.858C102.051 349.678 102.411 349.588 102.811 349.588C103.504 349.588 104.051 349.805 104.451 350.238C104.851 350.672 105.051 351.325 105.051 352.198V352.398C105.051 352.852 104.997 353.248 104.891 353.588C104.784 353.928 104.631 354.212 104.431 354.438C104.237 354.658 104.004 354.825 103.731 354.938C103.457 355.052 103.151 355.108 102.811 355.108C102.431 355.108 102.084 355.025 101.771 354.858C101.457 354.692 101.234 354.458 101.101 354.158V356.998H100.001V349.698ZM102.551 354.148C102.964 354.148 103.297 354.005 103.551 353.718C103.804 353.432 103.931 352.992 103.931 352.398V352.198C103.931 351.638 103.807 351.225 103.561 350.958C103.314 350.685 102.977 350.548 102.551 350.548C102.364 350.548 102.184 350.578 102.011 350.638C101.837 350.698 101.681 350.788 101.541 350.908C101.407 351.022 101.301 351.168 101.221 351.348C101.141 351.522 101.101 351.722 101.101 351.948V352.648C101.101 352.902 101.141 353.122 101.221 353.308C101.301 353.495 101.407 353.652 101.541 353.778C101.674 353.905 101.827 353.998 102.001 354.058C102.174 354.118 102.357 354.148 102.551 354.148ZM108.353 355.108C107.993 355.108 107.66 355.055 107.353 354.948C107.053 354.835 106.79 354.665 106.563 354.438C106.343 354.212 106.17 353.928 106.043 353.588C105.916 353.248 105.853 352.852 105.853 352.398V352.198C105.853 351.772 105.92 351.395 106.053 351.068C106.186 350.742 106.366 350.468 106.593 350.248C106.826 350.028 107.093 349.865 107.393 349.758C107.7 349.645 108.02 349.588 108.353 349.588C108.7 349.588 109.006 349.635 109.273 349.728C109.546 349.822 109.776 349.952 109.963 350.118C110.156 350.278 110.31 350.468 110.423 350.688C110.536 350.908 110.613 351.145 110.653 351.398H109.533C109.466 351.152 109.346 350.948 109.173 350.788C109 350.628 108.726 350.548 108.353 350.548C108.166 350.548 107.99 350.582 107.823 350.648C107.656 350.708 107.51 350.805 107.383 350.938C107.256 351.072 107.156 351.245 107.083 351.458C107.01 351.665 106.973 351.912 106.973 352.198V352.398C106.973 352.712 107.01 352.982 107.083 353.208C107.156 353.428 107.256 353.608 107.383 353.748C107.51 353.888 107.656 353.992 107.823 354.058C107.99 354.118 108.166 354.148 108.353 354.148C108.973 354.148 109.366 353.865 109.533 353.298H110.653C110.6 353.578 110.506 353.832 110.373 354.058C110.246 354.278 110.083 354.468 109.883 354.628C109.683 354.782 109.453 354.902 109.193 354.988C108.933 355.068 108.653 355.108 108.353 355.108ZM114 355.108C113.633 355.108 113.29 355.052 112.97 354.938C112.657 354.818 112.383 354.645 112.15 354.418C111.917 354.192 111.733 353.912 111.6 353.578C111.467 353.238 111.4 352.845 111.4 352.398V352.198C111.4 351.778 111.467 351.408 111.6 351.088C111.733 350.762 111.917 350.488 112.15 350.268C112.383 350.042 112.657 349.872 112.97 349.758C113.29 349.645 113.633 349.588 114 349.588C114.367 349.588 114.707 349.645 115.02 349.758C115.34 349.872 115.617 350.042 115.85 350.268C116.083 350.488 116.267 350.762 116.4 351.088C116.533 351.408 116.6 351.778 116.6 352.198V352.398C116.6 352.845 116.533 353.238 116.4 353.578C116.267 353.912 116.083 354.192 115.85 354.418C115.617 354.645 115.34 354.818 115.02 354.938C114.707 355.052 114.367 355.108 114 355.108ZM114 354.148C114.193 354.148 114.377 354.115 114.55 354.048C114.73 353.982 114.887 353.878 115.02 353.738C115.16 353.598 115.27 353.418 115.35 353.198C115.437 352.978 115.48 352.712 115.48 352.398V352.198C115.48 351.912 115.437 351.665 115.35 351.458C115.27 351.252 115.16 351.082 115.02 350.948C114.887 350.815 114.73 350.715 114.55 350.648C114.377 350.582 114.193 350.548 114 350.548C113.807 350.548 113.62 350.582 113.44 350.648C113.267 350.715 113.11 350.815 112.97 350.948C112.837 351.082 112.727 351.252 112.64 351.458C112.56 351.665 112.52 351.912 112.52 352.198V352.398C112.52 352.712 112.56 352.978 112.64 353.198C112.727 353.418 112.837 353.598 112.97 353.738C113.11 353.878 113.267 353.982 113.44 354.048C113.62 354.115 113.807 354.148 114 354.148ZM117.696 349.698H118.796V351.828H121.296V349.698H122.396V354.998H121.296V352.768H118.796V354.998H117.696V349.698ZM125.35 355.108C125.063 355.108 124.806 355.068 124.58 354.988C124.36 354.902 124.173 354.785 124.02 354.638C123.866 354.485 123.75 354.308 123.67 354.108C123.59 353.908 123.55 353.688 123.55 353.448C123.55 352.922 123.706 352.532 124.02 352.278C124.333 352.018 124.793 351.888 125.4 351.888H127.05V351.598C127.05 351.198 126.96 350.925 126.78 350.778C126.606 350.625 126.33 350.548 125.95 350.548C125.61 350.548 125.36 350.602 125.2 350.708C125.04 350.815 124.946 350.962 124.92 351.148H123.85C123.863 350.922 123.92 350.715 124.02 350.528C124.126 350.335 124.27 350.168 124.45 350.028C124.636 349.888 124.86 349.782 125.12 349.708C125.38 349.628 125.673 349.588 126 349.588C126.326 349.588 126.62 349.625 126.88 349.698C127.146 349.772 127.373 349.888 127.56 350.048C127.746 350.202 127.89 350.402 127.99 350.648C128.096 350.895 128.15 351.192 128.15 351.538V353.648C128.15 353.928 128.153 354.175 128.16 354.388C128.166 354.595 128.183 354.798 128.21 354.998H127.21C127.19 354.845 127.173 354.715 127.16 354.608C127.153 354.502 127.15 354.368 127.15 354.208C127.023 354.455 126.803 354.668 126.49 354.848C126.183 355.022 125.803 355.108 125.35 355.108ZM125.65 354.148C125.836 354.148 126.013 354.125 126.18 354.078C126.353 354.025 126.503 353.952 126.63 353.858C126.756 353.758 126.856 353.638 126.93 353.498C127.01 353.352 127.05 353.185 127.05 352.998V352.708H125.6C125.32 352.708 125.093 352.768 124.92 352.888C124.753 353.008 124.67 353.185 124.67 353.418C124.67 353.638 124.746 353.815 124.9 353.948C125.06 354.082 125.31 354.148 125.65 354.148ZM129.403 355.108C129.349 355.108 129.289 355.105 129.223 355.098C129.163 355.098 129.106 355.092 129.053 355.078V354.038C129.086 354.045 129.136 354.048 129.203 354.048C129.343 354.048 129.463 354.008 129.563 353.928C129.663 353.842 129.743 353.695 129.803 353.488C129.869 353.275 129.919 352.992 129.953 352.638C129.986 352.285 130.003 351.838 130.003 351.298V349.698H134.003V354.998H132.903V350.638H131.063V351.498C131.063 352.212 131.026 352.802 130.953 353.268C130.886 353.728 130.783 354.095 130.643 354.368C130.503 354.642 130.329 354.835 130.123 354.948C129.916 355.055 129.676 355.108 129.403 355.108Z" fill="white"/>
<path fill-rule="evenodd" clip-rule="evenodd" d="M272.406 384.526C272.755 384.177 272.755 383.611 272.406 383.262C272.057 382.913 271.491 382.913 271.142 383.262L267.268 387.135C266.687 387.716 265.745 387.716 265.164 387.135L262.974 384.946C261.695 383.667 259.621 383.667 258.341 384.946L255.262 388.026C254.913 388.375 254.913 388.941 255.262 389.29C255.611 389.639 256.177 389.639 256.526 389.29L259.606 386.21C260.187 385.629 261.129 385.629 261.71 386.21L263.899 388.4C265.179 389.679 267.253 389.679 268.532 388.4L272.406 384.526ZM272.668 387.864C272.668 387.37 272.268 386.97 271.774 386.97C271.28 386.97 270.88 387.37 270.88 387.864V398.583C270.88 399.076 271.28 399.477 271.774 399.477C272.268 399.477 272.668 399.076 272.668 398.583V387.864ZM268.698 392.628C268.698 392.134 268.298 391.734 267.804 391.734C267.31 391.734 266.91 392.134 266.91 392.628V398.583C266.91 399.076 267.31 399.477 267.804 399.477C268.298 399.477 268.698 399.076 268.698 398.583V392.628ZM261.049 393.072C261.018 392.693 260.992 392.326 260.983 392.018C262.333 392.343 263.337 393.559 263.337 395.009C263.337 396.708 261.96 398.085 260.261 398.085C258.803 398.085 257.582 397.071 257.265 395.709C257.462 395.705 257.685 395.705 257.927 395.705H257.981H257.981C258.253 395.705 258.546 395.705 258.829 395.699C259.542 395.684 260.153 395.372 260.556 394.853C260.948 394.348 261.1 393.706 261.049 393.072ZM256.685 395.751C256.685 395.751 256.687 395.75 256.692 395.749C256.688 395.75 256.685 395.751 256.685 395.751ZM260.261 390.145C259.842 390.145 259.573 390.396 259.446 390.581C259.331 390.747 259.282 390.919 259.258 391.022C259.207 391.239 259.194 391.487 259.191 391.701C259.186 392.148 259.226 392.714 259.266 393.216C259.288 393.481 259.218 393.661 259.143 393.757C259.08 393.838 258.981 393.907 258.792 393.911C258.528 393.917 258.253 393.917 257.976 393.917L257.927 393.917C257.639 393.917 257.346 393.917 257.087 393.925C256.839 393.933 256.569 393.95 256.344 393.995C256.24 394.016 256.07 394.057 255.905 394.152C255.744 394.246 255.397 394.512 255.397 395.009C255.397 397.696 257.575 399.873 260.261 399.873C262.948 399.873 265.125 397.696 265.125 395.009C265.125 392.323 262.948 390.145 260.261 390.145Z" fill="white"/>
<path fill-rule="evenodd" clip-rule="evenodd" d="M272.406 384.526C272.755 384.177 272.755 383.611 272.406 383.262C272.057 382.913 271.491 382.913 271.142 383.262L267.268 387.135C266.687 387.716 265.745 387.716 265.164 387.135L262.974 384.946C261.695 383.667 259.621 383.667 258.341 384.946L255.262 388.026C254.913 388.375 254.913 388.941 255.262 389.29C255.611 389.639 256.177 389.639 256.526 389.29L259.606 386.21C260.187 385.629 261.129 385.629 261.71 386.21L263.899 388.4C265.179 389.679 267.253 389.679 268.532 388.4L272.406 384.526ZM272.668 387.864C272.668 387.37 272.268 386.97 271.774 386.97C271.28 386.97 270.88 387.37 270.88 387.864V398.583C270.88 399.076 271.28 399.477 271.774 399.477C272.268 399.477 272.668 399.076 272.668 398.583V387.864ZM268.698 392.628C268.698 392.134 268.298 391.734 267.804 391.734C267.31 391.734 266.91 392.134 266.91 392.628V398.583C266.91 399.076 267.31 399.477 267.804 399.477C268.298 399.477 268.698 399.076 268.698 398.583V392.628ZM261.049 393.072C261.018 392.693 260.992 392.326 260.983 392.018C262.333 392.343 263.337 393.559 263.337 395.009C263.337 396.708 261.96 398.085 260.261 398.085C258.803 398.085 257.582 397.071 257.265 395.709C257.462 395.705 257.685 395.705 257.927 395.705H257.981H257.981C258.253 395.705 258.546 395.705 258.829 395.699C259.542 395.684 260.153 395.372 260.556 394.853C260.948 394.348 261.1 393.706 261.049 393.072ZM256.685 395.751C256.685 395.751 256.687 395.75 256.692 395.749C256.688 395.75 256.685 395.751 256.685 395.751ZM260.261 390.145C259.842 390.145 259.573 390.396 259.446 390.581C259.331 390.747 259.282 390.919 259.258 391.022C259.207 391.239 259.194 391.487 259.191 391.701C259.186 392.148 259.226 392.714 259.266 393.216C259.288 393.481 259.218 393.661 259.143 393.757C259.08 393.838 258.981 393.907 258.792 393.911C258.528 393.917 258.253 393.917 257.976 393.917L257.927 393.917C257.639 393.917 257.346 393.917 257.087 393.925C256.839 393.933 256.569 393.95 256.344 393.995C256.24 394.016 256.07 394.057 255.905 394.152C255.744 394.246 255.397 394.512 255.397 395.009C255.397 397.696 257.575 399.873 260.261 399.873C262.948 399.873 265.125 397.696 265.125 395.009C265.125 392.323 262.948 390.145 260.261 390.145Z" fill="url(#paint8_linear)"/>
<path d="M206.9 405.001H212.6V412.001H211.4V406.041H208.1V412.001H206.9V405.001ZM214.2 406.701H215.22V407.591C215.38 407.284 215.617 407.041 215.93 406.861C216.25 406.681 216.61 406.591 217.01 406.591C217.703 406.591 218.25 406.808 218.65 407.241C219.05 407.674 219.25 408.328 219.25 409.201V409.401C219.25 409.854 219.197 410.251 219.09 410.591C218.983 410.931 218.83 411.214 218.63 411.441C218.437 411.661 218.203 411.828 217.93 411.941C217.657 412.054 217.35 412.111 217.01 412.111C216.63 412.111 216.283 412.028 215.97 411.861C215.657 411.694 215.433 411.461 215.3 411.161V414.001H214.2V406.701ZM216.75 411.151C217.163 411.151 217.497 411.008 217.75 410.721C218.003 410.434 218.13 409.994 218.13 409.401V409.201C218.13 408.641 218.007 408.228 217.76 407.961C217.513 407.688 217.177 407.551 216.75 407.551C216.563 407.551 216.383 407.581 216.21 407.641C216.037 407.701 215.88 407.791 215.74 407.911C215.607 408.024 215.5 408.171 215.42 408.351C215.34 408.524 215.3 408.724 215.3 408.951V409.651C215.3 409.904 215.34 410.124 215.42 410.311C215.5 410.498 215.607 410.654 215.74 410.781C215.873 410.908 216.027 411.001 216.2 411.061C216.373 411.121 216.557 411.151 216.75 411.151ZM222.652 412.111C222.286 412.111 221.942 412.054 221.622 411.941C221.309 411.821 221.036 411.648 220.802 411.421C220.569 411.194 220.386 410.914 220.252 410.581C220.119 410.241 220.052 409.848 220.052 409.401V409.201C220.052 408.781 220.119 408.411 220.252 408.091C220.386 407.764 220.569 407.491 220.802 407.271C221.036 407.044 221.309 406.874 221.622 406.761C221.942 406.648 222.286 406.591 222.652 406.591C223.019 406.591 223.359 406.648 223.672 406.761C223.992 406.874 224.269 407.044 224.502 407.271C224.736 407.491 224.919 407.764 225.052 408.091C225.186 408.411 225.252 408.781 225.252 409.201V409.401C225.252 409.848 225.186 410.241 225.052 410.581C224.919 410.914 224.736 411.194 224.502 411.421C224.269 411.648 223.992 411.821 223.672 411.941C223.359 412.054 223.019 412.111 222.652 412.111ZM222.652 411.151C222.846 411.151 223.029 411.118 223.202 411.051C223.382 410.984 223.539 410.881 223.672 410.741C223.812 410.601 223.922 410.421 224.002 410.201C224.089 409.981 224.132 409.714 224.132 409.401V409.201C224.132 408.914 224.089 408.668 224.002 408.461C223.922 408.254 223.812 408.084 223.672 407.951C223.539 407.818 223.382 407.718 223.202 407.651C223.029 407.584 222.846 407.551 222.652 407.551C222.459 407.551 222.272 407.584 222.092 407.651C221.919 407.718 221.762 407.818 221.622 407.951C221.489 408.084 221.379 408.254 221.292 408.461C221.212 408.668 221.172 408.914 221.172 409.201V409.401C221.172 409.714 221.212 409.981 221.292 410.201C221.379 410.421 221.489 410.601 221.622 410.741C221.762 410.881 221.919 410.984 222.092 411.051C222.272 411.118 222.459 411.151 222.652 411.151ZM228.648 412.111C228.295 412.111 227.962 412.058 227.648 411.951C227.335 411.838 227.058 411.671 226.818 411.451C226.585 411.224 226.398 410.941 226.258 410.601C226.118 410.261 226.048 409.861 226.048 409.401V409.201C226.048 408.761 226.115 408.378 226.248 408.051C226.382 407.724 226.562 407.454 226.788 407.241C227.022 407.021 227.288 406.858 227.588 406.751C227.888 406.644 228.208 406.591 228.548 406.591C229.355 406.591 229.972 406.808 230.398 407.241C230.832 407.674 231.048 408.294 231.048 409.101V409.661H227.168C227.175 409.934 227.218 410.168 227.298 410.361C227.385 410.548 227.495 410.701 227.628 410.821C227.768 410.934 227.925 411.018 228.098 411.071C228.278 411.124 228.462 411.151 228.648 411.151C229.028 411.151 229.305 411.091 229.478 410.971C229.658 410.851 229.782 410.694 229.848 410.501H230.948C230.842 411.028 230.578 411.428 230.158 411.701C229.745 411.974 229.242 412.111 228.648 412.111ZM228.598 407.551C228.412 407.551 228.232 407.574 228.058 407.621C227.892 407.668 227.742 407.744 227.608 407.851C227.482 407.951 227.378 408.084 227.298 408.251C227.218 408.411 227.175 408.608 227.168 408.841H229.948C229.942 408.594 229.902 408.388 229.828 408.221C229.762 408.054 229.668 407.921 229.548 407.821C229.428 407.721 229.285 407.651 229.118 407.611C228.958 407.571 228.785 407.551 228.598 407.551ZM232.149 406.701H233.249V408.851H233.849L235.709 406.701H236.949L234.699 409.231L237.049 412.001H235.709L233.849 409.751H233.249V412.001H232.149V406.701ZM239.2 407.641H237.45V406.701H242.05V407.641H240.3V412.001H239.2V407.641ZM242.95 406.701H244.05V408.831H246.55V406.701H247.65V412.001H246.55V409.771H244.05V412.001H242.95V406.701ZM251.354 412.111C250.987 412.111 250.644 412.054 250.324 411.941C250.01 411.821 249.737 411.648 249.504 411.421C249.27 411.194 249.087 410.914 248.954 410.581C248.82 410.241 248.754 409.848 248.754 409.401V409.201C248.754 408.781 248.82 408.411 248.954 408.091C249.087 407.764 249.27 407.491 249.504 407.271C249.737 407.044 250.01 406.874 250.324 406.761C250.644 406.648 250.987 406.591 251.354 406.591C251.72 406.591 252.06 406.648 252.374 406.761C252.694 406.874 252.97 407.044 253.204 407.271C253.437 407.491 253.62 407.764 253.754 408.091C253.887 408.411 253.954 408.781 253.954 409.201V409.401C253.954 409.848 253.887 410.241 253.754 410.581C253.62 410.914 253.437 411.194 253.204 411.421C252.97 411.648 252.694 411.821 252.374 411.941C252.06 412.054 251.72 412.111 251.354 412.111ZM251.354 411.151C251.547 411.151 251.73 411.118 251.904 411.051C252.084 410.984 252.24 410.881 252.374 410.741C252.514 410.601 252.624 410.421 252.704 410.201C252.79 409.981 252.834 409.714 252.834 409.401V409.201C252.834 408.914 252.79 408.668 252.704 408.461C252.624 408.254 252.514 408.084 252.374 407.951C252.24 407.818 252.084 407.718 251.904 407.651C251.73 407.584 251.547 407.551 251.354 407.551C251.16 407.551 250.974 407.584 250.794 407.651C250.62 407.718 250.464 407.818 250.324 407.951C250.19 408.084 250.08 408.254 249.994 408.461C249.914 408.668 249.874 408.914 249.874 409.201V409.401C249.874 409.714 249.914 409.981 249.994 410.201C250.08 410.421 250.19 410.601 250.324 410.741C250.464 410.881 250.62 410.984 250.794 411.051C250.974 411.118 251.16 411.151 251.354 411.151ZM257.35 412.111C256.996 412.111 256.663 412.058 256.35 411.951C256.036 411.838 255.76 411.671 255.52 411.451C255.286 411.224 255.1 410.941 254.96 410.601C254.82 410.261 254.75 409.861 254.75 409.401V409.201C254.75 408.761 254.816 408.378 254.95 408.051C255.083 407.724 255.263 407.454 255.49 407.241C255.723 407.021 255.99 406.858 256.29 406.751C256.59 406.644 256.91 406.591 257.25 406.591C258.056 406.591 258.673 406.808 259.1 407.241C259.533 407.674 259.75 408.294 259.75 409.101V409.661H255.87C255.876 409.934 255.92 410.168 256 410.361C256.086 410.548 256.196 410.701 256.33 410.821C256.47 410.934 256.626 411.018 256.8 411.071C256.98 411.124 257.163 411.151 257.35 411.151C257.73 411.151 258.006 411.091 258.18 410.971C258.36 410.851 258.483 410.694 258.55 410.501H259.65C259.543 411.028 259.28 411.428 258.86 411.701C258.446 411.974 257.943 412.111 257.35 412.111ZM257.3 407.551C257.113 407.551 256.933 407.574 256.76 407.621C256.593 407.668 256.443 407.744 256.31 407.851C256.183 407.951 256.08 408.084 256 408.251C255.92 408.411 255.876 408.608 255.87 408.841H258.65C258.643 408.594 258.603 408.388 258.53 408.221C258.463 408.054 258.37 407.921 258.25 407.821C258.13 407.721 257.986 407.651 257.82 407.611C257.66 407.571 257.486 407.551 257.3 407.551ZM264.2 414.111C264.1 414.111 264 414.101 263.9 414.081V413.121C264 413.141 264.1 413.151 264.2 413.151C264.314 413.151 264.407 413.131 264.48 413.091C264.56 413.058 264.63 412.994 264.69 412.901C264.757 412.814 264.82 412.698 264.88 412.551C264.947 412.404 265.02 412.221 265.1 412.001L262.85 406.701H264.05L265.67 410.801L267.13 406.701H268.25L266.2 412.001C266.054 412.374 265.917 412.694 265.79 412.961C265.664 413.228 265.524 413.444 265.37 413.611C265.224 413.784 265.057 413.911 264.87 413.991C264.684 414.071 264.46 414.111 264.2 414.111ZM269.151 406.701H273.751V412.001H272.651V407.641H270.251V412.001H269.151V406.701ZM275.147 406.701H276.167V407.591C276.327 407.284 276.564 407.041 276.877 406.861C277.197 406.681 277.557 406.591 277.957 406.591C278.651 406.591 279.197 406.808 279.597 407.241C279.997 407.674 280.197 408.328 280.197 409.201V409.401C280.197 409.854 280.144 410.251 280.037 410.591C279.931 410.931 279.777 411.214 279.577 411.441C279.384 411.661 279.151 411.828 278.877 411.941C278.604 412.054 278.297 412.111 277.957 412.111C277.577 412.111 277.231 412.028 276.917 411.861C276.604 411.694 276.381 411.461 276.247 411.161V414.001H275.147V406.701ZM277.697 411.151C278.111 411.151 278.444 411.008 278.697 410.721C278.951 410.434 279.077 409.994 279.077 409.401V409.201C279.077 408.641 278.954 408.228 278.707 407.961C278.461 407.688 278.124 407.551 277.697 407.551C277.511 407.551 277.331 407.581 277.157 407.641C276.984 407.701 276.827 407.791 276.687 407.911C276.554 408.024 276.447 408.171 276.367 408.351C276.287 408.524 276.247 408.724 276.247 408.951V409.651C276.247 409.904 276.287 410.124 276.367 410.311C276.447 410.498 276.554 410.654 276.687 410.781C276.821 410.908 276.974 411.001 277.147 411.061C277.321 411.121 277.504 411.151 277.697 411.151ZM282.85 412.111C282.563 412.111 282.306 412.071 282.08 411.991C281.86 411.904 281.673 411.788 281.52 411.641C281.366 411.488 281.25 411.311 281.17 411.111C281.09 410.911 281.05 410.691 281.05 410.451C281.05 409.924 281.206 409.534 281.52 409.281C281.833 409.021 282.293 408.891 282.9 408.891H284.55V408.601C284.55 408.201 284.46 407.928 284.28 407.781C284.106 407.628 283.83 407.551 283.45 407.551C283.11 407.551 282.86 407.604 282.7 407.711C282.54 407.818 282.446 407.964 282.42 408.151H281.35C281.363 407.924 281.42 407.718 281.52 407.531C281.626 407.338 281.77 407.171 281.95 407.031C282.136 406.891 282.36 406.784 282.62 406.711C282.88 406.631 283.173 406.591 283.5 406.591C283.826 406.591 284.12 406.628 284.38 406.701C284.646 406.774 284.873 406.891 285.06 407.051C285.246 407.204 285.39 407.404 285.49 407.651C285.596 407.898 285.65 408.194 285.65 408.541V410.651C285.65 410.931 285.653 411.178 285.66 411.391C285.666 411.598 285.683 411.801 285.71 412.001H284.71C284.69 411.848 284.673 411.718 284.66 411.611C284.653 411.504 284.65 411.371 284.65 411.211C284.523 411.458 284.303 411.671 283.99 411.851C283.683 412.024 283.303 412.111 282.85 412.111ZM283.15 411.151C283.336 411.151 283.513 411.128 283.68 411.081C283.853 411.028 284.003 410.954 284.13 410.861C284.256 410.761 284.356 410.641 284.43 410.501C284.51 410.354 284.55 410.188 284.55 410.001V409.711H283.1C282.82 409.711 282.593 409.771 282.42 409.891C282.253 410.011 282.17 410.188 282.17 410.421C282.17 410.641 282.246 410.818 282.4 410.951C282.56 411.084 282.81 411.151 283.15 411.151ZM287.003 406.701H289.503C290.169 406.701 290.653 406.838 290.953 407.111C291.253 407.378 291.403 407.721 291.403 408.141C291.403 408.374 291.333 408.601 291.193 408.821C291.053 409.034 290.856 409.178 290.603 409.251C290.929 409.331 291.176 409.484 291.343 409.711C291.516 409.931 291.603 410.191 291.603 410.491C291.603 410.951 291.449 411.318 291.143 411.591C290.836 411.864 290.356 412.001 289.703 412.001H287.003V406.701ZM289.553 411.061C289.913 411.061 290.159 411.004 290.293 410.891C290.433 410.771 290.503 410.604 290.503 410.391C290.503 410.178 290.433 410.018 290.293 409.911C290.159 409.798 289.913 409.741 289.553 409.741H288.103V411.061H289.553ZM289.403 408.881C289.736 408.881 289.969 408.828 290.103 408.721C290.236 408.608 290.303 408.454 290.303 408.261C290.303 408.068 290.236 407.918 290.103 407.811C289.969 407.698 289.736 407.641 289.403 407.641H288.103V408.881H289.403ZM292.606 412.111C292.553 412.111 292.493 412.108 292.426 412.101C292.366 412.101 292.309 412.094 292.256 412.081V411.041C292.289 411.048 292.339 411.051 292.406 411.051C292.546 411.051 292.666 411.011 292.766 410.931C292.866 410.844 292.946 410.698 293.006 410.491C293.073 410.278 293.123 409.994 293.156 409.641C293.189 409.288 293.206 408.841 293.206 408.301V406.701H297.206V412.001H296.106V407.641H294.266V408.501C294.266 409.214 294.229 409.804 294.156 410.271C294.089 410.731 293.986 411.098 293.846 411.371C293.706 411.644 293.533 411.838 293.326 411.951C293.119 412.058 292.879 412.111 292.606 412.111ZM300.904 412.111C300.551 412.111 300.218 412.058 299.904 411.951C299.591 411.838 299.314 411.671 299.074 411.451C298.841 411.224 298.654 410.941 298.514 410.601C298.374 410.261 298.304 409.861 298.304 409.401V409.201C298.304 408.761 298.371 408.378 298.504 408.051C298.638 407.724 298.818 407.454 299.044 407.241C299.278 407.021 299.544 406.858 299.844 406.751C300.144 406.644 300.464 406.591 300.804 406.591C301.611 406.591 302.228 406.808 302.654 407.241C303.088 407.674 303.304 408.294 303.304 409.101V409.661H299.424C299.431 409.934 299.474 410.168 299.554 410.361C299.641 410.548 299.751 410.701 299.884 410.821C300.024 410.934 300.181 411.018 300.354 411.071C300.534 411.124 300.718 411.151 300.904 411.151C301.284 411.151 301.561 411.091 301.734 410.971C301.914 410.851 302.038 410.694 302.104 410.501H303.204C303.098 411.028 302.834 411.428 302.414 411.701C302.001 411.974 301.498 412.111 300.904 412.111ZM300.854 407.551C300.668 407.551 300.488 407.574 300.314 407.621C300.148 407.668 299.998 407.744 299.864 407.851C299.738 407.951 299.634 408.084 299.554 408.251C299.474 408.411 299.431 408.608 299.424 408.841H302.204C302.198 408.594 302.158 408.388 302.084 408.221C302.018 408.054 301.924 407.921 301.804 407.821C301.684 407.721 301.541 407.651 301.374 407.611C301.214 407.571 301.041 407.551 300.854 407.551ZM304.405 406.701H305.505V408.831H308.005V406.701H309.105V412.001H308.005V409.771H305.505V412.001H304.405V406.701ZM310.509 406.701H311.609V410.451L314.159 406.701H315.209V412.001H314.109V408.251L311.559 412.001H310.509V406.701ZM318.912 412.111C318.559 412.111 318.225 412.058 317.912 411.951C317.599 411.838 317.322 411.671 317.082 411.451C316.849 411.224 316.662 410.941 316.522 410.601C316.382 410.261 316.312 409.861 316.312 409.401V409.201C316.312 408.761 316.379 408.378 316.512 408.051C316.645 407.724 316.825 407.454 317.052 407.241C317.285 407.021 317.552 406.858 317.852 406.751C318.152 406.644 318.472 406.591 318.812 406.591C319.619 406.591 320.235 406.808 320.662 407.241C321.095 407.674 321.312 408.294 321.312 409.101V409.661H317.432C317.439 409.934 317.482 410.168 317.562 410.361C317.649 410.548 317.759 410.701 317.892 410.821C318.032 410.934 318.189 411.018 318.362 411.071C318.542 411.124 318.725 411.151 318.912 411.151C319.292 411.151 319.569 411.091 319.742 410.971C319.922 410.851 320.045 410.694 320.112 410.501H321.212C321.105 411.028 320.842 411.428 320.422 411.701C320.009 411.974 319.505 412.111 318.912 412.111ZM318.862 407.551C318.675 407.551 318.495 407.574 318.322 407.621C318.155 407.668 318.005 407.744 317.872 407.851C317.745 407.951 317.642 408.084 317.562 408.251C317.482 408.411 317.439 408.608 317.432 408.841H320.212C320.205 408.594 320.165 408.388 320.092 408.221C320.025 408.054 319.932 407.921 319.812 407.821C319.692 407.721 319.549 407.651 319.382 407.611C319.222 407.571 319.049 407.551 318.862 407.551Z" fill="white"/>
<g filter="url(#filter0_d)">
<path d="M267 206.5C267 208.433 265.433 210 263.5 210C261.567 210 260 208.433 260 206.5C260 204.567 261.567 203 263.5 203C265.433 203 267 204.567 267 206.5Z" fill="white"/>
<path d="M263.5 211C265.985 211 268 208.986 268 206.5C268 204.015 265.985 202 263.5 202C261.015 202 259 204.015 259 206.5C259 208.986 261.015 211 263.5 211Z" stroke="url(#paint9_linear)" stroke-width="2"/>
</g>
<defs>
<filter id="filter0_d" x="253.143" y="198.572" width="20.7135" height="20.7135" filterUnits="userSpaceOnUse" color-interpolation-filters="sRGB">
<feFlood flood-opacity="0" result="BackgroundImageFix"/>
<feColorMatrix in="SourceAlpha" type="matrix" values="0 0 0 0 0 0 0 0 0 0 0 0 0 0 0 0 0 0 127 0" result="hardAlpha"/>
<feOffset dy="2.42838"/>
<feGaussianBlur stdDeviation="2.42838"/>
<feComposite in2="hardAlpha" operator="out"/>
<feColorMatrix type="matrix" values="0 0 0 0 0 0 0 0 0 0 0 0 0 0 0 0 0 0 0.1 0"/>
<feBlend mode="normal" in2="BackgroundImageFix" result="effect1_dropShadow"/>
<feBlend mode="normal" in="SourceGraphic" in2="effect1_dropShadow" result="shape"/>
</filter>
<radialGradient id="paint0_radial" cx="0" cy="0" r="1" gradientUnits="userSpaceOnUse" gradientTransform="translate(283.5 200.498) rotate(90) scale(126 123.5)">
<stop stop-color="#9D87F1"/>
<stop offset="1" stop-color="#660FDA"/>
</radialGradient>
<linearGradient id="paint1_linear" x1="470.044" y1="187.609" x2="470.044" y2="205.296" gradientUnits="userSpaceOnUse">
<stop stop-color="#9D87F1"/>
<stop offset="1" stop-color="#975FE1"/>
</linearGradient>
<linearGradient id="paint2_linear" x1="53.102" y1="187.55" x2="53.102" y2="202.75" gradientUnits="userSpaceOnUse">
<stop stop-color="#9D87F1"/>
<stop offset="1" stop-color="#975FE1"/>
</linearGradient>
<linearGradient id="paint3_linear" x1="417.545" y1="64.649" x2="417.545" y2="71.7252" gradientUnits="userSpaceOnUse">
<stop stop-color="#9D87F1"/>
<stop offset="1" stop-color="#975FE1"/>
</linearGradient>
<linearGradient id="paint4_linear" x1="110.191" y1="58.8385" x2="110.191" y2="73.0936" gradientUnits="userSpaceOnUse">
<stop stop-color="#9D87F1"/>
<stop offset="1" stop-color="#975FE1"/>
</linearGradient>
<linearGradient id="paint5_linear" x1="260.158" y1="3.26197" x2="260.158" y2="17.1558" gradientUnits="userSpaceOnUse">
<stop stop-color="#9D87F1"/>
<stop offset="1" stop-color="#975FE1"/>
</linearGradient>
<linearGradient id="paint6_linear" x1="412.806" y1="325.794" x2="412.806" y2="342.417" gradientUnits="userSpaceOnUse">
<stop stop-color="#9D87F1"/>
<stop offset="1" stop-color="#975FE1"/>
</linearGradient>
<linearGradient id="paint7_linear" x1="112.456" y1="325.893" x2="112.456" y2="343.11" gradientUnits="userSpaceOnUse">
<stop stop-color="#9D87F1"/>
<stop offset="1" stop-color="#975FE1"/>
</linearGradient>
<linearGradient id="paint8_linear" x1="260.262" y1="391.039" x2="260.262" y2="398.979" gradientUnits="userSpaceOnUse">
<stop stop-color="#9D87F1"/>
<stop offset="1" stop-color="#975FE1"/>
</linearGradient>
<linearGradient id="paint9_linear" x1="263.5" y1="203" x2="263.5" y2="210" gradientUnits="userSpaceOnUse">
<stop stop-color="#9352BE"/>
<stop offset="1" stop-color="#5D50B0"/>
</linearGradient>
</defs>
</svg>
