<svg width="144" height="170" viewBox="0 0 144 170" fill="none" xmlns="http://www.w3.org/2000/svg">
<circle cx="71.1521" cy="59.1267" r="34.6745" stroke="#7E6CC1" stroke-width="4"/>
<path fill-rule="evenodd" clip-rule="evenodd" d="M107.135 61.8018C107.172 61.1264 107.191 60.4461 107.191 59.7614C107.191 58.9269 107.163 58.0989 107.108 57.2784H107.108C107.163 58.099 107.191 58.927 107.191 59.7616C107.191 60.4462 107.172 61.1265 107.135 61.8018H107.135ZM103.736 75.3216C103.087 76.7042 102.354 78.0398 101.545 79.3216H101.545C102.355 78.0398 103.087 76.7042 103.736 75.3216H103.736ZM82.6063 94.3964C81.3176 94.8462 79.9962 95.2261 78.6464 95.5316L78.6465 95.5318C79.9962 95.2263 81.3176 94.8464 82.6063 94.3966L82.6063 94.3964ZM67.2077 96.2887C65.8588 96.1681 64.531 95.9745 63.2282 95.7118L63.2282 95.7119C64.531 95.9746 65.8588 96.1682 67.2076 96.2889L67.2077 96.2887ZM106.135 50.9907H106.135C105.801 49.6258 105.389 48.2908 104.906 46.9907H104.906C105.389 48.2908 105.8 49.6258 106.135 50.9907ZM112.191 59.7616C112.191 60.4431 112.175 61.1208 112.142 61.7943C124.023 61.7765 135.054 61.7613 139.308 61.7613C142.31 61.7613 144.879 63.9174 146.801 67.3282C148.268 69.9306 149.148 72.9259 149.446 75.3216H144.898H109.189C108.637 76.6926 108.014 78.0274 107.325 79.3216H108.497L109.204 93.2126L109.3 95.111H111.201H118.983H121.087L120.98 93.0094L120.284 79.3216H142.985L144.769 119.548H83.5588L82.8032 99.5953C81.5075 99.9945 80.1848 100.332 78.8386 100.605L79.4375 116.421C77.1544 115.153 74.4068 114.686 71.9931 114.773C70.0275 114.844 68.0511 115.274 66.3821 116.084L66.9991 101.29C65.6527 101.177 64.3245 101.001 63.0176 100.763L62.1543 121.465L66.1341 121.819C66.2198 121.193 66.6714 120.491 67.7801 119.865C68.8851 119.242 70.4356 118.832 72.137 118.771C75.6961 118.643 78.7794 119.999 79.7919 122.341L80.3134 123.548H81.6277H146.86H148.95L148.858 121.459L146.988 79.3216H151.557H153.508L153.557 77.371C153.639 74.0492 152.507 69.3058 150.286 65.3646C148.085 61.4586 144.457 57.7613 139.308 57.7613C136.602 57.7613 131.158 57.7674 124.498 57.7765V57.2784V50.9907V46.9907H120.498H110.198C110.618 48.2971 110.975 49.6316 111.266 50.9907H120.498V57.2784H112.118C112.166 58.0999 112.191 58.9279 112.191 59.7616ZM112.502 79.3216H116.279L116.878 91.111H113.102L112.502 79.3216Z" fill="#7E6CC1"/>
<path fill-rule="evenodd" clip-rule="evenodd" d="M105.724 56.7197C96.1718 56.7341 87.6739 56.7464 81.1982 56.7547C83.2264 58.4786 84.903 60.7076 86.2929 63.349C89.4379 69.3257 91.2416 77.6628 92.2785 87.8563C91.0775 88.767 89.8148 89.5996 88.4981 90.3467C87.8829 83.4685 86.9617 77.6059 85.6346 72.7938L80.437 72.8695L81.9374 93.1999C80.6554 93.6022 79.3408 93.9303 77.9988 94.1792L76.6738 76.2261C74.1521 78.7718 70.8171 80.037 67.385 80.1001C63.6169 80.1694 59.7447 78.7965 56.6855 76.1713C56.6215 77.0523 56.5676 77.9264 56.5174 78.785L56.0137 90.8648C54.6564 90.1508 53.3528 89.3475 52.1104 88.4627L52.5216 78.6017L52.5223 78.585L52.5232 78.5684C52.8123 73.6181 53.2384 67.2777 55.4476 62.1726C56.5701 59.5785 58.1934 57.1986 60.5809 55.4728C62.9864 53.7339 66.0209 52.7657 69.7686 52.7657C74.1564 52.7657 87.8446 52.7466 105.07 52.7207C105.363 54.0271 105.583 55.3616 105.724 56.7197ZM69.7686 56.7657C66.7423 56.7657 64.5566 57.5345 62.9243 58.7145C61.2739 59.9075 60.0416 61.6282 59.1186 63.7611C58.1925 65.9013 57.6194 68.3492 57.2409 70.8882C59.6925 74.3406 63.6188 76.1687 67.3115 76.1008C71.1536 76.0302 74.7647 73.9225 76.3079 69.2196L76.7216 69.2702L76.7166 68.9232L84.3522 68.8121C83.8623 67.509 83.3303 66.3085 82.7531 65.2117C81.2356 62.3279 79.4461 60.2395 77.3616 58.8664C75.2921 57.5033 72.8123 56.7657 69.7686 56.7657Z" fill="#7E6CC1"/>
<rect x="40.417" y="79.6234" width="10.2888" height="40.0144" transform="rotate(47.6911 40.417 79.6234)" stroke="#7E6CC1" stroke-width="4"/>
</svg>
