<svg width="144" height="170" viewBox="0 0 144 170" fill="none" xmlns="http://www.w3.org/2000/svg">
<path fill-rule="evenodd" clip-rule="evenodd" d="M87.0904 126.204C86.2691 127.122 85.4506 127.994 84.6372 128.82C80.6325 132.883 76.9063 135.646 73.7179 137.103C70.5192 138.565 68.3381 138.519 66.8938 137.867C65.4495 137.214 63.9727 135.609 62.9541 132.243C61.9388 128.887 61.5473 124.265 61.9477 118.574C62.7461 107.224 66.628 92.5068 73.532 77.2176C80.436 61.9284 88.9095 49.2845 96.8956 41.1805C100.9 37.1166 104.626 34.354 107.815 32.8969C111.014 31.4352 113.195 31.4812 114.639 32.1334C116.083 32.7856 117.56 34.3914 118.579 37.7575C119.594 41.1128 119.986 45.7348 119.585 51.4262C119.454 53.2854 119.241 55.235 118.945 57.2626C120.284 57.4132 121.608 57.5779 122.915 57.7564C125.092 42.7497 122.986 31.5137 116.285 28.4879C104.753 23.2806 83.9801 44.3606 69.8864 75.5714C55.7928 106.782 53.7159 136.305 65.2476 141.512C71.5375 144.352 80.5769 139.372 89.7821 129.193C88.8826 128.223 87.985 127.226 87.0904 126.204Z" fill="#7E6CC1"/>
<path fill-rule="evenodd" clip-rule="evenodd" d="M83.2351 44.8262C82.1672 43.8455 81.1091 42.925 80.0646 42.0675C75.655 38.4471 71.6591 36.0913 68.3352 34.9775C65.0006 33.8601 62.8364 34.1351 61.4686 34.9354C60.1009 35.7358 58.8011 37.4879 58.1419 40.9424C57.4848 44.3859 57.5813 49.0235 58.5777 54.6413C60.5646 65.8442 65.9718 80.072 74.4446 94.5508C82.9173 109.03 92.6728 120.713 101.467 127.933C105.876 131.553 109.872 133.909 113.196 135.023C116.531 136.14 118.695 135.865 120.063 135.065C121.43 134.264 122.73 132.512 123.389 129.058C124.046 125.614 123.95 120.977 122.953 115.359C121.796 108.831 119.477 101.276 116.066 93.2424C116.803 91.544 117.512 89.8429 118.191 88.1428C129.115 112.11 131.174 133.197 122.083 138.517C111.162 144.908 88.2883 126.128 70.9923 96.5711C53.6963 67.0145 48.5279 37.8736 59.4484 31.4831C65.4961 27.9441 75.2097 32.1245 85.6117 41.5795C84.8156 42.6334 84.023 43.7162 83.2351 44.8262Z" fill="#7E6CC1"/>
<path fill-rule="evenodd" clip-rule="evenodd" d="M56.8533 102.015C52.6983 101.208 48.8693 100.227 45.4379 99.0974C39.5789 97.1692 35.091 94.8792 32.1194 92.4663C29.1391 90.0462 28.0692 87.8434 28.0034 86.0152C27.9376 84.187 28.8464 81.9129 31.645 79.2848C34.4353 76.6644 38.7469 74.0577 44.4522 71.7132C55.8319 67.0368 71.9336 63.7381 90.0222 63.0869C108.111 62.4358 124.408 64.5683 136.094 68.4144C141.953 70.3426 146.441 72.6326 149.413 75.0455C152.393 77.4656 153.463 79.6684 153.529 81.4966C153.595 83.3248 152.686 85.5989 149.887 88.227C147.097 90.8473 142.785 93.4541 137.08 95.7986C133.956 97.0826 130.475 98.2628 126.695 99.3128C127.141 100.593 127.562 101.86 127.957 103.114C146.05 98.0543 157.838 90.0069 157.526 81.3527C157.036 67.7299 126.749 57.7623 89.8783 59.0895C53.0077 60.4167 23.5156 72.5362 24.006 86.1591C24.3226 94.9542 37.0591 102.226 55.9687 105.918C56.2398 104.632 56.5348 103.33 56.8533 102.015Z" fill="#7E6CC1"/>
<path d="M102.229 85.1769C102.229 91.4345 97.1564 96.5073 90.8988 96.5073C84.6412 96.5073 79.5684 91.4345 79.5684 85.1769C79.5684 78.9192 84.6412 73.8464 90.8988 73.8464C97.1564 73.8464 102.229 78.9192 102.229 85.1769Z" stroke="#7E6CC1" stroke-width="4"/>
<path d="M110.516 62.9768C110.516 65.7382 108.277 67.9768 105.516 67.9768C102.754 67.9768 100.516 65.7382 100.516 62.9768C100.516 60.2154 102.754 57.9768 105.516 57.9768C108.277 57.9768 110.516 60.2154 110.516 62.9768Z" fill="#F9F9F9" stroke="#7E6CC1" stroke-width="4"/>
<path d="M65.4463 129.629C65.4463 132.39 63.2077 134.629 60.4463 134.629C57.6849 134.629 55.4463 132.39 55.4463 129.629C55.4463 126.867 57.6849 124.629 60.4463 124.629C63.2077 124.629 65.4463 126.867 65.4463 129.629Z" fill="#F9F9F9" stroke="#7E6CC1" stroke-width="4"/>
<path d="M61.0029 48.377C61.0029 51.1384 58.7644 53.377 56.0029 53.377C53.2415 53.377 51.0029 51.1384 51.0029 48.377C51.0029 45.6155 53.2415 43.377 56.0029 43.377C58.7644 43.377 61.0029 45.6155 61.0029 48.377Z" fill="#F9F9F9" stroke="#7E6CC1" stroke-width="4"/>
</svg>
