<svg width="144" height="170" viewBox="0 0 144 170" fill="none" xmlns="http://www.w3.org/2000/svg">
<path d="M38.9575 119.54C34.7901 123.512 30.3749 126.295 26.673 127.631C24.8192 128.301 23.236 128.574 22.001 128.519C20.7796 128.465 20.0283 128.103 19.575 127.627C19.1217 127.152 18.796 126.384 18.8007 125.161C18.8054 123.925 19.1548 122.357 19.9125 120.537C21.4255 116.904 24.4172 112.628 28.5846 108.656C32.752 104.684 37.1672 101.902 40.8691 100.565C42.7228 99.8959 44.3061 99.6223 45.5411 99.677C46.7625 99.7311 47.5138 100.093 47.9671 100.569C48.4204 101.045 48.7461 101.813 48.7414 103.035C48.7367 104.271 48.3873 105.84 47.6296 107.659C46.1166 111.292 43.1249 115.569 38.9575 119.54Z" stroke="#7E6CC1" stroke-width="4"/>
<path fill-rule="evenodd" clip-rule="evenodd" d="M50.9228 107.829C50.9331 107.837 50.9401 107.844 50.9448 107.849C50.9627 107.868 51.0084 107.92 51.0572 108.064C51.1102 108.22 51.1686 108.496 51.167 108.928C51.1636 109.822 50.9029 111.124 50.2089 112.791C48.8256 116.113 46.0182 120.167 42.0033 123.993C37.9884 127.819 33.8038 130.429 30.4194 131.651C28.7214 132.264 27.408 132.461 26.515 132.422C26.0837 132.403 25.811 132.331 25.6572 132.271C25.5157 132.215 25.4662 132.167 25.4484 132.148C25.438 132.137 25.418 132.115 25.3935 132.07L22.1035 134.35C22.2374 134.548 22.3871 134.734 22.5528 134.908C26.1792 138.713 36.123 135.123 44.7629 126.889C53.077 118.965 57.154 109.629 54.218 105.545L50.9228 107.829Z" fill="#7E6CC1"/>
<path d="M19.6172 127.526L24.0607 133.557" stroke="#7E6CC1" stroke-width="4"/>
<path d="M48.4365 101.25L52.7467 106.878" stroke="#7E6CC1" stroke-width="4"/>
<path fill-rule="evenodd" clip-rule="evenodd" d="M30.3721 135.866H79.6312H81.6312V133.866V125.742V123.742H79.6312H47.7836C46.8523 124.805 45.8433 125.859 44.7627 126.889C44.4581 127.179 44.1518 127.464 43.8442 127.742H77.6312V131.866H38.588C35.7109 133.792 32.8845 135.157 30.3721 135.866ZM49.3404 121.866H92.6312H94.6312V119.866V111.742V109.742H92.6312H55.129C55.021 110.963 54.6834 112.312 54.1357 113.742H90.6312V117.866H52.1015C51.3173 119.181 50.3929 120.524 49.3404 121.866Z" fill="#7E6CC1"/>
<path d="M69.0252 62.9399C69.3408 62.0679 77.9595 50.7011 83.7101 43.2621L111.543 30.7519L131.697 37.4017L171.294 62.94L155.687 84.1049L129.344 70.6142L121.26 73.0823L104.967 68.0952L81.8402 71.7135C79.7533 71.7713 75.4695 70.9577 75.0299 67.2407C74.5904 63.5238 78.1879 61.4849 80.0415 60.93L101.497 56.4516L102.481 49.2813L88.4255 52.1521L81.8193 60.4708" stroke="#7E6CC1" stroke-width="4"/>
<path fill-rule="evenodd" clip-rule="evenodd" d="M80.8741 72.229C82.1602 71.9868 83.3685 71.2985 84.2462 70.1933C84.2689 70.1647 84.2913 70.136 84.3133 70.1072C90.5404 77.8038 90.8328 89.0504 84.4195 97.1261C76.9972 106.472 63.4036 108.032 54.0575 100.61C44.7113 93.188 43.1518 79.5944 50.5741 70.248C56.5767 62.6894 66.6156 60.2234 75.1798 63.4824C74.3626 64.6663 74.057 66.0687 74.231 67.4103C67.1518 64.4774 58.7091 66.4362 53.7065 72.7356C47.658 80.3521 48.9289 91.4295 56.545 97.4778C64.1612 103.526 75.2386 102.255 81.2871 94.6385C86.6232 87.9192 86.2626 78.5062 80.8741 72.229Z" fill="#7E6CC1"/>
<path d="M70.542 75.2596L74.2702 78.2203C76.3293 79.8555 76.6729 82.8503 75.0377 84.9093V84.9093C73.4025 86.9684 70.4078 87.312 68.3487 85.6768L64.6205 82.7161L70.542 75.2596Z" stroke="#7E6CC1" stroke-width="4"/>
<path d="M64.6201 82.7161L58.6986 90.1725" stroke="#7E6CC1" stroke-width="4"/>
<path d="M64.6204 82.7162L60.1465 79.1633" stroke="#7E6CC1" stroke-width="4"/>
<path d="M56.9883 83.14L68.9187 92.6144" stroke="#7E6CC1" stroke-width="4"/>
</svg>
