<svg width="144" height="170" viewBox="0 0 144 170" fill="none" xmlns="http://www.w3.org/2000/svg">
<path fill-rule="evenodd" clip-rule="evenodd" d="M84.73 32.367C83.5729 29.1877 80.0575 27.5484 76.8782 28.7056L69.1236 31.528C65.9443 32.6852 64.3051 36.2006 65.4623 39.3799C66.302 41.6872 68.3837 43.1833 70.6777 43.3882C70.7453 45.3 70.8391 47.6786 70.9241 49.7564C69.098 51.0681 67.3799 52.5204 65.7859 54.0976C64.1255 53.5291 62.44 52.9545 61.0874 52.4989C61.0729 50.5067 60.1113 48.5546 58.3349 47.3516C55.4695 45.4111 51.5735 46.1608 49.633 49.0263L46.2847 53.9704C44.3442 56.8358 45.094 60.7318 47.9594 62.6723C49.9013 63.9874 52.3143 64.0668 54.2731 63.0905C55.1096 64.0721 56.1116 65.2409 57.1127 66.4056C55.7166 69.3997 54.6579 72.5831 53.9857 75.9065C52.1077 76.5067 50.1847 77.1246 48.6253 77.6323C47.48 75.5547 45.2699 74.1476 42.7291 74.1476C39.0127 74.1476 36 77.1603 36 80.8767V90.3349C36 94.0513 39.0127 97.064 42.7291 97.064C45.5176 97.064 47.9099 95.368 48.9307 92.951C50.5484 93.4767 52.5091 94.106 54.3944 94.708C55.3003 98.355 56.6756 101.816 58.452 105.024C57.1787 106.628 55.9099 108.231 54.9601 109.441C53.0298 109.025 50.9323 109.458 49.2813 110.807C46.4047 113.159 45.9791 117.397 48.3305 120.274L50.5 122.928C52.8515 125.804 57.0897 126.23 59.9663 123.878C61.764 122.409 62.6027 120.205 62.4082 118.058C63.6827 117.416 65.2888 116.602 66.912 115.776C69.0596 117.752 71.411 119.511 73.9312 121.017C73.8271 123.042 73.7207 125.176 73.6398 126.93C71.033 127.02 68.6098 128.642 67.6255 131.233C66.3163 134.68 68.0492 138.536 71.4961 139.845L80.4036 143.229C83.8505 144.538 87.7061 142.805 89.0154 139.358C89.912 136.997 89.3822 134.447 87.8527 132.653C89.1963 130.993 90.9329 128.826 92.4713 126.9C93.5587 126.984 94.6572 127.026 95.7652 127.026C99.1489 127.026 102.443 126.631 105.602 125.885C106.673 127.492 107.817 129.205 108.719 130.545C107.512 132.141 107.113 134.297 107.849 136.319C109.002 139.488 112.506 141.121 115.674 139.968L119.717 138.497C122.885 137.344 124.519 133.84 123.366 130.672C122.691 128.819 121.214 127.493 119.472 126.94C119.277 125.087 118.997 122.549 118.748 120.306C121.361 118.629 123.78 116.676 125.961 114.486C126.893 114.929 127.782 115.349 128.563 115.716C128.225 117.972 129.048 120.343 130.943 121.895C133.805 124.239 138.025 123.82 140.369 120.958L143.605 117.007C145.949 114.145 145.53 109.925 142.668 107.581C140.932 106.159 138.698 105.755 136.687 106.293C135.97 105.324 135.088 104.14 134.171 102.914C134.834 101.54 135.426 100.125 135.942 98.6745C136.953 98.5493 137.94 98.4258 138.828 98.3127C139.365 100.629 141.214 102.531 143.699 103.017C147.072 103.675 150.34 101.475 150.999 98.1021L152.681 89.489C153.339 86.116 151.139 82.8477 147.766 82.189C145.503 81.747 143.288 82.5918 141.876 84.2144C140.821 83.6205 139.583 82.928 138.337 82.2339C138.217 79.8429 137.9 77.5026 137.402 75.2295C138.399 74.528 139.376 73.8386 140.218 73.2408C141.832 74.5944 144.101 75.0749 146.224 74.3048C149.39 73.1558 151.026 69.6573 149.877 66.4906L147.934 61.1346C146.785 57.9679 143.286 56.3323 140.12 57.4812C138.178 58.1857 136.814 59.7719 136.312 61.6224C135.065 61.7206 133.545 61.8452 132.021 61.9723C130.922 60.199 129.696 58.5125 128.357 56.9253C129.202 54.7858 130.098 52.5066 130.776 50.761C132.974 50.9277 135.208 50.0085 136.636 48.1169C138.866 45.1632 138.28 40.9612 135.326 38.7312L129.787 34.5495C126.833 32.3196 122.631 32.9063 120.401 35.8599C118.84 37.9287 118.66 40.6079 119.706 42.7948C118.343 43.8278 116.65 45.1196 115.026 46.3635C112.796 45.2321 110.452 44.2909 108.018 43.5614C107.775 42.308 107.505 40.9245 107.273 39.7573C108.555 39.0169 109.484 37.7018 109.67 36.117C109.983 33.4532 108.077 31.0399 105.413 30.7269L99.7395 30.06C97.0756 29.747 94.6624 31.6526 94.3493 34.3165C94.1449 36.0555 94.886 37.6876 96.1664 38.6984C95.7246 39.6628 95.2245 40.7624 94.7608 41.7853C92.136 41.8461 89.5683 42.1443 87.0789 42.6598C85.9335 41.1776 84.7133 39.6036 83.7213 38.3343C85.0379 36.7173 85.4953 34.4696 84.73 32.367ZM144.465 99.0909C143.261 98.8556 142.475 97.6883 142.71 96.4836L142.71 96.4834L142.721 96.4279L143.256 93.6894L140.491 94.0623C139.024 94.2602 136.608 94.563 134.206 94.8583L132.937 95.0143L132.546 96.2314C131.881 98.3022 131.045 100.297 130.055 102.199L129.475 103.314L130.228 104.32C131.862 106.503 133.483 108.679 134.388 109.916L135.467 111.39L137.033 110.449C137.985 109.877 139.229 109.935 140.133 110.675C141.286 111.619 141.455 113.319 140.511 114.472L137.274 118.423C136.33 119.576 134.63 119.745 133.477 118.801C132.489 117.991 132.222 116.622 132.766 115.521L133.674 113.684L131.814 112.821C130.546 112.233 128.505 111.267 126.378 110.256L125.053 109.626L124.054 110.7C121.577 113.364 118.728 115.677 115.592 117.557L114.489 118.217L114.632 119.495C114.986 122.658 115.453 126.883 115.648 128.852L115.827 130.649L117.633 130.653C118.495 130.656 119.297 131.19 119.607 132.04C120.004 133.132 119.441 134.341 118.348 134.738L114.306 136.209C113.214 136.607 112.006 136.044 111.608 134.951C111.27 134.021 111.627 133.003 112.419 132.478L114.106 131.359L112.966 129.686C111.896 128.114 109.821 125.005 108.148 122.49L107.349 121.288L105.956 121.668C102.712 122.553 99.2954 123.026 95.7652 123.026C94.4199 123.026 93.0912 122.957 91.7825 122.823L90.6966 122.712L90.0156 123.565C87.8142 126.324 84.9908 129.847 83.5186 131.641L82.0032 133.487L84.0873 134.655C85.2235 135.291 85.7523 136.684 85.276 137.938C84.7512 139.319 83.2056 140.014 81.8239 139.489L72.9165 136.106C71.5347 135.581 70.8401 134.036 71.3649 132.654C71.8897 131.272 73.4353 130.577 74.817 131.102L74.8173 131.102L74.8316 131.108L77.4313 132.095L77.54 129.316C77.6229 127.197 77.8166 123.318 77.9891 120.001L78.0538 118.758L76.9666 118.151C73.9242 116.453 71.1344 114.355 68.6686 111.927L67.6417 110.916L66.3578 111.57C63.6549 112.947 60.7904 114.4 59.2296 115.176L57.5973 115.987L58.2542 117.687C58.6684 118.76 58.3688 120.018 57.4347 120.781C56.2685 121.735 54.5503 121.562 53.597 120.396L51.4275 117.742C50.4742 116.576 50.6467 114.858 51.8129 113.904L50.5471 112.356L51.8129 113.904C52.67 113.204 53.8286 113.109 54.7648 113.578L56.2334 114.315L57.2411 113.017C58.3028 111.65 60.4382 108.953 62.4287 106.448L63.2889 105.365L62.5798 104.178C60.489 100.678 58.9368 96.8203 58.0368 92.7188L57.7895 91.5921L56.6905 91.2419C53.5777 90.2499 50.0453 89.116 48.0893 88.4654L45.4743 87.5957L45.4582 90.3515C45.4494 91.851 44.2308 93.064 42.7291 93.064C41.2219 93.064 40 91.8422 40 90.3349V80.8767C40 79.3695 41.2219 78.1476 42.7291 78.1476C44.0898 78.1476 45.2212 79.1454 45.4252 80.4489L45.7906 82.784L48.033 82.0373C49.9041 81.4142 53.2838 80.3284 56.3391 79.3541L57.4961 78.9852L57.7024 77.7885C58.3606 73.9711 59.5791 70.3457 61.2706 66.9995L61.8738 65.806L61.0014 64.7925C59.1873 62.685 57.2252 60.3968 56.1314 59.0974L54.6721 57.3639L53.1333 59.0272C52.387 59.8339 51.1402 59.9955 50.2024 59.3603C49.1661 58.6586 48.8949 57.2496 49.5967 56.2133L52.945 51.2692C53.6468 50.2329 55.0557 49.9618 56.092 50.6636C56.9469 51.2425 57.2841 52.3068 56.9761 53.245L56.3532 55.1425L58.2497 55.7682C59.8832 56.3071 62.9284 57.3456 65.6811 58.2903L66.8947 58.7067L67.7791 57.7773C69.6831 55.7764 71.7993 53.9796 74.0912 52.4229L75.0119 51.7976L74.9658 50.6855C74.8353 47.5413 74.6667 43.2825 74.606 41.1143L74.5289 38.3597L71.9338 39.2869C70.8338 39.68 69.6211 39.1111 69.221 38.0118C68.8194 36.9084 69.3883 35.6884 70.4917 35.2868L78.2462 32.4644C79.3496 32.0628 80.5697 32.6317 80.9713 33.7351C81.3337 34.7308 80.905 35.8253 80.0054 36.3217L77.936 37.4637L79.4047 39.3156C80.6023 40.8256 82.8419 43.7158 84.6897 46.1104L85.4802 47.1349L86.7387 46.8337C89.6325 46.141 92.6546 45.7737 95.7652 45.7737C95.8574 45.7737 95.9496 45.7741 96.0417 45.7747L97.3423 45.7838L97.8781 44.5986C98.7762 42.6119 99.9975 39.9239 100.633 38.5667L101.802 36.0711L99.0673 35.7334C98.6004 35.6757 98.2669 35.2514 98.322 34.7834C98.3772 34.3136 98.8028 33.9775 99.2726 34.0327L104.947 34.6995C105.416 34.7547 105.752 35.1803 105.697 35.6502C105.648 36.073 105.295 36.3906 104.883 36.4064L102.521 36.4966L103.001 38.811C103.311 40.3072 103.905 43.3567 104.324 45.5282L104.561 46.7581L105.771 47.0817C108.761 47.8813 111.608 49.0309 114.267 50.4842L115.409 51.1089L116.443 50.3167C119.032 48.3323 122.005 46.0618 123.639 44.839L125.498 43.4474L123.846 41.8151C122.9 40.8797 122.77 39.3617 123.594 38.2701C124.493 37.0795 126.186 36.843 127.377 37.7419L132.916 41.9236C134.106 42.8224 134.343 44.5162 133.444 45.7067C132.693 46.7013 131.383 47.0327 130.277 46.5853L128.386 45.8198L127.659 47.7267C126.917 49.6706 125.443 53.4176 124.191 56.5841L123.736 57.7329L124.56 58.6535C126.321 60.6221 127.884 62.7721 129.215 65.0717L129.851 66.1686L131.114 66.0623C133.799 65.8365 136.68 65.5999 138.253 65.4861L140.239 65.3424L140.104 63.3556C140.042 62.4443 140.586 61.567 141.484 61.2414C142.574 60.8459 143.778 61.4089 144.174 62.4989L146.117 67.8549C146.512 68.9449 145.949 70.1491 144.859 70.5446C143.875 70.9019 142.793 70.4762 142.304 69.5855L141.218 67.6052L139.384 68.9233C138.158 69.8041 136.039 71.2995 133.995 72.7356L132.867 73.5281L133.206 74.8642C133.907 77.6277 134.311 80.5114 134.381 83.4801L134.407 84.6247L135.408 85.1813C137.738 86.4771 140.183 87.8449 141.589 88.6498L143.686 89.8505L144.474 87.5664C144.829 86.5371 145.9 85.9002 146.999 86.1149C148.204 86.3502 148.99 87.5176 148.755 88.7224L147.073 97.3354C146.838 98.5402 145.67 99.3262 144.465 99.0909ZM100.054 104.17C101.236 106.156 100.577 108.675 98.6604 109.815C96.7438 110.955 94.2162 110.332 93.0345 108.346C91.8528 106.36 92.5115 103.842 94.4281 102.701C96.3447 101.561 98.8723 102.184 100.054 104.17ZM103.492 102.125C105.79 105.988 104.543 110.97 100.706 113.252C96.8687 115.535 91.8952 114.254 89.5969 110.392C87.2987 106.529 88.546 101.547 92.3829 99.2638C96.2198 96.981 101.193 98.2619 103.492 102.125ZM86.7323 76.0677C91.6203 73.1595 92.7851 67.8719 90.8304 64.5866C88.8758 61.3013 83.6731 59.8021 78.7851 62.7103C73.8971 65.6185 72.7323 70.9062 74.6869 74.1915C76.6415 77.4767 81.8442 78.9759 86.7323 76.0677ZM88.7775 79.5053C95.1339 75.7234 97.5921 68.1284 94.268 62.5414C90.9439 56.9543 83.0963 55.4909 76.7398 59.2727C70.3834 63.0546 67.9252 70.6496 71.2493 76.2367C74.5734 81.8238 82.4211 83.2872 88.7775 79.5053ZM114.83 86.7517C115.496 87.8715 115.111 89.25 114.086 89.8602C113.06 90.4703 111.665 90.1506 110.999 89.0308C110.333 87.911 110.717 86.5325 111.743 85.9223C112.768 85.3121 114.163 85.6319 114.83 86.7517ZM118.267 84.7065C120.044 87.6924 119.087 91.5388 116.131 93.2977C113.175 95.0566 109.338 94.0619 107.561 91.076C105.785 88.0901 106.741 84.2436 109.698 82.4847C112.654 80.7258 116.491 81.7205 118.267 84.7065ZM75.0369 104.482C76.0625 103.872 76.447 102.493 75.7808 101.373C75.1145 100.253 73.7196 99.9337 72.694 100.544C71.6685 101.154 71.2839 102.533 71.9502 103.652C72.6164 104.772 74.0114 105.092 75.0369 104.482ZM77.0822 107.919C80.0385 106.16 80.9949 102.314 79.2183 99.328C77.4418 96.3421 73.6051 95.3474 70.6488 97.1063C67.6925 98.8652 66.7361 102.712 68.5126 105.698C70.2891 108.684 74.1258 109.678 77.0822 107.919ZM116.391 65.5946C116.142 66.491 114.737 67.7265 112.496 67.1033C110.255 66.4802 109.69 64.6971 109.939 63.8006C110.189 62.9042 111.593 61.6687 113.834 62.2919C116.075 62.9151 116.64 64.6981 116.391 65.5946ZM120.245 66.6662C119.283 70.1232 115.335 72.0443 111.425 70.9571C107.515 69.8699 105.124 66.1861 106.086 62.729C107.047 59.272 110.996 57.3509 114.906 58.4381C118.816 59.5253 121.206 63.2092 120.245 66.6662Z" fill="#7E6CC1"/>
</svg>
