<svg width="144" height="170" viewBox="0 0 144 170" fill="none" xmlns="http://www.w3.org/2000/svg">
<path d="M39.7922 150.632L8 94.0151L36.9619 76.3625L55.0209 80.6618L80.4098 125.875L39.7922 150.632Z" stroke="#7E6CC1" stroke-width="4"/>
<path d="M34.4414 76.2366L40.704 87.3802L52.5285 80.2142" stroke="#7E6CC1" stroke-width="4"/>
<path d="M36.3299 96.4669L37.7354 129.202L63.4515 113.611L36.3299 96.4669Z" stroke="#7E6CC1" stroke-width="4"/>
<path d="M41.6826 106.38L46.0429 113.625" stroke="#7E6CC1" stroke-width="4"/>
<path d="M47.2259 115.651L49.1425 119.004" stroke="#7E6CC1" stroke-width="4"/>
<path fill-rule="evenodd" clip-rule="evenodd" d="M37.043 46.4871H39.043H145.527H147.527V48.4871V118.313V120.313H145.527H84.5875L82.3639 116.313H97.4307V105.18V102.4L100.066 103.283L103.943 104.583L107.487 103.299L108.751 102.842L109.652 103.838L112.048 106.49L115.771 104.867L118.57 103.647V106.701V116.313H143.527V50.4871H120.042V73.6269V76.6803L117.243 75.4604L113.521 73.838L111.125 76.489L109.458 78.3324L108.014 76.3108L105.214 72.3931L101.919 74.3358L98.9033 76.114V72.613V50.4871H77.2256V107.07L73.2256 99.8739V50.4871H41.043V70.4421L37.043 69.585V48.4871V46.4871ZM114.57 116.313H101.431V107.959L103.332 108.597L103.993 108.818L104.649 108.581L107.586 107.518L110.045 110.239L111.009 111.306L112.328 110.731L114.57 109.754V116.313ZM102.903 50.4871V69.112L104.76 68.0171L106.338 67.0867L107.403 68.5771L109.823 71.9635L111.518 70.0888L112.482 69.0219L113.801 69.5965L116.042 70.5736V50.4871H102.903Z" fill="#7E6CC1"/>
</svg>
