<svg width="144" height="170" viewBox="0 0 144 170" fill="none" xmlns="http://www.w3.org/2000/svg">
<path fill-rule="evenodd" clip-rule="evenodd" d="M87.3271 36.1594H37H35V38.1594V140.322V142.322H37H87.3271V138.322H39V40.1594H87.3271V36.1594ZM87.3271 48.7922H52.125H50.125V50.7922V126.59V128.59H52.125H87.3271V124.59H54.125V122.548H87.3271V118.548H64.4088V112.662H87.3271V108.662H62.4088H60.4088V110.662V118.548H54.125V92.8884H87.3271V88.8884H54.125V84.1001H87.3271V80.1001H64.4088V74.2134H87.3271V70.2134H62.4088H60.4088V72.2134V80.1001H54.125V52.7922H87.3271V48.7922ZM87.3271 63.1558H65.4334V67.1558H87.3271V63.1558ZM87.3271 101.672H58.7787V105.672H87.3271V101.672ZM125.12 138.322L118.694 142.322H156.177H158.177V140.322V38.1594V36.1594H156.177H121.997V36.5368L126.792 40.1594H154.177V138.322H125.12Z" fill="#7E6CC1"/>
<path fill-rule="evenodd" clip-rule="evenodd" d="M108.637 31.6782L109.288 32.1771L133.596 50.792H133.768V50.9237L133.8 50.948L133.768 50.9893V126.764V127.885L132.811 128.47L110.189 142.296L110.072 142.104V142.164L107.824 141.884L93.6211 140.109L91.8691 139.89V138.124V35.5516V33.7874L93.6195 33.5672L107.823 31.7806L108.637 31.6782ZM110.072 137.679L129.768 125.642V52.8987L110.072 37.8156V137.679ZM106.072 36.0323V137.633L95.8691 136.358V37.3158L106.072 36.0323ZM111.643 79.0012H113.643H122.98H124.98V81.0012V107.366V109.366H122.98H122.98H122.98H122.979H122.979H122.979H122.978H122.977H122.977H122.976H122.975H122.974H122.973H122.972H122.971H122.969H122.968H122.967H122.965H122.963H122.962H122.96H122.958H122.956H122.954H122.952H122.95H122.948H122.945H122.943H122.94H122.938H122.935H122.932H122.93H122.927H122.924H122.921H122.918H122.914H122.911H122.908H122.904H122.901H122.897H122.894H122.89H122.886H122.882H122.879H122.875H122.87H122.866H122.862H122.858H122.853H122.849H122.845H122.84H122.835H122.831H122.826H122.821H122.816H122.811H122.806H122.801H122.796H122.79H122.785H122.78H122.774H122.769H122.763H122.757H122.752H122.746H122.74H122.734H122.728H122.722H122.716H122.71H122.703H122.697H122.691H122.684H122.678H122.671H122.664H122.658H122.651H122.644H122.637H122.63H122.623H122.616H122.609H122.602H122.594H122.587H122.58H122.572H122.565H122.557H122.55H122.542H122.534H122.526H122.519H122.511H122.503H122.495H122.487H122.478H122.47H122.462H122.454H122.445H122.437H122.428H122.42H122.411H122.403H122.394H122.385H122.376H122.367H122.358H122.35H122.34H122.331H122.322H122.313H122.304H122.295H122.285H122.276H122.266H122.257H122.247H122.238H122.228H122.218H122.209H122.199H122.189H122.179H122.169H122.159H122.149H122.139H122.129H122.119H122.109H122.098H122.088H122.078H122.067H122.057H122.046H122.036H122.025H122.015H122.004H121.993H121.983H121.972H121.961H121.95H121.939H121.928H121.917H121.906H121.895H121.884H121.873H121.861H121.85H121.839H121.827H121.816H121.805H121.793H121.782H121.77H121.758H121.747H121.735H121.723H121.712H121.7H121.688H121.676H121.664H121.652H121.64H121.628H121.616H121.604H121.592H121.58H121.568H121.556H121.543H121.531H121.519H121.507H121.494H121.482H121.469H121.457H121.444H121.432H121.419H121.407H121.394H121.381H121.369H121.356H121.343H121.33H121.317H121.305H121.292H121.279H121.266H121.253H121.24H121.227H121.214H121.201H121.188H121.175H121.161H121.148H121.135H121.122H121.108H121.095H121.082H121.069H121.055H121.042H121.028H121.015H121.001H120.988H120.974H120.961H120.947H120.934H120.92H120.907H120.893H120.879H120.866H120.852H120.838H120.824H120.811H120.797H120.783H120.769H120.755H120.741H120.728H120.714H120.7H120.686H120.672H120.658H120.644H120.63H120.616H120.602H120.588H120.574H120.56H120.545H120.531H120.517H120.503H120.489H120.475H120.46H120.446H120.432H120.418H120.403H120.389H120.375H120.361H120.346H120.332H120.318H120.303H120.289H120.275H120.26H120.246H120.232H120.217H120.203H120.188H120.174H120.159H120.145H120.131H120.116H120.102H120.087H120.073H120.058H120.044H120.029H120.015H120H119.986H119.971H119.957H119.942H119.927H119.913H119.898H119.884H119.869H119.855H119.84H119.825H119.811H119.796H119.782H119.767H119.753H119.738H119.723H119.709H119.694H119.68H119.665H119.65H119.636H119.621H119.607H119.592H119.578H119.563H119.548H119.534H119.519H119.505H119.49H119.475H119.461H119.446H119.432H119.417H119.403H119.388H119.374H119.359H119.345H119.33H119.315H119.301H119.286H119.272H119.257H119.243H119.228H119.214H119.2H119.185H119.171H119.156H119.142H119.127H119.113H119.098H119.084H119.07H119.055H119.041H119.027H119.012H118.998H118.984H118.969H118.955H118.941H118.926H118.912H118.898H118.884H118.869H118.855H118.841H118.827H118.813H118.799H118.784H118.77H118.756H118.742H118.728H118.714H118.7H118.686H118.672H118.658H118.644H118.63H118.616H118.602H118.588H118.574H118.56H118.547H118.533H118.519H118.505H118.491H118.478H118.464H118.45H118.437H118.423H118.409H118.396H118.382H118.369H118.355H118.341H118.328H118.314H118.301H118.288H118.274H118.261H118.247H118.234H118.221H118.208H118.194H118.181H118.168H118.155H118.141H118.128H118.115H118.102H118.089H118.076H118.063H118.05H118.037H118.024H118.011H117.999H117.986H117.973H117.96H117.948H117.935H117.922H117.91H117.897H117.884H117.872H117.859H117.847H117.835H117.822H117.81H117.797H117.785H117.773H117.761H117.748H117.736H117.724H117.712H117.7H117.688H117.676H117.664H117.652H117.64H117.628H117.617H117.605H117.593H117.581H117.57H117.558H117.547H117.535H117.523H117.512H117.501H117.489H117.478H117.467H117.455H117.444H117.433H117.422H117.411H117.4H117.389H117.378H115.378V107.366V93.0613H113.643H111.643V91.0613V81.0012V79.0012ZM115.643 89.0613H117.378H119.378V91.0613V105.366H119.388H119.403H119.417H119.432H119.446H119.461H119.475H119.49H119.505H119.519H119.534H119.548H119.563H119.578H119.592H119.607H119.621H119.636H119.65H119.665H119.68H119.694H119.709H119.723H119.738H119.753H119.767H119.782H119.796H119.811H119.825H119.84H119.855H119.869H119.884H119.898H119.913H119.927H119.942H119.957H119.971H119.986H120H120.015H120.029H120.044H120.058H120.073H120.087H120.102H120.116H120.131H120.145H120.159H120.174H120.188H120.203H120.217H120.232H120.246H120.26H120.275H120.289H120.303H120.318H120.332H120.346H120.361H120.375H120.389H120.403H120.418H120.432H120.446H120.46H120.475H120.489H120.503H120.517H120.531H120.545H120.56H120.574H120.588H120.602H120.616H120.63H120.644H120.658H120.672H120.686H120.7H120.714H120.728H120.741H120.755H120.769H120.783H120.797H120.811H120.824H120.838H120.852H120.866H120.879H120.893H120.907H120.92H120.934H120.947H120.961H120.974H120.98V83.0012H115.643V89.0613Z" fill="#7E6CC1"/>
</svg>
