<svg width="144" height="170" viewBox="0 0 144 170" fill="none" xmlns="http://www.w3.org/2000/svg">
<path fill-rule="evenodd" clip-rule="evenodd" d="M53.4326 64.2699H51.4326V66.2699V84.2724V86.2724H53.4326H96.3469H98.3469V84.2724V66.2699V64.2699H96.3469H53.4326ZM55.4326 82.2724V68.2699H75.6675V82.2724H55.4326ZM79.6675 82.2724H94.3469V68.2699H79.6675V82.2724Z" fill="#7E6CC1"/>
<path fill-rule="evenodd" clip-rule="evenodd" d="M62.5557 36.6467H64.5557H126.825H128.825V38.6467V84.2724V86.2724H126.825H97.17V82.2724H124.825V40.6467H90.5385V65.5627H86.5385V40.6467H66.5557V65.5627H62.5557V38.6467V36.6467Z" fill="#7E6CC1"/>
<path fill-rule="evenodd" clip-rule="evenodd" d="M64.2661 94.166C59.8237 94.166 56.2225 97.7672 56.2225 102.21C56.2225 106.652 59.8237 110.253 64.2661 110.253H146.718C151.16 110.253 154.761 106.652 154.761 102.21C154.761 98.3225 152.004 95.0795 148.339 94.3294C147.815 94.2223 147.273 94.166 146.718 94.166H64.2661ZM55.3022 110.253C53.3874 108.121 52.2225 105.301 52.2225 102.21C52.2225 99.118 53.3874 96.2985 55.3022 94.166H30.5816C26.1393 94.166 22.5381 97.7672 22.5381 102.21C22.5381 106.652 26.1393 110.253 30.5816 110.253H55.3022ZM18.5381 102.21C18.5381 95.5581 23.9302 90.166 30.5816 90.166H64.2661H146.718C147.965 90.166 149.168 90.3556 150.299 90.7075C155.202 92.2323 158.761 96.8052 158.761 102.21C158.761 108.317 154.215 113.363 148.322 114.147V134.079H144.322V122.744L131.496 114.253H123.599L110.772 122.744V134.079H106.772V114.253H76.3223V134.079H72.3223V122.744L59.4957 114.253H51.599L38.7725 122.744V134.079H34.7725V114.253H30.5816C23.9301 114.253 18.5381 108.861 18.5381 102.21ZM138.742 114.253L144.322 117.947V114.253H138.742ZM66.7422 114.253H72.3223V117.947L66.7422 114.253ZM110.772 114.253V117.947L116.353 114.253H110.772ZM38.7725 114.253H44.3525L38.7725 117.947V114.253ZM68.1114 103.688C68.3673 103.392 68.6035 102.881 68.6035 102.21C68.6035 101.538 68.3673 101.028 68.1114 100.732C67.8625 100.444 67.6696 100.419 67.5971 100.419C67.5245 100.419 67.3316 100.444 67.0828 100.732C66.8269 101.028 66.5907 101.538 66.5907 102.21C66.5907 102.881 66.8269 103.392 67.0828 103.688C67.3316 103.975 67.5245 104 67.5971 104C67.6696 104 67.8625 103.975 68.1114 103.688ZM67.5971 108C70.3621 108 72.6035 105.407 72.6035 102.21C72.6035 99.0118 70.3621 96.4194 67.5971 96.4194C64.8321 96.4194 62.5907 99.0118 62.5907 102.21C62.5907 105.407 64.8321 108 67.5971 108ZM89.334 102.21C89.334 102.881 89.0978 103.392 88.8418 103.688C88.593 103.975 88.4001 104 88.3276 104C88.255 104 88.0621 103.975 87.8133 103.688C87.5574 103.392 87.3212 102.881 87.3212 102.21C87.3212 101.538 87.5574 101.028 87.8133 100.732C88.0621 100.444 88.255 100.419 88.3276 100.419C88.4001 100.419 88.593 100.444 88.8418 100.732C89.0978 101.028 89.334 101.538 89.334 102.21ZM93.334 102.21C93.334 105.407 91.0925 108 88.3276 108C85.5626 108 83.3212 105.407 83.3212 102.21C83.3212 99.0118 85.5626 96.4194 88.3276 96.4194C91.0925 96.4194 93.334 99.0118 93.334 102.21ZM109.572 103.688C109.828 103.392 110.064 102.881 110.064 102.21C110.064 101.538 109.828 101.028 109.572 100.732C109.323 100.444 109.131 100.419 109.058 100.419C108.985 100.419 108.793 100.444 108.544 100.732C108.288 101.028 108.052 101.538 108.052 102.21C108.052 102.881 108.288 103.392 108.544 103.688C108.793 103.975 108.985 104 109.058 104C109.131 104 109.323 103.975 109.572 103.688ZM109.058 108C111.823 108 114.064 105.407 114.064 102.21C114.064 99.0118 111.823 96.4194 109.058 96.4194C106.293 96.4194 104.052 99.0118 104.052 102.21C104.052 105.407 106.293 108 109.058 108ZM130.795 102.21C130.795 102.881 130.559 103.392 130.303 103.688C130.054 103.975 129.861 104 129.788 104C129.716 104 129.523 103.975 129.274 103.688C129.018 103.392 128.782 102.881 128.782 102.21C128.782 101.538 129.018 101.028 129.274 100.732C129.523 100.444 129.716 100.419 129.788 100.419C129.861 100.419 130.054 100.444 130.303 100.732C130.559 101.028 130.795 101.538 130.795 102.21ZM134.795 102.21C134.795 105.407 132.553 108 129.788 108C127.024 108 124.782 105.407 124.782 102.21C124.782 99.0118 127.024 96.4194 129.788 96.4194C132.553 96.4194 134.795 99.0118 134.795 102.21Z" fill="#7E6CC1"/>
</svg>
