<svg width="144" height="170" viewBox="0 0 144 170" fill="none" xmlns="http://www.w3.org/2000/svg">
<path d="M50.4046 136.069L63.3838 87.63L128.991 105.209L116.012 153.649L50.4046 136.069Z" stroke="#7E6CC1" stroke-width="4"/>
<path d="M88.5234 94.366L75.5442 142.805" stroke="#7E6CC1" stroke-width="4"/>
<path d="M96.2068 131.912L94.2749 131.395L93.7573 133.326L95.6891 133.844L96.2068 131.912ZM97.6854 126.394L99.6173 126.911L100.135 124.98L98.2031 124.462L97.6854 126.394ZM102.338 133.555L101.821 135.487L103.753 136.005L104.27 134.073L102.338 133.555ZM103.817 128.037L104.335 126.105L102.403 125.587L101.885 127.519L103.817 128.037ZM109.335 129.515L108.818 131.447L110.75 131.965L111.267 130.033L109.335 129.515ZM111.143 122.771L113.074 123.288L113.592 121.356L111.66 120.839L111.143 122.771ZM105.624 121.292L103.692 120.774L103.175 122.706L105.107 123.224L105.624 121.292ZM107.103 115.774L109.035 116.291L109.552 114.359L107.62 113.842L107.103 115.774ZM100.971 114.131L101.489 112.199L99.5571 111.681L99.0394 113.613L100.971 114.131ZM99.4927 119.649L98.975 121.581L100.907 122.099L101.425 120.167L99.4927 119.649ZM93.3612 118.006L93.8789 116.074L91.947 115.557L91.4294 117.489L93.3612 118.006ZM91.554 124.751L89.6221 124.233L89.1045 126.165L91.0364 126.683L91.554 124.751ZM98.1386 132.43L99.6173 126.911L95.7536 125.876L94.2749 131.395L98.1386 132.43ZM102.856 131.623L96.7244 129.98L95.6891 133.844L101.821 135.487L102.856 131.623ZM101.885 127.519L100.406 133.038L104.27 134.073L105.749 128.554L101.885 127.519ZM109.853 127.583L104.335 126.105L103.299 129.969L108.818 131.447L109.853 127.583ZM109.211 122.253L107.404 128.998L111.267 130.033L113.074 123.288L109.211 122.253ZM105.107 123.224L110.625 124.703L111.66 120.839L106.142 119.36L105.107 123.224ZM105.171 115.256L103.692 120.774L107.556 121.81L109.035 116.291L105.171 115.256ZM100.454 116.063L106.585 117.706L107.62 113.842L101.489 112.199L100.454 116.063ZM101.425 120.167L102.903 114.648L99.0394 113.613L97.5608 119.131L101.425 120.167ZM92.8436 119.938L98.975 121.581L100.01 117.717L93.8789 116.074L92.8436 119.938ZM93.4858 125.268L95.2931 118.524L91.4294 117.489L89.6221 124.233L93.4858 125.268ZM98.2031 124.462L92.0716 122.819L91.0364 126.683L97.1678 128.326L98.2031 124.462Z" fill="#7E6CC1"/>
<path d="M116.628 18.7506C80.2336 9.30191 56.9396 32.8917 59.694 53.7247C66.3986 43.8256 79.1906 46.3953 81.5603 59.7507C89.7641 50.2402 101.895 51.9111 104.185 66.3424C111.315 56.5249 124.446 59.3272 127.014 71.4584C134.761 63.7107 147.847 64.3993 149.052 77.3121C163.859 60.9559 153.022 28.1993 116.628 18.7506Z" stroke="#7E6CC1" stroke-width="4" stroke-linejoin="bevel"/>
<path fill-rule="evenodd" clip-rule="evenodd" d="M84.5526 88.5163L91.028 90.3294L61.1191 51.8496L57.9609 54.3044L84.5526 88.5163ZM91.2531 90.3924L79.6007 59.9593L83.3362 58.529L95.4415 90.1448L102.159 66.1868L106.01 67.2666L99.1928 91.5819L125.958 69.7109L128.489 72.8083L102.959 93.67L91.2531 90.3924ZM103.215 93.7418L148.949 75.0086L150.465 78.7101L109.483 95.4968L103.215 93.7418Z" fill="#7E6CC1"/>
</svg>
