<svg width="32" height="44" viewBox="0 0 32 44" fill="none" xmlns="http://www.w3.org/2000/svg">
<path fill-rule="evenodd" clip-rule="evenodd" d="M7.33623 2.80145L23.4336 2.80145V10.9851L7.33623 10.9851L7.33623 2.80145ZM4.59337 2.80145C4.59337 1.28661 5.82139 0.0585938 7.33623 0.0585938H23.4336C24.9485 0.0585938 26.1765 1.28661 26.1765 2.80145V10.9851C26.1765 10.9911 26.1765 10.9971 26.1764 11.0031C26.1764 11.0138 26.1762 11.0245 26.1761 11.0352H28.943C30.1965 11.0352 31.2127 12.0513 31.2127 13.3048V28.4777C31.2127 37.0204 24.2875 43.9456 15.7448 43.9456C7.20207 43.9456 0.276855 37.0204 0.276855 28.4777V13.3048C0.276855 12.0513 1.29303 11.0352 2.54654 11.0352H4.59382C4.59352 11.0185 4.59337 11.0018 4.59337 10.9851V2.80145ZM3.01971 28.4777V13.778H28.4698V28.4777C28.4698 35.5055 22.7726 41.2027 15.7448 41.2027C8.71691 41.2027 3.01971 35.5055 3.01971 28.4777ZM11.7881 5.77946C11.7881 5.40076 12.0951 5.09375 12.4738 5.09375H13.2607C13.6394 5.09375 13.9464 5.40075 13.9464 5.77946V8.72466C13.9464 9.10337 13.6394 9.41038 13.2607 9.41038H12.4738C12.0951 9.41038 11.7881 9.10337 11.7881 8.72466V5.77946ZM17.5094 5.09375C17.1307 5.09375 16.8237 5.40076 16.8237 5.77946V8.72466C16.8237 9.10337 17.1307 9.41038 17.5094 9.41038H18.2963C18.675 9.41038 18.982 9.10337 18.982 8.72466V5.77946C18.982 5.40075 18.675 5.09375 18.2963 5.09375H17.5094Z" fill="#FFD633"/>
</svg>
