<svg width="44" height="48" viewBox="0 0 44 48" fill="none" xmlns="http://www.w3.org/2000/svg">
<path d="M18.1142 24.4186H13.6574C13.6119 24.4186 13.5892 24.4413 13.5665 24.4865C13.4528 26.5007 13.0662 28.6506 12.5205 30.4158C12.5205 30.4384 12.5205 30.4611 12.5432 30.4837C12.566 30.5063 12.5887 30.5063 12.6114 30.5063H14.1349C14.1804 30.5063 14.2032 30.4837 14.2032 30.4611C14.6352 29.1032 14.9763 27.338 15.1127 25.8444H16.568V30.4384C16.568 30.4837 16.6135 30.529 16.6589 30.529H18.1142C18.1597 30.529 18.2052 30.4837 18.2052 30.4384V24.4865C18.2052 24.4413 18.1597 24.4186 18.1142 24.4186ZM36.9646 24.4186H35.5093C35.4639 24.4186 35.4184 24.4639 35.4184 24.5092V29.1032C35.1 29.1938 34.7817 29.239 34.4179 29.239C33.4628 29.239 33.2355 28.9448 33.2355 27.6775V24.5092C33.2355 24.4639 33.19 24.4186 33.1445 24.4186H31.712C31.6665 24.4186 31.621 24.4639 31.621 24.5092V27.8359C31.621 29.9179 32.3259 30.71 34.1223 30.71C35.1455 30.71 36.3052 30.4384 36.9873 30.1895C37.0101 30.1669 37.0328 30.1442 37.0328 30.1216V24.5092C37.0556 24.4413 37.0101 24.4186 36.9646 24.4186ZM6.13091 24.4186H4.6529C4.60742 24.4186 4.58468 24.4413 4.58468 24.4865C4.35729 25.3918 3.87978 26.9307 3.2431 28.5375L1.76508 24.4865C1.74234 24.4639 1.7196 24.4413 1.69687 24.4413H0.19611C0.173371 24.4413 0.150633 24.4639 0.127894 24.4865C0.105155 24.5092 0.105155 24.5318 0.127894 24.5544L2.35629 30.6195C2.1289 31.0947 1.92425 31.4795 1.7196 31.8416C1.56043 32.1131 1.424 32.3847 1.28757 32.6563C1.26483 32.6789 1.26483 32.7015 1.28757 32.7242C1.31031 32.7468 1.33305 32.7694 1.35578 32.7694H2.97023C2.99297 32.7694 3.03845 32.7468 3.03845 32.7242C3.31131 32.2037 3.65239 31.4795 3.97074 30.7326C4.92576 28.5148 5.67614 26.4328 6.24461 24.5318C6.24461 24.5092 6.24461 24.4865 6.22187 24.4639C6.17639 24.4186 6.15365 24.4186 6.13091 24.4186ZM11.429 29.1032C11.429 29.0806 11.4063 29.058 11.3836 29.058H11.3153C10.9515 29.1937 10.2921 29.2843 9.83732 29.2843C8.81408 29.2843 8.33657 29.0127 8.33657 27.4738C8.33657 26.2291 8.49574 25.6633 9.83732 25.6633C10.2239 25.6633 10.565 25.7086 11.0197 25.8444C11.0652 25.8444 11.088 25.8444 11.1107 25.7991C11.2699 25.4823 11.4745 25.0976 11.7019 24.6223V24.5544C11.7019 24.5318 11.6792 24.5092 11.6564 24.5092C11.0652 24.3281 10.3603 24.215 9.72363 24.215C7.60893 24.215 6.6539 25.2107 6.6539 27.4512C6.6539 29.7143 7.60893 30.7326 9.72363 30.7326C10.2466 30.7326 11.3153 30.6195 11.8156 30.4158C11.8611 30.3932 11.8838 30.3479 11.8611 30.3027L11.429 29.1032ZM25.2769 24.4186H23.7989C23.7534 24.4186 23.7307 24.4413 23.7307 24.4865C23.5033 25.4144 23.0258 26.9307 22.3891 28.5375L20.9111 24.4865C20.8883 24.4639 20.8656 24.4413 20.8429 24.4413H19.3421C19.3194 24.4413 19.2966 24.4639 19.2739 24.4865C19.2512 24.5092 19.2512 24.5318 19.2739 24.5544L21.5023 30.6195C21.2749 31.0947 21.0702 31.4795 20.8656 31.8416C20.7064 32.1131 20.57 32.3847 20.4336 32.6789C20.4108 32.7015 20.4108 32.7242 20.4336 32.7468C20.4563 32.7694 20.479 32.7921 20.5018 32.7921H22.1162C22.139 32.7921 22.1844 32.7694 22.1844 32.7468C22.4573 32.2263 22.7984 31.5021 23.1167 30.7553C24.049 28.5375 24.8221 26.4554 25.3906 24.5544C25.3906 24.5318 25.3906 24.5092 25.3679 24.4865C25.3224 24.4186 25.2996 24.4186 25.2769 24.4186ZM30.7342 24.4186H26.4366C26.3911 24.4186 26.3456 24.4639 26.3456 24.5092V30.4611C26.3456 30.5063 26.3911 30.5516 26.4366 30.5516H27.8919C27.9373 30.5516 27.9828 30.5063 27.9828 30.4611V25.867H30.234C30.2567 25.867 30.3022 25.8444 30.3022 25.8218C30.4841 25.4144 30.6432 24.9844 30.8252 24.5544V24.4865C30.7797 24.4186 30.7569 24.4186 30.7342 24.4186Z" fill="#FFD633"/>
<path d="M7.85938 15.2756C5.76742 15.2756 4.94883 16.1808 4.94883 18.4666C4.94883 20.7975 5.76742 21.7028 7.85938 21.7028C9.97408 21.7028 10.7927 20.7975 10.7927 18.4666C10.7927 16.1582 9.97408 15.2756 7.85938 15.2756ZM7.85938 20.3675C6.90436 20.3675 6.60875 20.1186 6.60875 18.4892C6.60875 16.7692 6.9271 16.6108 7.85938 16.6108C8.81441 16.6108 9.13275 16.7692 9.13275 18.4892C9.13275 20.1186 8.83715 20.3675 7.85938 20.3675ZM16.6138 20.1186C16.6138 20.096 16.591 20.0733 16.5683 20.0733H16.5001C16.1363 20.2091 15.4769 20.2997 15.0221 20.2997C13.9988 20.2997 13.5213 20.0281 13.5213 18.4892C13.5213 17.2445 13.6805 16.6787 15.0221 16.6787C15.4086 16.6787 15.7497 16.724 16.2045 16.8598C16.25 16.8598 16.2727 16.8598 16.2954 16.8145C16.4546 16.4977 16.6593 16.1129 16.8867 15.6377V15.5698C16.8867 15.5472 16.8639 15.5245 16.8412 15.5245C16.25 15.3435 15.5451 15.2303 14.9084 15.2303C12.7937 15.2303 11.8387 16.2261 11.8387 18.4666C11.8387 20.7296 12.7937 21.748 14.9084 21.748C15.4314 21.748 16.5001 21.6349 17.0003 21.4312C17.0458 21.4086 17.0686 21.3633 17.0458 21.318L16.6138 20.1186ZM4.49405 15.434H0.196437C0.15096 15.434 0.105482 15.4793 0.105482 15.5245V21.4765C0.105482 21.5217 0.15096 21.567 0.196437 21.567H1.65171C1.69719 21.567 1.74267 21.5217 1.74267 21.4765V16.8598H3.97106C3.9938 16.8598 4.03928 16.8371 4.03928 16.8145C4.22119 16.4072 4.38036 15.9772 4.56227 15.5472V15.4793C4.53953 15.4567 4.51679 15.434 4.49405 15.434Z" fill="#FFD633"/>
<path d="M43.7629 29.8953V29.8048C43.7629 29.7595 43.7629 29.6917 43.7857 29.6464C43.8539 28.809 43.8994 27.7907 43.9448 26.6139V26.5233C43.9676 25.7313 43.9903 24.8713 43.9903 23.9887C43.9903 23.1061 43.9676 22.2461 43.9448 21.454V21.3635C43.8994 20.2093 43.8539 19.1683 43.7857 18.331C43.7857 18.2857 43.7857 18.2178 43.7629 18.1726V18.082C43.7629 17.9915 43.7402 17.9236 43.7402 17.8331V17.7426C43.672 16.86 43.6265 16.3168 43.6038 16.2716C43.6038 16.181 43.581 16.0905 43.581 16.0226V15.9547C43.5583 15.7963 43.5355 15.6605 43.4901 15.5021C43.4901 15.4795 43.4901 15.4569 43.4673 15.4342C43.0808 13.6011 42.0575 11.587 40.7841 10.0707C40.2839 9.48232 39.7609 8.96181 39.2152 8.55445C39.1697 8.50919 38.533 8.05658 37.5325 7.35502C36.3728 6.56294 34.7129 5.45403 32.8256 4.36775C29.4603 2.39887 26.4815 1.01839 26.0722 0.859972C26.0495 0.859972 26.0495 0.837341 26.0495 0.837341C25.1627 0.452617 24.0939 0.181047 22.9343 0.0678925C22.7069 0.0452617 22.4795 0.0226308 22.2521 0.0226308C22.0247 0 21.8201 0 21.6154 0H21.2971C19.7508 0.0452617 18.3183 0.316832 17.1814 0.837341C17.0222 0.905233 13.9979 2.28571 10.5644 4.29986L10.428 4.36775C6.90347 6.42716 4.15208 8.46393 4.03839 8.55445C3.17432 9.18812 2.4012 10.0028 1.6963 11.0438C1.53713 11.2702 1.53713 11.8586 2.21929 11.8586H3.97017C4.72055 11.8586 4.90246 11.4059 5.74379 10.7949C6.67608 10.116 8.51792 8.75813 11.8832 6.76662C14.3163 5.34088 16.5902 4.20933 17.7044 3.68883C17.7271 3.68883 17.7498 3.66619 17.7726 3.66619C17.7726 3.66619 17.7953 3.66619 17.7953 3.64356C17.7953 3.64356 17.8181 3.64356 17.8181 3.62093C17.8408 3.62093 17.8635 3.5983 17.8635 3.5983C17.8863 3.5983 17.909 3.57567 17.9317 3.57567C18.2046 3.43989 18.3865 3.37199 18.3865 3.37199C19.1596 3.03253 20.2511 2.80622 21.4108 2.78359H21.8655C22.2066 2.78359 22.5477 2.80622 22.866 2.85148C23.5709 2.94201 24.2076 3.07779 24.7306 3.3041C24.7761 3.32673 24.8443 3.34936 24.8898 3.37199C24.8898 3.37199 24.9125 3.39462 24.9807 3.41726C25.5037 3.64356 28.3233 4.97878 31.3931 6.76662C33.2122 7.83027 34.8266 8.89392 35.9408 9.66337C36.9186 10.3423 37.5098 10.7723 37.5325 10.7949C37.9646 11.1117 38.3966 11.5644 38.8059 12.0622C39.8291 13.3748 40.6705 15.1627 40.8069 16.5431C40.8069 16.5658 40.8751 17.1089 40.9433 18.0368C40.9433 18.1047 40.9433 18.1499 40.9661 18.2178V18.3536C40.9661 18.4441 40.9888 18.512 40.9888 18.6025V18.6931C40.9888 18.7383 40.9888 18.8062 41.0115 18.8515C41.0115 18.9646 41.0343 19.0778 41.0343 19.1909C41.0343 19.2588 41.0343 19.3267 41.057 19.3946V19.4399C41.057 19.5304 41.057 19.5983 41.0798 19.6888V19.8699C41.148 21.0467 41.1934 22.4498 41.1934 23.9208C41.1934 25.3918 41.148 26.7949 41.0798 27.9717V28.1528C41.0798 28.2433 41.0798 28.3112 41.057 28.4017V28.447C41.057 28.5148 41.057 28.5827 41.0343 28.6506C41.0343 28.7638 41.0115 28.8769 41.0115 28.9901C41.0115 29.058 41.0115 29.1033 40.9888 29.1485V29.239C40.9888 29.3296 40.9661 29.3975 40.9661 29.488V29.6238C40.9661 29.6917 40.9661 29.7595 40.9433 29.8048C40.8751 30.7327 40.8069 31.2984 40.8069 31.2984C40.6705 32.6789 39.8291 34.4668 38.8059 35.7793C38.3966 36.2999 37.9646 36.7298 37.5325 37.0467C37.5098 37.0467 36.9186 37.4993 35.9408 38.1782C34.8266 38.9477 33.1894 40.0113 31.3931 41.075C28.3233 42.8854 25.481 44.198 24.9807 44.4243L24.8898 44.4696C24.8443 44.4922 24.7761 44.5148 24.7306 44.5375C24.2076 44.7412 23.5709 44.8996 22.866 44.9901C22.5477 45.0354 22.2066 45.058 21.8655 45.058H21.4108C20.2511 45.0354 19.1596 44.8317 18.3865 44.4696C18.3865 44.4696 18.2273 44.4017 17.9317 44.2659C17.909 44.2433 17.8635 44.2433 17.8408 44.2206C17.8181 44.198 17.7953 44.198 17.7726 44.1754C17.7498 44.1754 17.7498 44.1528 17.7271 44.1528C17.7044 44.1528 17.6816 44.1301 17.6589 44.1301C17.6361 44.1075 17.6134 44.1075 17.5679 44.0849H17.5452C16.3855 43.6322 14.2026 42.546 11.8832 41.1881C8.49518 39.2192 6.67608 37.8387 5.74379 37.1598C4.90246 36.5488 4.72055 36.0962 3.97017 36.0962H2.21929C1.53713 36.0962 1.53713 36.6846 1.6963 36.9109C2.4012 37.9519 3.17432 38.7666 4.03839 39.4003C4.15208 39.4908 6.92621 41.5276 10.428 43.587C10.6099 43.7001 10.7918 43.8133 10.9964 43.9038C14.2481 45.7595 17.0449 47.0269 17.2041 47.1174C18.3183 47.6153 19.7736 47.9095 21.3198 47.9547H21.6382C21.8428 47.9547 22.0475 47.9547 22.2521 47.9321C22.4795 47.9321 22.7069 47.9095 22.9343 47.8868C24.0939 47.7737 25.1854 47.5021 26.0495 47.1174C26.0495 47.1174 26.0722 47.1174 26.0722 47.0948C26.4588 46.9137 29.4603 45.5332 32.8029 43.587C34.6902 42.4781 36.3501 41.3918 37.5098 40.5997C38.5103 39.8982 39.147 39.4455 39.1924 39.4003C39.7382 38.9929 40.2612 38.4724 40.7614 37.884C42.0348 36.3677 43.058 34.3536 43.4446 32.5205C43.4446 32.4979 43.4446 32.4752 43.4673 32.4526C43.4901 32.2942 43.5355 32.1358 43.5583 32V31.9321C43.581 31.8416 43.581 31.7511 43.581 31.6832C43.581 31.6379 43.6492 31.0948 43.7174 30.2122V30.1216C43.7629 30.0537 43.7629 29.9859 43.7629 29.8953Z" fill="#FFD633"/>
</svg>
