<svg width="48" height="48" viewBox="0 0 48 48" fill="none" xmlns="http://www.w3.org/2000/svg">
<path fill-rule="evenodd" clip-rule="evenodd" d="M46 28.5H3V25.5H46V28.5Z" fill="#FFD633"/>
<path fill-rule="evenodd" clip-rule="evenodd" d="M44 13H4C3.44772 13 3 13.4477 3 14V40C3 40.5523 3.44772 41 4 41H44C44.5523 41 45 40.5523 45 40V14C45 13.4477 44.5523 13 44 13ZM4 10C1.79086 10 0 11.7909 0 14V40C0 42.2091 1.79086 44 4 44H44C46.2091 44 48 42.2091 48 40V14C48 11.7909 46.2091 10 44 10H4Z" fill="#FFD633"/>
<path fill-rule="evenodd" clip-rule="evenodd" d="M20 5.5C18.6193 5.5 17.5 6.61929 17.5 8V11H14.5V8C14.5 4.96243 16.9624 2.5 20 2.5H28C31.0376 2.5 33.5 4.96243 33.5 8V11H30.5V8C30.5 6.61929 29.3807 5.5 28 5.5H20Z" fill="#FFD633"/>
<path fill-rule="evenodd" clip-rule="evenodd" d="M22.5 42.5V27H25.5V42.5H22.5Z" fill="#FFD633"/>
</svg>
