<svg width="44" height="44" viewBox="0 0 44 44" fill="none" xmlns="http://www.w3.org/2000/svg">
<path fill-rule="evenodd" clip-rule="evenodd" d="M25.888 27.7065L16.9398 29.4999L16.6146 29.4999L16.6126 29.4999C16.4214 29.501 16.2319 29.4643 16.0548 29.3918C15.8781 29.3195 15.7173 29.2129 15.5816 29.0782C15.4121 28.9073 15.2876 28.6969 15.2191 28.4657C15.1506 28.2342 15.1405 27.9891 15.1899 27.7527L16.9867 18.7496L16.987 18.7485C17.0421 18.4676 17.1785 18.2094 17.379 18.0058L17.3796 18.0052L33.434 1.91741C34.2279 1.1632 35.2801 0.742859 36.3739 0.742859C37.4677 0.742859 38.52 1.1632 39.3139 1.91741L42.5876 5.19793V5.23339L42.6871 5.33365C43.4635 6.11594 43.8995 7.17457 43.8995 8.2782C43.8995 9.38179 43.4635 10.4405 42.6871 11.2228L26.6302 27.3131L26.6294 27.3139C26.4264 27.5147 26.1689 27.6512 25.8891 27.7063L25.888 27.7065ZM18.4586 26.1943L24.8853 24.9023L36.1218 13.6423L30.985 8.49484L19.7476 19.7556L18.4586 26.1943ZM33.0325 6.44118L38.1712 11.5906L40.6194 9.11741C40.7372 9.0054 40.8312 8.87071 40.8956 8.72143C40.961 8.57013 40.9947 8.40704 40.9947 8.2422C40.9947 8.07737 40.961 7.91427 40.8956 7.76297C40.8311 7.61347 40.7369 7.4786 40.6189 7.36649L37.2489 3.98944C37.137 3.87116 37.0023 3.77674 36.8529 3.71194C36.7018 3.64635 36.5387 3.61251 36.3739 3.61251C36.2092 3.61251 36.0461 3.64635 35.8949 3.71194C35.7458 3.77664 35.6113 3.87086 35.4996 3.98889L33.0325 6.44118Z" fill="#FFD633"/>
<path fill-rule="evenodd" clip-rule="evenodd" d="M33.68 43.9003H6.7354C5.15913 43.9003 3.64728 43.2729 2.53247 42.1557C1.41763 41.0386 0.791197 39.5232 0.791197 37.943V10.9423C0.791197 9.36214 1.41763 7.8468 2.53247 6.72965C3.64728 5.61252 5.15913 4.98505 6.7354 4.98505H18.4114C18.7966 4.98505 19.1662 5.1384 19.4389 5.4116C19.7115 5.68482 19.8648 6.05553 19.8648 6.44223C19.8648 6.82894 19.7115 7.19965 19.4389 7.47287C19.1662 7.74607 18.7966 7.89942 18.4114 7.89942H6.7354C5.92963 7.89942 5.157 8.22019 4.58745 8.79093C4.01792 9.36164 3.69809 10.1355 3.69809 10.9423V37.943C3.69809 38.7498 4.01792 39.5237 4.58745 40.0945C5.157 40.6652 5.92963 40.986 6.7354 40.986H33.68C34.4857 40.986 35.2584 40.6652 35.8279 40.0945C36.3974 39.5237 36.7173 38.7498 36.7173 37.943V26.2427C36.7173 25.856 36.8706 25.4853 37.1432 25.2121C37.4159 24.9389 37.7855 24.7855 38.1707 24.7855C38.556 24.7855 38.9256 24.9389 39.1982 25.2121C39.4709 25.4853 39.6242 25.856 39.6242 26.2427V37.943C39.6242 39.5232 38.9977 41.0386 37.8829 42.1557C36.7681 43.2729 35.2562 43.9003 33.68 43.9003Z" fill="#FFD633"/>
</svg>
