<svg width="38" height="38" viewBox="0 0 38 38" fill="none" xmlns="http://www.w3.org/2000/svg">
<path d="M27.3989 12.9712C27.9787 13.551 27.9787 14.4909 27.3989 15.0705L17.4408 25.0288C16.861 25.6084 15.9214 25.6084 15.3415 25.0288L10.6011 20.2881C10.0213 19.7086 10.0213 18.7686 10.6011 18.1891C11.1806 17.6093 12.1206 17.6093 12.7001 18.1891L16.391 21.88L25.2996 12.9712C25.8794 12.3916 26.8194 12.3916 27.3989 12.9712V12.9712ZM38 19C38 29.5022 29.5008 38 19 38C8.49776 38 0 29.5008 0 19C0 8.49776 8.49921 0 19 0C29.5022 0 38 8.49921 38 19ZM35.0312 19C35.0312 10.1387 27.8602 2.96875 19 2.96875C10.1387 2.96875 2.96875 10.1398 2.96875 19C2.96875 27.8613 10.1398 35.0312 19 35.0312C27.8613 35.0312 35.0312 27.8602 35.0312 19Z" fill="#FFD633"/>
</svg>
